ISO-10303-21;
HEADER;
FILE_DESCRIPTION (( 'STEP AP214' ),
    '1' );
FILE_NAME ('cooling_block_V2.STEP',
    '2026-07-06T15:39:46',
    ( '' ),
    ( '' ),
    'SwSTEP 2.0',
    'SolidWorks 2025',
    '' );
FILE_SCHEMA (( 'AUTOMOTIVE_DESIGN' ));
ENDSEC;

DATA;
#1 = VERTEX_POINT ( 'NONE', #220 ) ;
#2 = CARTESIAN_POINT ( 'NONE',  ( 0.000000000000000000, 2.000000000000000000, 10.00000000000000000 ) ) ;
#3 = ORIENTED_EDGE ( 'NONE', *, *, #249, .T. ) ;
#4 = ORIENTED_EDGE ( 'NONE', *, *, #371, .T. ) ;
#5 = ADVANCED_FACE ( 'NONE', ( #379 ), #98, .T. ) ;
#6 = CARTESIAN_POINT ( 'NONE',  ( -11.50000000000000000, 2.000000000000000000, 7.000000000000000000 ) ) ;
#7 = ORIENTED_EDGE ( 'NONE', *, *, #334, .F. ) ;
#8 = DIRECTION ( 'NONE',  ( 0.000000000000000000, -1.000000000000000000, 0.000000000000000000 ) ) ;
#9 = ADVANCED_FACE ( 'NONE', ( #282 ), #248, .T. ) ;
#10 =( GEOMETRIC_REPRESENTATION_CONTEXT ( 3 ) GLOBAL_UNCERTAINTY_ASSIGNED_CONTEXT ( ( #110 ) ) GLOBAL_UNIT_ASSIGNED_CONTEXT ( ( #199, #385, #172 ) ) REPRESENTATION_CONTEXT ( 'NONE', 'WORKASPACE' ) );
#11 = DIRECTION ( 'NONE',  ( 0.000000000000000000, 0.000000000000000000, 1.000000000000000000 ) ) ;
#12 = LINE ( 'NONE', #229, #304 ) ;
#13 = DIRECTION ( 'NONE',  ( 0.000000000000000000, 0.000000000000000000, 1.000000000000000000 ) ) ;
#14 = VERTEX_POINT ( 'NONE', #60 ) ;
#15 = EDGE_CURVE ( 'NONE', #26, #86, #222, .T. ) ;
#16 = SURFACE_STYLE_USAGE ( .BOTH. , #165 ) ;
#17 = AXIS2_PLACEMENT_3D ( 'NONE', #95, #310, #394 ) ;
#18 = FACE_OUTER_BOUND ( 'NONE', #73, .T. ) ;
#19 = CYLINDRICAL_SURFACE ( 'NONE', #354, 3.000000000000000000 ) ;
#20 = FACE_BOUND ( 'NONE', #150, .T. ) ;
#21 = DIRECTION ( 'NONE',  ( 0.000000000000000000, 0.000000000000000000, -1.000000000000000000 ) ) ;
#22 = ORIENTED_EDGE ( 'NONE', *, *, #253, .F. ) ;
#23 = PRODUCT_CONTEXT ( 'NONE', #247, 'mechanical' ) ;
#24 = CARTESIAN_POINT ( 'NONE',  ( -8.500000000000000000, 18.00000000000000355, -7.000000000000000000 ) ) ;
#25 = ORIENTED_EDGE ( 'NONE', *, *, #219, .T. ) ;
#26 = VERTEX_POINT ( 'NONE', #6 ) ;
#27 = FACE_OUTER_BOUND ( 'NONE', #266, .T. ) ;
#28 = CYLINDRICAL_SURFACE ( 'NONE', #278, 20.00000000000000000 ) ;
#29 = EDGE_CURVE ( 'NONE', #159, #242, #97, .T. ) ;
#30 = LINE ( 'NONE', #109, #46 ) ;
#31 = AXIS2_PLACEMENT_3D ( 'NONE', #376, #313, #37 ) ;
#32 = VERTEX_POINT ( 'NONE', #349 ) ;
#33 = EDGE_CURVE ( 'NONE', #283, #181, #63, .T. ) ;
#34 = DIRECTION ( 'NONE',  ( 0.000000000000000000, 1.000000000000000000, -0.000000000000000000 ) ) ;
#35 = DIRECTION ( 'NONE',  ( 1.000000000000000000, -0.000000000000000000, 0.000000000000000000 ) ) ;
#36 = VECTOR ( 'NONE', #335, 1000.000000000000000 ) ;
#37 = DIRECTION ( 'NONE',  ( 0.000000000000000000, 0.000000000000000000, 1.000000000000000000 ) ) ;
#38 = ORIENTED_EDGE ( 'NONE', *, *, #158, .F. ) ;
#39 = EDGE_CURVE ( 'NONE', #32, #187, #162, .T. ) ;
#40 = VECTOR ( 'NONE', #260, 1000.000000000000000 ) ;
#41 = AXIS2_PLACEMENT_3D ( 'NONE', #91, #149, #236 ) ;
#42 = DIRECTION ( 'NONE',  ( -1.000000000000000000, 0.000000000000000000, 0.000000000000000000 ) ) ;
#43 = EDGE_CURVE ( 'NONE', #14, #115, #286, .T. ) ;
#44 = CARTESIAN_POINT ( 'NONE',  ( 3.499999999999999556, 2.000000000000000000, 7.000000000000000000 ) ) ;
#45 = VERTEX_POINT ( 'NONE', #215 ) ;
#46 = VECTOR ( 'NONE', #52, 1000.000000000000000 ) ;
#47 = FACE_OUTER_BOUND ( 'NONE', #250, .T. ) ;
#48 = ORIENTED_EDGE ( 'NONE', *, *, #104, .T. ) ;
#49 = APPLICATION_PROTOCOL_DEFINITION ( 'draft international standard', 'automotive_design', 1998, #247 ) ;
#50 = DIRECTION ( 'NONE',  ( 0.000000000000000000, 1.000000000000000000, 0.000000000000000000 ) ) ;
#51 = ORIENTED_EDGE ( 'NONE', *, *, #299, .F. ) ;
#52 = DIRECTION ( 'NONE',  ( -0.000000000000000000, -1.000000000000000000, -0.000000000000000000 ) ) ;
#53 = VERTEX_POINT ( 'NONE', #44 ) ;
#54 = VECTOR ( 'NONE', #176, 1000.000000000000000 ) ;
#55 = CARTESIAN_POINT ( 'NONE',  ( 3.499999999999999556, 18.00000000000000355, 7.000000000000000000 ) ) ;
#56 = DIRECTION ( 'NONE',  ( 0.000000000000000000, 0.000000000000000000, 1.000000000000000000 ) ) ;
#57 = CARTESIAN_POINT ( 'NONE',  ( -8.500000000000000000, 18.00000000000000355, 7.000000000000000000 ) ) ;
#58 = CARTESIAN_POINT ( 'NONE',  ( -11.50000000000000000, 18.00000000000000355, -7.000000000000000000 ) ) ;
#59 = ORIENTED_EDGE ( 'NONE', *, *, #340, .F. ) ;
#60 = CARTESIAN_POINT ( 'NONE',  ( -8.500000000000000000, 2.000000000000000000, -10.00000000000000000 ) ) ;
#61 = EDGE_LOOP ( 'NONE', ( #93, #339, #244, #197, #117, #383, #377, #156 ) ) ;
#62 = AXIS2_PLACEMENT_3D ( 'NONE', #323, #326, #11 ) ;
#63 = LINE ( 'NONE', #126, #193 ) ;
#64 = EDGE_CURVE ( 'NONE', #321, #1, #132, .T. ) ;
#65 = ORIENTED_EDGE ( 'NONE', *, *, #249, .F. ) ;
#66 = CARTESIAN_POINT ( 'NONE',  ( -8.500000000000000000, 2.000000000000001776, 7.000000000000000000 ) ) ;
#67 = PLANE ( 'NONE',  #297 ) ;
#68 = CARTESIAN_POINT ( 'NONE',  ( -11.50000000000000000, 18.00000000000000355, 0.000000000000000000 ) ) ;
#69 = AXIS2_PLACEMENT_3D ( 'NONE', #74, #234, #131 ) ;
#70 = AXIS2_PLACEMENT_3D ( 'NONE', #68, #42, #265 ) ;
#71 = AXIS2_PLACEMENT_3D ( 'NONE', #239, #82, #205 ) ;
#72 = FACE_OUTER_BOUND ( 'NONE', #281, .T. ) ;
#73 = EDGE_LOOP ( 'NONE', ( #303, #317 ) ) ;
#74 = CARTESIAN_POINT ( 'NONE',  ( 0.000000000000000000, 0.000000000000000000, 0.000000000000000000 ) ) ;
#75 = DIRECTION ( 'NONE',  ( -0.000000000000000000, -1.000000000000000000, -0.000000000000000000 ) ) ;
#76 = CARTESIAN_POINT ( 'NONE',  ( 0.000000000000000000, 0.000000000000000000, 0.000000000000000000 ) ) ;
#77 = CARTESIAN_POINT ( 'NONE',  ( -11.50000000000000000, 18.00000000000000355, 7.000000000000000000 ) ) ;
#78 = LINE ( 'NONE', #395, #230 ) ;
#79 = DIRECTION ( 'NONE',  ( 0.000000000000000000, 0.000000000000000000, 1.000000000000000000 ) ) ;
#80 = ADVANCED_FACE ( 'NONE', ( #355 ), #130, .F. ) ;
#81 = DIRECTION ( 'NONE',  ( 0.000000000000000000, 0.000000000000000000, -1.000000000000000000 ) ) ;
#82 = DIRECTION ( 'NONE',  ( -1.000000000000000000, 0.000000000000000000, 0.000000000000000000 ) ) ;
#83 = VERTEX_POINT ( 'NONE', #258 ) ;
#84 = ORIENTED_EDGE ( 'NONE', *, *, #104, .F. ) ;
#85 = CARTESIAN_POINT ( 'NONE',  ( 2.449293598294706513E-15, 2.000000000000000000, 20.00000000000000000 ) ) ;
#86 = VERTEX_POINT ( 'NONE', #77 ) ;
#87 = MANIFOLD_SOLID_BREP ( 'Fillet1', #211 ) ;
#88 = PRODUCT_RELATED_PRODUCT_CATEGORY ( 'part', '', ( #227 ) ) ;
#89 = DIRECTION ( 'NONE',  ( 0.000000000000000000, 1.000000000000000000, -0.000000000000000000 ) ) ;
#90 = CIRCLE ( 'NONE', #341, 3.000000000000000000 ) ;
#91 = CARTESIAN_POINT ( 'NONE',  ( 0.4999999999999995559, 2.000000000000001776, 7.000000000000000000 ) ) ;
#92 = DIRECTION ( 'NONE',  ( 0.000000000000000000, 0.000000000000000000, 1.000000000000000000 ) ) ;
#93 = ORIENTED_EDGE ( 'NONE', *, *, #334, .T. ) ;
#94 = CARTESIAN_POINT ( 'NONE',  ( 0.000000000000000000, 18.00000000000000355, 10.00000000000000000 ) ) ;
#95 = CARTESIAN_POINT ( 'NONE',  ( 0.4999999999999995559, 18.00000000000000355, -7.000000000000000000 ) ) ;
#96 = STYLED_ITEM ( 'NONE', ( #352 ), #87 ) ;
#97 = LINE ( 'NONE', #58, #375 ) ;
#98 = CYLINDRICAL_SURFACE ( 'NONE', #255, 3.000000000000000000 ) ;
#99 = ADVANCED_FACE ( 'NONE', ( #261 ), #19, .T. ) ;
#100 = ORIENTED_EDGE ( 'NONE', *, *, #158, .T. ) ;
#101 = VECTOR ( 'NONE', #157, 1000.000000000000000 ) ;
#102 = FACE_OUTER_BOUND ( 'NONE', #113, .T. ) ;
#103 = CARTESIAN_POINT ( 'NONE',  ( -8.500000000000000000, 18.00000000000000355, -7.000000000000000000 ) ) ;
#104 = EDGE_CURVE ( 'NONE', #115, #283, #90, .T. ) ;
#105 = DIRECTION ( 'NONE',  ( 0.000000000000000000, 0.000000000000000000, 1.000000000000000000 ) ) ;
#106 = PLANE ( 'NONE',  #200 ) ;
#107 = EDGE_LOOP ( 'NONE', ( #59, #319, #65, #125 ) ) ;
#108 = EDGE_CURVE ( 'NONE', #374, #240, #177, .T. ) ;
#109 = CARTESIAN_POINT ( 'NONE',  ( 0.000000000000000000, 2.000000000000000000, -20.00000000000000000 ) ) ;
#110 = UNCERTAINTY_MEASURE_WITH_UNIT (LENGTH_MEASURE( 1.000000000000000082E-05 ), #199, 'distance_accuracy_value', 'NONE');
#111 = PLANE ( 'NONE',  #71 ) ;
#112 = DIRECTION ( 'NONE',  ( -0.000000000000000000, -1.000000000000000000, -0.000000000000000000 ) ) ;
#113 = EDGE_LOOP ( 'NONE', ( #336, #206, #184, #401 ) ) ;
#114 = ADVANCED_FACE ( 'NONE', ( #102 ), #67, .T. ) ;
#115 = VERTEX_POINT ( 'NONE', #129 ) ;
#116 = DIRECTION ( 'NONE',  ( -0.000000000000000000, -1.000000000000000000, -0.000000000000000000 ) ) ;
#117 = ORIENTED_EDGE ( 'NONE', *, *, #39, .F. ) ;
#118 = CYLINDRICAL_SURFACE ( 'NONE', #201, 3.000000000000000000 ) ;
#119 = CIRCLE ( 'NONE', #406, 3.000000000000000000 ) ;
#120 = ORIENTED_EDGE ( 'NONE', *, *, #213, .F. ) ;
#121 = VERTEX_POINT ( 'NONE', #136 ) ;
#122 = ORIENTED_EDGE ( 'NONE', *, *, #371, .F. ) ;
#123 = ORIENTED_EDGE ( 'NONE', *, *, #407, .T. ) ;
#124 = DIRECTION ( 'NONE',  ( 1.000000000000000000, -0.000000000000000000, 0.000000000000000000 ) ) ;
#125 = ORIENTED_EDGE ( 'NONE', *, *, #245, .F. ) ;
#126 = CARTESIAN_POINT ( 'NONE',  ( 3.499999999999999556, 18.00000000000000355, -7.000000000000000000 ) ) ;
#127 = ORIENTED_EDGE ( 'NONE', *, *, #29, .T. ) ;
#128 = VECTOR ( 'NONE', #288, 1000.000000000000000 ) ;
#129 = CARTESIAN_POINT ( 'NONE',  ( 0.4999999999999995559, 2.000000000000000000, -10.00000000000000000 ) ) ;
#130 = PLANE ( 'NONE',  #135 ) ;
#131 = DIRECTION ( 'NONE',  ( 0.000000000000000000, -0.000000000000000000, 1.000000000000000000 ) ) ;
#132 = LINE ( 'NONE', #225, #128 ) ;
#133 = ORIENTED_EDGE ( 'NONE', *, *, #33, .T. ) ;
#134 = DIRECTION ( 'NONE',  ( 0.000000000000000000, 0.000000000000000000, 1.000000000000000000 ) ) ;
#135 = AXIS2_PLACEMENT_3D ( 'NONE', #196, #296, #320 ) ;
#136 = CARTESIAN_POINT ( 'NONE',  ( -8.500000000000000000, 2.000000000000000000, 10.00000000000000000 ) ) ;
#137 = ORIENTED_EDGE ( 'NONE', *, *, #33, .F. ) ;
#138 = ADVANCED_FACE ( 'NONE', ( #72 ), #393, .T. ) ;
#139 = DIRECTION ( 'NONE',  ( 0.000000000000000000, -1.000000000000000000, 0.000000000000000000 ) ) ;
#140 = ORIENTED_EDGE ( 'NONE', *, *, #219, .F. ) ;
#141 = CARTESIAN_POINT ( 'NONE',  ( 0.000000000000000000, 2.000000000000000000, 0.000000000000000000 ) ) ;
#142 = LINE ( 'NONE', #272, #382 ) ;
#143 = EDGE_LOOP ( 'NONE', ( #38, #140, #252, #289 ) ) ;
#144 = CARTESIAN_POINT ( 'NONE',  ( 0.4999999999999995559, 2.000000000000000000, 10.00000000000000000 ) ) ;
#145 = VECTOR ( 'NONE', #35, 1000.000000000000000 ) ;
#146 = EDGE_CURVE ( 'NONE', #187, #115, #12, .T. ) ;
#147 = ORIENTED_EDGE ( 'NONE', *, *, #378, .T. ) ;
#148 = CIRCLE ( 'NONE', #186, 3.000000000000000000 ) ;
#149 = DIRECTION ( 'NONE',  ( -0.000000000000000000, -1.000000000000000000, -0.000000000000000000 ) ) ;
#150 = EDGE_LOOP ( 'NONE', ( #284, #270, #123, #294, #332, #48, #122, #3 ) ) ;
#151 = CARTESIAN_POINT ( 'NONE',  ( 0.000000000000000000, 0.000000000000000000, 0.000000000000000000 ) ) ;
#152 = DIRECTION ( 'NONE',  ( 0.000000000000000000, 0.000000000000000000, -1.000000000000000000 ) ) ;
#153 = ADVANCED_FACE ( 'NONE', ( #194 ), #325, .T. ) ;
#154 = ORIENTED_EDGE ( 'NONE', *, *, #299, .T. ) ;
#155 = ORIENTED_EDGE ( 'NONE', *, *, #146, .F. ) ;
#156 = ORIENTED_EDGE ( 'NONE', *, *, #275, .T. ) ;
#157 = DIRECTION ( 'NONE',  ( -0.000000000000000000, 1.000000000000000000, -0.000000000000000000 ) ) ;
#158 = EDGE_CURVE ( 'NONE', #374, #83, #273, .T. ) ;
#159 = VERTEX_POINT ( 'NONE', #212 ) ;
#160 = AXIS2_PLACEMENT_3D ( 'NONE', #276, #300, #56 ) ;
#161 = DIRECTION ( 'NONE',  ( 0.000000000000000000, 0.000000000000000000, 1.000000000000000000 ) ) ;
#162 = LINE ( 'NONE', #315, #145 ) ;
#163 = CARTESIAN_POINT ( 'NONE',  ( 0.4999999999999995559, 18.00000000000000355, 7.000000000000000000 ) ) ;
#164 = AXIS2_PLACEMENT_3D ( 'NONE', #241, #112, #362 ) ;
#165 = SURFACE_SIDE_STYLE ('',( #389 ) ) ;
#166 = CARTESIAN_POINT ( 'NONE',  ( 0.4999999999999995559, 18.00000000000000355, -7.000000000000000000 ) ) ;
#167 = ORIENTED_EDGE ( 'NONE', *, *, #357, .F. ) ;
#168 = DIRECTION ( 'NONE',  ( 1.000000000000000000, 0.000000000000000000, 0.000000000000000000 ) ) ;
#169 = CARTESIAN_POINT ( 'NONE',  ( 0.000000000000000000, 18.00000000000000355, -10.00000000000000000 ) ) ;
#170 = EDGE_CURVE ( 'NONE', #240, #45, #30, .T. ) ;
#171 = PRESENTATION_LAYER_ASSIGNMENT (  '', '', ( #96 ) ) ;
#172 =( NAMED_UNIT ( * ) SI_UNIT ( $, .STERADIAN. ) SOLID_ANGLE_UNIT ( ) );
#173 = DIRECTION ( 'NONE',  ( 0.000000000000000000, -1.000000000000000000, 0.000000000000000000 ) ) ;
#174 = EDGE_CURVE ( 'NONE', #242, #14, #231, .T. ) ;
#175 = DIRECTION ( 'NONE',  ( -0.000000000000000000, 1.000000000000000000, -0.000000000000000000 ) ) ;
#176 = DIRECTION ( 'NONE',  ( 0.000000000000000000, 0.000000000000000000, -1.000000000000000000 ) ) ;
#177 = CIRCLE ( 'NONE', #62, 20.00000000000000000 ) ;
#178 = DIRECTION ( 'NONE',  ( -0.000000000000000000, -1.000000000000000000, -0.000000000000000000 ) ) ;
#179 = CARTESIAN_POINT ( 'NONE',  ( 3.499999999999999556, 18.00000000000000355, -7.000000000000000000 ) ) ;
#180 = PRODUCT_DEFINITION ( 'UNKNOWN', '', #192, #308 ) ;
#181 = VERTEX_POINT ( 'NONE', #179 ) ;
#182 = DIRECTION ( 'NONE',  ( 0.000000000000000000, 0.000000000000000000, 1.000000000000000000 ) ) ;
#183 = DIRECTION ( 'NONE',  ( -0.000000000000000000, 1.000000000000000000, -0.000000000000000000 ) ) ;
#184 = ORIENTED_EDGE ( 'NONE', *, *, #39, .T. ) ;
#185 = VERTEX_POINT ( 'NONE', #337 ) ;
#186 = AXIS2_PLACEMENT_3D ( 'NONE', #103, #34, #350 ) ;
#187 = VERTEX_POINT ( 'NONE', #338 ) ;
#188 = CIRCLE ( 'NONE', #41, 3.000000000000000000 ) ;
#189 = DIRECTION ( 'NONE',  ( -0.000000000000000000, -1.000000000000000000, -0.000000000000000000 ) ) ;
#190 = DIRECTION ( 'NONE',  ( -1.000000000000000000, 0.000000000000000000, -0.000000000000000000 ) ) ;
#191 = FILL_AREA_STYLE_COLOUR ( '', #369 ) ;
#192 = PRODUCT_DEFINITION_FORMATION_WITH_SPECIFIED_SOURCE ( 'ANY', '', #227, .NOT_KNOWN. ) ;
#193 = VECTOR ( 'NONE', #183, 1000.000000000000000 ) ;
#194 = FACE_OUTER_BOUND ( 'NONE', #365, .T. ) ;
#195 = ORIENTED_EDGE ( 'NONE', *, *, #322, .T. ) ;
#196 = CARTESIAN_POINT ( 'NONE',  ( 0.000000000000000000, 18.00000000000000355, 10.00000000000000000 ) ) ;
#197 = ORIENTED_EDGE ( 'NONE', *, *, #253, .T. ) ;
#198 =( NAMED_UNIT ( * ) PLANE_ANGLE_UNIT ( ) SI_UNIT ( $, .RADIAN. ) );
#199 =( LENGTH_UNIT ( ) NAMED_UNIT ( * ) SI_UNIT ( .MILLI., .METRE. ) );
#200 = AXIS2_PLACEMENT_3D ( 'NONE', #141, #361, #356 ) ;
#201 = AXIS2_PLACEMENT_3D ( 'NONE', #24, #173, #21 ) ;
#202 = CIRCLE ( 'NONE', #290, 20.00000000000000000 ) ;
#203 = CARTESIAN_POINT ( 'NONE',  ( -8.500000000000000000, 18.00000000000000355, -10.00000000000000000 ) ) ;
#204 = LINE ( 'NONE', #327, #277 ) ;
#205 = DIRECTION ( 'NONE',  ( 0.000000000000000000, 0.000000000000000000, 1.000000000000000000 ) ) ;
#206 = ORIENTED_EDGE ( 'NONE', *, *, #285, .T. ) ;
#207 = LINE ( 'NONE', #268, #40 ) ;
#208 = DIRECTION ( 'NONE',  ( 0.000000000000000000, 0.000000000000000000, 1.000000000000000000 ) ) ;
#209 = EDGE_LOOP ( 'NONE', ( #120, #318, #4, #133 ) ) ;
#210 = LINE ( 'NONE', #203, #329 ) ;
#211 = CLOSED_SHELL ( 'NONE', ( #226, #259, #364, #392, #80, #306, #114, #138, #9, #99, #5, #292, #153 ) ) ;
#212 = CARTESIAN_POINT ( 'NONE',  ( -11.50000000000000000, 18.00000000000000355, -7.000000000000000000 ) ) ;
#213 = EDGE_CURVE ( 'NONE', #185, #181, #403, .T. ) ;
#214 = DIRECTION ( 'NONE',  ( 1.000000000000000000, -0.000000000000000000, 0.000000000000000000 ) ) ;
#215 = CARTESIAN_POINT ( 'NONE',  ( 0.000000000000000000, 0.000000000000000000, -20.00000000000000000 ) ) ;
#216 = AXIS2_PLACEMENT_3D ( 'NONE', #76, #134, #168 ) ;
#217 = AXIS2_PLACEMENT_3D ( 'NONE', #151, #50, #208 ) ;
#218 = CARTESIAN_POINT ( 'NONE',  ( -11.50000000000000000, 18.00000000000000355, 7.000000000000000000 ) ) ;
#219 = EDGE_CURVE ( 'NONE', #240, #374, #397, .T. ) ;
#220 = CARTESIAN_POINT ( 'NONE',  ( 0.4999999999999995559, 18.00000000000000355, 10.00000000000000000 ) ) ;
#221 = ORIENTED_EDGE ( 'NONE', *, *, #108, .T. ) ;
#222 = LINE ( 'NONE', #218, #101 ) ;
#223 = VECTOR ( 'NONE', #178, 1000.000000000000000 ) ;
#224 = CIRCLE ( 'NONE', #291, 3.000000000000000000 ) ;
#225 = CARTESIAN_POINT ( 'NONE',  ( 0.4999999999999995559, 18.00000000000000355, 10.00000000000000000 ) ) ;
#226 = ADVANCED_FACE ( 'NONE', ( #27 ), #28, .T. ) ;
#227 = PRODUCT ( 'cooling_block_V2', 'cooling_block_V2', '', ( #23 ) ) ;
#228 = DIRECTION ( 'NONE',  ( 0.000000000000000000, 0.000000000000000000, -1.000000000000000000 ) ) ;
#229 = CARTESIAN_POINT ( 'NONE',  ( 0.4999999999999995559, 2.000000000000001776, -10.00000000000000000 ) ) ;
#230 = VECTOR ( 'NONE', #333, 1000.000000000000000 ) ;
#231 = CIRCLE ( 'NONE', #164, 3.000000000000000000 ) ;
#232 = PLANE ( 'NONE',  #69 ) ;
#233 = EDGE_CURVE ( 'NONE', #45, #83, #390, .T. ) ;
#234 = DIRECTION ( 'NONE',  ( 0.000000000000000000, 1.000000000000000000, 0.000000000000000000 ) ) ;
#235 = APPLICATION_PROTOCOL_DEFINITION ( 'draft international standard', 'automotive_design', 1998, #267 ) ;
#236 = DIRECTION ( 'NONE',  ( 0.000000000000000000, 0.000000000000000000, 1.000000000000000000 ) ) ;
#237 =( NAMED_UNIT ( * ) SI_UNIT ( $, .STERADIAN. ) SOLID_ANGLE_UNIT ( ) );
#238 =( GEOMETRIC_REPRESENTATION_CONTEXT ( 3 ) GLOBAL_UNCERTAINTY_ASSIGNED_CONTEXT ( ( #311 ) ) GLOBAL_UNIT_ASSIGNED_CONTEXT ( ( #264, #198, #237 ) ) REPRESENTATION_CONTEXT ( 'NONE', 'WORKASPACE' ) );
#239 = CARTESIAN_POINT ( 'NONE',  ( 3.499999999999999556, 18.00000000000000355, 0.000000000000000000 ) ) ;
#240 = VERTEX_POINT ( 'NONE', #330 ) ;
#241 = CARTESIAN_POINT ( 'NONE',  ( -8.500000000000000000, 2.000000000000001776, -7.000000000000000000 ) ) ;
#242 = VERTEX_POINT ( 'NONE', #243 ) ;
#243 = CARTESIAN_POINT ( 'NONE',  ( -11.50000000000000000, 2.000000000000000000, -7.000000000000000000 ) ) ;
#244 = ORIENTED_EDGE ( 'NONE', *, *, #213, .T. ) ;
#245 = EDGE_CURVE ( 'NONE', #185, #53, #305, .T. ) ;
#246 = DIRECTION ( 'NONE',  ( -0.000000000000000000, -1.000000000000000000, -0.000000000000000000 ) ) ;
#247 = APPLICATION_CONTEXT ( 'automotive_design' ) ;
#248 = PLANE ( 'NONE',  #31 ) ;
#249 = EDGE_CURVE ( 'NONE', #53, #321, #188, .T. ) ;
#250 = EDGE_LOOP ( 'NONE', ( #251, #372, #345, #363 ) ) ;
#251 = ORIENTED_EDGE ( 'NONE', *, *, #346, .F. ) ;
#252 = ORIENTED_EDGE ( 'NONE', *, *, #170, .T. ) ;
#253 = EDGE_CURVE ( 'NONE', #181, #187, #263, .T. ) ;
#254 = CARTESIAN_POINT ( 'NONE',  ( 0.000000000000000000, 2.000000000000000000, -10.00000000000000000 ) ) ;
#255 = AXIS2_PLACEMENT_3D ( 'NONE', #57, #316, #161 ) ;
#256 = DIRECTION ( 'NONE',  ( 1.000000000000000000, -0.000000000000000000, 0.000000000000000000 ) ) ;
#257 = FILL_AREA_STYLE ('',( #191 ) ) ;
#258 = CARTESIAN_POINT ( 'NONE',  ( 2.449293598294706513E-15, 0.000000000000000000, 20.00000000000000000 ) ) ;
#259 = ADVANCED_FACE ( 'NONE', ( #404 ), #368, .T. ) ;
#260 = DIRECTION ( 'NONE',  ( 0.000000000000000000, 0.000000000000000000, -1.000000000000000000 ) ) ;
#261 = FACE_OUTER_BOUND ( 'NONE', #107, .T. ) ;
#262 = AXIS2_PLACEMENT_3D ( 'NONE', #66, #189, #358 ) ;
#263 = CIRCLE ( 'NONE', #17, 3.000000000000000000 ) ;
#264 =( LENGTH_UNIT ( ) NAMED_UNIT ( * ) SI_UNIT ( .MILLI., .METRE. ) );
#265 = DIRECTION ( 'NONE',  ( 0.000000000000000000, 0.000000000000000000, 1.000000000000000000 ) ) ;
#266 = EDGE_LOOP ( 'NONE', ( #405, #100, #380, #301 ) ) ;
#267 = APPLICATION_CONTEXT ( 'automotive_design' ) ;
#268 = CARTESIAN_POINT ( 'NONE',  ( 3.499999999999999556, 2.000000000000000000, 0.000000000000000000 ) ) ;
#269 = DIRECTION ( 'NONE',  ( 0.000000000000000000, -1.000000000000000000, 0.000000000000000000 ) ) ;
#270 = ORIENTED_EDGE ( 'NONE', *, *, #357, .T. ) ;
#271 = VECTOR ( 'NONE', #214, 1000.000000000000000 ) ;
#272 = CARTESIAN_POINT ( 'NONE',  ( -8.500000000000000000, 2.000000000000001776, 10.00000000000000000 ) ) ;
#273 = LINE ( 'NONE', #85, #223 ) ;
#274 = EDGE_LOOP ( 'NONE', ( #195, #367, #7, #154 ) ) ;
#275 = EDGE_CURVE ( 'NONE', #86, #343, #119, .T. ) ;
#276 = CARTESIAN_POINT ( 'NONE',  ( 0.000000000000000000, 2.000000000000000000, 0.000000000000000000 ) ) ;
#277 = VECTOR ( 'NONE', #81, 1000.000000000000000 ) ;
#278 = AXIS2_PLACEMENT_3D ( 'NONE', #309, #116, #366 ) ;
#279 = VECTOR ( 'NONE', #256, 1000.000000000000000 ) ;
#280 = EDGE_LOOP ( 'NONE', ( #307, #400, #167, #51 ) ) ;
#281 = EDGE_LOOP ( 'NONE', ( #344, #347, #147, #127 ) ) ;
#282 = FACE_OUTER_BOUND ( 'NONE', #61, .T. ) ;
#283 = VERTEX_POINT ( 'NONE', #331 ) ;
#284 = ORIENTED_EDGE ( 'NONE', *, *, #322, .F. ) ;
#285 = EDGE_CURVE ( 'NONE', #14, #32, #210, .T. ) ;
#286 = LINE ( 'NONE', #254, #312 ) ;
#287 = ADVANCED_BREP_SHAPE_REPRESENTATION ( 'cooling_block_V2', ( #87, #216 ), #238 ) ;
#288 = DIRECTION ( 'NONE',  ( -0.000000000000000000, 1.000000000000000000, -0.000000000000000000 ) ) ;
#289 = ORIENTED_EDGE ( 'NONE', *, *, #233, .T. ) ;
#290 = AXIS2_PLACEMENT_3D ( 'NONE', #384, #381, #92 ) ;
#291 = AXIS2_PLACEMENT_3D ( 'NONE', #342, #351, #182 ) ;
#292 = ADVANCED_FACE ( 'NONE', ( #47 ), #118, .T. ) ;
#293 = DIRECTION ( 'NONE',  ( 0.000000000000000000, 0.000000000000000000, -1.000000000000000000 ) ) ;
#294 = ORIENTED_EDGE ( 'NONE', *, *, #174, .T. ) ;
#295 = DIRECTION ( 'NONE',  ( 0.000000000000000000, 1.000000000000000000, 0.000000000000000000 ) ) ;
#296 = DIRECTION ( 'NONE',  ( 0.000000000000000000, 0.000000000000000000, -1.000000000000000000 ) ) ;
#297 = AXIS2_PLACEMENT_3D ( 'NONE', #169, #293, #190 ) ;
#298 = CARTESIAN_POINT ( 'NONE',  ( 2.449293598294706513E-15, 2.000000000000000000, 20.00000000000000000 ) ) ;
#299 = EDGE_CURVE ( 'NONE', #343, #121, #142, .T. ) ;
#300 = DIRECTION ( 'NONE',  ( 0.000000000000000000, 1.000000000000000000, 0.000000000000000000 ) ) ;
#301 = ORIENTED_EDGE ( 'NONE', *, *, #170, .F. ) ;
#302 = CARTESIAN_POINT ( 'NONE',  ( 0.000000000000000000, 2.000000000000000000, 0.000000000000000000 ) ) ;
#303 = ORIENTED_EDGE ( 'NONE', *, *, #233, .F. ) ;
#304 = VECTOR ( 'NONE', #353, 1000.000000000000000 ) ;
#305 = LINE ( 'NONE', #55, #36 ) ;
#306 = ADVANCED_FACE ( 'NONE', ( #396 ), #111, .F. ) ;
#307 = ORIENTED_EDGE ( 'NONE', *, *, #275, .F. ) ;
#308 = PRODUCT_DEFINITION_CONTEXT ( 'detailed design', #267, 'design' ) ;
#309 = CARTESIAN_POINT ( 'NONE',  ( 0.000000000000000000, 2.000000000000000000, 0.000000000000000000 ) ) ;
#310 = DIRECTION ( 'NONE',  ( 0.000000000000000000, 1.000000000000000000, -0.000000000000000000 ) ) ;
#311 = UNCERTAINTY_MEASURE_WITH_UNIT (LENGTH_MEASURE( 1.000000000000000082E-05 ), #264, 'distance_accuracy_value', 'NONE');
#312 = VECTOR ( 'NONE', #124, 1000.000000000000000 ) ;
#313 = DIRECTION ( 'NONE',  ( 0.000000000000000000, 1.000000000000000000, -0.000000000000000000 ) ) ;
#314 = CARTESIAN_POINT ( 'NONE',  ( -8.500000000000000000, 18.00000000000000355, 10.00000000000000000 ) ) ;
#315 = CARTESIAN_POINT ( 'NONE',  ( 0.000000000000000000, 18.00000000000000355, -10.00000000000000000 ) ) ;
#316 = DIRECTION ( 'NONE',  ( 0.000000000000000000, 1.000000000000000000, 0.000000000000000000 ) ) ;
#317 = ORIENTED_EDGE ( 'NONE', *, *, #328, .F. ) ;
#318 = ORIENTED_EDGE ( 'NONE', *, *, #245, .T. ) ;
#319 = ORIENTED_EDGE ( 'NONE', *, *, #64, .F. ) ;
#320 = DIRECTION ( 'NONE',  ( -1.000000000000000000, 0.000000000000000000, -0.000000000000000000 ) ) ;
#321 = VERTEX_POINT ( 'NONE', #144 ) ;
#322 = EDGE_CURVE ( 'NONE', #121, #321, #399, .T. ) ;
#323 = CARTESIAN_POINT ( 'NONE',  ( 0.000000000000000000, 2.000000000000000000, 0.000000000000000000 ) ) ;
#324 = AXIS2_PLACEMENT_3D ( 'NONE', #166, #295, #13 ) ;
#325 = CYLINDRICAL_SURFACE ( 'NONE', #324, 3.000000000000000000 ) ;
#326 = DIRECTION ( 'NONE',  ( 0.000000000000000000, 1.000000000000000000, 0.000000000000000000 ) ) ;
#327 = CARTESIAN_POINT ( 'NONE',  ( -11.50000000000000000, 2.000000000000000000, -0.000000000000000000 ) ) ;
#328 = EDGE_CURVE ( 'NONE', #83, #45, #202, .T. ) ;
#329 = VECTOR ( 'NONE', #175, 1000.000000000000000 ) ;
#330 = CARTESIAN_POINT ( 'NONE',  ( 0.000000000000000000, 2.000000000000000000, -20.00000000000000000 ) ) ;
#331 = CARTESIAN_POINT ( 'NONE',  ( 3.499999999999999556, 2.000000000000000000, -7.000000000000000000 ) ) ;
#332 = ORIENTED_EDGE ( 'NONE', *, *, #43, .T. ) ;
#333 = DIRECTION ( 'NONE',  ( 0.000000000000000000, 0.000000000000000000, -1.000000000000000000 ) ) ;
#334 = EDGE_CURVE ( 'NONE', #343, #1, #386, .T. ) ;
#335 = DIRECTION ( 'NONE',  ( 0.000000000000000000, -1.000000000000000000, 0.000000000000000000 ) ) ;
#336 = ORIENTED_EDGE ( 'NONE', *, *, #43, .F. ) ;
#337 = CARTESIAN_POINT ( 'NONE',  ( 3.499999999999999556, 18.00000000000000355, 7.000000000000000000 ) ) ;
#338 = CARTESIAN_POINT ( 'NONE',  ( 0.4999999999999995559, 18.00000000000000355, -10.00000000000000000 ) ) ;
#339 = ORIENTED_EDGE ( 'NONE', *, *, #340, .T. ) ;
#340 = EDGE_CURVE ( 'NONE', #1, #185, #224, .T. ) ;
#341 = AXIS2_PLACEMENT_3D ( 'NONE', #387, #75, #105 ) ;
#342 = CARTESIAN_POINT ( 'NONE',  ( 0.4999999999999995559, 18.00000000000000355, 7.000000000000000000 ) ) ;
#343 = VERTEX_POINT ( 'NONE', #314 ) ;
#344 = ORIENTED_EDGE ( 'NONE', *, *, #407, .F. ) ;
#345 = ORIENTED_EDGE ( 'NONE', *, *, #174, .F. ) ;
#346 = EDGE_CURVE ( 'NONE', #32, #159, #148, .T. ) ;
#347 = ORIENTED_EDGE ( 'NONE', *, *, #15, .T. ) ;
#348 = AXIS2_PLACEMENT_3D ( 'NONE', #302, #246, #152 ) ;
#349 = CARTESIAN_POINT ( 'NONE',  ( -8.500000000000000000, 18.00000000000000355, -10.00000000000000000 ) ) ;
#350 = DIRECTION ( 'NONE',  ( 0.000000000000000000, 0.000000000000000000, 1.000000000000000000 ) ) ;
#351 = DIRECTION ( 'NONE',  ( 0.000000000000000000, 1.000000000000000000, -0.000000000000000000 ) ) ;
#352 = PRESENTATION_STYLE_ASSIGNMENT (( #16 ) ) ;
#353 = DIRECTION ( 'NONE',  ( 0.000000000000000000, -1.000000000000000000, 0.000000000000000000 ) ) ;
#354 = AXIS2_PLACEMENT_3D ( 'NONE', #163, #139, #228 ) ;
#355 = FACE_OUTER_BOUND ( 'NONE', #274, .T. ) ;
#356 = DIRECTION ( 'NONE',  ( 0.000000000000000000, -0.000000000000000000, 1.000000000000000000 ) ) ;
#357 = EDGE_CURVE ( 'NONE', #121, #26, #388, .T. ) ;
#358 = DIRECTION ( 'NONE',  ( 0.000000000000000000, 0.000000000000000000, 1.000000000000000000 ) ) ;
#359 = CARTESIAN_POINT ( 'NONE',  ( -8.500000000000000000, 18.00000000000000355, 7.000000000000000000 ) ) ;
#360 = MECHANICAL_DESIGN_GEOMETRIC_PRESENTATION_REPRESENTATION (  '', ( #96 ), #10 ) ;
#361 = DIRECTION ( 'NONE',  ( 0.000000000000000000, 1.000000000000000000, 0.000000000000000000 ) ) ;
#362 = DIRECTION ( 'NONE',  ( 1.156482317317871331E-15, 0.000000000000000000, 1.000000000000000000 ) ) ;
#363 = ORIENTED_EDGE ( 'NONE', *, *, #29, .F. ) ;
#364 = ADVANCED_FACE ( 'NONE', ( #20, #391 ), #106, .T. ) ;
#365 = EDGE_LOOP ( 'NONE', ( #22, #137, #84, #155 ) ) ;
#366 = DIRECTION ( 'NONE',  ( 0.000000000000000000, 0.000000000000000000, -1.000000000000000000 ) ) ;
#367 = ORIENTED_EDGE ( 'NONE', *, *, #64, .T. ) ;
#368 = CYLINDRICAL_SURFACE ( 'NONE', #348, 20.00000000000000000 ) ;
#369 = COLOUR_RGB ( '',0.7921568627450980005, 0.8196078431372548767, 0.9333333333333333481 ) ;
#370 = CARTESIAN_POINT ( 'NONE',  ( 3.499999999999999556, 18.00000000000000355, 0.000000000000000000 ) ) ;
#371 = EDGE_CURVE ( 'NONE', #53, #283, #207, .T. ) ;
#372 = ORIENTED_EDGE ( 'NONE', *, *, #285, .F. ) ;
#373 = EDGE_LOOP ( 'NONE', ( #25, #221 ) ) ;
#374 = VERTEX_POINT ( 'NONE', #298 ) ;
#375 = VECTOR ( 'NONE', #8, 1000.000000000000000 ) ;
#376 = CARTESIAN_POINT ( 'NONE',  ( 0.000000000000000000, 18.00000000000000355, 0.000000000000000000 ) ) ;
#377 = ORIENTED_EDGE ( 'NONE', *, *, #378, .F. ) ;
#378 = EDGE_CURVE ( 'NONE', #86, #159, #78, .T. ) ;
#379 = FACE_OUTER_BOUND ( 'NONE', #280, .T. ) ;
#380 = ORIENTED_EDGE ( 'NONE', *, *, #328, .T. ) ;
#381 = DIRECTION ( 'NONE',  ( 0.000000000000000000, 1.000000000000000000, 0.000000000000000000 ) ) ;
#382 = VECTOR ( 'NONE', #269, 1000.000000000000000 ) ;
#383 = ORIENTED_EDGE ( 'NONE', *, *, #346, .T. ) ;
#384 = CARTESIAN_POINT ( 'NONE',  ( 0.000000000000000000, 0.000000000000000000, 0.000000000000000000 ) ) ;
#385 =( NAMED_UNIT ( * ) PLANE_ANGLE_UNIT ( ) SI_UNIT ( $, .RADIAN. ) );
#386 = LINE ( 'NONE', #94, #271 ) ;
#387 = CARTESIAN_POINT ( 'NONE',  ( 0.4999999999999995559, 2.000000000000001776, -7.000000000000000000 ) ) ;
#388 = CIRCLE ( 'NONE', #262, 3.000000000000000000 ) ;
#389 = SURFACE_STYLE_FILL_AREA ( #257 ) ;
#390 = CIRCLE ( 'NONE', #217, 20.00000000000000000 ) ;
#391 = FACE_OUTER_BOUND ( 'NONE', #373, .T. ) ;
#392 = ADVANCED_FACE ( 'NONE', ( #18 ), #232, .F. ) ;
#393 = PLANE ( 'NONE',  #70 ) ;
#394 = DIRECTION ( 'NONE',  ( 0.000000000000000000, 0.000000000000000000, 1.000000000000000000 ) ) ;
#395 = CARTESIAN_POINT ( 'NONE',  ( -11.50000000000000000, 18.00000000000000355, 0.000000000000000000 ) ) ;
#396 = FACE_OUTER_BOUND ( 'NONE', #209, .T. ) ;
#397 = CIRCLE ( 'NONE', #160, 20.00000000000000000 ) ;
#398 = SHAPE_DEFINITION_REPRESENTATION ( #402, #287 ) ;
#399 = LINE ( 'NONE', #2, #279 ) ;
#400 = ORIENTED_EDGE ( 'NONE', *, *, #15, .F. ) ;
#401 = ORIENTED_EDGE ( 'NONE', *, *, #146, .T. ) ;
#402 = PRODUCT_DEFINITION_SHAPE ( 'NONE', 'NONE',  #180 ) ;
#403 = LINE ( 'NONE', #370, #54 ) ;
#404 = FACE_OUTER_BOUND ( 'NONE', #143, .T. ) ;
#405 = ORIENTED_EDGE ( 'NONE', *, *, #108, .F. ) ;
#406 = AXIS2_PLACEMENT_3D ( 'NONE', #359, #89, #79 ) ;
#407 = EDGE_CURVE ( 'NONE', #26, #242, #204, .T. ) ;
ENDSEC;
END-ISO-10303-21;
