%TF.GenerationSoftware,KiCad,Pcbnew,9.0.3*%
%TF.CreationDate,2026-05-02T11:15:43+02:00*%
%TF.ProjectId,camera_cooler,63616d65-7261-45f6-936f-6f6c65722e6b,rev?*%
%TF.SameCoordinates,PX7a8c120PY839b680*%
%TF.FileFunction,Paste,Bot*%
%TF.FilePolarity,Positive*%
%FSLAX46Y46*%
G04 Gerber Fmt 4.6, Leading zero omitted, Abs format (unit mm)*
G04 Created by KiCad (PCBNEW 9.0.3) date 2026-05-02 11:15:43*
%MOMM*%
%LPD*%
G01*
G04 APERTURE LIST*
G04 Aperture macros list*
%AMRoundRect*
0 Rectangle with rounded corners*
0 $1 Rounding radius*
0 $2 $3 $4 $5 $6 $7 $8 $9 X,Y pos of 4 corners*
0 Add a 4 corners polygon primitive as box body*
4,1,4,$2,$3,$4,$5,$6,$7,$8,$9,$2,$3,0*
0 Add four circle primitives for the rounded corners*
1,1,$1+$1,$2,$3*
1,1,$1+$1,$4,$5*
1,1,$1+$1,$6,$7*
1,1,$1+$1,$8,$9*
0 Add four rect primitives between the rounded corners*
20,1,$1+$1,$2,$3,$4,$5,0*
20,1,$1+$1,$4,$5,$6,$7,0*
20,1,$1+$1,$6,$7,$8,$9,0*
20,1,$1+$1,$8,$9,$2,$3,0*%
G04 Aperture macros list end*
%ADD10RoundRect,0.200000X-0.200000X-0.275000X0.200000X-0.275000X0.200000X0.275000X-0.200000X0.275000X0*%
%ADD11RoundRect,0.225000X0.250000X-0.225000X0.250000X0.225000X-0.250000X0.225000X-0.250000X-0.225000X0*%
%ADD12RoundRect,0.225000X-0.225000X-0.250000X0.225000X-0.250000X0.225000X0.250000X-0.225000X0.250000X0*%
%ADD13RoundRect,0.150000X-0.587500X-0.150000X0.587500X-0.150000X0.587500X0.150000X-0.587500X0.150000X0*%
%ADD14R,1.200000X1.400000*%
%ADD15R,0.532000X1.072000*%
%ADD16RoundRect,0.200000X0.200000X0.275000X-0.200000X0.275000X-0.200000X-0.275000X0.200000X-0.275000X0*%
%ADD17RoundRect,0.225000X0.225000X0.250000X-0.225000X0.250000X-0.225000X-0.250000X0.225000X-0.250000X0*%
%ADD18RoundRect,0.200000X-0.275000X0.200000X-0.275000X-0.200000X0.275000X-0.200000X0.275000X0.200000X0*%
%ADD19RoundRect,0.250000X0.250000X0.475000X-0.250000X0.475000X-0.250000X-0.475000X0.250000X-0.475000X0*%
%ADD20RoundRect,0.200000X0.275000X-0.200000X0.275000X0.200000X-0.275000X0.200000X-0.275000X-0.200000X0*%
%ADD21R,0.880000X0.200000*%
%ADD22R,0.200000X0.880000*%
%ADD23R,3.400000X3.400000*%
%ADD24RoundRect,0.250000X-0.250000X-0.475000X0.250000X-0.475000X0.250000X0.475000X-0.250000X0.475000X0*%
%ADD25RoundRect,0.225000X-0.250000X0.225000X-0.250000X-0.225000X0.250000X-0.225000X0.250000X0.225000X0*%
%ADD26O,2.045000X0.588000*%
%ADD27RoundRect,0.510205X0.739795X1.089795X-0.739795X1.089795X-0.739795X-1.089795X0.739795X-1.089795X0*%
%ADD28R,1.000000X1.600000*%
G04 APERTURE END LIST*
D10*
%TO.C,R9*%
X24030000Y34430000D03*
X25670000Y34430000D03*
%TD*%
D11*
%TO.C,C17*%
X32600000Y38320000D03*
X32600000Y39880000D03*
%TD*%
D12*
%TO.C,C22*%
X40220000Y38500000D03*
X41780000Y38500000D03*
%TD*%
D10*
%TO.C,R26*%
X14750000Y25600000D03*
X16390000Y25600000D03*
%TD*%
D13*
%TO.C,Q2*%
X27062500Y19550000D03*
X27062500Y21450000D03*
X28937500Y20500000D03*
%TD*%
D14*
%TO.C,U8*%
X35000000Y40330000D03*
X35000000Y42530000D03*
X36700000Y42530000D03*
X36700000Y40330000D03*
%TD*%
D10*
%TO.C,R8*%
X24030000Y31930000D03*
X25670000Y31930000D03*
%TD*%
D15*
%TO.C,U11*%
X17950000Y30950000D03*
X17000000Y30950000D03*
X16050000Y30950000D03*
X16050000Y33250000D03*
X17000000Y33250000D03*
X17950000Y33250000D03*
%TD*%
D16*
%TO.C,R15*%
X27170000Y38930000D03*
X25530000Y38930000D03*
%TD*%
D17*
%TO.C,C19*%
X38000000Y27180000D03*
X36440000Y27180000D03*
%TD*%
D12*
%TO.C,C15*%
X40190000Y28000000D03*
X41750000Y28000000D03*
%TD*%
D17*
%TO.C,C29*%
X28630000Y34430000D03*
X27070000Y34430000D03*
%TD*%
D10*
%TO.C,R20*%
X8980000Y6620000D03*
X10620000Y6620000D03*
%TD*%
D18*
%TO.C,R28*%
X23600000Y21320000D03*
X23600000Y19680000D03*
%TD*%
D19*
%TO.C,C44*%
X14250000Y32600000D03*
X12350000Y32600000D03*
%TD*%
%TO.C,C45*%
X41700000Y19250000D03*
X39800000Y19250000D03*
%TD*%
D20*
%TO.C,R30*%
X25200000Y19680000D03*
X25200000Y21320000D03*
%TD*%
D13*
%TO.C,Q3*%
X27062500Y12850000D03*
X27062500Y14750000D03*
X28937500Y13800000D03*
%TD*%
D21*
%TO.C,U7*%
X30840000Y29950000D03*
X30840000Y30350000D03*
X30840000Y30750000D03*
X30840000Y31150000D03*
X30840000Y31550000D03*
X30840000Y31950000D03*
X30840000Y32350000D03*
X30840000Y32750000D03*
X30840000Y33150000D03*
X30840000Y33550000D03*
X30840000Y33950000D03*
X30840000Y34350000D03*
X30840000Y34750000D03*
X30840000Y35150000D03*
X30840000Y35550000D03*
D22*
X31620000Y36320000D03*
X32020000Y36320000D03*
X32420000Y36320000D03*
X32820000Y36320000D03*
X33220000Y36320000D03*
X33620000Y36320000D03*
X34020000Y36320000D03*
X34420000Y36320000D03*
X34820000Y36320000D03*
X35220000Y36320000D03*
X35620000Y36320000D03*
X36020000Y36320000D03*
X36420000Y36320000D03*
X36820000Y36320000D03*
X37220000Y36320000D03*
D21*
X38000000Y35550000D03*
X38000000Y35150000D03*
X38000000Y34750000D03*
X38000000Y34350000D03*
X38000000Y33950000D03*
X38000000Y33550000D03*
X38000000Y33150000D03*
X38000000Y32750000D03*
X38000000Y32350000D03*
X38000000Y31950000D03*
X38000000Y31550000D03*
X38000000Y31150000D03*
X38000000Y30750000D03*
X38000000Y30350000D03*
X38000000Y29950000D03*
D22*
X37220000Y29180000D03*
X36820000Y29180000D03*
X36420000Y29180000D03*
X36020000Y29180000D03*
X35620000Y29180000D03*
X35220000Y29180000D03*
X34820000Y29180000D03*
X34420000Y29180000D03*
X34020000Y29180000D03*
X33620000Y29180000D03*
X33220000Y29180000D03*
X32820000Y29180000D03*
X32420000Y29180000D03*
X32020000Y29180000D03*
X31620000Y29180000D03*
D23*
X34420000Y32750000D03*
%TD*%
D10*
%TO.C,R17*%
X34780000Y38400000D03*
X36420000Y38400000D03*
%TD*%
D18*
%TO.C,R12*%
X31600000Y26020000D03*
X31600000Y24380000D03*
%TD*%
D11*
%TO.C,C35*%
X12050000Y6590000D03*
X12050000Y8150000D03*
%TD*%
D24*
%TO.C,C34*%
X15750000Y2100000D03*
X17650000Y2100000D03*
%TD*%
D17*
%TO.C,C30*%
X28630000Y29400000D03*
X27070000Y29400000D03*
%TD*%
D18*
%TO.C,R11*%
X33100000Y26020000D03*
X33100000Y24380000D03*
%TD*%
%TO.C,R24*%
X16320000Y28920000D03*
X16320000Y27280000D03*
%TD*%
%TO.C,R32*%
X30712500Y14620000D03*
X30712500Y12980000D03*
%TD*%
D17*
%TO.C,C23*%
X28580000Y31250000D03*
X27020000Y31250000D03*
%TD*%
%TO.C,C39*%
X19350000Y23850000D03*
X17790000Y23850000D03*
%TD*%
%TO.C,C43*%
X14330000Y30850000D03*
X12770000Y30850000D03*
%TD*%
D11*
%TO.C,C42*%
X19320000Y27320000D03*
X19320000Y28880000D03*
%TD*%
%TO.C,C28*%
X30800000Y38320000D03*
X30800000Y39880000D03*
%TD*%
D20*
%TO.C,R33*%
X25212500Y12980000D03*
X25212500Y14620000D03*
%TD*%
D25*
%TO.C,C32*%
X28400000Y25960000D03*
X28400000Y24400000D03*
%TD*%
D10*
%TO.C,R22*%
X8980000Y8120000D03*
X10620000Y8120000D03*
%TD*%
D20*
%TO.C,R25*%
X17820000Y27280000D03*
X17820000Y28920000D03*
%TD*%
D18*
%TO.C,R29*%
X30700000Y21340000D03*
X30700000Y19700000D03*
%TD*%
D12*
%TO.C,C24*%
X40190000Y32500000D03*
X41750000Y32500000D03*
%TD*%
%TO.C,C25*%
X40190000Y31000000D03*
X41750000Y31000000D03*
%TD*%
D25*
%TO.C,C31*%
X29900000Y25960000D03*
X29900000Y24400000D03*
%TD*%
D10*
%TO.C,R23*%
X17755000Y25600000D03*
X19395000Y25600000D03*
%TD*%
D26*
%TO.C,U9*%
X14230000Y4200000D03*
X14230000Y5470000D03*
X14230000Y6730000D03*
X14230000Y8000000D03*
X19370000Y8000000D03*
X19370000Y6730000D03*
X19370000Y5470000D03*
X19370000Y4200000D03*
%TD*%
D12*
%TO.C,C26*%
X40190000Y35500000D03*
X41750000Y35500000D03*
%TD*%
D11*
%TO.C,C18*%
X38500000Y41220000D03*
X38500000Y42780000D03*
%TD*%
D12*
%TO.C,C21*%
X40190000Y34000000D03*
X41750000Y34000000D03*
%TD*%
D16*
%TO.C,R7*%
X41790000Y29500000D03*
X40150000Y29500000D03*
%TD*%
D27*
%TO.C,R21*%
X12962500Y15200000D03*
X7037500Y15200000D03*
%TD*%
D12*
%TO.C,C16*%
X36440000Y25680000D03*
X38000000Y25680000D03*
%TD*%
D10*
%TO.C,R13*%
X25530000Y35930000D03*
X27170000Y35930000D03*
%TD*%
D16*
%TO.C,R16*%
X27170000Y40425000D03*
X25530000Y40425000D03*
%TD*%
D18*
%TO.C,R31*%
X23712500Y14620000D03*
X23712500Y12980000D03*
%TD*%
D28*
%TO.C,L3*%
X38220000Y23680000D03*
X36220000Y23680000D03*
%TD*%
D17*
%TO.C,C33*%
X12080000Y4100000D03*
X10520000Y4100000D03*
%TD*%
D19*
%TO.C,C46*%
X41700000Y12750000D03*
X39800000Y12750000D03*
%TD*%
D10*
%TO.C,R14*%
X25530000Y37430000D03*
X27170000Y37430000D03*
%TD*%
D16*
%TO.C,R27*%
X14370000Y34350000D03*
X12730000Y34350000D03*
%TD*%
D12*
%TO.C,C27*%
X40220000Y37000000D03*
X41780000Y37000000D03*
%TD*%
M02*
