%TF.GenerationSoftware,KiCad,Pcbnew,9.0.3*%
%TF.CreationDate,2026-05-02T11:15:43+02:00*%
%TF.ProjectId,camera_cooler,63616d65-7261-45f6-936f-6f6c65722e6b,rev?*%
%TF.SameCoordinates,PX7a8c120PY839b680*%
%TF.FileFunction,Soldermask,Top*%
%TF.FilePolarity,Negative*%
%FSLAX46Y46*%
G04 Gerber Fmt 4.6, Leading zero omitted, Abs format (unit mm)*
G04 Created by KiCad (PCBNEW 9.0.3) date 2026-05-02 11:15:43*
%MOMM*%
%LPD*%
G01*
G04 APERTURE LIST*
G04 APERTURE END LIST*
G36*
X16250000Y1570000D02*
G01*
X15250000Y1570000D01*
X15250000Y2270000D01*
X16250000Y2270000D01*
X16250000Y1570000D01*
G37*
G36*
X20750000Y1570000D02*
G01*
X19750000Y1570000D01*
X19750000Y2270000D01*
X20750000Y2270000D01*
X20750000Y1570000D01*
G37*
G36*
X23250000Y1570000D02*
G01*
X22250000Y1570000D01*
X22250000Y2270000D01*
X23250000Y2270000D01*
X23250000Y1570000D01*
G37*
G36*
X27750000Y1570000D02*
G01*
X26750000Y1570000D01*
X26750000Y2270000D01*
X27750000Y2270000D01*
X27750000Y1570000D01*
G37*
G36*
X14279047Y2617195D02*
G01*
X14327661Y2611555D01*
X14344271Y2604221D01*
X14366079Y2599883D01*
X14389425Y2584284D01*
X14409012Y2575635D01*
X14422390Y2562257D01*
X14443291Y2548291D01*
X14457256Y2527391D01*
X14470634Y2514013D01*
X14479281Y2494428D01*
X14494883Y2471079D01*
X14499221Y2449269D01*
X14506554Y2432662D01*
X14512192Y2384058D01*
X14513000Y2380000D01*
X14513000Y1980000D01*
X14512192Y1975941D01*
X14506554Y1927339D01*
X14499221Y1910734D01*
X14494883Y1888921D01*
X14479280Y1865571D01*
X14470634Y1845988D01*
X14457258Y1832613D01*
X14443291Y1811709D01*
X14422387Y1797742D01*
X14409012Y1784366D01*
X14389429Y1775720D01*
X14366079Y1760117D01*
X14344266Y1755779D01*
X14327661Y1748446D01*
X14279059Y1742808D01*
X14275000Y1742000D01*
X13725000Y1742000D01*
X13720942Y1742808D01*
X13672338Y1748446D01*
X13655731Y1755779D01*
X13633921Y1760117D01*
X13610572Y1775719D01*
X13590987Y1784366D01*
X13577609Y1797744D01*
X13556709Y1811709D01*
X13542743Y1832610D01*
X13529365Y1845988D01*
X13520716Y1865575D01*
X13505117Y1888921D01*
X13500779Y1910729D01*
X13493445Y1927339D01*
X13487805Y1975953D01*
X13487000Y1980000D01*
X13487000Y2380000D01*
X13487804Y2384046D01*
X13493445Y2432662D01*
X13500779Y2449273D01*
X13505117Y2471079D01*
X13520715Y2494424D01*
X13529365Y2514013D01*
X13542745Y2527394D01*
X13556709Y2548291D01*
X13577606Y2562255D01*
X13590987Y2575635D01*
X13610576Y2584285D01*
X13633921Y2599883D01*
X13655727Y2604221D01*
X13672338Y2611555D01*
X13720954Y2617196D01*
X13725000Y2618000D01*
X14275000Y2618000D01*
X14279047Y2617195D01*
G37*
G36*
X29279047Y2617195D02*
G01*
X29327661Y2611555D01*
X29344271Y2604221D01*
X29366079Y2599883D01*
X29389425Y2584284D01*
X29409012Y2575635D01*
X29422390Y2562257D01*
X29443291Y2548291D01*
X29457256Y2527391D01*
X29470634Y2514013D01*
X29479281Y2494428D01*
X29494883Y2471079D01*
X29499221Y2449269D01*
X29506554Y2432662D01*
X29512192Y2384058D01*
X29513000Y2380000D01*
X29513000Y1980000D01*
X29512192Y1975941D01*
X29506554Y1927339D01*
X29499221Y1910734D01*
X29494883Y1888921D01*
X29479280Y1865571D01*
X29470634Y1845988D01*
X29457258Y1832613D01*
X29443291Y1811709D01*
X29422387Y1797742D01*
X29409012Y1784366D01*
X29389429Y1775720D01*
X29366079Y1760117D01*
X29344266Y1755779D01*
X29327661Y1748446D01*
X29279059Y1742808D01*
X29275000Y1742000D01*
X28725000Y1742000D01*
X28720942Y1742808D01*
X28672338Y1748446D01*
X28655731Y1755779D01*
X28633921Y1760117D01*
X28610572Y1775719D01*
X28590987Y1784366D01*
X28577609Y1797744D01*
X28556709Y1811709D01*
X28542743Y1832610D01*
X28529365Y1845988D01*
X28520716Y1865575D01*
X28505117Y1888921D01*
X28500779Y1910729D01*
X28493445Y1927339D01*
X28487805Y1975953D01*
X28487000Y1980000D01*
X28487000Y2380000D01*
X28487804Y2384046D01*
X28493445Y2432662D01*
X28500779Y2449273D01*
X28505117Y2471079D01*
X28520715Y2494424D01*
X28529365Y2514013D01*
X28542745Y2527394D01*
X28556709Y2548291D01*
X28577606Y2562255D01*
X28590987Y2575635D01*
X28610576Y2584285D01*
X28633921Y2599883D01*
X28655727Y2604221D01*
X28672338Y2611555D01*
X28720954Y2617196D01*
X28725000Y2618000D01*
X29275000Y2618000D01*
X29279047Y2617195D01*
G37*
G36*
X3256790Y4069607D02*
G01*
X3420952Y4016267D01*
X3574748Y3937904D01*
X3714393Y3836447D01*
X3836447Y3714393D01*
X3937904Y3574748D01*
X4016267Y3420952D01*
X4069607Y3256790D01*
X4096609Y3086305D01*
X4096609Y2913695D01*
X4069607Y2743210D01*
X4016267Y2579048D01*
X3937904Y2425252D01*
X3836447Y2285607D01*
X3714393Y2163553D01*
X3574748Y2062096D01*
X3420952Y1983733D01*
X3256790Y1930393D01*
X3086305Y1903391D01*
X2913695Y1903391D01*
X2743210Y1930393D01*
X2579048Y1983733D01*
X2425252Y2062096D01*
X2285607Y2163553D01*
X2163553Y2285607D01*
X2062096Y2425252D01*
X1983733Y2579048D01*
X1930393Y2743210D01*
X1903391Y2913695D01*
X1903391Y3086305D01*
X1930393Y3256790D01*
X1983733Y3420952D01*
X2062096Y3574748D01*
X2163553Y3714393D01*
X2285607Y3836447D01*
X2425252Y3937904D01*
X2579048Y4016267D01*
X2743210Y4069607D01*
X2913695Y4096609D01*
X3086305Y4096609D01*
X3256790Y4069607D01*
G37*
G36*
X35256790Y4069607D02*
G01*
X35420952Y4016267D01*
X35574748Y3937904D01*
X35714393Y3836447D01*
X35836447Y3714393D01*
X35937904Y3574748D01*
X36016267Y3420952D01*
X36069607Y3256790D01*
X36096609Y3086305D01*
X36096609Y2913695D01*
X36069607Y2743210D01*
X36016267Y2579048D01*
X35937904Y2425252D01*
X35836447Y2285607D01*
X35714393Y2163553D01*
X35574748Y2062096D01*
X35420952Y1983733D01*
X35256790Y1930393D01*
X35086305Y1903391D01*
X34913695Y1903391D01*
X34743210Y1930393D01*
X34579048Y1983733D01*
X34425252Y2062096D01*
X34285607Y2163553D01*
X34163553Y2285607D01*
X34062096Y2425252D01*
X33983733Y2579048D01*
X33930393Y2743210D01*
X33903391Y2913695D01*
X33903391Y3086305D01*
X33930393Y3256790D01*
X33983733Y3420952D01*
X34062096Y3574748D01*
X34163553Y3714393D01*
X34285607Y3836447D01*
X34425252Y3937904D01*
X34579048Y4016267D01*
X34743210Y4069607D01*
X34913695Y4096609D01*
X35086305Y4096609D01*
X35256790Y4069607D01*
G37*
G36*
X7991342Y4161940D02*
G01*
X8104381Y4096677D01*
X8196677Y4004381D01*
X8261940Y3891342D01*
X8295722Y3765263D01*
X8295722Y3634737D01*
X8261940Y3508658D01*
X8196677Y3395619D01*
X8104381Y3303323D01*
X7991342Y3238060D01*
X7865263Y3204278D01*
X7734737Y3204278D01*
X7608658Y3238060D01*
X7495619Y3303323D01*
X7403323Y3395619D01*
X7338060Y3508658D01*
X7304278Y3634737D01*
X7304278Y3765263D01*
X7338060Y3891342D01*
X7403323Y4004381D01*
X7495619Y4096677D01*
X7608658Y4161940D01*
X7734737Y4195722D01*
X7865263Y4195722D01*
X7991342Y4161940D01*
G37*
G36*
X14279047Y4257195D02*
G01*
X14327661Y4251555D01*
X14344271Y4244221D01*
X14366079Y4239883D01*
X14389425Y4224284D01*
X14409012Y4215635D01*
X14422390Y4202257D01*
X14443291Y4188291D01*
X14457256Y4167391D01*
X14470634Y4154013D01*
X14479281Y4134428D01*
X14494883Y4111079D01*
X14499221Y4089269D01*
X14506554Y4072662D01*
X14512192Y4024058D01*
X14513000Y4020000D01*
X14513000Y3620000D01*
X14512192Y3615941D01*
X14506554Y3567339D01*
X14499221Y3550734D01*
X14494883Y3528921D01*
X14479280Y3505571D01*
X14470634Y3485988D01*
X14457258Y3472613D01*
X14443291Y3451709D01*
X14422387Y3437742D01*
X14409012Y3424366D01*
X14389429Y3415720D01*
X14366079Y3400117D01*
X14344266Y3395779D01*
X14327661Y3388446D01*
X14279059Y3382808D01*
X14275000Y3382000D01*
X13725000Y3382000D01*
X13720942Y3382808D01*
X13672338Y3388446D01*
X13655731Y3395779D01*
X13633921Y3400117D01*
X13610572Y3415719D01*
X13590987Y3424366D01*
X13577609Y3437744D01*
X13556709Y3451709D01*
X13542743Y3472610D01*
X13529365Y3485988D01*
X13520716Y3505575D01*
X13505117Y3528921D01*
X13500779Y3550729D01*
X13493445Y3567339D01*
X13487805Y3615953D01*
X13487000Y3620000D01*
X13487000Y4020000D01*
X13487804Y4024046D01*
X13493445Y4072662D01*
X13500779Y4089273D01*
X13505117Y4111079D01*
X13520715Y4134424D01*
X13529365Y4154013D01*
X13542745Y4167394D01*
X13556709Y4188291D01*
X13577606Y4202255D01*
X13590987Y4215635D01*
X13610576Y4224285D01*
X13633921Y4239883D01*
X13655727Y4244221D01*
X13672338Y4251555D01*
X13720954Y4257196D01*
X13725000Y4258000D01*
X14275000Y4258000D01*
X14279047Y4257195D01*
G37*
G36*
X29279047Y4257195D02*
G01*
X29327661Y4251555D01*
X29344271Y4244221D01*
X29366079Y4239883D01*
X29389425Y4224284D01*
X29409012Y4215635D01*
X29422390Y4202257D01*
X29443291Y4188291D01*
X29457256Y4167391D01*
X29470634Y4154013D01*
X29479281Y4134428D01*
X29494883Y4111079D01*
X29499221Y4089269D01*
X29506554Y4072662D01*
X29512192Y4024058D01*
X29513000Y4020000D01*
X29513000Y3620000D01*
X29512192Y3615941D01*
X29506554Y3567339D01*
X29499221Y3550734D01*
X29494883Y3528921D01*
X29479280Y3505571D01*
X29470634Y3485988D01*
X29457258Y3472613D01*
X29443291Y3451709D01*
X29422387Y3437742D01*
X29409012Y3424366D01*
X29389429Y3415720D01*
X29366079Y3400117D01*
X29344266Y3395779D01*
X29327661Y3388446D01*
X29279059Y3382808D01*
X29275000Y3382000D01*
X28725000Y3382000D01*
X28720942Y3382808D01*
X28672338Y3388446D01*
X28655731Y3395779D01*
X28633921Y3400117D01*
X28610572Y3415719D01*
X28590987Y3424366D01*
X28577609Y3437744D01*
X28556709Y3451709D01*
X28542743Y3472610D01*
X28529365Y3485988D01*
X28520716Y3505575D01*
X28505117Y3528921D01*
X28500779Y3550729D01*
X28493445Y3567339D01*
X28487805Y3615953D01*
X28487000Y3620000D01*
X28487000Y4020000D01*
X28487804Y4024046D01*
X28493445Y4072662D01*
X28500779Y4089273D01*
X28505117Y4111079D01*
X28520715Y4134424D01*
X28529365Y4154013D01*
X28542745Y4167394D01*
X28556709Y4188291D01*
X28577606Y4202255D01*
X28590987Y4215635D01*
X28610576Y4224285D01*
X28633921Y4239883D01*
X28655727Y4244221D01*
X28672338Y4251555D01*
X28720954Y4257196D01*
X28725000Y4258000D01*
X29275000Y4258000D01*
X29279047Y4257195D01*
G37*
G36*
X16250000Y3730000D02*
G01*
X15250000Y3730000D01*
X15250000Y4430000D01*
X16250000Y4430000D01*
X16250000Y3730000D01*
G37*
G36*
X20750000Y3730000D02*
G01*
X19750000Y3730000D01*
X19750000Y4430000D01*
X20750000Y4430000D01*
X20750000Y3730000D01*
G37*
G36*
X23250000Y3730000D02*
G01*
X22250000Y3730000D01*
X22250000Y4430000D01*
X23250000Y4430000D01*
X23250000Y3730000D01*
G37*
G36*
X27750000Y3730000D02*
G01*
X26750000Y3730000D01*
X26750000Y4430000D01*
X27750000Y4430000D01*
X27750000Y3730000D01*
G37*
G36*
X37490000Y9225000D02*
G01*
X35890000Y9225000D01*
X35890000Y10825000D01*
X37490000Y10825000D01*
X37490000Y9225000D01*
G37*
G36*
X39462228Y10790552D02*
G01*
X39607117Y10730537D01*
X39737515Y10643408D01*
X39848408Y10532515D01*
X39935537Y10402117D01*
X39995552Y10257228D01*
X40026148Y10103414D01*
X40026148Y9946586D01*
X39995552Y9792772D01*
X39935537Y9647883D01*
X39848408Y9517485D01*
X39737515Y9406592D01*
X39607117Y9319463D01*
X39462228Y9259448D01*
X39308414Y9228852D01*
X39151586Y9228852D01*
X38997772Y9259448D01*
X38852883Y9319463D01*
X38722485Y9406592D01*
X38611592Y9517485D01*
X38524463Y9647883D01*
X38464448Y9792772D01*
X38433852Y9946586D01*
X38433852Y10103414D01*
X38464448Y10257228D01*
X38524463Y10402117D01*
X38611592Y10532515D01*
X38722485Y10643408D01*
X38852883Y10730537D01*
X38997772Y10790552D01*
X39151586Y10821148D01*
X39308414Y10821148D01*
X39462228Y10790552D01*
G37*
G36*
X42002228Y10790552D02*
G01*
X42147117Y10730537D01*
X42277515Y10643408D01*
X42388408Y10532515D01*
X42475537Y10402117D01*
X42535552Y10257228D01*
X42566148Y10103414D01*
X42566148Y9946586D01*
X42535552Y9792772D01*
X42475537Y9647883D01*
X42388408Y9517485D01*
X42277515Y9406592D01*
X42147117Y9319463D01*
X42002228Y9259448D01*
X41848414Y9228852D01*
X41691586Y9228852D01*
X41537772Y9259448D01*
X41392883Y9319463D01*
X41262485Y9406592D01*
X41151592Y9517485D01*
X41064463Y9647883D01*
X41004448Y9792772D01*
X40973852Y9946586D01*
X40973852Y10103414D01*
X41004448Y10257228D01*
X41064463Y10402117D01*
X41151592Y10532515D01*
X41262485Y10643408D01*
X41392883Y10730537D01*
X41537772Y10790552D01*
X41691586Y10821148D01*
X41848414Y10821148D01*
X42002228Y10790552D01*
G37*
G36*
X24490000Y9700000D02*
G01*
X22890000Y9700000D01*
X22890000Y11300000D01*
X24490000Y11300000D01*
X24490000Y9700000D01*
G37*
G36*
X15592885Y11794944D02*
G01*
X15602918Y11794944D01*
X15642117Y11787147D01*
X15745078Y11770840D01*
X15778200Y11760078D01*
X15804799Y11754787D01*
X15842335Y11739240D01*
X15901762Y11719930D01*
X15957433Y11691565D01*
X15994967Y11676017D01*
X16017517Y11660950D01*
X16048539Y11645143D01*
X16132866Y11583876D01*
X16166113Y11561661D01*
X16173208Y11554566D01*
X16181817Y11548311D01*
X16298310Y11431818D01*
X16304564Y11423210D01*
X16311661Y11416113D01*
X16333878Y11382862D01*
X16395142Y11298540D01*
X16410947Y11267521D01*
X16426017Y11244967D01*
X16441566Y11207428D01*
X16469929Y11151763D01*
X16489235Y11092343D01*
X16504787Y11054799D01*
X16510078Y11028195D01*
X16520839Y10995079D01*
X16537145Y10892124D01*
X16544944Y10852918D01*
X16544944Y10842886D01*
X16546609Y10832373D01*
X16546609Y10667628D01*
X16544944Y10657116D01*
X16544944Y10647082D01*
X16537144Y10607874D01*
X16520839Y10504922D01*
X16510079Y10471808D01*
X16504787Y10445201D01*
X16489234Y10407654D01*
X16469929Y10348238D01*
X16441568Y10292578D01*
X16426017Y10255033D01*
X16410945Y10232477D01*
X16395142Y10201461D01*
X16333887Y10117151D01*
X16311661Y10083887D01*
X16304561Y10076788D01*
X16298310Y10068183D01*
X16181817Y9951690D01*
X16173212Y9945439D01*
X16166113Y9938339D01*
X16132849Y9916113D01*
X16048539Y9854858D01*
X16017523Y9839055D01*
X15994967Y9823983D01*
X15957422Y9808432D01*
X15901762Y9780071D01*
X15842346Y9760766D01*
X15804799Y9745213D01*
X15778192Y9739921D01*
X15745078Y9729161D01*
X15642126Y9712856D01*
X15602918Y9705056D01*
X15592884Y9705056D01*
X15582372Y9703391D01*
X15417628Y9703391D01*
X15407115Y9705056D01*
X15397082Y9705056D01*
X15357874Y9712855D01*
X15254921Y9729161D01*
X15221805Y9739922D01*
X15195201Y9745213D01*
X15157657Y9760765D01*
X15098237Y9780071D01*
X15042572Y9808434D01*
X15005033Y9823983D01*
X14982479Y9839053D01*
X14951460Y9854858D01*
X14867138Y9916122D01*
X14833887Y9938339D01*
X14826790Y9945436D01*
X14818182Y9951690D01*
X14701689Y10068183D01*
X14695434Y10076792D01*
X14688339Y10083887D01*
X14666124Y10117134D01*
X14604857Y10201461D01*
X14589050Y10232483D01*
X14573983Y10255033D01*
X14558435Y10292567D01*
X14530070Y10348238D01*
X14510760Y10407665D01*
X14495213Y10445201D01*
X14489922Y10471800D01*
X14479160Y10504922D01*
X14462853Y10607883D01*
X14455056Y10647082D01*
X14455056Y10657116D01*
X14453391Y10667628D01*
X14453391Y10832373D01*
X14455056Y10842886D01*
X14455056Y10852918D01*
X14462852Y10892114D01*
X14479160Y10995079D01*
X14489922Y11028203D01*
X14495213Y11054799D01*
X14510759Y11092332D01*
X14530070Y11151763D01*
X14558438Y11207439D01*
X14573983Y11244967D01*
X14589048Y11267514D01*
X14604857Y11298540D01*
X14666132Y11382879D01*
X14688339Y11416113D01*
X14695432Y11423207D01*
X14701689Y11431818D01*
X14818182Y11548311D01*
X14826793Y11554568D01*
X14833887Y11561661D01*
X14867121Y11583868D01*
X14951460Y11645143D01*
X14982486Y11660952D01*
X15005033Y11676017D01*
X15042561Y11691562D01*
X15098237Y11719930D01*
X15157668Y11739241D01*
X15195201Y11754787D01*
X15221797Y11760078D01*
X15254921Y11770840D01*
X15357883Y11787147D01*
X15397082Y11794944D01*
X15407115Y11794944D01*
X15417628Y11796609D01*
X15582372Y11796609D01*
X15592885Y11794944D01*
G37*
G36*
X26462228Y11265552D02*
G01*
X26607117Y11205537D01*
X26737515Y11118408D01*
X26848408Y11007515D01*
X26935537Y10877117D01*
X26995552Y10732228D01*
X27026148Y10578414D01*
X27026148Y10421586D01*
X26995552Y10267772D01*
X26935537Y10122883D01*
X26848408Y9992485D01*
X26737515Y9881592D01*
X26607117Y9794463D01*
X26462228Y9734448D01*
X26308414Y9703852D01*
X26151586Y9703852D01*
X25997772Y9734448D01*
X25852883Y9794463D01*
X25722485Y9881592D01*
X25611592Y9992485D01*
X25524463Y10122883D01*
X25464448Y10267772D01*
X25433852Y10421586D01*
X25433852Y10578414D01*
X25464448Y10732228D01*
X25524463Y10877117D01*
X25611592Y11007515D01*
X25722485Y11118408D01*
X25852883Y11205537D01*
X25997772Y11265552D01*
X26151586Y11296148D01*
X26308414Y11296148D01*
X26462228Y11265552D01*
G37*
G36*
X29002228Y11265552D02*
G01*
X29147117Y11205537D01*
X29277515Y11118408D01*
X29388408Y11007515D01*
X29475537Y10877117D01*
X29535552Y10732228D01*
X29566148Y10578414D01*
X29566148Y10421586D01*
X29535552Y10267772D01*
X29475537Y10122883D01*
X29388408Y9992485D01*
X29277515Y9881592D01*
X29147117Y9794463D01*
X29002228Y9734448D01*
X28848414Y9703852D01*
X28691586Y9703852D01*
X28537772Y9734448D01*
X28392883Y9794463D01*
X28262485Y9881592D01*
X28151592Y9992485D01*
X28064463Y10122883D01*
X28004448Y10267772D01*
X27973852Y10421586D01*
X27973852Y10578414D01*
X28004448Y10732228D01*
X28064463Y10877117D01*
X28151592Y11007515D01*
X28262485Y11118408D01*
X28392883Y11205537D01*
X28537772Y11265552D01*
X28691586Y11296148D01*
X28848414Y11296148D01*
X29002228Y11265552D01*
G37*
G36*
X31542228Y11265552D02*
G01*
X31687117Y11205537D01*
X31817515Y11118408D01*
X31928408Y11007515D01*
X32015537Y10877117D01*
X32075552Y10732228D01*
X32106148Y10578414D01*
X32106148Y10421586D01*
X32075552Y10267772D01*
X32015537Y10122883D01*
X31928408Y9992485D01*
X31817515Y9881592D01*
X31687117Y9794463D01*
X31542228Y9734448D01*
X31388414Y9703852D01*
X31231586Y9703852D01*
X31077772Y9734448D01*
X30932883Y9794463D01*
X30802485Y9881592D01*
X30691592Y9992485D01*
X30604463Y10122883D01*
X30544448Y10267772D01*
X30513852Y10421586D01*
X30513852Y10578414D01*
X30544448Y10732228D01*
X30604463Y10877117D01*
X30691592Y11007515D01*
X30802485Y11118408D01*
X30932883Y11205537D01*
X31077772Y11265552D01*
X31231586Y11296148D01*
X31388414Y11296148D01*
X31542228Y11265552D01*
G37*
G36*
X4756790Y12069607D02*
G01*
X4920952Y12016267D01*
X5074748Y11937904D01*
X5214393Y11836447D01*
X5336447Y11714393D01*
X5437904Y11574748D01*
X5516267Y11420952D01*
X5569607Y11256790D01*
X5596609Y11086305D01*
X5596609Y10913695D01*
X5569607Y10743210D01*
X5516267Y10579048D01*
X5437904Y10425252D01*
X5336447Y10285607D01*
X5214393Y10163553D01*
X5074748Y10062096D01*
X4920952Y9983733D01*
X4756790Y9930393D01*
X4586305Y9903391D01*
X4413695Y9903391D01*
X4243210Y9930393D01*
X4079048Y9983733D01*
X3925252Y10062096D01*
X3785607Y10163553D01*
X3663553Y10285607D01*
X3562096Y10425252D01*
X3483733Y10579048D01*
X3430393Y10743210D01*
X3403391Y10913695D01*
X3403391Y11086305D01*
X3430393Y11256790D01*
X3483733Y11420952D01*
X3562096Y11574748D01*
X3663553Y11714393D01*
X3785607Y11836447D01*
X3925252Y11937904D01*
X4079048Y12016267D01*
X4243210Y12069607D01*
X4413695Y12096609D01*
X4586305Y12096609D01*
X4756790Y12069607D01*
G37*
G36*
X15592885Y16794944D02*
G01*
X15602918Y16794944D01*
X15642117Y16787147D01*
X15745078Y16770840D01*
X15778200Y16760078D01*
X15804799Y16754787D01*
X15842335Y16739240D01*
X15901762Y16719930D01*
X15957433Y16691565D01*
X15994967Y16676017D01*
X16017517Y16660950D01*
X16048539Y16645143D01*
X16132866Y16583876D01*
X16166113Y16561661D01*
X16173208Y16554566D01*
X16181817Y16548311D01*
X16298310Y16431818D01*
X16304564Y16423210D01*
X16311661Y16416113D01*
X16333878Y16382862D01*
X16395142Y16298540D01*
X16410947Y16267521D01*
X16426017Y16244967D01*
X16441566Y16207428D01*
X16469929Y16151763D01*
X16489235Y16092343D01*
X16504787Y16054799D01*
X16510078Y16028195D01*
X16520839Y15995079D01*
X16537145Y15892124D01*
X16544944Y15852918D01*
X16544944Y15842886D01*
X16546609Y15832373D01*
X16546609Y15667628D01*
X16544944Y15657116D01*
X16544944Y15647082D01*
X16537144Y15607874D01*
X16520839Y15504922D01*
X16510079Y15471808D01*
X16504787Y15445201D01*
X16489234Y15407654D01*
X16469929Y15348238D01*
X16441568Y15292578D01*
X16426017Y15255033D01*
X16410945Y15232477D01*
X16395142Y15201461D01*
X16333887Y15117151D01*
X16311661Y15083887D01*
X16304561Y15076788D01*
X16298310Y15068183D01*
X16181817Y14951690D01*
X16173212Y14945439D01*
X16166113Y14938339D01*
X16132849Y14916113D01*
X16048539Y14854858D01*
X16017523Y14839055D01*
X15994967Y14823983D01*
X15957422Y14808432D01*
X15901762Y14780071D01*
X15842346Y14760766D01*
X15804799Y14745213D01*
X15778192Y14739921D01*
X15745078Y14729161D01*
X15642126Y14712856D01*
X15602918Y14705056D01*
X15592884Y14705056D01*
X15582372Y14703391D01*
X15417628Y14703391D01*
X15407115Y14705056D01*
X15397082Y14705056D01*
X15357874Y14712855D01*
X15254921Y14729161D01*
X15221805Y14739922D01*
X15195201Y14745213D01*
X15157657Y14760765D01*
X15098237Y14780071D01*
X15042572Y14808434D01*
X15005033Y14823983D01*
X14982479Y14839053D01*
X14951460Y14854858D01*
X14867138Y14916122D01*
X14833887Y14938339D01*
X14826790Y14945436D01*
X14818182Y14951690D01*
X14701689Y15068183D01*
X14695434Y15076792D01*
X14688339Y15083887D01*
X14666124Y15117134D01*
X14604857Y15201461D01*
X14589050Y15232483D01*
X14573983Y15255033D01*
X14558435Y15292567D01*
X14530070Y15348238D01*
X14510760Y15407665D01*
X14495213Y15445201D01*
X14489922Y15471800D01*
X14479160Y15504922D01*
X14462853Y15607883D01*
X14455056Y15647082D01*
X14455056Y15657116D01*
X14453391Y15667628D01*
X14453391Y15832373D01*
X14455056Y15842886D01*
X14455056Y15852918D01*
X14462852Y15892114D01*
X14479160Y15995079D01*
X14489922Y16028203D01*
X14495213Y16054799D01*
X14510759Y16092332D01*
X14530070Y16151763D01*
X14558438Y16207439D01*
X14573983Y16244967D01*
X14589048Y16267514D01*
X14604857Y16298540D01*
X14666132Y16382879D01*
X14688339Y16416113D01*
X14695432Y16423207D01*
X14701689Y16431818D01*
X14818182Y16548311D01*
X14826793Y16554568D01*
X14833887Y16561661D01*
X14867121Y16583868D01*
X14951460Y16645143D01*
X14982486Y16660952D01*
X15005033Y16676017D01*
X15042561Y16691562D01*
X15098237Y16719930D01*
X15157668Y16739241D01*
X15195201Y16754787D01*
X15221797Y16760078D01*
X15254921Y16770840D01*
X15357883Y16787147D01*
X15397082Y16794944D01*
X15407115Y16794944D01*
X15417628Y16796609D01*
X15582372Y16796609D01*
X15592885Y16794944D01*
G37*
G36*
X4756790Y17069607D02*
G01*
X4920952Y17016267D01*
X5074748Y16937904D01*
X5214393Y16836447D01*
X5336447Y16714393D01*
X5437904Y16574748D01*
X5516267Y16420952D01*
X5569607Y16256790D01*
X5596609Y16086305D01*
X5596609Y15913695D01*
X5569607Y15743210D01*
X5516267Y15579048D01*
X5437904Y15425252D01*
X5336447Y15285607D01*
X5214393Y15163553D01*
X5074748Y15062096D01*
X4920952Y14983733D01*
X4756790Y14930393D01*
X4586305Y14903391D01*
X4413695Y14903391D01*
X4243210Y14930393D01*
X4079048Y14983733D01*
X3925252Y15062096D01*
X3785607Y15163553D01*
X3663553Y15285607D01*
X3562096Y15425252D01*
X3483733Y15579048D01*
X3430393Y15743210D01*
X3403391Y15913695D01*
X3403391Y16086305D01*
X3430393Y16256790D01*
X3483733Y16420952D01*
X3562096Y16574748D01*
X3663553Y16714393D01*
X3785607Y16836447D01*
X3925252Y16937904D01*
X4079048Y17016267D01*
X4243210Y17069607D01*
X4413695Y17096609D01*
X4586305Y17096609D01*
X4756790Y17069607D01*
G37*
G36*
X37550000Y15700000D02*
G01*
X35950000Y15700000D01*
X35950000Y17300000D01*
X37550000Y17300000D01*
X37550000Y15700000D01*
G37*
G36*
X39522228Y17265552D02*
G01*
X39667117Y17205537D01*
X39797515Y17118408D01*
X39908408Y17007515D01*
X39995537Y16877117D01*
X40055552Y16732228D01*
X40086148Y16578414D01*
X40086148Y16421586D01*
X40055552Y16267772D01*
X39995537Y16122883D01*
X39908408Y15992485D01*
X39797515Y15881592D01*
X39667117Y15794463D01*
X39522228Y15734448D01*
X39368414Y15703852D01*
X39211586Y15703852D01*
X39057772Y15734448D01*
X38912883Y15794463D01*
X38782485Y15881592D01*
X38671592Y15992485D01*
X38584463Y16122883D01*
X38524448Y16267772D01*
X38493852Y16421586D01*
X38493852Y16578414D01*
X38524448Y16732228D01*
X38584463Y16877117D01*
X38671592Y17007515D01*
X38782485Y17118408D01*
X38912883Y17205537D01*
X39057772Y17265552D01*
X39211586Y17296148D01*
X39368414Y17296148D01*
X39522228Y17265552D01*
G37*
G36*
X42062228Y17265552D02*
G01*
X42207117Y17205537D01*
X42337515Y17118408D01*
X42448408Y17007515D01*
X42535537Y16877117D01*
X42595552Y16732228D01*
X42626148Y16578414D01*
X42626148Y16421586D01*
X42595552Y16267772D01*
X42535537Y16122883D01*
X42448408Y15992485D01*
X42337515Y15881592D01*
X42207117Y15794463D01*
X42062228Y15734448D01*
X41908414Y15703852D01*
X41751586Y15703852D01*
X41597772Y15734448D01*
X41452883Y15794463D01*
X41322485Y15881592D01*
X41211592Y15992485D01*
X41124463Y16122883D01*
X41064448Y16267772D01*
X41033852Y16421586D01*
X41033852Y16578414D01*
X41064448Y16732228D01*
X41124463Y16877117D01*
X41211592Y17007515D01*
X41322485Y17118408D01*
X41452883Y17205537D01*
X41597772Y17265552D01*
X41751586Y17296148D01*
X41908414Y17296148D01*
X42062228Y17265552D01*
G37*
G36*
X24490000Y16200000D02*
G01*
X22890000Y16200000D01*
X22890000Y17800000D01*
X24490000Y17800000D01*
X24490000Y16200000D01*
G37*
G36*
X26462228Y17765552D02*
G01*
X26607117Y17705537D01*
X26737515Y17618408D01*
X26848408Y17507515D01*
X26935537Y17377117D01*
X26995552Y17232228D01*
X27026148Y17078414D01*
X27026148Y16921586D01*
X26995552Y16767772D01*
X26935537Y16622883D01*
X26848408Y16492485D01*
X26737515Y16381592D01*
X26607117Y16294463D01*
X26462228Y16234448D01*
X26308414Y16203852D01*
X26151586Y16203852D01*
X25997772Y16234448D01*
X25852883Y16294463D01*
X25722485Y16381592D01*
X25611592Y16492485D01*
X25524463Y16622883D01*
X25464448Y16767772D01*
X25433852Y16921586D01*
X25433852Y17078414D01*
X25464448Y17232228D01*
X25524463Y17377117D01*
X25611592Y17507515D01*
X25722485Y17618408D01*
X25852883Y17705537D01*
X25997772Y17765552D01*
X26151586Y17796148D01*
X26308414Y17796148D01*
X26462228Y17765552D01*
G37*
G36*
X29002228Y17765552D02*
G01*
X29147117Y17705537D01*
X29277515Y17618408D01*
X29388408Y17507515D01*
X29475537Y17377117D01*
X29535552Y17232228D01*
X29566148Y17078414D01*
X29566148Y16921586D01*
X29535552Y16767772D01*
X29475537Y16622883D01*
X29388408Y16492485D01*
X29277515Y16381592D01*
X29147117Y16294463D01*
X29002228Y16234448D01*
X28848414Y16203852D01*
X28691586Y16203852D01*
X28537772Y16234448D01*
X28392883Y16294463D01*
X28262485Y16381592D01*
X28151592Y16492485D01*
X28064463Y16622883D01*
X28004448Y16767772D01*
X27973852Y16921586D01*
X27973852Y17078414D01*
X28004448Y17232228D01*
X28064463Y17377117D01*
X28151592Y17507515D01*
X28262485Y17618408D01*
X28392883Y17705537D01*
X28537772Y17765552D01*
X28691586Y17796148D01*
X28848414Y17796148D01*
X29002228Y17765552D01*
G37*
G36*
X31542228Y17765552D02*
G01*
X31687117Y17705537D01*
X31817515Y17618408D01*
X31928408Y17507515D01*
X32015537Y17377117D01*
X32075552Y17232228D01*
X32106148Y17078414D01*
X32106148Y16921586D01*
X32075552Y16767772D01*
X32015537Y16622883D01*
X31928408Y16492485D01*
X31817515Y16381592D01*
X31687117Y16294463D01*
X31542228Y16234448D01*
X31388414Y16203852D01*
X31231586Y16203852D01*
X31077772Y16234448D01*
X30932883Y16294463D01*
X30802485Y16381592D01*
X30691592Y16492485D01*
X30604463Y16622883D01*
X30544448Y16767772D01*
X30513852Y16921586D01*
X30513852Y17078414D01*
X30544448Y17232228D01*
X30604463Y17377117D01*
X30691592Y17507515D01*
X30802485Y17618408D01*
X30932883Y17705537D01*
X31077772Y17765552D01*
X31231586Y17796148D01*
X31388414Y17796148D01*
X31542228Y17765552D01*
G37*
G36*
X7849047Y21899195D02*
G01*
X7900408Y21893236D01*
X7917954Y21885489D01*
X7940671Y21880970D01*
X7964991Y21864720D01*
X7985793Y21855535D01*
X8000000Y21841328D01*
X8021777Y21826777D01*
X8036327Y21805001D01*
X8050534Y21790794D01*
X8059718Y21769994D01*
X8075970Y21745671D01*
X8080489Y21722952D01*
X8088235Y21705409D01*
X8094192Y21654060D01*
X8095000Y21650000D01*
X8095000Y20350000D01*
X8094192Y20345941D01*
X8088235Y20294592D01*
X8080489Y20277050D01*
X8075970Y20254329D01*
X8059716Y20230005D01*
X8050534Y20209207D01*
X8036329Y20195003D01*
X8021777Y20173223D01*
X7999997Y20158671D01*
X7985793Y20144466D01*
X7964995Y20135284D01*
X7940671Y20119030D01*
X7917950Y20114511D01*
X7900408Y20106765D01*
X7849061Y20100808D01*
X7845000Y20100000D01*
X7195000Y20100000D01*
X7190941Y20100808D01*
X7139591Y20106765D01*
X7122048Y20114511D01*
X7099329Y20119030D01*
X7075006Y20135282D01*
X7054206Y20144466D01*
X7039999Y20158673D01*
X7018223Y20173223D01*
X7003672Y20195000D01*
X6989465Y20209207D01*
X6980280Y20230009D01*
X6964030Y20254329D01*
X6959511Y20277046D01*
X6951764Y20294592D01*
X6945805Y20345951D01*
X6945000Y20350000D01*
X6945000Y21650000D01*
X6945804Y21654047D01*
X6951764Y21705409D01*
X6959511Y21722957D01*
X6964030Y21745671D01*
X6980278Y21769990D01*
X6989465Y21790794D01*
X7003674Y21805004D01*
X7018223Y21826777D01*
X7039996Y21841326D01*
X7054206Y21855535D01*
X7075010Y21864722D01*
X7099329Y21880970D01*
X7122043Y21885489D01*
X7139591Y21893236D01*
X7190952Y21899195D01*
X7195000Y21900000D01*
X7845000Y21900000D01*
X7849047Y21899195D01*
G37*
G36*
X10809047Y21899195D02*
G01*
X10860408Y21893236D01*
X10877954Y21885489D01*
X10900671Y21880970D01*
X10924991Y21864720D01*
X10945793Y21855535D01*
X10960000Y21841328D01*
X10981777Y21826777D01*
X10996327Y21805001D01*
X11010534Y21790794D01*
X11019718Y21769994D01*
X11035970Y21745671D01*
X11040489Y21722952D01*
X11048235Y21705409D01*
X11054192Y21654060D01*
X11055000Y21650000D01*
X11055000Y20350000D01*
X11054192Y20345941D01*
X11048235Y20294592D01*
X11040489Y20277050D01*
X11035970Y20254329D01*
X11019716Y20230005D01*
X11010534Y20209207D01*
X10996329Y20195003D01*
X10981777Y20173223D01*
X10959997Y20158671D01*
X10945793Y20144466D01*
X10924995Y20135284D01*
X10900671Y20119030D01*
X10877950Y20114511D01*
X10860408Y20106765D01*
X10809061Y20100808D01*
X10805000Y20100000D01*
X10155000Y20100000D01*
X10150941Y20100808D01*
X10099591Y20106765D01*
X10082048Y20114511D01*
X10059329Y20119030D01*
X10035006Y20135282D01*
X10014206Y20144466D01*
X9999999Y20158673D01*
X9978223Y20173223D01*
X9963672Y20195000D01*
X9949465Y20209207D01*
X9940280Y20230009D01*
X9924030Y20254329D01*
X9919511Y20277046D01*
X9911764Y20294592D01*
X9905805Y20345951D01*
X9905000Y20350000D01*
X9905000Y21650000D01*
X9905804Y21654047D01*
X9911764Y21705409D01*
X9919511Y21722957D01*
X9924030Y21745671D01*
X9940278Y21769990D01*
X9949465Y21790794D01*
X9963674Y21805004D01*
X9978223Y21826777D01*
X9999996Y21841326D01*
X10014206Y21855535D01*
X10035010Y21864722D01*
X10059329Y21880970D01*
X10082043Y21885489D01*
X10099591Y21893236D01*
X10150952Y21899195D01*
X10155000Y21900000D01*
X10805000Y21900000D01*
X10809047Y21899195D01*
G37*
G36*
X34879047Y22574195D02*
G01*
X34930408Y22568236D01*
X34947954Y22560489D01*
X34970671Y22555970D01*
X34994991Y22539720D01*
X35015793Y22530535D01*
X35030000Y22516328D01*
X35051777Y22501777D01*
X35066327Y22480001D01*
X35080534Y22465794D01*
X35089718Y22444994D01*
X35105970Y22420671D01*
X35110489Y22397952D01*
X35118235Y22380409D01*
X35124192Y22329060D01*
X35125000Y22325000D01*
X35125000Y21375000D01*
X35124192Y21370941D01*
X35118235Y21319592D01*
X35110489Y21302050D01*
X35105970Y21279329D01*
X35089716Y21255005D01*
X35080534Y21234207D01*
X35066329Y21220003D01*
X35051777Y21198223D01*
X35029997Y21183671D01*
X35015793Y21169466D01*
X34994995Y21160284D01*
X34970671Y21144030D01*
X34947950Y21139511D01*
X34930408Y21131765D01*
X34879061Y21125808D01*
X34875000Y21125000D01*
X34375000Y21125000D01*
X34370941Y21125808D01*
X34319591Y21131765D01*
X34302048Y21139511D01*
X34279329Y21144030D01*
X34255006Y21160282D01*
X34234206Y21169466D01*
X34219999Y21183673D01*
X34198223Y21198223D01*
X34183672Y21220000D01*
X34169465Y21234207D01*
X34160280Y21255009D01*
X34144030Y21279329D01*
X34139511Y21302046D01*
X34131764Y21319592D01*
X34125805Y21370951D01*
X34125000Y21375000D01*
X34125000Y22325000D01*
X34125804Y22329047D01*
X34131764Y22380409D01*
X34139511Y22397957D01*
X34144030Y22420671D01*
X34160278Y22444990D01*
X34169465Y22465794D01*
X34183674Y22480004D01*
X34198223Y22501777D01*
X34219996Y22516326D01*
X34234206Y22530535D01*
X34255010Y22539722D01*
X34279329Y22555970D01*
X34302043Y22560489D01*
X34319591Y22568236D01*
X34370952Y22574195D01*
X34375000Y22575000D01*
X34875000Y22575000D01*
X34879047Y22574195D01*
G37*
G36*
X36779047Y22574195D02*
G01*
X36830408Y22568236D01*
X36847954Y22560489D01*
X36870671Y22555970D01*
X36894991Y22539720D01*
X36915793Y22530535D01*
X36930000Y22516328D01*
X36951777Y22501777D01*
X36966327Y22480001D01*
X36980534Y22465794D01*
X36989718Y22444994D01*
X37005970Y22420671D01*
X37010489Y22397952D01*
X37018235Y22380409D01*
X37024192Y22329060D01*
X37025000Y22325000D01*
X37025000Y21375000D01*
X37024192Y21370941D01*
X37018235Y21319592D01*
X37010489Y21302050D01*
X37005970Y21279329D01*
X36989716Y21255005D01*
X36980534Y21234207D01*
X36966329Y21220003D01*
X36951777Y21198223D01*
X36929997Y21183671D01*
X36915793Y21169466D01*
X36894995Y21160284D01*
X36870671Y21144030D01*
X36847950Y21139511D01*
X36830408Y21131765D01*
X36779061Y21125808D01*
X36775000Y21125000D01*
X36275000Y21125000D01*
X36270941Y21125808D01*
X36219591Y21131765D01*
X36202048Y21139511D01*
X36179329Y21144030D01*
X36155006Y21160282D01*
X36134206Y21169466D01*
X36119999Y21183673D01*
X36098223Y21198223D01*
X36083672Y21220000D01*
X36069465Y21234207D01*
X36060280Y21255009D01*
X36044030Y21279329D01*
X36039511Y21302046D01*
X36031764Y21319592D01*
X36025805Y21370951D01*
X36025000Y21375000D01*
X36025000Y22325000D01*
X36025804Y22329047D01*
X36031764Y22380409D01*
X36039511Y22397957D01*
X36044030Y22420671D01*
X36060278Y22444990D01*
X36069465Y22465794D01*
X36083674Y22480004D01*
X36098223Y22501777D01*
X36119996Y22516326D01*
X36134206Y22530535D01*
X36155010Y22539722D01*
X36179329Y22555970D01*
X36202043Y22560489D01*
X36219591Y22568236D01*
X36270952Y22574195D01*
X36275000Y22575000D01*
X36775000Y22575000D01*
X36779047Y22574195D01*
G37*
G36*
X27527500Y21250000D02*
G01*
X21527500Y21250000D01*
X21527500Y23250000D01*
X27527500Y23250000D01*
X27527500Y21250000D01*
G37*
G36*
X29649047Y23199195D02*
G01*
X29700408Y23193236D01*
X29717954Y23185489D01*
X29740671Y23180970D01*
X29764991Y23164720D01*
X29785793Y23155535D01*
X29800000Y23141328D01*
X29821777Y23126777D01*
X29836327Y23105001D01*
X29850534Y23090794D01*
X29859718Y23069994D01*
X29875970Y23045671D01*
X29880489Y23022952D01*
X29888235Y23005409D01*
X29894192Y22954060D01*
X29895000Y22950000D01*
X29895000Y21650000D01*
X29894192Y21645941D01*
X29888235Y21594592D01*
X29880489Y21577050D01*
X29875970Y21554329D01*
X29859716Y21530005D01*
X29850534Y21509207D01*
X29836329Y21495003D01*
X29821777Y21473223D01*
X29799997Y21458671D01*
X29785793Y21444466D01*
X29764995Y21435284D01*
X29740671Y21419030D01*
X29717950Y21414511D01*
X29700408Y21406765D01*
X29649061Y21400808D01*
X29645000Y21400000D01*
X28995000Y21400000D01*
X28990941Y21400808D01*
X28939591Y21406765D01*
X28922048Y21414511D01*
X28899329Y21419030D01*
X28875006Y21435282D01*
X28854206Y21444466D01*
X28839999Y21458673D01*
X28818223Y21473223D01*
X28803672Y21495000D01*
X28789465Y21509207D01*
X28780280Y21530009D01*
X28764030Y21554329D01*
X28759511Y21577046D01*
X28751764Y21594592D01*
X28745805Y21645951D01*
X28745000Y21650000D01*
X28745000Y22950000D01*
X28745804Y22954047D01*
X28751764Y23005409D01*
X28759511Y23022957D01*
X28764030Y23045671D01*
X28780278Y23069990D01*
X28789465Y23090794D01*
X28803674Y23105004D01*
X28818223Y23126777D01*
X28839996Y23141326D01*
X28854206Y23155535D01*
X28875010Y23164722D01*
X28899329Y23180970D01*
X28922043Y23185489D01*
X28939591Y23193236D01*
X28990952Y23199195D01*
X28995000Y23200000D01*
X29645000Y23200000D01*
X29649047Y23199195D01*
G37*
G36*
X32609047Y23199195D02*
G01*
X32660408Y23193236D01*
X32677954Y23185489D01*
X32700671Y23180970D01*
X32724991Y23164720D01*
X32745793Y23155535D01*
X32760000Y23141328D01*
X32781777Y23126777D01*
X32796327Y23105001D01*
X32810534Y23090794D01*
X32819718Y23069994D01*
X32835970Y23045671D01*
X32840489Y23022952D01*
X32848235Y23005409D01*
X32854192Y22954060D01*
X32855000Y22950000D01*
X32855000Y21650000D01*
X32854192Y21645941D01*
X32848235Y21594592D01*
X32840489Y21577050D01*
X32835970Y21554329D01*
X32819716Y21530005D01*
X32810534Y21509207D01*
X32796329Y21495003D01*
X32781777Y21473223D01*
X32759997Y21458671D01*
X32745793Y21444466D01*
X32724995Y21435284D01*
X32700671Y21419030D01*
X32677950Y21414511D01*
X32660408Y21406765D01*
X32609061Y21400808D01*
X32605000Y21400000D01*
X31955000Y21400000D01*
X31950941Y21400808D01*
X31899591Y21406765D01*
X31882048Y21414511D01*
X31859329Y21419030D01*
X31835006Y21435282D01*
X31814206Y21444466D01*
X31799999Y21458673D01*
X31778223Y21473223D01*
X31763672Y21495000D01*
X31749465Y21509207D01*
X31740280Y21530009D01*
X31724030Y21554329D01*
X31719511Y21577046D01*
X31711764Y21594592D01*
X31705805Y21645951D01*
X31705000Y21650000D01*
X31705000Y22950000D01*
X31705804Y22954047D01*
X31711764Y23005409D01*
X31719511Y23022957D01*
X31724030Y23045671D01*
X31740278Y23069990D01*
X31749465Y23090794D01*
X31763674Y23105004D01*
X31778223Y23126777D01*
X31799996Y23141326D01*
X31814206Y23155535D01*
X31835010Y23164722D01*
X31859329Y23180970D01*
X31882043Y23185489D01*
X31899591Y23193236D01*
X31950952Y23199195D01*
X31955000Y23200000D01*
X32605000Y23200000D01*
X32609047Y23199195D01*
G37*
G36*
X38531104Y23257873D02*
G01*
X38604099Y23209099D01*
X38652873Y23136104D01*
X38670000Y23050000D01*
X38670000Y22550000D01*
X38652873Y22463896D01*
X38604099Y22390901D01*
X38531104Y22342127D01*
X38445000Y22325000D01*
X37995000Y22325000D01*
X37908896Y22342127D01*
X37835901Y22390901D01*
X37787127Y22463896D01*
X37770000Y22550000D01*
X37770000Y23050000D01*
X37787127Y23136104D01*
X37835901Y23209099D01*
X37908896Y23257873D01*
X37995000Y23275000D01*
X38445000Y23275000D01*
X38531104Y23257873D01*
G37*
G36*
X40091104Y23257873D02*
G01*
X40164099Y23209099D01*
X40212873Y23136104D01*
X40230000Y23050000D01*
X40230000Y22550000D01*
X40212873Y22463896D01*
X40164099Y22390901D01*
X40091104Y22342127D01*
X40005000Y22325000D01*
X39555000Y22325000D01*
X39468896Y22342127D01*
X39395901Y22390901D01*
X39347127Y22463896D01*
X39330000Y22550000D01*
X39330000Y23050000D01*
X39347127Y23136104D01*
X39395901Y23209099D01*
X39468896Y23257873D01*
X39555000Y23275000D01*
X40005000Y23275000D01*
X40091104Y23257873D01*
G37*
G36*
X34316000Y23214000D02*
G01*
X33784000Y23214000D01*
X33784000Y24286000D01*
X34316000Y24286000D01*
X34316000Y23214000D01*
G37*
G36*
X35266000Y23214000D02*
G01*
X34734000Y23214000D01*
X34734000Y24286000D01*
X35266000Y24286000D01*
X35266000Y23214000D01*
G37*
G36*
X36216000Y23214000D02*
G01*
X35684000Y23214000D01*
X35684000Y24286000D01*
X36216000Y24286000D01*
X36216000Y23214000D01*
G37*
G36*
X10803479Y26264081D02*
G01*
X10997488Y26201043D01*
X11179248Y26108432D01*
X11344282Y25988528D01*
X11488528Y25844282D01*
X11608432Y25679248D01*
X11701043Y25497488D01*
X11764081Y25303479D01*
X11795993Y25101997D01*
X11795993Y24898003D01*
X11764081Y24696521D01*
X11701043Y24502512D01*
X11608432Y24320752D01*
X11488528Y24155718D01*
X11344282Y24011472D01*
X11179248Y23891568D01*
X10997488Y23798957D01*
X10803479Y23735919D01*
X10601997Y23704007D01*
X10398003Y23704007D01*
X10196521Y23735919D01*
X10002512Y23798957D01*
X9820752Y23891568D01*
X9655718Y24011472D01*
X9511472Y24155718D01*
X9391568Y24320752D01*
X9298957Y24502512D01*
X9235919Y24696521D01*
X9204007Y24898003D01*
X9204007Y25101997D01*
X9235919Y25303479D01*
X9298957Y25497488D01*
X9391568Y25679248D01*
X9511472Y25844282D01*
X9655718Y25988528D01*
X9820752Y26108432D01*
X10002512Y26201043D01*
X10196521Y26264081D01*
X10398003Y26295993D01*
X10601997Y26295993D01*
X10803479Y26264081D01*
G37*
G36*
X38531104Y24757873D02*
G01*
X38604099Y24709099D01*
X38652873Y24636104D01*
X38670000Y24550000D01*
X38670000Y24050000D01*
X38652873Y23963896D01*
X38604099Y23890901D01*
X38531104Y23842127D01*
X38445000Y23825000D01*
X37995000Y23825000D01*
X37908896Y23842127D01*
X37835901Y23890901D01*
X37787127Y23963896D01*
X37770000Y24050000D01*
X37770000Y24550000D01*
X37787127Y24636104D01*
X37835901Y24709099D01*
X37908896Y24757873D01*
X37995000Y24775000D01*
X38445000Y24775000D01*
X38531104Y24757873D01*
G37*
G36*
X40091104Y24757873D02*
G01*
X40164099Y24709099D01*
X40212873Y24636104D01*
X40230000Y24550000D01*
X40230000Y24050000D01*
X40212873Y23963896D01*
X40164099Y23890901D01*
X40091104Y23842127D01*
X40005000Y23825000D01*
X39555000Y23825000D01*
X39468896Y23842127D01*
X39395901Y23890901D01*
X39347127Y23963896D01*
X39330000Y24050000D01*
X39330000Y24550000D01*
X39347127Y24636104D01*
X39395901Y24709099D01*
X39468896Y24757873D01*
X39555000Y24775000D01*
X40005000Y24775000D01*
X40091104Y24757873D01*
G37*
G36*
X38456537Y26259776D02*
G01*
X38521421Y26216421D01*
X38564776Y26151537D01*
X38580000Y26075000D01*
X38580000Y25525000D01*
X38564776Y25448463D01*
X38521421Y25383579D01*
X38456537Y25340224D01*
X38380000Y25325000D01*
X37980000Y25325000D01*
X37903463Y25340224D01*
X37838579Y25383579D01*
X37795224Y25448463D01*
X37780000Y25525000D01*
X37780000Y26075000D01*
X37795224Y26151537D01*
X37838579Y26216421D01*
X37903463Y26259776D01*
X37980000Y26275000D01*
X38380000Y26275000D01*
X38456537Y26259776D01*
G37*
G36*
X40096537Y26259776D02*
G01*
X40161421Y26216421D01*
X40204776Y26151537D01*
X40220000Y26075000D01*
X40220000Y25525000D01*
X40204776Y25448463D01*
X40161421Y25383579D01*
X40096537Y25340224D01*
X40020000Y25325000D01*
X39620000Y25325000D01*
X39543463Y25340224D01*
X39478579Y25383579D01*
X39435224Y25448463D01*
X39420000Y25525000D01*
X39420000Y26075000D01*
X39435224Y26151537D01*
X39478579Y26216421D01*
X39543463Y26259776D01*
X39620000Y26275000D01*
X40020000Y26275000D01*
X40096537Y26259776D01*
G37*
G36*
X34316000Y25514000D02*
G01*
X33784000Y25514000D01*
X33784000Y26586000D01*
X34316000Y26586000D01*
X34316000Y25514000D01*
G37*
G36*
X35266000Y25514000D02*
G01*
X34734000Y25514000D01*
X34734000Y26586000D01*
X35266000Y26586000D01*
X35266000Y25514000D01*
G37*
G36*
X36216000Y25514000D02*
G01*
X35684000Y25514000D01*
X35684000Y26586000D01*
X36216000Y26586000D01*
X36216000Y25514000D01*
G37*
G36*
X27527500Y25550000D02*
G01*
X21527500Y25550000D01*
X21527500Y27550000D01*
X27527500Y27550000D01*
X27527500Y25550000D01*
G37*
G36*
X31031104Y26957873D02*
G01*
X31104099Y26909099D01*
X31152873Y26836104D01*
X31170000Y26750000D01*
X31170000Y26250000D01*
X31152873Y26163896D01*
X31104099Y26090901D01*
X31031104Y26042127D01*
X30945000Y26025000D01*
X30495000Y26025000D01*
X30408896Y26042127D01*
X30335901Y26090901D01*
X30287127Y26163896D01*
X30270000Y26250000D01*
X30270000Y26750000D01*
X30287127Y26836104D01*
X30335901Y26909099D01*
X30408896Y26957873D01*
X30495000Y26975000D01*
X30945000Y26975000D01*
X31031104Y26957873D01*
G37*
G36*
X32591104Y26957873D02*
G01*
X32664099Y26909099D01*
X32712873Y26836104D01*
X32730000Y26750000D01*
X32730000Y26250000D01*
X32712873Y26163896D01*
X32664099Y26090901D01*
X32591104Y26042127D01*
X32505000Y26025000D01*
X32055000Y26025000D01*
X31968896Y26042127D01*
X31895901Y26090901D01*
X31847127Y26163896D01*
X31830000Y26250000D01*
X31830000Y26750000D01*
X31847127Y26836104D01*
X31895901Y26909099D01*
X31968896Y26957873D01*
X32055000Y26975000D01*
X32505000Y26975000D01*
X32591104Y26957873D01*
G37*
G36*
X38384047Y27812195D02*
G01*
X38432661Y27806555D01*
X38449271Y27799221D01*
X38471079Y27794883D01*
X38494425Y27779284D01*
X38514012Y27770635D01*
X38527390Y27757257D01*
X38548291Y27743291D01*
X38562256Y27722391D01*
X38575634Y27709013D01*
X38584281Y27689428D01*
X38599883Y27666079D01*
X38604221Y27644269D01*
X38611554Y27627662D01*
X38617192Y27579058D01*
X38618000Y27575000D01*
X38618000Y27025000D01*
X38617192Y27020941D01*
X38611554Y26972339D01*
X38604221Y26955734D01*
X38599883Y26933921D01*
X38584280Y26910571D01*
X38575634Y26890988D01*
X38562258Y26877613D01*
X38548291Y26856709D01*
X38527387Y26842742D01*
X38514012Y26829366D01*
X38494429Y26820720D01*
X38471079Y26805117D01*
X38449266Y26800779D01*
X38432661Y26793446D01*
X38384059Y26787808D01*
X38380000Y26787000D01*
X37980000Y26787000D01*
X37975942Y26787808D01*
X37927338Y26793446D01*
X37910731Y26800779D01*
X37888921Y26805117D01*
X37865572Y26820719D01*
X37845987Y26829366D01*
X37832609Y26842744D01*
X37811709Y26856709D01*
X37797743Y26877610D01*
X37784365Y26890988D01*
X37775716Y26910575D01*
X37760117Y26933921D01*
X37755779Y26955729D01*
X37748445Y26972339D01*
X37742805Y27020953D01*
X37742000Y27025000D01*
X37742000Y27575000D01*
X37742804Y27579046D01*
X37748445Y27627662D01*
X37755779Y27644273D01*
X37760117Y27666079D01*
X37775715Y27689424D01*
X37784365Y27709013D01*
X37797745Y27722394D01*
X37811709Y27743291D01*
X37832606Y27757255D01*
X37845987Y27770635D01*
X37865576Y27779285D01*
X37888921Y27794883D01*
X37910727Y27799221D01*
X37927338Y27806555D01*
X37975954Y27812196D01*
X37980000Y27813000D01*
X38380000Y27813000D01*
X38384047Y27812195D01*
G37*
G36*
X40024047Y27812195D02*
G01*
X40072661Y27806555D01*
X40089271Y27799221D01*
X40111079Y27794883D01*
X40134425Y27779284D01*
X40154012Y27770635D01*
X40167390Y27757257D01*
X40188291Y27743291D01*
X40202256Y27722391D01*
X40215634Y27709013D01*
X40224281Y27689428D01*
X40239883Y27666079D01*
X40244221Y27644269D01*
X40251554Y27627662D01*
X40257192Y27579058D01*
X40258000Y27575000D01*
X40258000Y27025000D01*
X40257192Y27020941D01*
X40251554Y26972339D01*
X40244221Y26955734D01*
X40239883Y26933921D01*
X40224280Y26910571D01*
X40215634Y26890988D01*
X40202258Y26877613D01*
X40188291Y26856709D01*
X40167387Y26842742D01*
X40154012Y26829366D01*
X40134429Y26820720D01*
X40111079Y26805117D01*
X40089266Y26800779D01*
X40072661Y26793446D01*
X40024059Y26787808D01*
X40020000Y26787000D01*
X39620000Y26787000D01*
X39615942Y26787808D01*
X39567338Y26793446D01*
X39550731Y26800779D01*
X39528921Y26805117D01*
X39505572Y26820719D01*
X39485987Y26829366D01*
X39472609Y26842744D01*
X39451709Y26856709D01*
X39437743Y26877610D01*
X39424365Y26890988D01*
X39415716Y26910575D01*
X39400117Y26933921D01*
X39395779Y26955729D01*
X39388445Y26972339D01*
X39382805Y27020953D01*
X39382000Y27025000D01*
X39382000Y27575000D01*
X39382804Y27579046D01*
X39388445Y27627662D01*
X39395779Y27644273D01*
X39400117Y27666079D01*
X39415715Y27689424D01*
X39424365Y27709013D01*
X39437745Y27722394D01*
X39451709Y27743291D01*
X39472606Y27757255D01*
X39485987Y27770635D01*
X39505576Y27779285D01*
X39528921Y27794883D01*
X39550727Y27799221D01*
X39567338Y27806555D01*
X39615954Y27812196D01*
X39620000Y27813000D01*
X40020000Y27813000D01*
X40024047Y27812195D01*
G37*
G36*
X22824047Y30549195D02*
G01*
X22875408Y30543236D01*
X22892954Y30535489D01*
X22915671Y30530970D01*
X22939991Y30514720D01*
X22960793Y30505535D01*
X22975000Y30491328D01*
X22996777Y30476777D01*
X23011327Y30455001D01*
X23025534Y30440794D01*
X23034718Y30419994D01*
X23050970Y30395671D01*
X23055489Y30372952D01*
X23063235Y30355409D01*
X23069192Y30304060D01*
X23070000Y30300000D01*
X23070000Y28600000D01*
X23069192Y28595941D01*
X23063235Y28544592D01*
X23055489Y28527050D01*
X23050970Y28504329D01*
X23034716Y28480005D01*
X23025534Y28459207D01*
X23011329Y28445003D01*
X22996777Y28423223D01*
X22974997Y28408671D01*
X22960793Y28394466D01*
X22939995Y28385284D01*
X22915671Y28369030D01*
X22892950Y28364511D01*
X22875408Y28356765D01*
X22824061Y28350808D01*
X22820000Y28350000D01*
X22120000Y28350000D01*
X22115941Y28350808D01*
X22064591Y28356765D01*
X22047048Y28364511D01*
X22024329Y28369030D01*
X22000006Y28385282D01*
X21979206Y28394466D01*
X21964999Y28408673D01*
X21943223Y28423223D01*
X21928672Y28445000D01*
X21914465Y28459207D01*
X21905280Y28480009D01*
X21889030Y28504329D01*
X21884511Y28527046D01*
X21876764Y28544592D01*
X21870805Y28595951D01*
X21870000Y28600000D01*
X21870000Y30300000D01*
X21870804Y30304047D01*
X21876764Y30355409D01*
X21884511Y30372957D01*
X21889030Y30395671D01*
X21905278Y30419990D01*
X21914465Y30440794D01*
X21928674Y30455004D01*
X21943223Y30476777D01*
X21964996Y30491326D01*
X21979206Y30505535D01*
X22000010Y30514722D01*
X22024329Y30530970D01*
X22047043Y30535489D01*
X22064591Y30543236D01*
X22115952Y30549195D01*
X22120000Y30550000D01*
X22820000Y30550000D01*
X22824047Y30549195D01*
G37*
G36*
X27384047Y30549195D02*
G01*
X27435408Y30543236D01*
X27452954Y30535489D01*
X27475671Y30530970D01*
X27499991Y30514720D01*
X27520793Y30505535D01*
X27535000Y30491328D01*
X27556777Y30476777D01*
X27571327Y30455001D01*
X27585534Y30440794D01*
X27594718Y30419994D01*
X27610970Y30395671D01*
X27615489Y30372952D01*
X27623235Y30355409D01*
X27629192Y30304060D01*
X27630000Y30300000D01*
X27630000Y28600000D01*
X27629192Y28595941D01*
X27623235Y28544592D01*
X27615489Y28527050D01*
X27610970Y28504329D01*
X27594716Y28480005D01*
X27585534Y28459207D01*
X27571329Y28445003D01*
X27556777Y28423223D01*
X27534997Y28408671D01*
X27520793Y28394466D01*
X27499995Y28385284D01*
X27475671Y28369030D01*
X27452950Y28364511D01*
X27435408Y28356765D01*
X27384061Y28350808D01*
X27380000Y28350000D01*
X26680000Y28350000D01*
X26675941Y28350808D01*
X26624591Y28356765D01*
X26607048Y28364511D01*
X26584329Y28369030D01*
X26560006Y28385282D01*
X26539206Y28394466D01*
X26524999Y28408673D01*
X26503223Y28423223D01*
X26488672Y28445000D01*
X26474465Y28459207D01*
X26465280Y28480009D01*
X26449030Y28504329D01*
X26444511Y28527046D01*
X26436764Y28544592D01*
X26430805Y28595951D01*
X26430000Y28600000D01*
X26430000Y30300000D01*
X26430804Y30304047D01*
X26436764Y30355409D01*
X26444511Y30372957D01*
X26449030Y30395671D01*
X26465278Y30419990D01*
X26474465Y30440794D01*
X26488674Y30455004D01*
X26503223Y30476777D01*
X26524996Y30491326D01*
X26539206Y30505535D01*
X26560010Y30514722D01*
X26584329Y30530970D01*
X26607043Y30535489D01*
X26624591Y30543236D01*
X26675952Y30549195D01*
X26680000Y30550000D01*
X27380000Y30550000D01*
X27384047Y30549195D01*
G37*
G36*
X38531104Y29757873D02*
G01*
X38604099Y29709099D01*
X38652873Y29636104D01*
X38670000Y29550000D01*
X38670000Y29050000D01*
X38652873Y28963896D01*
X38604099Y28890901D01*
X38531104Y28842127D01*
X38445000Y28825000D01*
X37995000Y28825000D01*
X37908896Y28842127D01*
X37835901Y28890901D01*
X37787127Y28963896D01*
X37770000Y29050000D01*
X37770000Y29550000D01*
X37787127Y29636104D01*
X37835901Y29709099D01*
X37908896Y29757873D01*
X37995000Y29775000D01*
X38445000Y29775000D01*
X38531104Y29757873D01*
G37*
G36*
X40091104Y29757873D02*
G01*
X40164099Y29709099D01*
X40212873Y29636104D01*
X40230000Y29550000D01*
X40230000Y29050000D01*
X40212873Y28963896D01*
X40164099Y28890901D01*
X40091104Y28842127D01*
X40005000Y28825000D01*
X39555000Y28825000D01*
X39468896Y28842127D01*
X39395901Y28890901D01*
X39347127Y28963896D01*
X39330000Y29050000D01*
X39330000Y29550000D01*
X39347127Y29636104D01*
X39395901Y29709099D01*
X39468896Y29757873D01*
X39555000Y29775000D01*
X40005000Y29775000D01*
X40091104Y29757873D01*
G37*
G36*
X34250000Y30250000D02*
G01*
X33150000Y30250000D01*
X33150000Y30850000D01*
X34250000Y30850000D01*
X34250000Y30250000D01*
G37*
G36*
X36850000Y30250000D02*
G01*
X35750000Y30250000D01*
X35750000Y30850000D01*
X36850000Y30850000D01*
X36850000Y30250000D01*
G37*
G36*
X36850000Y31200000D02*
G01*
X35750000Y31200000D01*
X35750000Y31800000D01*
X36850000Y31800000D01*
X36850000Y31200000D01*
G37*
G36*
X30554047Y32724195D02*
G01*
X30605408Y32718236D01*
X30622954Y32710489D01*
X30645671Y32705970D01*
X30669991Y32689720D01*
X30690793Y32680535D01*
X30705000Y32666328D01*
X30726777Y32651777D01*
X30741327Y32630001D01*
X30755534Y32615794D01*
X30764718Y32594994D01*
X30780970Y32570671D01*
X30785489Y32547952D01*
X30793235Y32530409D01*
X30799192Y32479060D01*
X30800000Y32475000D01*
X30800000Y31525000D01*
X30799192Y31520941D01*
X30793235Y31469592D01*
X30785489Y31452050D01*
X30780970Y31429329D01*
X30764716Y31405005D01*
X30755534Y31384207D01*
X30741329Y31370003D01*
X30726777Y31348223D01*
X30704997Y31333671D01*
X30690793Y31319466D01*
X30669995Y31310284D01*
X30645671Y31294030D01*
X30622950Y31289511D01*
X30605408Y31281765D01*
X30554061Y31275808D01*
X30550000Y31275000D01*
X30050000Y31275000D01*
X30045941Y31275808D01*
X29994591Y31281765D01*
X29977048Y31289511D01*
X29954329Y31294030D01*
X29930006Y31310282D01*
X29909206Y31319466D01*
X29894999Y31333673D01*
X29873223Y31348223D01*
X29858672Y31370000D01*
X29844465Y31384207D01*
X29835280Y31405009D01*
X29819030Y31429329D01*
X29814511Y31452046D01*
X29806764Y31469592D01*
X29800805Y31520951D01*
X29800000Y31525000D01*
X29800000Y32475000D01*
X29800804Y32479047D01*
X29806764Y32530409D01*
X29814511Y32547957D01*
X29819030Y32570671D01*
X29835278Y32594990D01*
X29844465Y32615794D01*
X29858674Y32630004D01*
X29873223Y32651777D01*
X29894996Y32666326D01*
X29909206Y32680535D01*
X29930010Y32689722D01*
X29954329Y32705970D01*
X29977043Y32710489D01*
X29994591Y32718236D01*
X30045952Y32724195D01*
X30050000Y32725000D01*
X30550000Y32725000D01*
X30554047Y32724195D01*
G37*
G36*
X32454047Y32724195D02*
G01*
X32505408Y32718236D01*
X32522954Y32710489D01*
X32545671Y32705970D01*
X32569991Y32689720D01*
X32590793Y32680535D01*
X32605000Y32666328D01*
X32626777Y32651777D01*
X32641327Y32630001D01*
X32655534Y32615794D01*
X32664718Y32594994D01*
X32680970Y32570671D01*
X32685489Y32547952D01*
X32693235Y32530409D01*
X32699192Y32479060D01*
X32700000Y32475000D01*
X32700000Y31525000D01*
X32699192Y31520941D01*
X32693235Y31469592D01*
X32685489Y31452050D01*
X32680970Y31429329D01*
X32664716Y31405005D01*
X32655534Y31384207D01*
X32641329Y31370003D01*
X32626777Y31348223D01*
X32604997Y31333671D01*
X32590793Y31319466D01*
X32569995Y31310284D01*
X32545671Y31294030D01*
X32522950Y31289511D01*
X32505408Y31281765D01*
X32454061Y31275808D01*
X32450000Y31275000D01*
X31950000Y31275000D01*
X31945941Y31275808D01*
X31894591Y31281765D01*
X31877048Y31289511D01*
X31854329Y31294030D01*
X31830006Y31310282D01*
X31809206Y31319466D01*
X31794999Y31333673D01*
X31773223Y31348223D01*
X31758672Y31370000D01*
X31744465Y31384207D01*
X31735280Y31405009D01*
X31719030Y31429329D01*
X31714511Y31452046D01*
X31706764Y31469592D01*
X31700805Y31520951D01*
X31700000Y31525000D01*
X31700000Y32475000D01*
X31700804Y32479047D01*
X31706764Y32530409D01*
X31714511Y32547957D01*
X31719030Y32570671D01*
X31735278Y32594990D01*
X31744465Y32615794D01*
X31758674Y32630004D01*
X31773223Y32651777D01*
X31794996Y32666326D01*
X31809206Y32680535D01*
X31830010Y32689722D01*
X31854329Y32705970D01*
X31877043Y32710489D01*
X31894591Y32718236D01*
X31945952Y32724195D01*
X31950000Y32725000D01*
X32450000Y32725000D01*
X32454047Y32724195D01*
G37*
G36*
X38554047Y33224195D02*
G01*
X38605408Y33218236D01*
X38622954Y33210489D01*
X38645671Y33205970D01*
X38669991Y33189720D01*
X38690793Y33180535D01*
X38705000Y33166328D01*
X38726777Y33151777D01*
X38741327Y33130001D01*
X38755534Y33115794D01*
X38764718Y33094994D01*
X38780970Y33070671D01*
X38785489Y33047952D01*
X38793235Y33030409D01*
X38799192Y32979060D01*
X38800000Y32975000D01*
X38800000Y32025000D01*
X38799192Y32020941D01*
X38793235Y31969592D01*
X38785489Y31952050D01*
X38780970Y31929329D01*
X38764716Y31905005D01*
X38755534Y31884207D01*
X38741329Y31870003D01*
X38726777Y31848223D01*
X38704997Y31833671D01*
X38690793Y31819466D01*
X38669995Y31810284D01*
X38645671Y31794030D01*
X38622950Y31789511D01*
X38605408Y31781765D01*
X38554061Y31775808D01*
X38550000Y31775000D01*
X38050000Y31775000D01*
X38045941Y31775808D01*
X37994591Y31781765D01*
X37977048Y31789511D01*
X37954329Y31794030D01*
X37930006Y31810282D01*
X37909206Y31819466D01*
X37894999Y31833673D01*
X37873223Y31848223D01*
X37858672Y31870000D01*
X37844465Y31884207D01*
X37835280Y31905009D01*
X37819030Y31929329D01*
X37814511Y31952046D01*
X37806764Y31969592D01*
X37800805Y32020951D01*
X37800000Y32025000D01*
X37800000Y32975000D01*
X37800804Y32979047D01*
X37806764Y33030409D01*
X37814511Y33047957D01*
X37819030Y33070671D01*
X37835278Y33094990D01*
X37844465Y33115794D01*
X37858674Y33130004D01*
X37873223Y33151777D01*
X37894996Y33166326D01*
X37909206Y33180535D01*
X37930010Y33189722D01*
X37954329Y33205970D01*
X37977043Y33210489D01*
X37994591Y33218236D01*
X38045952Y33224195D01*
X38050000Y33225000D01*
X38550000Y33225000D01*
X38554047Y33224195D01*
G37*
G36*
X40454047Y33224195D02*
G01*
X40505408Y33218236D01*
X40522954Y33210489D01*
X40545671Y33205970D01*
X40569991Y33189720D01*
X40590793Y33180535D01*
X40605000Y33166328D01*
X40626777Y33151777D01*
X40641327Y33130001D01*
X40655534Y33115794D01*
X40664718Y33094994D01*
X40680970Y33070671D01*
X40685489Y33047952D01*
X40693235Y33030409D01*
X40699192Y32979060D01*
X40700000Y32975000D01*
X40700000Y32025000D01*
X40699192Y32020941D01*
X40693235Y31969592D01*
X40685489Y31952050D01*
X40680970Y31929329D01*
X40664716Y31905005D01*
X40655534Y31884207D01*
X40641329Y31870003D01*
X40626777Y31848223D01*
X40604997Y31833671D01*
X40590793Y31819466D01*
X40569995Y31810284D01*
X40545671Y31794030D01*
X40522950Y31789511D01*
X40505408Y31781765D01*
X40454061Y31775808D01*
X40450000Y31775000D01*
X39950000Y31775000D01*
X39945941Y31775808D01*
X39894591Y31781765D01*
X39877048Y31789511D01*
X39854329Y31794030D01*
X39830006Y31810282D01*
X39809206Y31819466D01*
X39794999Y31833673D01*
X39773223Y31848223D01*
X39758672Y31870000D01*
X39744465Y31884207D01*
X39735280Y31905009D01*
X39719030Y31929329D01*
X39714511Y31952046D01*
X39706764Y31969592D01*
X39700805Y32020951D01*
X39700000Y32025000D01*
X39700000Y32975000D01*
X39700804Y32979047D01*
X39706764Y33030409D01*
X39714511Y33047957D01*
X39719030Y33070671D01*
X39735278Y33094990D01*
X39744465Y33115794D01*
X39758674Y33130004D01*
X39773223Y33151777D01*
X39794996Y33166326D01*
X39809206Y33180535D01*
X39830010Y33189722D01*
X39854329Y33205970D01*
X39877043Y33210489D01*
X39894591Y33218236D01*
X39945952Y33224195D01*
X39950000Y33225000D01*
X40450000Y33225000D01*
X40454047Y33224195D01*
G37*
G36*
X34250000Y32150000D02*
G01*
X33150000Y32150000D01*
X33150000Y32750000D01*
X34250000Y32750000D01*
X34250000Y32150000D01*
G37*
G36*
X36850000Y32150000D02*
G01*
X35750000Y32150000D01*
X35750000Y32750000D01*
X36850000Y32750000D01*
X36850000Y32150000D01*
G37*
G36*
X27404049Y38949196D02*
G01*
X27455410Y38943237D01*
X27472960Y38935488D01*
X27495673Y38930970D01*
X27519989Y38914723D01*
X27540795Y38905536D01*
X27555004Y38891327D01*
X27576778Y38876778D01*
X27591326Y38855005D01*
X27605535Y38840796D01*
X27614720Y38819992D01*
X27630970Y38795673D01*
X27635487Y38772960D01*
X27643236Y38755411D01*
X27649196Y38704036D01*
X27649999Y38700002D01*
X27649999Y38697121D01*
X27650000Y38697112D01*
X27650000Y35745671D01*
X27650000Y32799997D01*
X27649194Y32795950D01*
X27643236Y32744590D01*
X27635488Y32727044D01*
X27630970Y32704327D01*
X27614719Y32680007D01*
X27605535Y32659205D01*
X27591328Y32644999D01*
X27576778Y32623222D01*
X27555001Y32608672D01*
X27540795Y32594465D01*
X27519993Y32585281D01*
X27495673Y32569030D01*
X27472957Y32564512D01*
X27455410Y32556764D01*
X27404037Y32550804D01*
X27400002Y32550001D01*
X27397119Y32550001D01*
X27397111Y32550000D01*
X22102889Y32550000D01*
X22102888Y32550001D01*
X22099997Y32550000D01*
X22095949Y32550806D01*
X22044589Y32556764D01*
X22027042Y32564512D01*
X22004327Y32569030D01*
X21980008Y32585280D01*
X21959204Y32594465D01*
X21944995Y32608674D01*
X21923222Y32623222D01*
X21908673Y32644996D01*
X21894464Y32659205D01*
X21885277Y32680011D01*
X21869030Y32704327D01*
X21864512Y32727039D01*
X21856763Y32744590D01*
X21850803Y32795965D01*
X21850001Y32799998D01*
X21850000Y32802881D01*
X21850000Y32802889D01*
X21850000Y38697112D01*
X21850000Y38697113D01*
X21850000Y38700003D01*
X21850804Y38704049D01*
X21856763Y38755411D01*
X21864512Y38772962D01*
X21869030Y38795673D01*
X21885276Y38819988D01*
X21894464Y38840796D01*
X21908675Y38855008D01*
X21923222Y38876778D01*
X21944992Y38891325D01*
X21959204Y38905536D01*
X21980012Y38914724D01*
X22004327Y38930970D01*
X22027036Y38935487D01*
X22044589Y38943237D01*
X22095964Y38949197D01*
X22099998Y38949999D01*
X22102880Y38950000D01*
X22102889Y38950000D01*
X27397111Y38950000D01*
X27400003Y38950000D01*
X27404049Y38949196D01*
G37*
G36*
X29599047Y35899195D02*
G01*
X29650408Y35893236D01*
X29667954Y35885489D01*
X29690671Y35880970D01*
X29714991Y35864720D01*
X29735793Y35855535D01*
X29750000Y35841328D01*
X29771777Y35826777D01*
X29786327Y35805001D01*
X29800534Y35790794D01*
X29809718Y35769994D01*
X29825970Y35745671D01*
X29830489Y35722952D01*
X29838235Y35705409D01*
X29844192Y35654060D01*
X29845000Y35650000D01*
X29845000Y34350000D01*
X29844192Y34345941D01*
X29838235Y34294592D01*
X29830489Y34277050D01*
X29825970Y34254329D01*
X29809716Y34230005D01*
X29800534Y34209207D01*
X29786329Y34195003D01*
X29771777Y34173223D01*
X29749997Y34158671D01*
X29735793Y34144466D01*
X29714995Y34135284D01*
X29690671Y34119030D01*
X29667950Y34114511D01*
X29650408Y34106765D01*
X29599061Y34100808D01*
X29595000Y34100000D01*
X28945000Y34100000D01*
X28940941Y34100808D01*
X28889591Y34106765D01*
X28872048Y34114511D01*
X28849329Y34119030D01*
X28825006Y34135282D01*
X28804206Y34144466D01*
X28789999Y34158673D01*
X28768223Y34173223D01*
X28753672Y34195000D01*
X28739465Y34209207D01*
X28730280Y34230009D01*
X28714030Y34254329D01*
X28709511Y34277046D01*
X28701764Y34294592D01*
X28695805Y34345951D01*
X28695000Y34350000D01*
X28695000Y35650000D01*
X28695804Y35654047D01*
X28701764Y35705409D01*
X28709511Y35722957D01*
X28714030Y35745671D01*
X28730278Y35769990D01*
X28739465Y35790794D01*
X28753674Y35805004D01*
X28768223Y35826777D01*
X28789996Y35841326D01*
X28804206Y35855535D01*
X28825010Y35864722D01*
X28849329Y35880970D01*
X28872043Y35885489D01*
X28889591Y35893236D01*
X28940952Y35899195D01*
X28945000Y35900000D01*
X29595000Y35900000D01*
X29599047Y35899195D01*
G37*
G36*
X32559047Y35899195D02*
G01*
X32610408Y35893236D01*
X32627954Y35885489D01*
X32650671Y35880970D01*
X32674991Y35864720D01*
X32695793Y35855535D01*
X32710000Y35841328D01*
X32731777Y35826777D01*
X32746327Y35805001D01*
X32760534Y35790794D01*
X32769718Y35769994D01*
X32785970Y35745671D01*
X32790489Y35722952D01*
X32798235Y35705409D01*
X32804192Y35654060D01*
X32805000Y35650000D01*
X32805000Y34350000D01*
X32804192Y34345941D01*
X32798235Y34294592D01*
X32790489Y34277050D01*
X32785970Y34254329D01*
X32769716Y34230005D01*
X32760534Y34209207D01*
X32746329Y34195003D01*
X32731777Y34173223D01*
X32709997Y34158671D01*
X32695793Y34144466D01*
X32674995Y34135284D01*
X32650671Y34119030D01*
X32627950Y34114511D01*
X32610408Y34106765D01*
X32559061Y34100808D01*
X32555000Y34100000D01*
X31905000Y34100000D01*
X31900941Y34100808D01*
X31849591Y34106765D01*
X31832048Y34114511D01*
X31809329Y34119030D01*
X31785006Y34135282D01*
X31764206Y34144466D01*
X31749999Y34158673D01*
X31728223Y34173223D01*
X31713672Y34195000D01*
X31699465Y34209207D01*
X31690280Y34230009D01*
X31674030Y34254329D01*
X31669511Y34277046D01*
X31661764Y34294592D01*
X31655805Y34345951D01*
X31655000Y34350000D01*
X31655000Y35650000D01*
X31655804Y35654047D01*
X31661764Y35705409D01*
X31669511Y35722957D01*
X31674030Y35745671D01*
X31690278Y35769990D01*
X31699465Y35790794D01*
X31713674Y35805004D01*
X31728223Y35826777D01*
X31749996Y35841326D01*
X31764206Y35855535D01*
X31785010Y35864722D01*
X31809329Y35880970D01*
X31832043Y35885489D01*
X31849591Y35893236D01*
X31900952Y35899195D01*
X31905000Y35900000D01*
X32555000Y35900000D01*
X32559047Y35899195D01*
G37*
G36*
X34316000Y35814000D02*
G01*
X33784000Y35814000D01*
X33784000Y36886000D01*
X34316000Y36886000D01*
X34316000Y35814000D01*
G37*
G36*
X35266000Y35814000D02*
G01*
X34734000Y35814000D01*
X34734000Y36886000D01*
X35266000Y36886000D01*
X35266000Y35814000D01*
G37*
G36*
X36216000Y35814000D02*
G01*
X35684000Y35814000D01*
X35684000Y36886000D01*
X36216000Y36886000D01*
X36216000Y35814000D01*
G37*
G36*
X10803479Y39264081D02*
G01*
X10997488Y39201043D01*
X11179248Y39108432D01*
X11344282Y38988528D01*
X11488528Y38844282D01*
X11608432Y38679248D01*
X11701043Y38497488D01*
X11764081Y38303479D01*
X11795993Y38101997D01*
X11795993Y37898003D01*
X11764081Y37696521D01*
X11701043Y37502512D01*
X11608432Y37320752D01*
X11488528Y37155718D01*
X11344282Y37011472D01*
X11179248Y36891568D01*
X10997488Y36798957D01*
X10803479Y36735919D01*
X10601997Y36704007D01*
X10398003Y36704007D01*
X10196521Y36735919D01*
X10002512Y36798957D01*
X9820752Y36891568D01*
X9655718Y37011472D01*
X9511472Y37155718D01*
X9391568Y37320752D01*
X9298957Y37502512D01*
X9235919Y37696521D01*
X9204007Y37898003D01*
X9204007Y38101997D01*
X9235919Y38303479D01*
X9298957Y38497488D01*
X9391568Y38679248D01*
X9511472Y38844282D01*
X9655718Y38988528D01*
X9820752Y39108432D01*
X10002512Y39201043D01*
X10196521Y39264081D01*
X10398003Y39295993D01*
X10601997Y39295993D01*
X10803479Y39264081D01*
G37*
G36*
X31031104Y37707873D02*
G01*
X31104099Y37659099D01*
X31152873Y37586104D01*
X31170000Y37500000D01*
X31170000Y37000000D01*
X31152873Y36913896D01*
X31104099Y36840901D01*
X31031104Y36792127D01*
X30945000Y36775000D01*
X30495000Y36775000D01*
X30408896Y36792127D01*
X30335901Y36840901D01*
X30287127Y36913896D01*
X30270000Y37000000D01*
X30270000Y37500000D01*
X30287127Y37586104D01*
X30335901Y37659099D01*
X30408896Y37707873D01*
X30495000Y37725000D01*
X30945000Y37725000D01*
X31031104Y37707873D01*
G37*
G36*
X32591104Y37707873D02*
G01*
X32664099Y37659099D01*
X32712873Y37586104D01*
X32730000Y37500000D01*
X32730000Y37000000D01*
X32712873Y36913896D01*
X32664099Y36840901D01*
X32591104Y36792127D01*
X32505000Y36775000D01*
X32055000Y36775000D01*
X31968896Y36792127D01*
X31895901Y36840901D01*
X31847127Y36913896D01*
X31830000Y37000000D01*
X31830000Y37500000D01*
X31847127Y37586104D01*
X31895901Y37659099D01*
X31968896Y37707873D01*
X32055000Y37725000D01*
X32505000Y37725000D01*
X32591104Y37707873D01*
G37*
G36*
X38456537Y38859776D02*
G01*
X38521421Y38816421D01*
X38564776Y38751537D01*
X38580000Y38675000D01*
X38580000Y38125000D01*
X38564776Y38048463D01*
X38521421Y37983579D01*
X38456537Y37940224D01*
X38380000Y37925000D01*
X37980000Y37925000D01*
X37903463Y37940224D01*
X37838579Y37983579D01*
X37795224Y38048463D01*
X37780000Y38125000D01*
X37780000Y38675000D01*
X37795224Y38751537D01*
X37838579Y38816421D01*
X37903463Y38859776D01*
X37980000Y38875000D01*
X38380000Y38875000D01*
X38456537Y38859776D01*
G37*
G36*
X40096537Y38859776D02*
G01*
X40161421Y38816421D01*
X40204776Y38751537D01*
X40220000Y38675000D01*
X40220000Y38125000D01*
X40204776Y38048463D01*
X40161421Y37983579D01*
X40096537Y37940224D01*
X40020000Y37925000D01*
X39620000Y37925000D01*
X39543463Y37940224D01*
X39478579Y37983579D01*
X39435224Y38048463D01*
X39420000Y38125000D01*
X39420000Y38675000D01*
X39435224Y38751537D01*
X39478579Y38816421D01*
X39543463Y38859776D01*
X39620000Y38875000D01*
X40020000Y38875000D01*
X40096537Y38859776D01*
G37*
G36*
X34316000Y38114000D02*
G01*
X33784000Y38114000D01*
X33784000Y39186000D01*
X34316000Y39186000D01*
X34316000Y38114000D01*
G37*
G36*
X35266000Y38114000D02*
G01*
X34734000Y38114000D01*
X34734000Y39186000D01*
X35266000Y39186000D01*
X35266000Y38114000D01*
G37*
G36*
X36216000Y38114000D02*
G01*
X35684000Y38114000D01*
X35684000Y39186000D01*
X36216000Y39186000D01*
X36216000Y38114000D01*
G37*
G36*
X38456537Y40359776D02*
G01*
X38521421Y40316421D01*
X38564776Y40251537D01*
X38580000Y40175000D01*
X38580000Y39625000D01*
X38564776Y39548463D01*
X38521421Y39483579D01*
X38456537Y39440224D01*
X38380000Y39425000D01*
X37980000Y39425000D01*
X37903463Y39440224D01*
X37838579Y39483579D01*
X37795224Y39548463D01*
X37780000Y39625000D01*
X37780000Y40175000D01*
X37795224Y40251537D01*
X37838579Y40316421D01*
X37903463Y40359776D01*
X37980000Y40375000D01*
X38380000Y40375000D01*
X38456537Y40359776D01*
G37*
G36*
X40096537Y40359776D02*
G01*
X40161421Y40316421D01*
X40204776Y40251537D01*
X40220000Y40175000D01*
X40220000Y39625000D01*
X40204776Y39548463D01*
X40161421Y39483579D01*
X40096537Y39440224D01*
X40020000Y39425000D01*
X39620000Y39425000D01*
X39543463Y39440224D01*
X39478579Y39483579D01*
X39435224Y39548463D01*
X39420000Y39625000D01*
X39420000Y40175000D01*
X39435224Y40251537D01*
X39478579Y40316421D01*
X39543463Y40359776D01*
X39620000Y40375000D01*
X40020000Y40375000D01*
X40096537Y40359776D01*
G37*
G36*
X27677500Y39750000D02*
G01*
X21677500Y39750000D01*
X21677500Y41750000D01*
X27677500Y41750000D01*
X27677500Y39750000D01*
G37*
G36*
X31031104Y40857873D02*
G01*
X31104099Y40809099D01*
X31152873Y40736104D01*
X31170000Y40650000D01*
X31170000Y40150000D01*
X31152873Y40063896D01*
X31104099Y39990901D01*
X31031104Y39942127D01*
X30945000Y39925000D01*
X30495000Y39925000D01*
X30408896Y39942127D01*
X30335901Y39990901D01*
X30287127Y40063896D01*
X30270000Y40150000D01*
X30270000Y40650000D01*
X30287127Y40736104D01*
X30335901Y40809099D01*
X30408896Y40857873D01*
X30495000Y40875000D01*
X30945000Y40875000D01*
X31031104Y40857873D01*
G37*
G36*
X32591104Y40857873D02*
G01*
X32664099Y40809099D01*
X32712873Y40736104D01*
X32730000Y40650000D01*
X32730000Y40150000D01*
X32712873Y40063896D01*
X32664099Y39990901D01*
X32591104Y39942127D01*
X32505000Y39925000D01*
X32055000Y39925000D01*
X31968896Y39942127D01*
X31895901Y39990901D01*
X31847127Y40063896D01*
X31830000Y40150000D01*
X31830000Y40650000D01*
X31847127Y40736104D01*
X31895901Y40809099D01*
X31968896Y40857873D01*
X32055000Y40875000D01*
X32505000Y40875000D01*
X32591104Y40857873D01*
G37*
G36*
X20654047Y43094195D02*
G01*
X20705408Y43088236D01*
X20722954Y43080489D01*
X20745671Y43075970D01*
X20769991Y43059720D01*
X20790793Y43050535D01*
X20805000Y43036328D01*
X20826777Y43021777D01*
X20841327Y43000001D01*
X20855534Y42985794D01*
X20864718Y42964994D01*
X20880970Y42940671D01*
X20885489Y42917952D01*
X20893235Y42900409D01*
X20899192Y42849060D01*
X20900000Y42845000D01*
X20900000Y42195000D01*
X20899192Y42190941D01*
X20893235Y42139592D01*
X20885489Y42122050D01*
X20880970Y42099329D01*
X20864716Y42075005D01*
X20855534Y42054207D01*
X20841329Y42040003D01*
X20826777Y42018223D01*
X20804997Y42003671D01*
X20790793Y41989466D01*
X20769995Y41980284D01*
X20745671Y41964030D01*
X20722950Y41959511D01*
X20705408Y41951765D01*
X20654061Y41945808D01*
X20650000Y41945000D01*
X19350000Y41945000D01*
X19345941Y41945808D01*
X19294591Y41951765D01*
X19277048Y41959511D01*
X19254329Y41964030D01*
X19230006Y41980282D01*
X19209206Y41989466D01*
X19194999Y42003673D01*
X19173223Y42018223D01*
X19158672Y42040000D01*
X19144465Y42054207D01*
X19135280Y42075009D01*
X19119030Y42099329D01*
X19114511Y42122046D01*
X19106764Y42139592D01*
X19100805Y42190951D01*
X19100000Y42195000D01*
X19100000Y42845000D01*
X19100804Y42849047D01*
X19106764Y42900409D01*
X19114511Y42917957D01*
X19119030Y42940671D01*
X19135278Y42964990D01*
X19144465Y42985794D01*
X19158674Y43000004D01*
X19173223Y43021777D01*
X19194996Y43036326D01*
X19209206Y43050535D01*
X19230010Y43059722D01*
X19254329Y43075970D01*
X19277043Y43080489D01*
X19294591Y43088236D01*
X19345952Y43094195D01*
X19350000Y43095000D01*
X20650000Y43095000D01*
X20654047Y43094195D01*
G37*
G36*
X27677500Y44050000D02*
G01*
X21677500Y44050000D01*
X21677500Y46050000D01*
X27677500Y46050000D01*
X27677500Y44050000D01*
G37*
G36*
X20654047Y46054195D02*
G01*
X20705408Y46048236D01*
X20722954Y46040489D01*
X20745671Y46035970D01*
X20769991Y46019720D01*
X20790793Y46010535D01*
X20805000Y45996328D01*
X20826777Y45981777D01*
X20841327Y45960001D01*
X20855534Y45945794D01*
X20864718Y45924994D01*
X20880970Y45900671D01*
X20885489Y45877952D01*
X20893235Y45860409D01*
X20899192Y45809060D01*
X20900000Y45805000D01*
X20900000Y45155000D01*
X20899192Y45150941D01*
X20893235Y45099592D01*
X20885489Y45082050D01*
X20880970Y45059329D01*
X20864716Y45035005D01*
X20855534Y45014207D01*
X20841329Y45000003D01*
X20826777Y44978223D01*
X20804997Y44963671D01*
X20790793Y44949466D01*
X20769995Y44940284D01*
X20745671Y44924030D01*
X20722950Y44919511D01*
X20705408Y44911765D01*
X20654061Y44905808D01*
X20650000Y44905000D01*
X19350000Y44905000D01*
X19345941Y44905808D01*
X19294591Y44911765D01*
X19277048Y44919511D01*
X19254329Y44924030D01*
X19230006Y44940282D01*
X19209206Y44949466D01*
X19194999Y44963673D01*
X19173223Y44978223D01*
X19158672Y45000000D01*
X19144465Y45014207D01*
X19135280Y45035009D01*
X19119030Y45059329D01*
X19114511Y45082046D01*
X19106764Y45099592D01*
X19100805Y45150951D01*
X19100000Y45155000D01*
X19100000Y45805000D01*
X19100804Y45809047D01*
X19106764Y45860409D01*
X19114511Y45877957D01*
X19119030Y45900671D01*
X19135278Y45924990D01*
X19144465Y45945794D01*
X19158674Y45960004D01*
X19173223Y45981777D01*
X19194996Y45996326D01*
X19209206Y46010535D01*
X19230010Y46019722D01*
X19254329Y46035970D01*
X19277043Y46040489D01*
X19294591Y46048236D01*
X19345952Y46054195D01*
X19350000Y46055000D01*
X20650000Y46055000D01*
X20654047Y46054195D01*
G37*
G36*
X10159690Y50059649D02*
G01*
X10425023Y49988553D01*
X10678806Y49883433D01*
X10916697Y49746086D01*
X11134626Y49578864D01*
X11328864Y49384626D01*
X11496086Y49166697D01*
X11633433Y48928806D01*
X11738553Y48675023D01*
X11809649Y48409690D01*
X11845504Y48137347D01*
X11845504Y47862653D01*
X11809649Y47590310D01*
X11738553Y47324977D01*
X11633433Y47071194D01*
X11496086Y46833303D01*
X11328864Y46615374D01*
X11134626Y46421136D01*
X10916697Y46253914D01*
X10678806Y46116567D01*
X10425023Y46011447D01*
X10159690Y45940351D01*
X9887347Y45904496D01*
X9612653Y45904496D01*
X9340310Y45940351D01*
X9074977Y46011447D01*
X8821194Y46116567D01*
X8583303Y46253914D01*
X8365374Y46421136D01*
X8171136Y46615374D01*
X8003914Y46833303D01*
X7866567Y47071194D01*
X7761447Y47324977D01*
X7690351Y47590310D01*
X7654496Y47862653D01*
X7654496Y48137347D01*
X7690351Y48409690D01*
X7761447Y48675023D01*
X7866567Y48928806D01*
X8003914Y49166697D01*
X8171136Y49384626D01*
X8365374Y49578864D01*
X8583303Y49746086D01*
X8821194Y49883433D01*
X9074977Y49988553D01*
X9340310Y50059649D01*
X9612653Y50095504D01*
X9887347Y50095504D01*
X10159690Y50059649D01*
G37*
G36*
X35559690Y50059649D02*
G01*
X35825023Y49988553D01*
X36078806Y49883433D01*
X36316697Y49746086D01*
X36534626Y49578864D01*
X36728864Y49384626D01*
X36896086Y49166697D01*
X37033433Y48928806D01*
X37138553Y48675023D01*
X37209649Y48409690D01*
X37245504Y48137347D01*
X37245504Y47862653D01*
X37209649Y47590310D01*
X37138553Y47324977D01*
X37033433Y47071194D01*
X36896086Y46833303D01*
X36728864Y46615374D01*
X36534626Y46421136D01*
X36316697Y46253914D01*
X36078806Y46116567D01*
X35825023Y46011447D01*
X35559690Y45940351D01*
X35287347Y45904496D01*
X35012653Y45904496D01*
X34740310Y45940351D01*
X34474977Y46011447D01*
X34221194Y46116567D01*
X33983303Y46253914D01*
X33765374Y46421136D01*
X33571136Y46615374D01*
X33403914Y46833303D01*
X33266567Y47071194D01*
X33161447Y47324977D01*
X33090351Y47590310D01*
X33054496Y47862653D01*
X33054496Y48137347D01*
X33090351Y48409690D01*
X33161447Y48675023D01*
X33266567Y48928806D01*
X33403914Y49166697D01*
X33571136Y49384626D01*
X33765374Y49578864D01*
X33983303Y49746086D01*
X34221194Y49883433D01*
X34474977Y49988553D01*
X34740310Y50059649D01*
X35012653Y50095504D01*
X35287347Y50095504D01*
X35559690Y50059649D01*
G37*
G36*
X19283199Y52669858D02*
G01*
X19409978Y52617345D01*
X19524075Y52541107D01*
X19621107Y52444075D01*
X19697345Y52329978D01*
X19749858Y52203199D01*
X19776629Y52068612D01*
X19776629Y51931388D01*
X19749858Y51796801D01*
X19697345Y51670022D01*
X19621107Y51555925D01*
X19524075Y51458893D01*
X19409978Y51382655D01*
X19283199Y51330142D01*
X19148612Y51303371D01*
X19011388Y51303371D01*
X18876801Y51330142D01*
X18750022Y51382655D01*
X18635925Y51458893D01*
X18538893Y51555925D01*
X18462655Y51670022D01*
X18410142Y51796801D01*
X18383371Y51931388D01*
X18383371Y52068612D01*
X18410142Y52203199D01*
X18462655Y52329978D01*
X18538893Y52444075D01*
X18635925Y52541107D01*
X18750022Y52617345D01*
X18876801Y52669858D01*
X19011388Y52696629D01*
X19148612Y52696629D01*
X19283199Y52669858D01*
G37*
G36*
X20993199Y52669858D02*
G01*
X21119978Y52617345D01*
X21234075Y52541107D01*
X21331107Y52444075D01*
X21407345Y52329978D01*
X21459858Y52203199D01*
X21486629Y52068612D01*
X21486629Y51931388D01*
X21459858Y51796801D01*
X21407345Y51670022D01*
X21331107Y51555925D01*
X21234075Y51458893D01*
X21119978Y51382655D01*
X20993199Y51330142D01*
X20858612Y51303371D01*
X20721388Y51303371D01*
X20586801Y51330142D01*
X20460022Y51382655D01*
X20345925Y51458893D01*
X20248893Y51555925D01*
X20172655Y51670022D01*
X20120142Y51796801D01*
X20093371Y51931388D01*
X20093371Y52068612D01*
X20120142Y52203199D01*
X20172655Y52329978D01*
X20248893Y52444075D01*
X20345925Y52541107D01*
X20460022Y52617345D01*
X20586801Y52669858D01*
X20721388Y52696629D01*
X20858612Y52696629D01*
X20993199Y52669858D01*
G37*
G36*
X22703199Y52669858D02*
G01*
X22829978Y52617345D01*
X22944075Y52541107D01*
X23041107Y52444075D01*
X23117345Y52329978D01*
X23169858Y52203199D01*
X23196629Y52068612D01*
X23196629Y51931388D01*
X23169858Y51796801D01*
X23117345Y51670022D01*
X23041107Y51555925D01*
X22944075Y51458893D01*
X22829978Y51382655D01*
X22703199Y51330142D01*
X22568612Y51303371D01*
X22431388Y51303371D01*
X22296801Y51330142D01*
X22170022Y51382655D01*
X22055925Y51458893D01*
X21958893Y51555925D01*
X21882655Y51670022D01*
X21830142Y51796801D01*
X21803371Y51931388D01*
X21803371Y52068612D01*
X21830142Y52203199D01*
X21882655Y52329978D01*
X21958893Y52444075D01*
X22055925Y52541107D01*
X22170022Y52617345D01*
X22296801Y52669858D01*
X22431388Y52696629D01*
X22568612Y52696629D01*
X22703199Y52669858D01*
G37*
G36*
X24413199Y52669858D02*
G01*
X24539978Y52617345D01*
X24654075Y52541107D01*
X24751107Y52444075D01*
X24827345Y52329978D01*
X24879858Y52203199D01*
X24906629Y52068612D01*
X24906629Y51931388D01*
X24879858Y51796801D01*
X24827345Y51670022D01*
X24751107Y51555925D01*
X24654075Y51458893D01*
X24539978Y51382655D01*
X24413199Y51330142D01*
X24278612Y51303371D01*
X24141388Y51303371D01*
X24006801Y51330142D01*
X23880022Y51382655D01*
X23765925Y51458893D01*
X23668893Y51555925D01*
X23592655Y51670022D01*
X23540142Y51796801D01*
X23513371Y51931388D01*
X23513371Y52068612D01*
X23540142Y52203199D01*
X23592655Y52329978D01*
X23668893Y52444075D01*
X23765925Y52541107D01*
X23880022Y52617345D01*
X24006801Y52669858D01*
X24141388Y52696629D01*
X24278612Y52696629D01*
X24413199Y52669858D01*
G37*
G36*
X26123199Y52669858D02*
G01*
X26249978Y52617345D01*
X26364075Y52541107D01*
X26461107Y52444075D01*
X26537345Y52329978D01*
X26589858Y52203199D01*
X26616629Y52068612D01*
X26616629Y51931388D01*
X26589858Y51796801D01*
X26537345Y51670022D01*
X26461107Y51555925D01*
X26364075Y51458893D01*
X26249978Y51382655D01*
X26123199Y51330142D01*
X25988612Y51303371D01*
X25851388Y51303371D01*
X25716801Y51330142D01*
X25590022Y51382655D01*
X25475925Y51458893D01*
X25378893Y51555925D01*
X25302655Y51670022D01*
X25250142Y51796801D01*
X25223371Y51931388D01*
X25223371Y52068612D01*
X25250142Y52203199D01*
X25302655Y52329978D01*
X25378893Y52444075D01*
X25475925Y52541107D01*
X25590022Y52617345D01*
X25716801Y52669858D01*
X25851388Y52696629D01*
X25988612Y52696629D01*
X26123199Y52669858D01*
G37*
G36*
X18849047Y56899195D02*
G01*
X18900408Y56893236D01*
X18917954Y56885489D01*
X18940671Y56880970D01*
X18964991Y56864720D01*
X18985793Y56855535D01*
X19000000Y56841328D01*
X19021777Y56826777D01*
X19036327Y56805001D01*
X19050534Y56790794D01*
X19059718Y56769994D01*
X19075970Y56745671D01*
X19080489Y56722952D01*
X19088235Y56705409D01*
X19094192Y56654060D01*
X19095000Y56650000D01*
X19095000Y55350000D01*
X19094192Y55345941D01*
X19088235Y55294592D01*
X19080489Y55277050D01*
X19075970Y55254329D01*
X19059716Y55230005D01*
X19050534Y55209207D01*
X19036329Y55195003D01*
X19021777Y55173223D01*
X18999997Y55158671D01*
X18985793Y55144466D01*
X18964995Y55135284D01*
X18940671Y55119030D01*
X18917950Y55114511D01*
X18900408Y55106765D01*
X18849061Y55100808D01*
X18845000Y55100000D01*
X18195000Y55100000D01*
X18190941Y55100808D01*
X18139591Y55106765D01*
X18122048Y55114511D01*
X18099329Y55119030D01*
X18075006Y55135282D01*
X18054206Y55144466D01*
X18039999Y55158673D01*
X18018223Y55173223D01*
X18003672Y55195000D01*
X17989465Y55209207D01*
X17980280Y55230009D01*
X17964030Y55254329D01*
X17959511Y55277046D01*
X17951764Y55294592D01*
X17945805Y55345951D01*
X17945000Y55350000D01*
X17945000Y56650000D01*
X17945804Y56654047D01*
X17951764Y56705409D01*
X17959511Y56722957D01*
X17964030Y56745671D01*
X17980278Y56769990D01*
X17989465Y56790794D01*
X18003674Y56805004D01*
X18018223Y56826777D01*
X18039996Y56841326D01*
X18054206Y56855535D01*
X18075010Y56864722D01*
X18099329Y56880970D01*
X18122043Y56885489D01*
X18139591Y56893236D01*
X18190952Y56899195D01*
X18195000Y56900000D01*
X18845000Y56900000D01*
X18849047Y56899195D01*
G37*
G36*
X21809047Y56899195D02*
G01*
X21860408Y56893236D01*
X21877954Y56885489D01*
X21900671Y56880970D01*
X21924991Y56864720D01*
X21945793Y56855535D01*
X21960000Y56841328D01*
X21981777Y56826777D01*
X21996327Y56805001D01*
X22010534Y56790794D01*
X22019718Y56769994D01*
X22035970Y56745671D01*
X22040489Y56722952D01*
X22048235Y56705409D01*
X22054192Y56654060D01*
X22055000Y56650000D01*
X22055000Y55350000D01*
X22054192Y55345941D01*
X22048235Y55294592D01*
X22040489Y55277050D01*
X22035970Y55254329D01*
X22019716Y55230005D01*
X22010534Y55209207D01*
X21996329Y55195003D01*
X21981777Y55173223D01*
X21959997Y55158671D01*
X21945793Y55144466D01*
X21924995Y55135284D01*
X21900671Y55119030D01*
X21877950Y55114511D01*
X21860408Y55106765D01*
X21809061Y55100808D01*
X21805000Y55100000D01*
X21155000Y55100000D01*
X21150941Y55100808D01*
X21099591Y55106765D01*
X21082048Y55114511D01*
X21059329Y55119030D01*
X21035006Y55135282D01*
X21014206Y55144466D01*
X20999999Y55158673D01*
X20978223Y55173223D01*
X20963672Y55195000D01*
X20949465Y55209207D01*
X20940280Y55230009D01*
X20924030Y55254329D01*
X20919511Y55277046D01*
X20911764Y55294592D01*
X20905805Y55345951D01*
X20905000Y55350000D01*
X20905000Y56650000D01*
X20905804Y56654047D01*
X20911764Y56705409D01*
X20919511Y56722957D01*
X20924030Y56745671D01*
X20940278Y56769990D01*
X20949465Y56790794D01*
X20963674Y56805004D01*
X20978223Y56826777D01*
X20999996Y56841326D01*
X21014206Y56855535D01*
X21035010Y56864722D01*
X21059329Y56880970D01*
X21082043Y56885489D01*
X21099591Y56893236D01*
X21150952Y56899195D01*
X21155000Y56900000D01*
X21805000Y56900000D01*
X21809047Y56899195D01*
G37*
G36*
X23849047Y56899195D02*
G01*
X23900408Y56893236D01*
X23917954Y56885489D01*
X23940671Y56880970D01*
X23964991Y56864720D01*
X23985793Y56855535D01*
X24000000Y56841328D01*
X24021777Y56826777D01*
X24036327Y56805001D01*
X24050534Y56790794D01*
X24059718Y56769994D01*
X24075970Y56745671D01*
X24080489Y56722952D01*
X24088235Y56705409D01*
X24094192Y56654060D01*
X24095000Y56650000D01*
X24095000Y55350000D01*
X24094192Y55345941D01*
X24088235Y55294592D01*
X24080489Y55277050D01*
X24075970Y55254329D01*
X24059716Y55230005D01*
X24050534Y55209207D01*
X24036329Y55195003D01*
X24021777Y55173223D01*
X23999997Y55158671D01*
X23985793Y55144466D01*
X23964995Y55135284D01*
X23940671Y55119030D01*
X23917950Y55114511D01*
X23900408Y55106765D01*
X23849061Y55100808D01*
X23845000Y55100000D01*
X23195000Y55100000D01*
X23190941Y55100808D01*
X23139591Y55106765D01*
X23122048Y55114511D01*
X23099329Y55119030D01*
X23075006Y55135282D01*
X23054206Y55144466D01*
X23039999Y55158673D01*
X23018223Y55173223D01*
X23003672Y55195000D01*
X22989465Y55209207D01*
X22980280Y55230009D01*
X22964030Y55254329D01*
X22959511Y55277046D01*
X22951764Y55294592D01*
X22945805Y55345951D01*
X22945000Y55350000D01*
X22945000Y56650000D01*
X22945804Y56654047D01*
X22951764Y56705409D01*
X22959511Y56722957D01*
X22964030Y56745671D01*
X22980278Y56769990D01*
X22989465Y56790794D01*
X23003674Y56805004D01*
X23018223Y56826777D01*
X23039996Y56841326D01*
X23054206Y56855535D01*
X23075010Y56864722D01*
X23099329Y56880970D01*
X23122043Y56885489D01*
X23139591Y56893236D01*
X23190952Y56899195D01*
X23195000Y56900000D01*
X23845000Y56900000D01*
X23849047Y56899195D01*
G37*
G36*
X26809047Y56899195D02*
G01*
X26860408Y56893236D01*
X26877954Y56885489D01*
X26900671Y56880970D01*
X26924991Y56864720D01*
X26945793Y56855535D01*
X26960000Y56841328D01*
X26981777Y56826777D01*
X26996327Y56805001D01*
X27010534Y56790794D01*
X27019718Y56769994D01*
X27035970Y56745671D01*
X27040489Y56722952D01*
X27048235Y56705409D01*
X27054192Y56654060D01*
X27055000Y56650000D01*
X27055000Y55350000D01*
X27054192Y55345941D01*
X27048235Y55294592D01*
X27040489Y55277050D01*
X27035970Y55254329D01*
X27019716Y55230005D01*
X27010534Y55209207D01*
X26996329Y55195003D01*
X26981777Y55173223D01*
X26959997Y55158671D01*
X26945793Y55144466D01*
X26924995Y55135284D01*
X26900671Y55119030D01*
X26877950Y55114511D01*
X26860408Y55106765D01*
X26809061Y55100808D01*
X26805000Y55100000D01*
X26155000Y55100000D01*
X26150941Y55100808D01*
X26099591Y55106765D01*
X26082048Y55114511D01*
X26059329Y55119030D01*
X26035006Y55135282D01*
X26014206Y55144466D01*
X25999999Y55158673D01*
X25978223Y55173223D01*
X25963672Y55195000D01*
X25949465Y55209207D01*
X25940280Y55230009D01*
X25924030Y55254329D01*
X25919511Y55277046D01*
X25911764Y55294592D01*
X25905805Y55345951D01*
X25905000Y55350000D01*
X25905000Y56650000D01*
X25905804Y56654047D01*
X25911764Y56705409D01*
X25919511Y56722957D01*
X25924030Y56745671D01*
X25940278Y56769990D01*
X25949465Y56790794D01*
X25963674Y56805004D01*
X25978223Y56826777D01*
X25999996Y56841326D01*
X26014206Y56855535D01*
X26035010Y56864722D01*
X26059329Y56880970D01*
X26082043Y56885489D01*
X26099591Y56893236D01*
X26150952Y56899195D01*
X26155000Y56900000D01*
X26805000Y56900000D01*
X26809047Y56899195D01*
G37*
G36*
X13110000Y55155000D02*
G01*
X11890000Y55155000D01*
X11890000Y56065000D01*
X13110000Y56065000D01*
X13110000Y55155000D01*
G37*
G36*
X33507500Y56100000D02*
G01*
X31932500Y56100000D01*
X31932500Y57900000D01*
X33507500Y57900000D01*
X33507500Y56100000D01*
G37*
G36*
X35521256Y57861246D02*
G01*
X35684257Y57793729D01*
X35830954Y57695709D01*
X35955709Y57570954D01*
X36053729Y57424257D01*
X36121246Y57261256D01*
X36155666Y57088215D01*
X36155666Y56911785D01*
X36121246Y56738744D01*
X36053729Y56575743D01*
X35955709Y56429046D01*
X35830954Y56304291D01*
X35684257Y56206271D01*
X35521256Y56138754D01*
X35348215Y56104334D01*
X35171785Y56104334D01*
X34998744Y56138754D01*
X34835743Y56206271D01*
X34689046Y56304291D01*
X34564291Y56429046D01*
X34466271Y56575743D01*
X34398754Y56738744D01*
X34364334Y56911785D01*
X34364334Y57088215D01*
X34398754Y57261256D01*
X34466271Y57424257D01*
X34564291Y57570954D01*
X34689046Y57695709D01*
X34835743Y57793729D01*
X34998744Y57861246D01*
X35171785Y57895666D01*
X35348215Y57895666D01*
X35521256Y57861246D01*
G37*
G36*
X38061256Y57861246D02*
G01*
X38224257Y57793729D01*
X38370954Y57695709D01*
X38495709Y57570954D01*
X38593729Y57424257D01*
X38661246Y57261256D01*
X38695666Y57088215D01*
X38695666Y56911785D01*
X38661246Y56738744D01*
X38593729Y56575743D01*
X38495709Y56429046D01*
X38370954Y56304291D01*
X38224257Y56206271D01*
X38061256Y56138754D01*
X37888215Y56104334D01*
X37711785Y56104334D01*
X37538744Y56138754D01*
X37375743Y56206271D01*
X37229046Y56304291D01*
X37104291Y56429046D01*
X37006271Y56575743D01*
X36938754Y56738744D01*
X36904334Y56911785D01*
X36904334Y57088215D01*
X36938754Y57261256D01*
X37006271Y57424257D01*
X37104291Y57570954D01*
X37229046Y57695709D01*
X37375743Y57793729D01*
X37538744Y57861246D01*
X37711785Y57895666D01*
X37888215Y57895666D01*
X38061256Y57861246D01*
G37*
G36*
X5745000Y56175000D02*
G01*
X5255000Y56175000D01*
X5255000Y57165000D01*
X5745000Y57165000D01*
X5745000Y56175000D01*
G37*
G36*
X16086104Y57372873D02*
G01*
X16159099Y57324099D01*
X16207873Y57251104D01*
X16225000Y57165000D01*
X16225000Y56715000D01*
X16207873Y56628896D01*
X16159099Y56555901D01*
X16086104Y56507127D01*
X16000000Y56490000D01*
X15500000Y56490000D01*
X15413896Y56507127D01*
X15340901Y56555901D01*
X15292127Y56628896D01*
X15275000Y56715000D01*
X15275000Y57165000D01*
X15292127Y57251104D01*
X15340901Y57324099D01*
X15413896Y57372873D01*
X15500000Y57390000D01*
X16000000Y57390000D01*
X16086104Y57372873D01*
G37*
G36*
X7836104Y57622873D02*
G01*
X7909099Y57574099D01*
X7957873Y57501104D01*
X7975000Y57415000D01*
X7975000Y56965000D01*
X7957873Y56878896D01*
X7909099Y56805901D01*
X7836104Y56757127D01*
X7750000Y56740000D01*
X7250000Y56740000D01*
X7163896Y56757127D01*
X7090901Y56805901D01*
X7042127Y56878896D01*
X7025000Y56965000D01*
X7025000Y57415000D01*
X7042127Y57501104D01*
X7090901Y57574099D01*
X7163896Y57622873D01*
X7250000Y57640000D01*
X7750000Y57640000D01*
X7836104Y57622873D01*
G37*
G36*
X9851537Y57534776D02*
G01*
X9916421Y57491421D01*
X9959776Y57426537D01*
X9975000Y57350000D01*
X9975000Y56950000D01*
X9959776Y56873463D01*
X9916421Y56808579D01*
X9851537Y56765224D01*
X9775000Y56750000D01*
X9225000Y56750000D01*
X9148463Y56765224D01*
X9083579Y56808579D01*
X9040224Y56873463D01*
X9025000Y56950000D01*
X9025000Y57350000D01*
X9040224Y57426537D01*
X9083579Y57491421D01*
X9148463Y57534776D01*
X9225000Y57550000D01*
X9775000Y57550000D01*
X9851537Y57534776D01*
G37*
G36*
X16086104Y58932873D02*
G01*
X16159099Y58884099D01*
X16207873Y58811104D01*
X16225000Y58725000D01*
X16225000Y58275000D01*
X16207873Y58188896D01*
X16159099Y58115901D01*
X16086104Y58067127D01*
X16000000Y58050000D01*
X15500000Y58050000D01*
X15413896Y58067127D01*
X15340901Y58115901D01*
X15292127Y58188896D01*
X15275000Y58275000D01*
X15275000Y58725000D01*
X15292127Y58811104D01*
X15340901Y58884099D01*
X15413896Y58932873D01*
X15500000Y58950000D01*
X16000000Y58950000D01*
X16086104Y58932873D01*
G37*
G36*
X7836104Y59182873D02*
G01*
X7909099Y59134099D01*
X7957873Y59061104D01*
X7975000Y58975000D01*
X7975000Y58525000D01*
X7957873Y58438896D01*
X7909099Y58365901D01*
X7836104Y58317127D01*
X7750000Y58300000D01*
X7250000Y58300000D01*
X7163896Y58317127D01*
X7090901Y58365901D01*
X7042127Y58438896D01*
X7025000Y58525000D01*
X7025000Y58975000D01*
X7042127Y59061104D01*
X7090901Y59134099D01*
X7163896Y59182873D01*
X7250000Y59200000D01*
X7750000Y59200000D01*
X7836104Y59182873D01*
G37*
G36*
X9851537Y59174776D02*
G01*
X9916421Y59131421D01*
X9959776Y59066537D01*
X9975000Y58990000D01*
X9975000Y58590000D01*
X9959776Y58513463D01*
X9916421Y58448579D01*
X9851537Y58405224D01*
X9775000Y58390000D01*
X9225000Y58390000D01*
X9148463Y58405224D01*
X9083579Y58448579D01*
X9040224Y58513463D01*
X9025000Y58590000D01*
X9025000Y58990000D01*
X9040224Y59066537D01*
X9083579Y59131421D01*
X9148463Y59174776D01*
X9225000Y59190000D01*
X9775000Y59190000D01*
X9851537Y59174776D01*
G37*
G36*
X5745000Y58415000D02*
G01*
X5255000Y58415000D01*
X5255000Y59405000D01*
X5745000Y59405000D01*
X5745000Y58415000D01*
G37*
G36*
X13110000Y58435000D02*
G01*
X11890000Y58435000D01*
X11890000Y59345000D01*
X13110000Y59345000D01*
X13110000Y58435000D01*
G37*
G36*
X20630500Y59045000D02*
G01*
X19369500Y59045000D01*
X19369500Y62955000D01*
X20630500Y62955000D01*
X20630500Y59045000D01*
G37*
G36*
X10850000Y60315000D02*
G01*
X9150000Y60315000D01*
X8700000Y60315000D01*
X8700000Y60735000D01*
X9120711Y60735000D01*
X9150000Y60764289D01*
X9150000Y60935712D01*
X9120712Y60965000D01*
X8700000Y60965000D01*
X8700000Y61385000D01*
X9120711Y61385000D01*
X9150000Y61414289D01*
X9150000Y61585712D01*
X9120712Y61615000D01*
X8700000Y61615000D01*
X8700000Y62035000D01*
X9120711Y62035000D01*
X9150000Y62064289D01*
X9150000Y62235712D01*
X9120712Y62265000D01*
X8700000Y62265000D01*
X8700000Y62685000D01*
X9150000Y62685000D01*
X10845077Y62685000D01*
X10850000Y62685000D01*
X10850000Y60315000D01*
G37*
G36*
X12200000Y60315000D02*
G01*
X11500000Y60315000D01*
X11500000Y60735000D01*
X12200000Y60735000D01*
X12200000Y60315000D01*
G37*
G36*
X3256790Y62569607D02*
G01*
X3420952Y62516267D01*
X3574748Y62437904D01*
X3714393Y62336447D01*
X3836447Y62214393D01*
X3937904Y62074748D01*
X4016267Y61920952D01*
X4069607Y61756790D01*
X4096609Y61586305D01*
X4096609Y61413695D01*
X4069607Y61243210D01*
X4016267Y61079048D01*
X3937904Y60925252D01*
X3836447Y60785607D01*
X3714393Y60663553D01*
X3574748Y60562096D01*
X3420952Y60483733D01*
X3256790Y60430393D01*
X3086305Y60403391D01*
X2913695Y60403391D01*
X2743210Y60430393D01*
X2579048Y60483733D01*
X2425252Y60562096D01*
X2285607Y60663553D01*
X2163553Y60785607D01*
X2062096Y60925252D01*
X1983733Y61079048D01*
X1930393Y61243210D01*
X1903391Y61413695D01*
X1903391Y61586305D01*
X1930393Y61756790D01*
X1983733Y61920952D01*
X2062096Y62074748D01*
X2163553Y62214393D01*
X2285607Y62336447D01*
X2425252Y62437904D01*
X2579048Y62516267D01*
X2743210Y62569607D01*
X2913695Y62596609D01*
X3086305Y62596609D01*
X3256790Y62569607D01*
G37*
G36*
X35256790Y62569607D02*
G01*
X35420952Y62516267D01*
X35574748Y62437904D01*
X35714393Y62336447D01*
X35836447Y62214393D01*
X35937904Y62074748D01*
X36016267Y61920952D01*
X36069607Y61756790D01*
X36096609Y61586305D01*
X36096609Y61413695D01*
X36069607Y61243210D01*
X36016267Y61079048D01*
X35937904Y60925252D01*
X35836447Y60785607D01*
X35714393Y60663553D01*
X35574748Y60562096D01*
X35420952Y60483733D01*
X35256790Y60430393D01*
X35086305Y60403391D01*
X34913695Y60403391D01*
X34743210Y60430393D01*
X34579048Y60483733D01*
X34425252Y60562096D01*
X34285607Y60663553D01*
X34163553Y60785607D01*
X34062096Y60925252D01*
X33983733Y61079048D01*
X33930393Y61243210D01*
X33903391Y61413695D01*
X33903391Y61586305D01*
X33930393Y61756790D01*
X33983733Y61920952D01*
X34062096Y62074748D01*
X34163553Y62214393D01*
X34285607Y62336447D01*
X34425252Y62437904D01*
X34579048Y62516267D01*
X34743210Y62569607D01*
X34913695Y62596609D01*
X35086305Y62596609D01*
X35256790Y62569607D01*
G37*
G36*
X13786104Y61652873D02*
G01*
X13859099Y61604099D01*
X13907873Y61531104D01*
X13925000Y61445000D01*
X13925000Y60995000D01*
X13907873Y60908896D01*
X13859099Y60835901D01*
X13786104Y60787127D01*
X13700000Y60770000D01*
X13200000Y60770000D01*
X13113896Y60787127D01*
X13040901Y60835901D01*
X12992127Y60908896D01*
X12975000Y60995000D01*
X12975000Y61445000D01*
X12992127Y61531104D01*
X13040901Y61604099D01*
X13113896Y61652873D01*
X13200000Y61670000D01*
X13700000Y61670000D01*
X13786104Y61652873D01*
G37*
G36*
X12200000Y60965000D02*
G01*
X11500000Y60965000D01*
X11500000Y61385000D01*
X12200000Y61385000D01*
X12200000Y60965000D01*
G37*
G36*
X7090285Y63046940D02*
G01*
X7271397Y62971921D01*
X7434393Y62863010D01*
X7573010Y62724393D01*
X7681921Y62561397D01*
X7756940Y62380285D01*
X7795185Y62188017D01*
X7795185Y61991983D01*
X7756940Y61799715D01*
X7681921Y61618603D01*
X7573010Y61455607D01*
X7434393Y61316990D01*
X7271397Y61208079D01*
X7090285Y61133060D01*
X6898017Y61094815D01*
X6701983Y61094815D01*
X6509715Y61133060D01*
X6328603Y61208079D01*
X6165607Y61316990D01*
X6026990Y61455607D01*
X5918079Y61618603D01*
X5843060Y61799715D01*
X5804815Y61991983D01*
X5804815Y62188017D01*
X5843060Y62380285D01*
X5918079Y62561397D01*
X6026990Y62724393D01*
X6165607Y62863010D01*
X6328603Y62971921D01*
X6509715Y63046940D01*
X6701983Y63085185D01*
X6898017Y63085185D01*
X7090285Y63046940D01*
G37*
G36*
X12200000Y61615000D02*
G01*
X11500000Y61615000D01*
X11500000Y62035000D01*
X12200000Y62035000D01*
X12200000Y61615000D01*
G37*
G36*
X40591342Y63036940D02*
G01*
X40704381Y62971677D01*
X40796677Y62879381D01*
X40861940Y62766342D01*
X40895722Y62640263D01*
X40895722Y62509737D01*
X40861940Y62383658D01*
X40796677Y62270619D01*
X40704381Y62178323D01*
X40591342Y62113060D01*
X40465263Y62079278D01*
X40334737Y62079278D01*
X40208658Y62113060D01*
X40095619Y62178323D01*
X40003323Y62270619D01*
X39938060Y62383658D01*
X39904278Y62509737D01*
X39904278Y62640263D01*
X39938060Y62766342D01*
X40003323Y62879381D01*
X40095619Y62971677D01*
X40208658Y63036940D01*
X40334737Y63070722D01*
X40465263Y63070722D01*
X40591342Y63036940D01*
G37*
G36*
X12200000Y62265000D02*
G01*
X11500000Y62265000D01*
X11500000Y62685000D01*
X12200000Y62685000D01*
X12200000Y62265000D01*
G37*
G36*
X13786104Y63212873D02*
G01*
X13859099Y63164099D01*
X13907873Y63091104D01*
X13925000Y63005000D01*
X13925000Y62555000D01*
X13907873Y62468896D01*
X13859099Y62395901D01*
X13786104Y62347127D01*
X13700000Y62330000D01*
X13200000Y62330000D01*
X13113896Y62347127D01*
X13040901Y62395901D01*
X12992127Y62468896D01*
X12975000Y62555000D01*
X12975000Y63005000D01*
X12992127Y63091104D01*
X13040901Y63164099D01*
X13113896Y63212873D01*
X13200000Y63230000D01*
X13700000Y63230000D01*
X13786104Y63212873D01*
G37*
G36*
X6868858Y66584867D02*
G01*
X6878316Y66584867D01*
X6905563Y66577567D01*
X6974099Y66563934D01*
X7006448Y66550535D01*
X7029610Y66544328D01*
X7050377Y66532338D01*
X7082722Y66518940D01*
X7140816Y66480123D01*
X7165257Y66466012D01*
X7171946Y66459323D01*
X7180481Y66453620D01*
X7263619Y66370482D01*
X7269321Y66361948D01*
X7276012Y66355257D01*
X7290124Y66330814D01*
X7328939Y66272723D01*
X7342335Y66240382D01*
X7354328Y66219610D01*
X7360535Y66196445D01*
X7373933Y66164100D01*
X7387563Y66095574D01*
X7394867Y66068316D01*
X7395791Y66054205D01*
X7397110Y66047578D01*
X7399758Y65993689D01*
X7400000Y65990000D01*
X7400000Y64690000D01*
X7399758Y64686309D01*
X7397110Y64632423D01*
X7395791Y64625797D01*
X7394867Y64611684D01*
X7387562Y64584424D01*
X7373933Y64515901D01*
X7360535Y64483559D01*
X7354328Y64460390D01*
X7342334Y64439617D01*
X7328939Y64407278D01*
X7290128Y64349195D01*
X7276012Y64324743D01*
X7269319Y64318051D01*
X7263619Y64309519D01*
X7180481Y64226381D01*
X7171949Y64220681D01*
X7165257Y64213988D01*
X7140805Y64199872D01*
X7082722Y64161061D01*
X7050383Y64147666D01*
X7029610Y64135672D01*
X7006441Y64129465D01*
X6974099Y64116067D01*
X6905569Y64102436D01*
X6878316Y64095133D01*
X6868858Y64095133D01*
X6858788Y64093130D01*
X6741212Y64093130D01*
X6731142Y64095133D01*
X6721684Y64095133D01*
X6694432Y64102436D01*
X6625900Y64116067D01*
X6593555Y64129465D01*
X6570390Y64135672D01*
X6549618Y64147665D01*
X6517277Y64161061D01*
X6459186Y64199876D01*
X6434743Y64213988D01*
X6428052Y64220679D01*
X6419518Y64226381D01*
X6336380Y64309519D01*
X6330677Y64318054D01*
X6323988Y64324743D01*
X6309877Y64349184D01*
X6271060Y64407278D01*
X6257662Y64439623D01*
X6245672Y64460390D01*
X6239465Y64483552D01*
X6226066Y64515901D01*
X6212433Y64584438D01*
X6205133Y64611684D01*
X6204208Y64625790D01*
X6202889Y64632423D01*
X6200241Y64686314D01*
X6200000Y64690000D01*
X6200000Y65990000D01*
X6200241Y65993684D01*
X6202889Y66047578D01*
X6204208Y66054213D01*
X6205133Y66068316D01*
X6212432Y66095560D01*
X6226066Y66164100D01*
X6239466Y66196452D01*
X6245672Y66219610D01*
X6257660Y66240376D01*
X6271060Y66272723D01*
X6309881Y66330825D01*
X6323988Y66355257D01*
X6330675Y66361945D01*
X6336380Y66370482D01*
X6419518Y66453620D01*
X6428055Y66459325D01*
X6434743Y66466012D01*
X6459175Y66480119D01*
X6517277Y66518940D01*
X6549624Y66532340D01*
X6570390Y66544328D01*
X6593548Y66550534D01*
X6625900Y66563934D01*
X6694437Y66577567D01*
X6721684Y66584867D01*
X6731142Y66584867D01*
X6741212Y66586870D01*
X6858788Y66586870D01*
X6868858Y66584867D01*
G37*
G36*
X12068858Y66584867D02*
G01*
X12078316Y66584867D01*
X12105563Y66577567D01*
X12174099Y66563934D01*
X12206448Y66550535D01*
X12229610Y66544328D01*
X12250377Y66532338D01*
X12282722Y66518940D01*
X12340816Y66480123D01*
X12365257Y66466012D01*
X12371946Y66459323D01*
X12380481Y66453620D01*
X12463619Y66370482D01*
X12469321Y66361948D01*
X12476012Y66355257D01*
X12490124Y66330814D01*
X12528939Y66272723D01*
X12542335Y66240382D01*
X12554328Y66219610D01*
X12560535Y66196445D01*
X12573933Y66164100D01*
X12587563Y66095574D01*
X12594867Y66068316D01*
X12595791Y66054205D01*
X12597110Y66047578D01*
X12599758Y65993689D01*
X12600000Y65990000D01*
X12600000Y64690000D01*
X12599758Y64686309D01*
X12597110Y64632423D01*
X12595791Y64625797D01*
X12594867Y64611684D01*
X12587562Y64584424D01*
X12573933Y64515901D01*
X12560535Y64483559D01*
X12554328Y64460390D01*
X12542334Y64439617D01*
X12528939Y64407278D01*
X12490128Y64349195D01*
X12476012Y64324743D01*
X12469319Y64318051D01*
X12463619Y64309519D01*
X12380481Y64226381D01*
X12371949Y64220681D01*
X12365257Y64213988D01*
X12340805Y64199872D01*
X12282722Y64161061D01*
X12250383Y64147666D01*
X12229610Y64135672D01*
X12206441Y64129465D01*
X12174099Y64116067D01*
X12105569Y64102436D01*
X12078316Y64095133D01*
X12068858Y64095133D01*
X12058788Y64093130D01*
X11941212Y64093130D01*
X11931142Y64095133D01*
X11921684Y64095133D01*
X11894432Y64102436D01*
X11825900Y64116067D01*
X11793555Y64129465D01*
X11770390Y64135672D01*
X11749618Y64147665D01*
X11717277Y64161061D01*
X11659186Y64199876D01*
X11634743Y64213988D01*
X11628052Y64220679D01*
X11619518Y64226381D01*
X11536380Y64309519D01*
X11530677Y64318054D01*
X11523988Y64324743D01*
X11509877Y64349184D01*
X11471060Y64407278D01*
X11457662Y64439623D01*
X11445672Y64460390D01*
X11439465Y64483552D01*
X11426066Y64515901D01*
X11412433Y64584438D01*
X11405133Y64611684D01*
X11404208Y64625790D01*
X11402889Y64632423D01*
X11400241Y64686314D01*
X11400000Y64690000D01*
X11400000Y65990000D01*
X11400241Y65993684D01*
X11402889Y66047578D01*
X11404208Y66054213D01*
X11405133Y66068316D01*
X11412432Y66095560D01*
X11426066Y66164100D01*
X11439466Y66196452D01*
X11445672Y66219610D01*
X11457660Y66240376D01*
X11471060Y66272723D01*
X11509881Y66330825D01*
X11523988Y66355257D01*
X11530675Y66361945D01*
X11536380Y66370482D01*
X11619518Y66453620D01*
X11628055Y66459325D01*
X11634743Y66466012D01*
X11659175Y66480119D01*
X11717277Y66518940D01*
X11749624Y66532340D01*
X11770390Y66544328D01*
X11793548Y66550534D01*
X11825900Y66563934D01*
X11894437Y66577567D01*
X11921684Y66584867D01*
X11931142Y66584867D01*
X11941212Y66586870D01*
X12058788Y66586870D01*
X12068858Y66584867D01*
G37*
G36*
X29251537Y64964776D02*
G01*
X29316421Y64921421D01*
X29359776Y64856537D01*
X29375000Y64780000D01*
X29375000Y64380000D01*
X29359776Y64303463D01*
X29316421Y64238579D01*
X29251537Y64195224D01*
X29175000Y64180000D01*
X28625000Y64180000D01*
X28548463Y64195224D01*
X28483579Y64238579D01*
X28440224Y64303463D01*
X28425000Y64380000D01*
X28425000Y64780000D01*
X28440224Y64856537D01*
X28483579Y64921421D01*
X28548463Y64964776D01*
X28625000Y64980000D01*
X29175000Y64980000D01*
X29251537Y64964776D01*
G37*
G36*
X33951537Y64964776D02*
G01*
X34016421Y64921421D01*
X34059776Y64856537D01*
X34075000Y64780000D01*
X34075000Y64380000D01*
X34059776Y64303463D01*
X34016421Y64238579D01*
X33951537Y64195224D01*
X33875000Y64180000D01*
X33325000Y64180000D01*
X33248463Y64195224D01*
X33183579Y64238579D01*
X33140224Y64303463D01*
X33125000Y64380000D01*
X33125000Y64780000D01*
X33140224Y64856537D01*
X33183579Y64921421D01*
X33248463Y64964776D01*
X33325000Y64980000D01*
X33875000Y64980000D01*
X33951537Y64964776D01*
G37*
G36*
X30350000Y64767500D02*
G01*
X30150000Y64767500D01*
X30150000Y65332500D01*
X30350000Y65332500D01*
X30350000Y64767500D01*
G37*
G36*
X30850000Y64767500D02*
G01*
X30650000Y64767500D01*
X30650000Y65332500D01*
X30850000Y65332500D01*
X30850000Y64767500D01*
G37*
G36*
X31450000Y64767500D02*
G01*
X31050000Y64767500D01*
X31050000Y65332500D01*
X31450000Y65332500D01*
X31450000Y64767500D01*
G37*
G36*
X31850000Y64767500D02*
G01*
X31650000Y64767500D01*
X31650000Y65332500D01*
X31850000Y65332500D01*
X31850000Y64767500D01*
G37*
G36*
X32350000Y64767500D02*
G01*
X32150000Y64767500D01*
X32150000Y65332500D01*
X32350000Y65332500D01*
X32350000Y64767500D01*
G37*
G36*
X30350000Y65567500D02*
G01*
X30150000Y65567500D01*
X30150000Y66132500D01*
X30350000Y66132500D01*
X30350000Y65567500D01*
G37*
G36*
X30850000Y65567500D02*
G01*
X30650000Y65567500D01*
X30650000Y66132500D01*
X30850000Y66132500D01*
X30850000Y65567500D01*
G37*
G36*
X31450000Y65567500D02*
G01*
X31050000Y65567500D01*
X31050000Y66132500D01*
X31450000Y66132500D01*
X31450000Y65567500D01*
G37*
G36*
X31850000Y65567500D02*
G01*
X31650000Y65567500D01*
X31650000Y66132500D01*
X31850000Y66132500D01*
X31850000Y65567500D01*
G37*
G36*
X32350000Y65567500D02*
G01*
X32150000Y65567500D01*
X32150000Y66132500D01*
X32350000Y66132500D01*
X32350000Y65567500D01*
G37*
G36*
X29251537Y66604776D02*
G01*
X29316421Y66561421D01*
X29359776Y66496537D01*
X29375000Y66420000D01*
X29375000Y66020000D01*
X29359776Y65943463D01*
X29316421Y65878579D01*
X29251537Y65835224D01*
X29175000Y65820000D01*
X28625000Y65820000D01*
X28548463Y65835224D01*
X28483579Y65878579D01*
X28440224Y65943463D01*
X28425000Y66020000D01*
X28425000Y66420000D01*
X28440224Y66496537D01*
X28483579Y66561421D01*
X28548463Y66604776D01*
X28625000Y66620000D01*
X29175000Y66620000D01*
X29251537Y66604776D01*
G37*
G36*
X33951537Y66604776D02*
G01*
X34016421Y66561421D01*
X34059776Y66496537D01*
X34075000Y66420000D01*
X34075000Y66020000D01*
X34059776Y65943463D01*
X34016421Y65878579D01*
X33951537Y65835224D01*
X33875000Y65820000D01*
X33325000Y65820000D01*
X33248463Y65835224D01*
X33183579Y65878579D01*
X33140224Y65943463D01*
X33125000Y66020000D01*
X33125000Y66420000D01*
X33140224Y66496537D01*
X33183579Y66561421D01*
X33248463Y66604776D01*
X33325000Y66620000D01*
X33875000Y66620000D01*
X33951537Y66604776D01*
G37*
G36*
X20630500Y67545000D02*
G01*
X19369500Y67545000D01*
X19369500Y71455000D01*
X20630500Y71455000D01*
X20630500Y67545000D01*
G37*
G36*
X28075000Y67847500D02*
G01*
X27525000Y67847500D01*
X27525000Y68852500D01*
X28075000Y68852500D01*
X28075000Y67847500D01*
G37*
G36*
X28875000Y67847500D02*
G01*
X28325000Y67847500D01*
X28325000Y68852500D01*
X28875000Y68852500D01*
X28875000Y67847500D01*
G37*
G36*
X29400000Y67870000D02*
G01*
X29100000Y67870000D01*
X29100000Y68970000D01*
X29400000Y68970000D01*
X29400000Y67870000D01*
G37*
G36*
X29900000Y67870000D02*
G01*
X29600000Y67870000D01*
X29600000Y68970000D01*
X29900000Y68970000D01*
X29900000Y67870000D01*
G37*
G36*
X30400000Y67870000D02*
G01*
X30100000Y67870000D01*
X30100000Y68970000D01*
X30400000Y68970000D01*
X30400000Y67870000D01*
G37*
G36*
X30900000Y67870000D02*
G01*
X30600000Y67870000D01*
X30600000Y68970000D01*
X30900000Y68970000D01*
X30900000Y67870000D01*
G37*
G36*
X31400000Y67870000D02*
G01*
X31100000Y67870000D01*
X31100000Y68970000D01*
X31400000Y68970000D01*
X31400000Y67870000D01*
G37*
G36*
X31900000Y67870000D02*
G01*
X31600000Y67870000D01*
X31600000Y68970000D01*
X31900000Y68970000D01*
X31900000Y67870000D01*
G37*
G36*
X32400000Y67870000D02*
G01*
X32100000Y67870000D01*
X32100000Y68970000D01*
X32400000Y68970000D01*
X32400000Y67870000D01*
G37*
G36*
X32900000Y67870000D02*
G01*
X32600000Y67870000D01*
X32600000Y68970000D01*
X32900000Y68970000D01*
X32900000Y67870000D01*
G37*
G36*
X33675000Y67870000D02*
G01*
X33125000Y67870000D01*
X33125000Y68850000D01*
X33675000Y68850000D01*
X33675000Y67870000D01*
G37*
G36*
X34475000Y67870000D02*
G01*
X33925000Y67870000D01*
X33925000Y68850000D01*
X34475000Y68850000D01*
X34475000Y67870000D01*
G37*
G36*
X26890476Y69928134D02*
G01*
X27014819Y69856344D01*
X27116344Y69754819D01*
X27188134Y69630476D01*
X27225295Y69491789D01*
X27230000Y69420000D01*
X27230000Y68520000D01*
X27225295Y68448211D01*
X27188134Y68309524D01*
X27116344Y68185181D01*
X27014819Y68083656D01*
X26890476Y68011866D01*
X26751789Y67974705D01*
X26608211Y67974705D01*
X26469524Y68011866D01*
X26345181Y68083656D01*
X26243656Y68185181D01*
X26171866Y68309524D01*
X26134705Y68448211D01*
X26130000Y68520000D01*
X26130000Y69420000D01*
X26134705Y69491789D01*
X26171866Y69630476D01*
X26243656Y69754819D01*
X26345181Y69856344D01*
X26469524Y69928134D01*
X26608211Y69965295D01*
X26751789Y69965295D01*
X26890476Y69928134D01*
G37*
G36*
X35530476Y69928134D02*
G01*
X35654819Y69856344D01*
X35756344Y69754819D01*
X35828134Y69630476D01*
X35865295Y69491789D01*
X35870000Y69420000D01*
X35870000Y68520000D01*
X35865295Y68448211D01*
X35828134Y68309524D01*
X35756344Y68185181D01*
X35654819Y68083656D01*
X35530476Y68011866D01*
X35391789Y67974705D01*
X35248211Y67974705D01*
X35109524Y68011866D01*
X34985181Y68083656D01*
X34883656Y68185181D01*
X34811866Y68309524D01*
X34774705Y68448211D01*
X34770000Y68520000D01*
X34770000Y69420000D01*
X34774705Y69491789D01*
X34811866Y69630476D01*
X34883656Y69754819D01*
X34985181Y69856344D01*
X35109524Y69928134D01*
X35248211Y69965295D01*
X35391789Y69965295D01*
X35530476Y69928134D01*
G37*
G36*
X28243939Y69823358D02*
G01*
X28323067Y69777674D01*
X28387674Y69713067D01*
X28433358Y69633939D01*
X28457006Y69545684D01*
X28457006Y69454316D01*
X28433358Y69366061D01*
X28387674Y69286933D01*
X28323067Y69222326D01*
X28243939Y69176642D01*
X28155684Y69152994D01*
X28064316Y69152994D01*
X27976061Y69176642D01*
X27896933Y69222326D01*
X27832326Y69286933D01*
X27786642Y69366061D01*
X27762994Y69454316D01*
X27762994Y69545684D01*
X27786642Y69633939D01*
X27832326Y69713067D01*
X27896933Y69777674D01*
X27976061Y69823358D01*
X28064316Y69847006D01*
X28155684Y69847006D01*
X28243939Y69823358D01*
G37*
G36*
X34023939Y69823358D02*
G01*
X34103067Y69777674D01*
X34167674Y69713067D01*
X34213358Y69633939D01*
X34237006Y69545684D01*
X34237006Y69454316D01*
X34213358Y69366061D01*
X34167674Y69286933D01*
X34103067Y69222326D01*
X34023939Y69176642D01*
X33935684Y69152994D01*
X33844316Y69152994D01*
X33756061Y69176642D01*
X33676933Y69222326D01*
X33612326Y69286933D01*
X33566642Y69366061D01*
X33542994Y69454316D01*
X33542994Y69545684D01*
X33566642Y69633939D01*
X33612326Y69713067D01*
X33676933Y69777674D01*
X33756061Y69823358D01*
X33844316Y69847006D01*
X33935684Y69847006D01*
X34023939Y69823358D01*
G37*
G36*
X7091807Y72805462D02*
G01*
X7278354Y72744849D01*
X7453123Y72655800D01*
X7611810Y72540507D01*
X7750507Y72401810D01*
X7865800Y72243123D01*
X7954849Y72068354D01*
X8015462Y71881807D01*
X8046147Y71688074D01*
X8046147Y71491926D01*
X8015462Y71298193D01*
X7954849Y71111646D01*
X7865800Y70936877D01*
X7750507Y70778190D01*
X7611810Y70639493D01*
X7453123Y70524200D01*
X7278354Y70435151D01*
X7091807Y70374538D01*
X6898074Y70343853D01*
X6701926Y70343853D01*
X6508193Y70374538D01*
X6321646Y70435151D01*
X6146877Y70524200D01*
X5988190Y70639493D01*
X5849493Y70778190D01*
X5734200Y70936877D01*
X5645151Y71111646D01*
X5584538Y71298193D01*
X5553853Y71491926D01*
X5553853Y71688074D01*
X5584538Y71881807D01*
X5645151Y72068354D01*
X5734200Y72243123D01*
X5849493Y72401810D01*
X5988190Y72540507D01*
X6146877Y72655800D01*
X6321646Y72744849D01*
X6508193Y72805462D01*
X6701926Y72836147D01*
X6898074Y72836147D01*
X7091807Y72805462D01*
G37*
G36*
X3138858Y74444867D02*
G01*
X3148316Y74444867D01*
X3175563Y74437567D01*
X3244099Y74423934D01*
X3276448Y74410535D01*
X3299610Y74404328D01*
X3320377Y74392338D01*
X3352722Y74378940D01*
X3410816Y74340123D01*
X3435257Y74326012D01*
X3441946Y74319323D01*
X3450481Y74313620D01*
X3533619Y74230482D01*
X3539321Y74221948D01*
X3546012Y74215257D01*
X3560124Y74190814D01*
X3598939Y74132723D01*
X3612335Y74100382D01*
X3624328Y74079610D01*
X3630535Y74056445D01*
X3643933Y74024100D01*
X3657563Y73955574D01*
X3664867Y73928316D01*
X3665791Y73914205D01*
X3667110Y73907578D01*
X3669758Y73853689D01*
X3670000Y73850000D01*
X3670000Y71250000D01*
X3669758Y71246309D01*
X3667110Y71192423D01*
X3665791Y71185797D01*
X3664867Y71171684D01*
X3657562Y71144424D01*
X3643933Y71075901D01*
X3630535Y71043559D01*
X3624328Y71020390D01*
X3612334Y70999617D01*
X3598939Y70967278D01*
X3560128Y70909195D01*
X3546012Y70884743D01*
X3539319Y70878051D01*
X3533619Y70869519D01*
X3450481Y70786381D01*
X3441949Y70780681D01*
X3435257Y70773988D01*
X3410805Y70759872D01*
X3352722Y70721061D01*
X3320383Y70707666D01*
X3299610Y70695672D01*
X3276441Y70689465D01*
X3244099Y70676067D01*
X3175569Y70662436D01*
X3148316Y70655133D01*
X3138858Y70655133D01*
X3128788Y70653130D01*
X3011212Y70653130D01*
X3001142Y70655133D01*
X2991684Y70655133D01*
X2964432Y70662436D01*
X2895900Y70676067D01*
X2863555Y70689465D01*
X2840390Y70695672D01*
X2819618Y70707665D01*
X2787277Y70721061D01*
X2729186Y70759876D01*
X2704743Y70773988D01*
X2698052Y70780679D01*
X2689518Y70786381D01*
X2606380Y70869519D01*
X2600677Y70878054D01*
X2593988Y70884743D01*
X2579877Y70909184D01*
X2541060Y70967278D01*
X2527662Y70999623D01*
X2515672Y71020390D01*
X2509465Y71043552D01*
X2496066Y71075901D01*
X2482433Y71144438D01*
X2475133Y71171684D01*
X2474208Y71185790D01*
X2472889Y71192423D01*
X2470241Y71246314D01*
X2470000Y71250000D01*
X2470000Y73850000D01*
X2470241Y73853684D01*
X2472889Y73907578D01*
X2474208Y73914213D01*
X2475133Y73928316D01*
X2482432Y73955560D01*
X2496066Y74024100D01*
X2509466Y74056452D01*
X2515672Y74079610D01*
X2527660Y74100376D01*
X2541060Y74132723D01*
X2579881Y74190825D01*
X2593988Y74215257D01*
X2600675Y74221945D01*
X2606380Y74230482D01*
X2689518Y74313620D01*
X2698055Y74319325D01*
X2704743Y74326012D01*
X2729175Y74340119D01*
X2787277Y74378940D01*
X2819624Y74392340D01*
X2840390Y74404328D01*
X2863548Y74410534D01*
X2895900Y74423934D01*
X2964437Y74437567D01*
X2991684Y74444867D01*
X3001142Y74444867D01*
X3011212Y74446870D01*
X3128788Y74446870D01*
X3138858Y74444867D01*
G37*
G36*
X12998858Y74444867D02*
G01*
X13008316Y74444867D01*
X13035563Y74437567D01*
X13104099Y74423934D01*
X13136448Y74410535D01*
X13159610Y74404328D01*
X13180377Y74392338D01*
X13212722Y74378940D01*
X13270816Y74340123D01*
X13295257Y74326012D01*
X13301946Y74319323D01*
X13310481Y74313620D01*
X13393619Y74230482D01*
X13399321Y74221948D01*
X13406012Y74215257D01*
X13420124Y74190814D01*
X13458939Y74132723D01*
X13472335Y74100382D01*
X13484328Y74079610D01*
X13490535Y74056445D01*
X13503933Y74024100D01*
X13517563Y73955574D01*
X13524867Y73928316D01*
X13525791Y73914205D01*
X13527110Y73907578D01*
X13529758Y73853689D01*
X13530000Y73850000D01*
X13530000Y71250000D01*
X13529758Y71246309D01*
X13527110Y71192423D01*
X13525791Y71185797D01*
X13524867Y71171684D01*
X13517562Y71144424D01*
X13503933Y71075901D01*
X13490535Y71043559D01*
X13484328Y71020390D01*
X13472334Y70999617D01*
X13458939Y70967278D01*
X13420128Y70909195D01*
X13406012Y70884743D01*
X13399319Y70878051D01*
X13393619Y70869519D01*
X13310481Y70786381D01*
X13301949Y70780681D01*
X13295257Y70773988D01*
X13270805Y70759872D01*
X13212722Y70721061D01*
X13180383Y70707666D01*
X13159610Y70695672D01*
X13136441Y70689465D01*
X13104099Y70676067D01*
X13035569Y70662436D01*
X13008316Y70655133D01*
X12998858Y70655133D01*
X12988788Y70653130D01*
X12871212Y70653130D01*
X12861142Y70655133D01*
X12851684Y70655133D01*
X12824432Y70662436D01*
X12755900Y70676067D01*
X12723555Y70689465D01*
X12700390Y70695672D01*
X12679618Y70707665D01*
X12647277Y70721061D01*
X12589186Y70759876D01*
X12564743Y70773988D01*
X12558052Y70780679D01*
X12549518Y70786381D01*
X12466380Y70869519D01*
X12460677Y70878054D01*
X12453988Y70884743D01*
X12439877Y70909184D01*
X12401060Y70967278D01*
X12387662Y70999623D01*
X12375672Y71020390D01*
X12369465Y71043552D01*
X12356066Y71075901D01*
X12342433Y71144438D01*
X12335133Y71171684D01*
X12334208Y71185790D01*
X12332889Y71192423D01*
X12330241Y71246314D01*
X12330000Y71250000D01*
X12330000Y73850000D01*
X12330241Y73853684D01*
X12332889Y73907578D01*
X12334208Y73914213D01*
X12335133Y73928316D01*
X12342432Y73955560D01*
X12356066Y74024100D01*
X12369466Y74056452D01*
X12375672Y74079610D01*
X12387660Y74100376D01*
X12401060Y74132723D01*
X12439881Y74190825D01*
X12453988Y74215257D01*
X12460675Y74221945D01*
X12466380Y74230482D01*
X12549518Y74313620D01*
X12558055Y74319325D01*
X12564743Y74326012D01*
X12589175Y74340119D01*
X12647277Y74378940D01*
X12679624Y74392340D01*
X12700390Y74404328D01*
X12723548Y74410534D01*
X12755900Y74423934D01*
X12824437Y74437567D01*
X12851684Y74444867D01*
X12861142Y74444867D01*
X12871212Y74446870D01*
X12988788Y74446870D01*
X12998858Y74444867D01*
G37*
G36*
X26748858Y74074867D02*
G01*
X26758316Y74074867D01*
X26785563Y74067567D01*
X26854099Y74053934D01*
X26886448Y74040535D01*
X26909610Y74034328D01*
X26930377Y74022338D01*
X26962722Y74008940D01*
X27020816Y73970123D01*
X27045257Y73956012D01*
X27051946Y73949323D01*
X27060481Y73943620D01*
X27143619Y73860482D01*
X27149321Y73851948D01*
X27156012Y73845257D01*
X27170124Y73820814D01*
X27208939Y73762723D01*
X27222335Y73730382D01*
X27234328Y73709610D01*
X27240535Y73686445D01*
X27253933Y73654100D01*
X27267563Y73585574D01*
X27274867Y73558316D01*
X27275791Y73544205D01*
X27277110Y73537578D01*
X27279758Y73483689D01*
X27280000Y73480000D01*
X27280000Y72880000D01*
X27279758Y72876309D01*
X27277110Y72822423D01*
X27275791Y72815797D01*
X27274867Y72801684D01*
X27267562Y72774424D01*
X27253933Y72705901D01*
X27240535Y72673559D01*
X27234328Y72650390D01*
X27222334Y72629617D01*
X27208939Y72597278D01*
X27170128Y72539195D01*
X27156012Y72514743D01*
X27149319Y72508051D01*
X27143619Y72499519D01*
X27060481Y72416381D01*
X27051949Y72410681D01*
X27045257Y72403988D01*
X27020805Y72389872D01*
X26962722Y72351061D01*
X26930383Y72337666D01*
X26909610Y72325672D01*
X26886441Y72319465D01*
X26854099Y72306067D01*
X26785569Y72292436D01*
X26758316Y72285133D01*
X26748858Y72285133D01*
X26738788Y72283130D01*
X26621212Y72283130D01*
X26611142Y72285133D01*
X26601684Y72285133D01*
X26574432Y72292436D01*
X26505900Y72306067D01*
X26473555Y72319465D01*
X26450390Y72325672D01*
X26429618Y72337665D01*
X26397277Y72351061D01*
X26339186Y72389876D01*
X26314743Y72403988D01*
X26308052Y72410679D01*
X26299518Y72416381D01*
X26216380Y72499519D01*
X26210677Y72508054D01*
X26203988Y72514743D01*
X26189877Y72539184D01*
X26151060Y72597278D01*
X26137662Y72629623D01*
X26125672Y72650390D01*
X26119465Y72673552D01*
X26106066Y72705901D01*
X26092433Y72774438D01*
X26085133Y72801684D01*
X26084208Y72815790D01*
X26082889Y72822423D01*
X26080241Y72876314D01*
X26080000Y72880000D01*
X26080000Y73480000D01*
X26080241Y73483684D01*
X26082889Y73537578D01*
X26084208Y73544213D01*
X26085133Y73558316D01*
X26092432Y73585560D01*
X26106066Y73654100D01*
X26119466Y73686452D01*
X26125672Y73709610D01*
X26137660Y73730376D01*
X26151060Y73762723D01*
X26189881Y73820825D01*
X26203988Y73845257D01*
X26210675Y73851945D01*
X26216380Y73860482D01*
X26299518Y73943620D01*
X26308055Y73949325D01*
X26314743Y73956012D01*
X26339175Y73970119D01*
X26397277Y74008940D01*
X26429624Y74022340D01*
X26450390Y74034328D01*
X26473548Y74040534D01*
X26505900Y74053934D01*
X26574437Y74067567D01*
X26601684Y74074867D01*
X26611142Y74074867D01*
X26621212Y74076870D01*
X26738788Y74076870D01*
X26748858Y74074867D01*
G37*
G36*
X35388858Y74074867D02*
G01*
X35398316Y74074867D01*
X35425563Y74067567D01*
X35494099Y74053934D01*
X35526448Y74040535D01*
X35549610Y74034328D01*
X35570377Y74022338D01*
X35602722Y74008940D01*
X35660816Y73970123D01*
X35685257Y73956012D01*
X35691946Y73949323D01*
X35700481Y73943620D01*
X35783619Y73860482D01*
X35789321Y73851948D01*
X35796012Y73845257D01*
X35810124Y73820814D01*
X35848939Y73762723D01*
X35862335Y73730382D01*
X35874328Y73709610D01*
X35880535Y73686445D01*
X35893933Y73654100D01*
X35907563Y73585574D01*
X35914867Y73558316D01*
X35915791Y73544205D01*
X35917110Y73537578D01*
X35919758Y73483689D01*
X35920000Y73480000D01*
X35920000Y72880000D01*
X35919758Y72876309D01*
X35917110Y72822423D01*
X35915791Y72815797D01*
X35914867Y72801684D01*
X35907562Y72774424D01*
X35893933Y72705901D01*
X35880535Y72673559D01*
X35874328Y72650390D01*
X35862334Y72629617D01*
X35848939Y72597278D01*
X35810128Y72539195D01*
X35796012Y72514743D01*
X35789319Y72508051D01*
X35783619Y72499519D01*
X35700481Y72416381D01*
X35691949Y72410681D01*
X35685257Y72403988D01*
X35660805Y72389872D01*
X35602722Y72351061D01*
X35570383Y72337666D01*
X35549610Y72325672D01*
X35526441Y72319465D01*
X35494099Y72306067D01*
X35425569Y72292436D01*
X35398316Y72285133D01*
X35388858Y72285133D01*
X35378788Y72283130D01*
X35261212Y72283130D01*
X35251142Y72285133D01*
X35241684Y72285133D01*
X35214432Y72292436D01*
X35145900Y72306067D01*
X35113555Y72319465D01*
X35090390Y72325672D01*
X35069618Y72337665D01*
X35037277Y72351061D01*
X34979186Y72389876D01*
X34954743Y72403988D01*
X34948052Y72410679D01*
X34939518Y72416381D01*
X34856380Y72499519D01*
X34850677Y72508054D01*
X34843988Y72514743D01*
X34829877Y72539184D01*
X34791060Y72597278D01*
X34777662Y72629623D01*
X34765672Y72650390D01*
X34759465Y72673552D01*
X34746066Y72705901D01*
X34732433Y72774438D01*
X34725133Y72801684D01*
X34724208Y72815790D01*
X34722889Y72822423D01*
X34720241Y72876314D01*
X34720000Y72880000D01*
X34720000Y73480000D01*
X34720241Y73483684D01*
X34722889Y73537578D01*
X34724208Y73544213D01*
X34725133Y73558316D01*
X34732432Y73585560D01*
X34746066Y73654100D01*
X34759466Y73686452D01*
X34765672Y73709610D01*
X34777660Y73730376D01*
X34791060Y73762723D01*
X34829881Y73820825D01*
X34843988Y73845257D01*
X34850675Y73851945D01*
X34856380Y73860482D01*
X34939518Y73943620D01*
X34948055Y73949325D01*
X34954743Y73956012D01*
X34979175Y73970119D01*
X35037277Y74008940D01*
X35069624Y74022340D01*
X35090390Y74034328D01*
X35113548Y74040534D01*
X35145900Y74053934D01*
X35214437Y74067567D01*
X35241684Y74074867D01*
X35251142Y74074867D01*
X35261212Y74076870D01*
X35378788Y74076870D01*
X35388858Y74074867D01*
G37*
M02*
