%TF.GenerationSoftware,KiCad,Pcbnew,9.0.3*%
%TF.CreationDate,2026-05-02T11:15:43+02:00*%
%TF.ProjectId,camera_cooler,63616d65-7261-45f6-936f-6f6c65722e6b,rev?*%
%TF.SameCoordinates,PX7a8c120PY839b680*%
%TF.FileFunction,Legend,Top*%
%TF.FilePolarity,Positive*%
%FSLAX46Y46*%
G04 Gerber Fmt 4.6, Leading zero omitted, Abs format (unit mm)*
G04 Created by KiCad (PCBNEW 9.0.3) date 2026-05-02 11:15:43*
%MOMM*%
%LPD*%
G01*
G04 APERTURE LIST*
%ADD10C,0.150000*%
%ADD11C,0.120000*%
%ADD12C,0.250000*%
%ADD13C,0.060000*%
%ADD14C,0.300000*%
%ADD15C,0.200000*%
%ADD16C,0.127000*%
%ADD17C,0.100000*%
%ADD18C,0.000000*%
%ADD19C,0.160000*%
G04 APERTURE END LIST*
D10*
X23750000Y5000000D02*
X26250000Y5000000D01*
X36650000Y61500000D02*
G75*
G02*
X33350000Y61500000I-1650000J0D01*
G01*
X33350000Y61500000D02*
G75*
G02*
X36650000Y61500000I1650000J0D01*
G01*
X16250000Y5000000D02*
X19750000Y5000000D01*
X23750000Y6500000D02*
X26250000Y6500000D01*
X4650000Y3000000D02*
G75*
G02*
X1350000Y3000000I-1650000J0D01*
G01*
X1350000Y3000000D02*
G75*
G02*
X4650000Y3000000I1650000J0D01*
G01*
X36650000Y3000000D02*
G75*
G02*
X33350000Y3000000I-1650000J0D01*
G01*
X33350000Y3000000D02*
G75*
G02*
X36650000Y3000000I1650000J0D01*
G01*
X16250000Y6500000D02*
X19750000Y6500000D01*
X4650000Y61500000D02*
G75*
G02*
X1350000Y61500000I-1650000J0D01*
G01*
X1350000Y61500000D02*
G75*
G02*
X4650000Y61500000I1650000J0D01*
G01*
X24606666Y73875181D02*
X24606666Y73160896D01*
X24606666Y73160896D02*
X24559047Y73018039D01*
X24559047Y73018039D02*
X24463809Y72922800D01*
X24463809Y72922800D02*
X24320952Y72875181D01*
X24320952Y72875181D02*
X24225714Y72875181D01*
X25035238Y73779943D02*
X25082857Y73827562D01*
X25082857Y73827562D02*
X25178095Y73875181D01*
X25178095Y73875181D02*
X25416190Y73875181D01*
X25416190Y73875181D02*
X25511428Y73827562D01*
X25511428Y73827562D02*
X25559047Y73779943D01*
X25559047Y73779943D02*
X25606666Y73684705D01*
X25606666Y73684705D02*
X25606666Y73589467D01*
X25606666Y73589467D02*
X25559047Y73446610D01*
X25559047Y73446610D02*
X24987619Y72875181D01*
X24987619Y72875181D02*
X25606666Y72875181D01*
X34436666Y7295181D02*
X34436666Y6580896D01*
X34436666Y6580896D02*
X34389047Y6438039D01*
X34389047Y6438039D02*
X34293809Y6342800D01*
X34293809Y6342800D02*
X34150952Y6295181D01*
X34150952Y6295181D02*
X34055714Y6295181D01*
X34960476Y6295181D02*
X35150952Y6295181D01*
X35150952Y6295181D02*
X35246190Y6342800D01*
X35246190Y6342800D02*
X35293809Y6390420D01*
X35293809Y6390420D02*
X35389047Y6533277D01*
X35389047Y6533277D02*
X35436666Y6723753D01*
X35436666Y6723753D02*
X35436666Y7104705D01*
X35436666Y7104705D02*
X35389047Y7199943D01*
X35389047Y7199943D02*
X35341428Y7247562D01*
X35341428Y7247562D02*
X35246190Y7295181D01*
X35246190Y7295181D02*
X35055714Y7295181D01*
X35055714Y7295181D02*
X34960476Y7247562D01*
X34960476Y7247562D02*
X34912857Y7199943D01*
X34912857Y7199943D02*
X34865238Y7104705D01*
X34865238Y7104705D02*
X34865238Y6866610D01*
X34865238Y6866610D02*
X34912857Y6771372D01*
X34912857Y6771372D02*
X34960476Y6723753D01*
X34960476Y6723753D02*
X35055714Y6676134D01*
X35055714Y6676134D02*
X35246190Y6676134D01*
X35246190Y6676134D02*
X35341428Y6723753D01*
X35341428Y6723753D02*
X35389047Y6771372D01*
X35389047Y6771372D02*
X35436666Y6866610D01*
X1866666Y20045181D02*
X1866666Y19330896D01*
X1866666Y19330896D02*
X1819047Y19188039D01*
X1819047Y19188039D02*
X1723809Y19092800D01*
X1723809Y19092800D02*
X1580952Y19045181D01*
X1580952Y19045181D02*
X1485714Y19045181D01*
X2771428Y19711848D02*
X2771428Y19045181D01*
X2533333Y20092800D02*
X2295238Y19378515D01*
X2295238Y19378515D02*
X2914285Y19378515D01*
X6538095Y5795181D02*
X7109523Y5795181D01*
X6823809Y4795181D02*
X6823809Y5795181D01*
X7442857Y4795181D02*
X7442857Y5795181D01*
X7442857Y5795181D02*
X7823809Y5795181D01*
X7823809Y5795181D02*
X7919047Y5747562D01*
X7919047Y5747562D02*
X7966666Y5699943D01*
X7966666Y5699943D02*
X8014285Y5604705D01*
X8014285Y5604705D02*
X8014285Y5461848D01*
X8014285Y5461848D02*
X7966666Y5366610D01*
X7966666Y5366610D02*
X7919047Y5318991D01*
X7919047Y5318991D02*
X7823809Y5271372D01*
X7823809Y5271372D02*
X7442857Y5271372D01*
X8966666Y4795181D02*
X8395238Y4795181D01*
X8680952Y4795181D02*
X8680952Y5795181D01*
X8680952Y5795181D02*
X8585714Y5652324D01*
X8585714Y5652324D02*
X8490476Y5557086D01*
X8490476Y5557086D02*
X8395238Y5509467D01*
G36*
X17130007Y5758462D02*
G01*
X17152037Y5716322D01*
X17167926Y5668776D01*
X17177344Y5617820D01*
X17180565Y5562531D01*
X17173969Y5481828D01*
X17154974Y5411694D01*
X17123840Y5349966D01*
X17089415Y5306865D01*
X17050391Y5276717D01*
X17005840Y5258373D01*
X16954274Y5252000D01*
X16479222Y5252000D01*
X16479222Y5463026D01*
X16923561Y5463026D01*
X16951275Y5470349D01*
X16972776Y5492262D01*
X16984920Y5520583D01*
X16989201Y5556522D01*
X16985058Y5591569D01*
X16973447Y5618365D01*
X16952426Y5638841D01*
X16923561Y5645915D01*
X16479222Y5645915D01*
X16479222Y5871010D01*
X16923561Y5871010D01*
X16951910Y5877531D01*
X16972104Y5896069D01*
X16984867Y5923212D01*
X16989201Y5955347D01*
X16984939Y5989574D01*
X16972776Y6016676D01*
X16951374Y6037489D01*
X16923561Y6044520D01*
X16479222Y6044520D01*
X16479222Y6255546D01*
X16954335Y6255546D01*
X17005533Y6249240D01*
X17050107Y6231034D01*
X17089471Y6201037D01*
X17124512Y6158093D01*
X17156543Y6095965D01*
X17175943Y6026259D01*
X17182641Y5946920D01*
X17179250Y5893536D01*
X17169269Y5843752D01*
X17152641Y5797727D01*
X17130007Y5758462D01*
G37*
G36*
X17853560Y6249139D02*
G01*
X17903263Y6230455D01*
X17948523Y6199482D01*
X17990171Y6155141D01*
X18028577Y6095371D01*
X18061818Y6021574D01*
X18086115Y5939455D01*
X18101231Y5847702D01*
X18106490Y5744760D01*
X18101317Y5643705D01*
X18086518Y5554568D01*
X18062843Y5475666D01*
X18030592Y5405580D01*
X17993068Y5348902D01*
X17951726Y5306454D01*
X17906126Y5276512D01*
X17855374Y5258290D01*
X17798194Y5252000D01*
X17525436Y5252000D01*
X17468553Y5258278D01*
X17418006Y5276476D01*
X17372532Y5306400D01*
X17331244Y5348854D01*
X17293711Y5405580D01*
X17261135Y5476111D01*
X17237255Y5555311D01*
X17222346Y5644577D01*
X17217141Y5745566D01*
X17218042Y5763152D01*
X17414733Y5763152D01*
X17419035Y5684283D01*
X17431156Y5617230D01*
X17450271Y5560113D01*
X17473507Y5517110D01*
X17498563Y5489117D01*
X17525780Y5473089D01*
X17556211Y5467716D01*
X17767481Y5467716D01*
X17797533Y5473062D01*
X17824521Y5489045D01*
X17849483Y5517030D01*
X17872750Y5560113D01*
X17892279Y5617790D01*
X17904603Y5684881D01*
X17908959Y5763152D01*
X17904712Y5839238D01*
X17892800Y5903196D01*
X17874093Y5957032D01*
X17851416Y5997277D01*
X17826468Y6023852D01*
X17798849Y6039289D01*
X17767481Y6044520D01*
X17556211Y6044520D01*
X17524842Y6039289D01*
X17497224Y6023852D01*
X17472276Y5997277D01*
X17449599Y5957032D01*
X17430891Y5903196D01*
X17418980Y5839238D01*
X17414733Y5763152D01*
X17218042Y5763152D01*
X17222392Y5848071D01*
X17237496Y5939558D01*
X17261791Y6021561D01*
X17295054Y6095371D01*
X17333460Y6155141D01*
X17375108Y6199482D01*
X17420367Y6230455D01*
X17470071Y6249139D01*
X17525436Y6255546D01*
X17798194Y6255546D01*
X17853560Y6249139D01*
G37*
G36*
X18760190Y6249139D02*
G01*
X18809893Y6230455D01*
X18855153Y6199482D01*
X18896800Y6155141D01*
X18935206Y6095371D01*
X18968447Y6021574D01*
X18992744Y5939455D01*
X19007860Y5847702D01*
X19013119Y5744760D01*
X19007947Y5643705D01*
X18993147Y5554568D01*
X18969473Y5475666D01*
X18937221Y5405580D01*
X18899697Y5348902D01*
X18858355Y5306454D01*
X18812756Y5276512D01*
X18762004Y5258290D01*
X18704824Y5252000D01*
X18432066Y5252000D01*
X18375183Y5258278D01*
X18324636Y5276476D01*
X18279161Y5306400D01*
X18237873Y5348854D01*
X18200340Y5405580D01*
X18167764Y5476111D01*
X18143885Y5555311D01*
X18128976Y5644577D01*
X18123770Y5745566D01*
X18124671Y5763152D01*
X18321363Y5763152D01*
X18325664Y5684283D01*
X18337786Y5617230D01*
X18356900Y5560113D01*
X18380136Y5517110D01*
X18405193Y5489117D01*
X18432409Y5473089D01*
X18462840Y5467716D01*
X18674110Y5467716D01*
X18704163Y5473062D01*
X18731151Y5489045D01*
X18756112Y5517030D01*
X18779379Y5560113D01*
X18798908Y5617790D01*
X18811232Y5684881D01*
X18815588Y5763152D01*
X18811342Y5839238D01*
X18799430Y5903196D01*
X18780722Y5957032D01*
X18758045Y5997277D01*
X18733097Y6023852D01*
X18705479Y6039289D01*
X18674110Y6044520D01*
X18462840Y6044520D01*
X18431472Y6039289D01*
X18403854Y6023852D01*
X18378906Y5997277D01*
X18356228Y5957032D01*
X18337521Y5903196D01*
X18325609Y5839238D01*
X18321363Y5763152D01*
X18124671Y5763152D01*
X18129022Y5848071D01*
X18144125Y5939558D01*
X18168420Y6021561D01*
X18201684Y6095371D01*
X18240089Y6155141D01*
X18281737Y6199482D01*
X18326997Y6230455D01*
X18376700Y6249139D01*
X18432066Y6255546D01*
X18704824Y6255546D01*
X18760190Y6249139D01*
G37*
G36*
X19574328Y6044520D02*
G01*
X19385651Y6044520D01*
X19385651Y5252000D01*
X19203140Y5252000D01*
X19203140Y6044520D01*
X19015196Y6044520D01*
X19015196Y6255546D01*
X19574328Y6255546D01*
X19574328Y6044520D01*
G37*
X1536666Y64985181D02*
X1536666Y64270896D01*
X1536666Y64270896D02*
X1489047Y64128039D01*
X1489047Y64128039D02*
X1393809Y64032800D01*
X1393809Y64032800D02*
X1250952Y63985181D01*
X1250952Y63985181D02*
X1155714Y63985181D01*
X2536666Y63985181D02*
X1965238Y63985181D01*
X2250952Y63985181D02*
X2250952Y64985181D01*
X2250952Y64985181D02*
X2155714Y64842324D01*
X2155714Y64842324D02*
X2060476Y64747086D01*
X2060476Y64747086D02*
X1965238Y64699467D01*
X39966666Y56845181D02*
X39966666Y56130896D01*
X39966666Y56130896D02*
X39919047Y55988039D01*
X39919047Y55988039D02*
X39823809Y55892800D01*
X39823809Y55892800D02*
X39680952Y55845181D01*
X39680952Y55845181D02*
X39585714Y55845181D01*
X40347619Y56845181D02*
X40966666Y56845181D01*
X40966666Y56845181D02*
X40633333Y56464229D01*
X40633333Y56464229D02*
X40776190Y56464229D01*
X40776190Y56464229D02*
X40871428Y56416610D01*
X40871428Y56416610D02*
X40919047Y56368991D01*
X40919047Y56368991D02*
X40966666Y56273753D01*
X40966666Y56273753D02*
X40966666Y56035658D01*
X40966666Y56035658D02*
X40919047Y55940420D01*
X40919047Y55940420D02*
X40871428Y55892800D01*
X40871428Y55892800D02*
X40776190Y55845181D01*
X40776190Y55845181D02*
X40490476Y55845181D01*
X40490476Y55845181D02*
X40395238Y55892800D01*
X40395238Y55892800D02*
X40347619Y55940420D01*
X43246666Y21270181D02*
X43246666Y20555896D01*
X43246666Y20555896D02*
X43199047Y20413039D01*
X43199047Y20413039D02*
X43103809Y20317800D01*
X43103809Y20317800D02*
X42960952Y20270181D01*
X42960952Y20270181D02*
X42865714Y20270181D01*
X44151428Y21270181D02*
X43960952Y21270181D01*
X43960952Y21270181D02*
X43865714Y21222562D01*
X43865714Y21222562D02*
X43818095Y21174943D01*
X43818095Y21174943D02*
X43722857Y21032086D01*
X43722857Y21032086D02*
X43675238Y20841610D01*
X43675238Y20841610D02*
X43675238Y20460658D01*
X43675238Y20460658D02*
X43722857Y20365420D01*
X43722857Y20365420D02*
X43770476Y20317800D01*
X43770476Y20317800D02*
X43865714Y20270181D01*
X43865714Y20270181D02*
X44056190Y20270181D01*
X44056190Y20270181D02*
X44151428Y20317800D01*
X44151428Y20317800D02*
X44199047Y20365420D01*
X44199047Y20365420D02*
X44246666Y20460658D01*
X44246666Y20460658D02*
X44246666Y20698753D01*
X44246666Y20698753D02*
X44199047Y20793991D01*
X44199047Y20793991D02*
X44151428Y20841610D01*
X44151428Y20841610D02*
X44056190Y20889229D01*
X44056190Y20889229D02*
X43865714Y20889229D01*
X43865714Y20889229D02*
X43770476Y20841610D01*
X43770476Y20841610D02*
X43722857Y20793991D01*
X43722857Y20793991D02*
X43675238Y20698753D01*
X31516666Y7295181D02*
X31516666Y6580896D01*
X31516666Y6580896D02*
X31469047Y6438039D01*
X31469047Y6438039D02*
X31373809Y6342800D01*
X31373809Y6342800D02*
X31230952Y6295181D01*
X31230952Y6295181D02*
X31135714Y6295181D01*
X32135714Y6866610D02*
X32040476Y6914229D01*
X32040476Y6914229D02*
X31992857Y6961848D01*
X31992857Y6961848D02*
X31945238Y7057086D01*
X31945238Y7057086D02*
X31945238Y7104705D01*
X31945238Y7104705D02*
X31992857Y7199943D01*
X31992857Y7199943D02*
X32040476Y7247562D01*
X32040476Y7247562D02*
X32135714Y7295181D01*
X32135714Y7295181D02*
X32326190Y7295181D01*
X32326190Y7295181D02*
X32421428Y7247562D01*
X32421428Y7247562D02*
X32469047Y7199943D01*
X32469047Y7199943D02*
X32516666Y7104705D01*
X32516666Y7104705D02*
X32516666Y7057086D01*
X32516666Y7057086D02*
X32469047Y6961848D01*
X32469047Y6961848D02*
X32421428Y6914229D01*
X32421428Y6914229D02*
X32326190Y6866610D01*
X32326190Y6866610D02*
X32135714Y6866610D01*
X32135714Y6866610D02*
X32040476Y6818991D01*
X32040476Y6818991D02*
X31992857Y6771372D01*
X31992857Y6771372D02*
X31945238Y6676134D01*
X31945238Y6676134D02*
X31945238Y6485658D01*
X31945238Y6485658D02*
X31992857Y6390420D01*
X31992857Y6390420D02*
X32040476Y6342800D01*
X32040476Y6342800D02*
X32135714Y6295181D01*
X32135714Y6295181D02*
X32326190Y6295181D01*
X32326190Y6295181D02*
X32421428Y6342800D01*
X32421428Y6342800D02*
X32469047Y6390420D01*
X32469047Y6390420D02*
X32516666Y6485658D01*
X32516666Y6485658D02*
X32516666Y6676134D01*
X32516666Y6676134D02*
X32469047Y6771372D01*
X32469047Y6771372D02*
X32421428Y6818991D01*
X32421428Y6818991D02*
X32326190Y6866610D01*
X20991666Y19695181D02*
X20991666Y18980896D01*
X20991666Y18980896D02*
X20944047Y18838039D01*
X20944047Y18838039D02*
X20848809Y18742800D01*
X20848809Y18742800D02*
X20705952Y18695181D01*
X20705952Y18695181D02*
X20610714Y18695181D01*
X21944047Y19695181D02*
X21467857Y19695181D01*
X21467857Y19695181D02*
X21420238Y19218991D01*
X21420238Y19218991D02*
X21467857Y19266610D01*
X21467857Y19266610D02*
X21563095Y19314229D01*
X21563095Y19314229D02*
X21801190Y19314229D01*
X21801190Y19314229D02*
X21896428Y19266610D01*
X21896428Y19266610D02*
X21944047Y19218991D01*
X21944047Y19218991D02*
X21991666Y19123753D01*
X21991666Y19123753D02*
X21991666Y18885658D01*
X21991666Y18885658D02*
X21944047Y18790420D01*
X21944047Y18790420D02*
X21896428Y18742800D01*
X21896428Y18742800D02*
X21801190Y18695181D01*
X21801190Y18695181D02*
X21563095Y18695181D01*
X21563095Y18695181D02*
X21467857Y18742800D01*
X21467857Y18742800D02*
X21420238Y18790420D01*
G36*
X24676684Y5255518D02*
G01*
X24151012Y5505231D01*
X24151012Y5255298D01*
X23969173Y5255298D01*
X23969173Y5589569D01*
X23975148Y5667945D01*
X23991858Y5731888D01*
X24018388Y5784328D01*
X24049632Y5821462D01*
X24087221Y5848241D01*
X24132454Y5865034D01*
X24187221Y5871010D01*
X24413512Y5871010D01*
X24441861Y5877531D01*
X24462055Y5896069D01*
X24474818Y5923212D01*
X24479152Y5955347D01*
X24474890Y5989574D01*
X24462727Y6016676D01*
X24441325Y6037489D01*
X24413512Y6044520D01*
X23969173Y6044520D01*
X23969173Y6255546D01*
X24444286Y6255546D01*
X24496070Y6249406D01*
X24540564Y6231802D01*
X24579258Y6203055D01*
X24613119Y6162269D01*
X24643828Y6102920D01*
X24662621Y6034731D01*
X24669173Y5955420D01*
X24662635Y5876648D01*
X24643856Y5808711D01*
X24613119Y5749377D01*
X24579216Y5708198D01*
X24540506Y5679210D01*
X24496027Y5661477D01*
X24444286Y5655294D01*
X24329431Y5655294D01*
X24676684Y5494387D01*
X24676684Y5255518D01*
G37*
G36*
X25452887Y6044520D02*
G01*
X25008548Y6044520D01*
X24981459Y6037744D01*
X24961043Y6017848D01*
X24948053Y5989108D01*
X24943641Y5955347D01*
X24947926Y5922543D01*
X24960372Y5895629D01*
X24980283Y5877446D01*
X25008610Y5871010D01*
X25270377Y5871010D01*
X25321677Y5864714D01*
X25365778Y5846634D01*
X25404192Y5816999D01*
X25437866Y5774729D01*
X25468090Y5714168D01*
X25486720Y5643897D01*
X25493248Y5561505D01*
X25486750Y5479688D01*
X25468146Y5409377D01*
X25437866Y5348281D01*
X25404192Y5306011D01*
X25365778Y5276376D01*
X25321677Y5258296D01*
X25270377Y5252000D01*
X24793920Y5252000D01*
X24793920Y5463026D01*
X25240274Y5463026D01*
X25265825Y5470428D01*
X25285398Y5492922D01*
X25297631Y5524714D01*
X25301823Y5561725D01*
X25297722Y5598449D01*
X25286069Y5627964D01*
X25267035Y5648305D01*
X25240274Y5655294D01*
X24977774Y5655294D01*
X24925990Y5661434D01*
X24881497Y5679037D01*
X24842802Y5707785D01*
X24808941Y5748571D01*
X24778285Y5807431D01*
X24759468Y5875585D01*
X24752887Y5955420D01*
X24759425Y6034192D01*
X24778204Y6102128D01*
X24808941Y6161463D01*
X24843167Y6202710D01*
X24882008Y6231696D01*
X24926396Y6249390D01*
X24977774Y6255546D01*
X25452887Y6255546D01*
X25452887Y6044520D01*
G37*
G36*
X26060930Y6044520D02*
G01*
X25872252Y6044520D01*
X25872252Y5252000D01*
X25689742Y5252000D01*
X25689742Y6044520D01*
X25501797Y6044520D01*
X25501797Y6255546D01*
X26060930Y6255546D01*
X26060930Y6044520D01*
G37*
X39138095Y64645181D02*
X39709523Y64645181D01*
X39423809Y63645181D02*
X39423809Y64645181D01*
X40042857Y63645181D02*
X40042857Y64645181D01*
X40042857Y64645181D02*
X40423809Y64645181D01*
X40423809Y64645181D02*
X40519047Y64597562D01*
X40519047Y64597562D02*
X40566666Y64549943D01*
X40566666Y64549943D02*
X40614285Y64454705D01*
X40614285Y64454705D02*
X40614285Y64311848D01*
X40614285Y64311848D02*
X40566666Y64216610D01*
X40566666Y64216610D02*
X40519047Y64168991D01*
X40519047Y64168991D02*
X40423809Y64121372D01*
X40423809Y64121372D02*
X40042857Y64121372D01*
X40995238Y64549943D02*
X41042857Y64597562D01*
X41042857Y64597562D02*
X41138095Y64645181D01*
X41138095Y64645181D02*
X41376190Y64645181D01*
X41376190Y64645181D02*
X41471428Y64597562D01*
X41471428Y64597562D02*
X41519047Y64549943D01*
X41519047Y64549943D02*
X41566666Y64454705D01*
X41566666Y64454705D02*
X41566666Y64359467D01*
X41566666Y64359467D02*
X41519047Y64216610D01*
X41519047Y64216610D02*
X40947619Y63645181D01*
X40947619Y63645181D02*
X41566666Y63645181D01*
D11*
%TO.C,D4*%
X21300000Y37600000D02*
X21300000Y31180000D01*
X21300000Y31180000D02*
X21570000Y31180000D01*
X28200000Y37600000D02*
X28200000Y31180000D01*
X28200000Y31180000D02*
X27930000Y31180000D01*
X21610000Y29450000D02*
X21140000Y29110000D01*
X21140000Y29790000D01*
X21610000Y29450000D01*
G36*
X21610000Y29450000D02*
G01*
X21140000Y29110000D01*
X21140000Y29790000D01*
X21610000Y29450000D01*
G37*
D12*
%TO.C,HS1*%
X4950000Y54350000D02*
X14350000Y54350000D01*
X4950000Y41650000D02*
X4950000Y54350000D01*
X14350000Y54350000D02*
X14350000Y48785000D01*
X14350000Y48785000D02*
X30550000Y48785000D01*
X14350000Y47215000D02*
X14350000Y41650000D01*
X14350000Y41650000D02*
X4950000Y41650000D01*
X30550000Y54350000D02*
X39950000Y54350000D01*
X30550000Y48785000D02*
X30550000Y54350000D01*
X30550000Y47215000D02*
X14350000Y47215000D01*
X30550000Y41650000D02*
X30550000Y47215000D01*
X39950000Y54350000D02*
X39950000Y41650000D01*
X39950000Y41650000D02*
X30550000Y41650000D01*
D10*
%TO.C,U4*%
X33460000Y38390000D02*
X33460000Y36610000D01*
X36540000Y38390000D02*
X36540000Y36610000D01*
D13*
X36490000Y38900000D02*
G75*
G02*
X36430000Y38900000I-30000J0D01*
G01*
X36430000Y38900000D02*
G75*
G02*
X36490000Y38900000I30000J0D01*
G01*
D14*
X36820000Y38800000D02*
G75*
G02*
X36520000Y38800000I-150000J0D01*
G01*
X36520000Y38800000D02*
G75*
G02*
X36820000Y38800000I150000J0D01*
G01*
D10*
%TO.C,C38*%
X14720000Y70530000D02*
X19220000Y70530000D01*
X14720000Y62130000D02*
X14720000Y70530000D01*
X16880000Y59970000D02*
X14720000Y62130000D01*
X19220000Y59970000D02*
X16880000Y59970000D01*
X20780000Y59970000D02*
X23120000Y59970000D01*
D15*
X22000000Y68550000D02*
X22000000Y69750000D01*
X22000000Y60750000D02*
X22000000Y61950000D01*
X22600000Y61350000D02*
X21400000Y61350000D01*
D10*
X23120000Y59970000D02*
X25280000Y62130000D01*
X25280000Y70530000D02*
X20780000Y70530000D01*
X25280000Y62130000D02*
X25280000Y70530000D01*
D12*
%TO.C,J2*%
X26430000Y72125000D02*
X26430000Y70125000D01*
X35500000Y72115000D02*
X35500000Y70135000D01*
%TO.C,J9*%
X34250000Y13375000D02*
X44250000Y13375000D01*
X34250000Y7675000D02*
X34250000Y13375000D01*
X34910000Y12565000D02*
X34910000Y8505000D01*
X34910000Y8505000D02*
X43550000Y8505000D01*
X36440000Y8505000D02*
X36440000Y7675000D01*
X36950000Y8505000D02*
X36950000Y7675000D01*
X41500000Y8505000D02*
X41500000Y7675000D01*
X41980000Y8505000D02*
X41980000Y7675000D01*
X43550000Y12565000D02*
X34910000Y12565000D01*
X43550000Y8505000D02*
X43550000Y12565000D01*
X44250000Y13375000D02*
X44250000Y7675000D01*
X44250000Y7675000D02*
X34250000Y7675000D01*
D13*
X34260000Y13425000D02*
G75*
G02*
X34200000Y13425000I-30000J0D01*
G01*
X34200000Y13425000D02*
G75*
G02*
X34260000Y13425000I30000J0D01*
G01*
D12*
%TO.C,J4*%
X800000Y18500000D02*
X800000Y8500000D01*
X800000Y16970000D02*
X3000000Y16970000D01*
X800000Y11970000D02*
X3000000Y11970000D01*
X3000000Y16970000D02*
X3000000Y15050000D01*
X3000000Y15050000D02*
X800000Y15050000D01*
X3000000Y11970000D02*
X3000000Y10050000D01*
X3000000Y10050000D02*
X800000Y10050000D01*
X6130000Y7790000D02*
X6130000Y8420000D01*
X6700000Y18500000D02*
X6700000Y8500000D01*
X7170000Y8420000D02*
X7170000Y7790000D01*
X7170000Y7790000D02*
X6130000Y7790000D01*
X8500000Y18500000D02*
X800000Y18500000D01*
X8500000Y18500000D02*
X8500000Y8500000D01*
X8500000Y8500000D02*
X800000Y8500000D01*
D13*
X700000Y18630000D02*
G75*
G02*
X640000Y18630000I-30000J0D01*
G01*
X640000Y18630000D02*
G75*
G02*
X700000Y18630000I30000J0D01*
G01*
D11*
%TO.C,TP1*%
X8500000Y3700000D02*
G75*
G02*
X7100000Y3700000I-700000J0D01*
G01*
X7100000Y3700000D02*
G75*
G02*
X8500000Y3700000I700000J0D01*
G01*
D12*
%TO.C,SW2*%
X15900000Y4650000D02*
X20100000Y4650000D01*
X15900000Y3490000D02*
X15900000Y3490000D01*
X15900000Y3490000D02*
X15900000Y2510000D01*
X15900000Y1350000D02*
X20100000Y1350000D01*
X16480000Y4070000D02*
X17010000Y4600000D01*
X16480000Y1850000D02*
X16930000Y1400000D01*
X17240000Y3760000D02*
X18760000Y3760000D01*
X17240000Y2240000D02*
X18760000Y2240000D01*
X19520000Y4130000D02*
X19050000Y4600000D01*
X19520000Y1820000D02*
X19100000Y1400000D01*
X20100000Y2510000D02*
X20100000Y3490000D01*
X17240000Y2240000D02*
G75*
G02*
X17240000Y3760000I0J760000D01*
G01*
X18760000Y3760000D02*
G75*
G02*
X18760000Y2240000I0J-760000D01*
G01*
D13*
X15730000Y4600000D02*
G75*
G02*
X15670000Y4600000I-30000J0D01*
G01*
X15670000Y4600000D02*
G75*
G02*
X15730000Y4600000I30000J0D01*
G01*
D12*
%TO.C,J1*%
X3070000Y70420000D02*
X3070000Y63980000D01*
X6210000Y63980000D02*
X3070000Y63980000D01*
X11410000Y63980000D02*
X7350000Y63980000D01*
X12850000Y70420000D02*
X12850000Y63980000D01*
X12850000Y63980000D02*
X12550000Y63980000D01*
D10*
%TO.C,L2*%
X21357500Y27580000D02*
X21357500Y21220000D01*
X27707500Y27580000D02*
X27707500Y21220000D01*
D16*
%TO.C,Q1*%
X8800000Y63150000D02*
X8800000Y63000000D01*
X8800000Y59850000D02*
X8800000Y60000000D01*
X12100000Y63150000D02*
X8800000Y63150000D01*
X12100000Y63000000D02*
X12100000Y63150000D01*
X12100000Y60000000D02*
X12100000Y59850000D01*
X12100000Y59850000D02*
X8800000Y59850000D01*
D15*
X12850000Y60450000D02*
G75*
G02*
X12650000Y60450000I-100000J0D01*
G01*
X12650000Y60450000D02*
G75*
G02*
X12850000Y60450000I100000J0D01*
G01*
%TO.C,J3*%
X31450000Y58270000D02*
X31450000Y55730000D01*
X31450000Y55730000D02*
X39070000Y55730000D01*
X33360000Y58270000D02*
X31450000Y58270000D01*
X39070000Y58270000D02*
X33360000Y58270000D01*
X39070000Y55730000D02*
X39070000Y58270000D01*
D13*
X31480000Y55750000D02*
G75*
G02*
X31420000Y55750000I-30000J0D01*
G01*
X31420000Y55750000D02*
G75*
G02*
X31480000Y55750000I30000J0D01*
G01*
D12*
%TO.C,C40*%
X14635000Y18000000D02*
X16365000Y18000000D01*
X15475000Y17140000D02*
X15475000Y18820000D01*
X15500000Y7750000D02*
X15500000Y9430000D01*
X21750000Y13250000D02*
G75*
G02*
X9250000Y13250000I-6250000J0D01*
G01*
X9250000Y13250000D02*
G75*
G02*
X21750000Y13250000I6250000J0D01*
G01*
D10*
%TO.C,D3*%
X29920000Y64870000D02*
X29920000Y66030000D01*
X32580000Y66030000D02*
X32580000Y64870000D01*
D13*
X30030000Y64950000D02*
G75*
G02*
X29970000Y64950000I-30000J0D01*
G01*
X29970000Y64950000D02*
G75*
G02*
X30030000Y64950000I30000J0D01*
G01*
D15*
X30350000Y64430000D02*
G75*
G02*
X30150000Y64430000I-100000J0D01*
G01*
X30150000Y64430000D02*
G75*
G02*
X30350000Y64430000I100000J0D01*
G01*
D10*
%TO.C,D1*%
X4770000Y58690000D02*
X4770000Y56890000D01*
X4770000Y58690000D02*
X5050000Y58690000D01*
X4770000Y56890000D02*
X5050000Y56890000D01*
X5370000Y58040000D02*
X5620000Y58040000D01*
X5370000Y57790000D02*
X5620000Y57790000D01*
X5370000Y57530000D02*
X5490000Y57790000D01*
X5500000Y57910000D02*
X5500000Y57780000D01*
X5500000Y57790000D02*
X5370000Y58040000D01*
X5500000Y57780000D02*
X5620000Y57530000D01*
X5500000Y57660000D02*
X5500000Y57790000D01*
X5620000Y58040000D02*
X5500000Y57790000D01*
X5620000Y57530000D02*
X5370000Y57530000D01*
X6220000Y58690000D02*
X5940000Y58690000D01*
X6220000Y58690000D02*
X6220000Y56890000D01*
X6220000Y57320000D02*
X4770000Y57320000D01*
X6220000Y56890000D02*
X5940000Y56890000D01*
%TO.C,L1*%
X21507500Y46080000D02*
X21507500Y39720000D01*
X27857500Y46080000D02*
X27857500Y39720000D01*
D12*
%TO.C,J6*%
X34310000Y19850000D02*
X44310000Y19850000D01*
X34310000Y14150000D02*
X34310000Y19850000D01*
X34970000Y19040000D02*
X34970000Y14980000D01*
X34970000Y14980000D02*
X43610000Y14980000D01*
X36500000Y14980000D02*
X36500000Y14150000D01*
X37010000Y14980000D02*
X37010000Y14150000D01*
X41560000Y14980000D02*
X41560000Y14150000D01*
X42040000Y14980000D02*
X42040000Y14150000D01*
X43610000Y19040000D02*
X34970000Y19040000D01*
X43610000Y14980000D02*
X43610000Y19040000D01*
X44310000Y19850000D02*
X44310000Y14150000D01*
X44310000Y14150000D02*
X34310000Y14150000D01*
D13*
X34320000Y19900000D02*
G75*
G02*
X34260000Y19900000I-30000J0D01*
G01*
X34260000Y19900000D02*
G75*
G02*
X34320000Y19900000I30000J0D01*
G01*
D17*
%TO.C,U5*%
X34100000Y33050000D02*
X34100000Y32900000D01*
X34100000Y33050000D02*
X35900000Y33050000D01*
X34100000Y32000000D02*
X34100000Y31000000D01*
X34100000Y30100000D02*
X34100000Y29950000D01*
X34100000Y29950000D02*
X35900000Y29950000D01*
X35900000Y33050000D02*
X35900000Y32900000D01*
X35900000Y32000000D02*
X35900000Y31950000D01*
X35900000Y31050000D02*
X35900000Y31000000D01*
X35900000Y30100000D02*
X35900000Y29950000D01*
D13*
X36430000Y30050000D02*
G75*
G02*
X36370000Y30050000I-30000J0D01*
G01*
X36370000Y30050000D02*
G75*
G02*
X36430000Y30050000I30000J0D01*
G01*
D18*
D10*
%TO.C,D2*%
X11570000Y58630000D02*
X11570000Y55870000D01*
X11570000Y55870000D02*
X11775000Y55870000D01*
X13430000Y58630000D02*
X13430000Y55870000D01*
X13430000Y58220000D02*
X11570000Y58220000D01*
X13430000Y55870000D02*
X13225000Y55870000D01*
D19*
X11729057Y59150000D02*
G75*
G02*
X11570943Y59150000I-79057J0D01*
G01*
X11570943Y59150000D02*
G75*
G02*
X11729057Y59150000I79057J0D01*
G01*
D18*
G36*
X11842591Y58549997D02*
G01*
X11497589Y58549997D01*
X11495589Y58549997D01*
X11495589Y58854797D01*
X11842591Y58854797D01*
X11842591Y58549997D01*
G37*
G36*
X13504411Y58549997D02*
G01*
X13502411Y58549997D01*
X13157409Y58549997D01*
X13157409Y58854797D01*
X13504411Y58854797D01*
X13504411Y58549997D01*
G37*
D12*
%TO.C,J8*%
X22420000Y12390000D02*
X22420000Y7700000D01*
X22420000Y12390000D02*
X23690000Y12390000D01*
X22420000Y7700000D02*
X32580000Y7700000D01*
X23690000Y13550000D02*
X31310000Y13550000D01*
X23690000Y12390000D02*
X23690000Y13550000D01*
X31310000Y13550000D02*
X31310000Y12400000D01*
X31310000Y12400000D02*
X32580000Y12400000D01*
X32580000Y12400000D02*
X32580000Y7700000D01*
D13*
X22450000Y7700000D02*
G75*
G02*
X22390000Y7700000I-30000J0D01*
G01*
X22390000Y7700000D02*
G75*
G02*
X22450000Y7700000I30000J0D01*
G01*
D12*
%TO.C,J5*%
X22420000Y18890000D02*
X22420000Y14200000D01*
X22420000Y18890000D02*
X23690000Y18890000D01*
X22420000Y14200000D02*
X32580000Y14200000D01*
X23690000Y20050000D02*
X31310000Y20050000D01*
X23690000Y18890000D02*
X23690000Y20050000D01*
X31310000Y20050000D02*
X31310000Y18900000D01*
X31310000Y18900000D02*
X32580000Y18900000D01*
X32580000Y18900000D02*
X32580000Y14200000D01*
D13*
X22450000Y14200000D02*
G75*
G02*
X22390000Y14200000I-30000J0D01*
G01*
X22390000Y14200000D02*
G75*
G02*
X22450000Y14200000I30000J0D01*
G01*
D12*
%TO.C,SW1*%
X22900000Y4650000D02*
X27100000Y4650000D01*
X22900000Y3490000D02*
X22900000Y3490000D01*
X22900000Y3490000D02*
X22900000Y2510000D01*
X22900000Y1350000D02*
X27100000Y1350000D01*
X23480000Y4070000D02*
X24010000Y4600000D01*
X23480000Y1850000D02*
X23930000Y1400000D01*
X24240000Y3760000D02*
X25760000Y3760000D01*
X24240000Y2240000D02*
X25760000Y2240000D01*
X26520000Y4130000D02*
X26050000Y4600000D01*
X26520000Y1820000D02*
X26100000Y1400000D01*
X27100000Y2510000D02*
X27100000Y3490000D01*
X24240000Y2240000D02*
G75*
G02*
X24240000Y3760000I0J760000D01*
G01*
X25760000Y3760000D02*
G75*
G02*
X25760000Y2240000I0J-760000D01*
G01*
D13*
X22730000Y4600000D02*
G75*
G02*
X22670000Y4600000I-30000J0D01*
G01*
X22670000Y4600000D02*
G75*
G02*
X22730000Y4600000I30000J0D01*
G01*
D10*
%TO.C,U6*%
X33460000Y24010000D02*
X33460000Y25790000D01*
X36540000Y24010000D02*
X36540000Y25790000D01*
D14*
X33480000Y23600000D02*
G75*
G02*
X33180000Y23600000I-150000J0D01*
G01*
X33180000Y23600000D02*
G75*
G02*
X33480000Y23600000I150000J0D01*
G01*
D13*
X33570000Y23500000D02*
G75*
G02*
X33510000Y23500000I-30000J0D01*
G01*
X33510000Y23500000D02*
G75*
G02*
X33570000Y23500000I30000J0D01*
G01*
D12*
%TO.C,U10*%
X17200000Y54050000D02*
X17200000Y49220000D01*
X17200000Y50620000D02*
X27800000Y50620000D01*
X17200000Y49220000D02*
X27800000Y49220000D01*
X27800000Y54050000D02*
X17200000Y54050000D01*
X27800000Y49220000D02*
X27800000Y54050000D01*
X27630000Y54600000D02*
G75*
G02*
X27310000Y54600000I-160000J0D01*
G01*
X27310000Y54600000D02*
G75*
G02*
X27630000Y54600000I160000J0D01*
G01*
D13*
X27630000Y53840000D02*
G75*
G02*
X27570000Y53840000I-30000J0D01*
G01*
X27570000Y53840000D02*
G75*
G02*
X27630000Y53840000I30000J0D01*
G01*
D11*
%TO.C,TP2*%
X41100000Y62575000D02*
G75*
G02*
X39700000Y62575000I-700000J0D01*
G01*
X39700000Y62575000D02*
G75*
G02*
X41100000Y62575000I700000J0D01*
G01*
D12*
%TO.C,L4*%
X1600000Y40400000D02*
X19400000Y40400000D01*
X1600000Y22600000D02*
X1600000Y40400000D01*
X19400000Y40400000D02*
X19400000Y22600000D01*
X19400000Y22600000D02*
X1600000Y22600000D01*
D13*
X19430000Y22600000D02*
G75*
G02*
X19370000Y22600000I-30000J0D01*
G01*
X19370000Y22600000D02*
G75*
G02*
X19430000Y22600000I30000J0D01*
G01*
%TD*%
M02*
