%TF.GenerationSoftware,KiCad,Pcbnew,9.0.3*%
%TF.CreationDate,2026-05-02T11:15:43+02:00*%
%TF.ProjectId,camera_cooler,63616d65-7261-45f6-936f-6f6c65722e6b,rev?*%
%TF.SameCoordinates,PX7a8c120PY839b680*%
%TF.FileFunction,Legend,Bot*%
%TF.FilePolarity,Positive*%
%FSLAX46Y46*%
G04 Gerber Fmt 4.6, Leading zero omitted, Abs format (unit mm)*
G04 Created by KiCad (PCBNEW 9.0.3) date 2026-05-02 11:15:43*
%MOMM*%
%LPD*%
G01*
G04 APERTURE LIST*
%ADD10C,0.150000*%
%ADD11C,0.200000*%
%ADD12C,0.250000*%
%ADD13C,0.260000*%
%ADD14C,0.120000*%
%ADD15C,0.060000*%
%ADD16C,0.300000*%
G04 APERTURE END LIST*
D10*
X3800000Y69750000D02*
X3800000Y65700000D01*
X2250000Y69750000D02*
X2250000Y65700000D01*
X4650000Y61500000D02*
G75*
G02*
X1350000Y61500000I-1650000J0D01*
G01*
X1350000Y61500000D02*
G75*
G02*
X4650000Y61500000I1650000J0D01*
G01*
X25650000Y7000000D02*
X23050000Y7000000D01*
X39500000Y8550000D02*
X36000000Y8550000D01*
X36475000Y55000000D02*
X32025000Y55000000D01*
X36650000Y3000000D02*
G75*
G02*
X33350000Y3000000I-1650000J0D01*
G01*
X33350000Y3000000D02*
G75*
G02*
X36650000Y3000000I1650000J0D01*
G01*
X39500000Y7000000D02*
X36000000Y7000000D01*
X36475000Y53450000D02*
X32025000Y53450000D01*
X4650000Y3000000D02*
G75*
G02*
X1350000Y3000000I-1650000J0D01*
G01*
X1350000Y3000000D02*
G75*
G02*
X4650000Y3000000I1650000J0D01*
G01*
X2200000Y39425000D02*
X4300000Y39425000D01*
X4300000Y20700000D01*
X2200000Y20700000D01*
X2200000Y39425000D01*
X15950000Y48000000D02*
X28600000Y48000000D01*
X28600000Y45250000D01*
X15950000Y45250000D01*
X15950000Y48000000D01*
X25650000Y8550000D02*
X23050000Y8550000D01*
X13900000Y10800000D02*
X6150000Y10800000D01*
X6200000Y24900000D02*
X6200000Y20700000D01*
X14200000Y12400000D02*
X5800000Y12400000D01*
X36650000Y61500000D02*
G75*
G02*
X33350000Y61500000I-1650000J0D01*
G01*
X33350000Y61500000D02*
G75*
G02*
X36650000Y61500000I1650000J0D01*
G01*
D11*
G36*
X3545308Y32926243D02*
G01*
X3539822Y32893753D01*
X3522863Y32861691D01*
X3492459Y32829080D01*
X3445211Y32795335D01*
X3381965Y32762999D01*
X3309103Y32737010D01*
X3225252Y32717690D01*
X3141464Y32707675D01*
X3072374Y32708496D01*
X3015215Y32718294D01*
X2971686Y32734962D01*
X2943140Y32756429D01*
X2926319Y32782971D01*
X2920437Y32816291D01*
X2920437Y33023702D01*
X3545308Y33133654D01*
X3545308Y32926243D01*
G37*
G36*
X3545308Y38510220D02*
G01*
X3539822Y38477731D01*
X3522863Y38445669D01*
X3492459Y38413058D01*
X3445211Y38379312D01*
X3381965Y38346977D01*
X3309103Y38320988D01*
X3225252Y38301667D01*
X3141464Y38291653D01*
X3072374Y38292473D01*
X3015215Y38302272D01*
X2971686Y38318940D01*
X2943140Y38340406D01*
X2926319Y38366949D01*
X2920437Y38400268D01*
X2920437Y38607679D01*
X3545308Y38717631D01*
X3545308Y38510220D01*
G37*
G36*
X3938684Y21015065D02*
G01*
X2527061Y21015065D01*
X2527061Y21863538D01*
X2691826Y21863538D01*
X2691826Y21352398D01*
X2698774Y21296738D01*
X2718150Y21252351D01*
X2749149Y21216737D01*
X2792875Y21188444D01*
X2855674Y21167052D01*
X2929226Y21159509D01*
X3016962Y21167555D01*
X3101212Y21189217D01*
X3175100Y21222311D01*
X3240175Y21267164D01*
X3285535Y21312410D01*
X3316968Y21360208D01*
X3335733Y21411309D01*
X3342098Y21466783D01*
X3342098Y21590303D01*
X3516414Y21247350D01*
X3775189Y21292889D01*
X3504666Y21810879D01*
X3775427Y21858567D01*
X3775427Y22054157D01*
X3413301Y21990416D01*
X3329473Y21969422D01*
X3259884Y21939333D01*
X3202312Y21900412D01*
X3161369Y21858832D01*
X3132322Y21812624D01*
X3114558Y21760850D01*
X3108406Y21702203D01*
X3108406Y21458791D01*
X3101555Y21427473D01*
X3081259Y21401766D01*
X3051552Y21382671D01*
X3017041Y21372011D01*
X2979406Y21370126D01*
X2950601Y21377989D01*
X2928228Y21396808D01*
X2920437Y21425677D01*
X2920437Y21903703D01*
X2691826Y21863538D01*
X2527061Y21863538D01*
X2527061Y22395566D01*
X2686745Y22395566D01*
X2693013Y22338257D01*
X2710797Y22289912D01*
X2740932Y22249965D01*
X2780254Y22225164D01*
X2829969Y22214638D01*
X3032996Y22190237D01*
X3469184Y22150810D01*
X3779000Y22124346D01*
X3779000Y22336929D01*
X2943933Y22424716D01*
X2934109Y22427704D01*
X2930598Y22437746D01*
X2933831Y22449025D01*
X2943933Y22458501D01*
X3779000Y22834904D01*
X3779000Y23050375D01*
X3471009Y22917116D01*
X3034822Y22722399D01*
X2830014Y22626502D01*
X2780254Y22599618D01*
X2740740Y22560733D01*
X2710797Y22510152D01*
X2692781Y22454109D01*
X2686745Y22395566D01*
X2527061Y22395566D01*
X2527061Y23671130D01*
X2691826Y23671130D01*
X2691826Y23159991D01*
X2698960Y23104985D01*
X2718992Y23060617D01*
X2751338Y23024514D01*
X2797400Y22995365D01*
X2863194Y22973066D01*
X2938416Y22965158D01*
X3026170Y22973066D01*
X3083659Y22986802D01*
X3137935Y23007119D01*
X3187674Y23033722D01*
X3230332Y23065622D01*
X3275615Y23050051D01*
X3327492Y23041979D01*
X3382240Y23041535D01*
X3442592Y23048628D01*
X3528920Y23070706D01*
X3605182Y23104420D01*
X3672870Y23150117D01*
X3720334Y23196301D01*
X3753029Y23244668D01*
X3772441Y23295967D01*
X3779000Y23351282D01*
X3779000Y23862354D01*
X3550388Y23822121D01*
X3550388Y23344095D01*
X3542695Y23313315D01*
X3518716Y23285526D01*
X3487707Y23266944D01*
X3449101Y23255636D01*
X3410568Y23253437D01*
X3382105Y23260741D01*
X3360102Y23279206D01*
X3352258Y23309235D01*
X3352258Y23787261D01*
X3108406Y23744409D01*
X3108406Y23266383D01*
X3101555Y23235066D01*
X3081259Y23209358D01*
X3051552Y23190263D01*
X3017041Y23179604D01*
X2979406Y23177718D01*
X2950601Y23185581D01*
X2928228Y23204400D01*
X2920437Y23233270D01*
X2920437Y23711296D01*
X2691826Y23671130D01*
X2527061Y23671130D01*
X2527061Y23964716D01*
X2691826Y23964716D01*
X2691826Y23766104D01*
X3779000Y23957328D01*
X3779000Y24155940D01*
X2691826Y23964716D01*
X2527061Y23964716D01*
X2527061Y24822302D01*
X2691826Y24822302D01*
X2691826Y24623689D01*
X3203740Y24713693D01*
X3295976Y24723950D01*
X3372500Y24720982D01*
X3436479Y24706842D01*
X3485230Y24684330D01*
X3518239Y24655442D01*
X3538224Y24619361D01*
X3545308Y24573785D01*
X3545308Y24215584D01*
X3779000Y24256690D01*
X3779000Y24614891D01*
X3771459Y24700245D01*
X3750708Y24768448D01*
X3718642Y24822816D01*
X3675807Y24865893D01*
X3617707Y24901080D01*
X3545325Y24925211D01*
X3455133Y24937425D01*
X3361809Y24936724D01*
X3255892Y24923656D01*
X3220728Y24917141D01*
X3202470Y24912104D01*
X2691826Y24822302D01*
X2527061Y24822302D01*
X2527061Y25434258D01*
X2691826Y25434258D01*
X2691826Y24923052D01*
X2920437Y24963218D01*
X2920437Y25441311D01*
X2927555Y25471312D01*
X2949331Y25497529D01*
X2980782Y25517143D01*
X3017041Y25528157D01*
X3053118Y25529771D01*
X3081735Y25521575D01*
X3101260Y25503913D01*
X3108406Y25474357D01*
X3108406Y25192726D01*
X3115529Y25137643D01*
X3135415Y25093805D01*
X3167359Y25058674D01*
X3212710Y25030854D01*
X3276791Y25010196D01*
X3352590Y25003231D01*
X3443703Y25011913D01*
X3531225Y25034122D01*
X3607685Y25067467D01*
X3674696Y25112126D01*
X3721247Y25157305D01*
X3753388Y25204898D01*
X3772520Y25255656D01*
X3779000Y25310671D01*
X3779000Y25823288D01*
X3550388Y25783055D01*
X3550388Y25302813D01*
X3542609Y25274301D01*
X3518002Y25248542D01*
X3483232Y25229222D01*
X3443465Y25217780D01*
X3403123Y25215262D01*
X3371706Y25222145D01*
X3349834Y25238515D01*
X3342098Y25266207D01*
X3342098Y25548643D01*
X3335147Y25604304D01*
X3315769Y25648663D01*
X3284770Y25684232D01*
X3241049Y25712463D01*
X3178783Y25733910D01*
X3105286Y25741489D01*
X3016962Y25733352D01*
X2932706Y25711697D01*
X2858818Y25678623D01*
X2793748Y25633811D01*
X2748317Y25588226D01*
X2716888Y25540314D01*
X2698164Y25489340D01*
X2691826Y25434258D01*
X2527061Y25434258D01*
X2527061Y26657701D01*
X2686745Y26657701D01*
X2693013Y26600393D01*
X2710797Y26552048D01*
X2740932Y26512100D01*
X2780254Y26487299D01*
X2829969Y26476774D01*
X3032996Y26452372D01*
X3469184Y26412945D01*
X3779000Y26386482D01*
X3779000Y26599065D01*
X2943933Y26686852D01*
X2934109Y26689839D01*
X2930598Y26699882D01*
X2933831Y26711160D01*
X2943933Y26720636D01*
X3779000Y27097039D01*
X3779000Y27312510D01*
X3471009Y27179251D01*
X3034822Y26984535D01*
X2830014Y26888638D01*
X2780254Y26861754D01*
X2740740Y26822868D01*
X2710797Y26772288D01*
X2692781Y26716244D01*
X2686745Y26657701D01*
X2527061Y26657701D01*
X2527061Y27177572D01*
X2680395Y27177572D01*
X2939488Y27223111D01*
X3215489Y27810753D01*
X3256131Y27817940D01*
X3538243Y27328429D01*
X3792970Y27373296D01*
X3524987Y27895383D01*
X3775427Y27939445D01*
X3775427Y28138057D01*
X2689524Y27947035D01*
X2689524Y27748423D01*
X2954332Y27794969D01*
X2680395Y27177572D01*
X2527061Y27177572D01*
X2527061Y28810128D01*
X2691826Y28810128D01*
X2691826Y28615210D01*
X3346861Y28730401D01*
X3401100Y28732885D01*
X3445386Y28720814D01*
X3483154Y28694064D01*
X3508456Y28660736D01*
X3524369Y28619806D01*
X3530067Y28569268D01*
X3524919Y28520384D01*
X3509854Y28475861D01*
X3484901Y28434800D01*
X3446632Y28395878D01*
X3401104Y28369047D01*
X3346861Y28353125D01*
X2691826Y28237934D01*
X2691826Y28048927D01*
X3387900Y28171372D01*
X3477377Y28194680D01*
X3556250Y28230842D01*
X3626146Y28280380D01*
X3687952Y28344796D01*
X3732227Y28410022D01*
X3763671Y28478590D01*
X3782696Y28551235D01*
X3789160Y28628845D01*
X3782241Y28704930D01*
X3762751Y28768929D01*
X3731860Y28822973D01*
X3689698Y28868697D01*
X3643198Y28901807D01*
X3591231Y28924675D01*
X3532570Y28937841D01*
X3465489Y28940909D01*
X3387900Y28932573D01*
X2691826Y28810128D01*
X2527061Y28810128D01*
X2527061Y29662609D01*
X2691826Y29662609D01*
X2691826Y29463996D01*
X3203740Y29554000D01*
X3295976Y29564257D01*
X3372500Y29561289D01*
X3436479Y29547149D01*
X3485230Y29524637D01*
X3518239Y29495749D01*
X3538224Y29459668D01*
X3545308Y29414092D01*
X3545308Y29055891D01*
X3779000Y29096997D01*
X3779000Y29455198D01*
X3771459Y29540552D01*
X3750708Y29608755D01*
X3718642Y29663123D01*
X3675807Y29706200D01*
X3617707Y29741387D01*
X3545325Y29765518D01*
X3455133Y29777733D01*
X3361809Y29777031D01*
X3255892Y29763963D01*
X3220728Y29757448D01*
X3202470Y29752411D01*
X2691826Y29662609D01*
X2527061Y29662609D01*
X2527061Y30849916D01*
X2696906Y30849916D01*
X3096500Y30704634D01*
X3106318Y30701636D01*
X3109835Y30691537D01*
X3106555Y30679684D01*
X3096500Y30670110D01*
X2696906Y30388749D01*
X2696906Y30155546D01*
X3382025Y30640893D01*
X3779000Y30710746D01*
X3779000Y30910097D01*
X3382025Y30840244D01*
X2696906Y31080835D01*
X2696906Y30849916D01*
X2527061Y30849916D01*
X2527061Y31865478D01*
X2691826Y31865478D01*
X2691826Y31354338D01*
X2698960Y31299332D01*
X2718992Y31254965D01*
X2751338Y31218862D01*
X2797400Y31189713D01*
X2863194Y31167413D01*
X2938416Y31159506D01*
X3026170Y31167413D01*
X3083659Y31181150D01*
X3137935Y31201467D01*
X3187674Y31228069D01*
X3230332Y31259969D01*
X3275615Y31244398D01*
X3327492Y31236326D01*
X3382240Y31235883D01*
X3442592Y31242976D01*
X3528920Y31265054D01*
X3605182Y31298768D01*
X3672870Y31344465D01*
X3720334Y31390648D01*
X3753029Y31439016D01*
X3772441Y31490315D01*
X3779000Y31545629D01*
X3779000Y32056701D01*
X3550388Y32016469D01*
X3550388Y31538443D01*
X3542695Y31507663D01*
X3518716Y31479873D01*
X3487707Y31461292D01*
X3449101Y31449984D01*
X3410568Y31447785D01*
X3382105Y31455089D01*
X3360102Y31473554D01*
X3352258Y31503583D01*
X3352258Y31981609D01*
X3108406Y31938757D01*
X3108406Y31460731D01*
X3101555Y31429413D01*
X3081259Y31403706D01*
X3051552Y31384611D01*
X3017041Y31373951D01*
X2979406Y31372066D01*
X2950601Y31379929D01*
X2928228Y31398748D01*
X2920437Y31427617D01*
X2920437Y31905643D01*
X2691826Y31865478D01*
X2527061Y31865478D01*
X2527061Y33182148D01*
X2691826Y33182148D01*
X2691826Y33023702D01*
X2691826Y32743012D01*
X2699079Y32683022D01*
X2719673Y32632862D01*
X2753085Y32590461D01*
X2800443Y32554543D01*
X2864396Y32524787D01*
X2942054Y32503404D01*
X3029872Y32492662D01*
X3129863Y32493572D01*
X3244303Y32507794D01*
X3352145Y32532194D01*
X3448685Y32564983D01*
X3535171Y32605893D01*
X3612621Y32654956D01*
X3675094Y32707409D01*
X3721417Y32760989D01*
X3753519Y32816143D01*
X3772588Y32873582D01*
X3779000Y32934235D01*
X3779000Y33373372D01*
X2691826Y33182148D01*
X2527061Y33182148D01*
X2527061Y33794105D01*
X2691826Y33794105D01*
X2691826Y33282898D01*
X2920437Y33323064D01*
X2920437Y33801157D01*
X2927555Y33831158D01*
X2949331Y33857376D01*
X2980782Y33876989D01*
X3017041Y33888004D01*
X3053118Y33889617D01*
X3081735Y33881421D01*
X3101264Y33863769D01*
X3108406Y33834270D01*
X3108406Y33356177D01*
X3335906Y33396141D01*
X3342098Y33397283D01*
X3342098Y33902579D01*
X3357304Y33922572D01*
X3382105Y33940864D01*
X3411977Y33954647D01*
X3444814Y33963298D01*
X3485852Y33965739D01*
X3519034Y33958327D01*
X3542236Y33940919D01*
X3550388Y33911982D01*
X3550388Y33433889D01*
X3779000Y33474122D01*
X3779000Y33985328D01*
X3771811Y34040699D01*
X3751723Y34084838D01*
X3719419Y34120279D01*
X3673505Y34148409D01*
X3608570Y34169368D01*
X3532167Y34176447D01*
X3440766Y34167753D01*
X3360709Y34147901D01*
X3289271Y34118400D01*
X3225252Y34079093D01*
X3164979Y34095937D01*
X3096478Y34101087D01*
X3017359Y34093266D01*
X2933242Y34071628D01*
X2859151Y34038521D01*
X2793590Y33993590D01*
X2748312Y33948418D01*
X2716927Y33900667D01*
X2698185Y33849587D01*
X2691826Y33794105D01*
X2527061Y33794105D01*
X2527061Y34806913D01*
X2671505Y34806913D01*
X2678167Y34756157D01*
X2697144Y34713819D01*
X2728215Y34678028D01*
X2772877Y34647753D01*
X2834152Y34622943D01*
X2908633Y34605673D01*
X3021616Y34591897D01*
X3185166Y34583986D01*
X3427113Y34574508D01*
X3515700Y34564843D01*
X3541987Y34552432D01*
X3550388Y34530521D01*
X3547010Y34516545D01*
X3536179Y34502647D01*
X3519696Y34491876D01*
X3496966Y34485049D01*
X2681506Y34341648D01*
X2681506Y34141626D01*
X3559755Y34296109D01*
X3623855Y34315001D01*
X3680472Y34347919D01*
X3730975Y34396792D01*
X3766320Y34450345D01*
X3787216Y34506401D01*
X3794240Y34566052D01*
X3788300Y34617534D01*
X3771297Y34661634D01*
X3743596Y34699849D01*
X3701276Y34734101D01*
X3647989Y34757917D01*
X3581028Y34771247D01*
X3350036Y34784412D01*
X3170498Y34795996D01*
X3052444Y34807786D01*
X2953204Y34826277D01*
X2917021Y34842182D01*
X2910277Y34855541D01*
X2917853Y34873035D01*
X2928454Y34884490D01*
X2943060Y34892418D01*
X2964254Y34898125D01*
X3775427Y35040854D01*
X3775427Y35239467D01*
X2905752Y35086461D01*
X2849035Y35071680D01*
X2800737Y35049267D01*
X2759557Y35019088D01*
X2724768Y34980337D01*
X2695703Y34929650D01*
X2677755Y34872313D01*
X2671505Y34806913D01*
X2527061Y34806913D01*
X2527061Y35588734D01*
X2691826Y35588734D01*
X2691826Y35149597D01*
X2920437Y35189763D01*
X2920437Y35595719D01*
X2930031Y35641015D01*
X2959961Y35684518D01*
X3015215Y35727971D01*
X3074271Y35758646D01*
X3143750Y35783588D01*
X3225252Y35802391D01*
X3311420Y35812694D01*
X3383921Y35812042D01*
X3445211Y35802123D01*
X3491780Y35785285D01*
X3521844Y35763911D01*
X3539278Y35737904D01*
X3545308Y35705671D01*
X3550388Y35627892D01*
X3550388Y35529358D01*
X3542609Y35500847D01*
X3518002Y35475088D01*
X3483232Y35455768D01*
X3443465Y35444325D01*
X3403123Y35441807D01*
X3371706Y35448691D01*
X3349834Y35465061D01*
X3342098Y35492753D01*
X3342098Y35591286D01*
X3108406Y35550180D01*
X3108406Y35419272D01*
X3115526Y35364225D01*
X3135408Y35320394D01*
X3167352Y35285250D01*
X3212710Y35257400D01*
X3276791Y35236741D01*
X3352590Y35229776D01*
X3443703Y35238459D01*
X3531225Y35260668D01*
X3607685Y35294012D01*
X3674696Y35338672D01*
X3721247Y35383851D01*
X3753388Y35431444D01*
X3772520Y35482202D01*
X3779000Y35537217D01*
X3779000Y35668125D01*
X3779000Y35779891D01*
X3771883Y35841234D01*
X3751758Y35892262D01*
X3719321Y35935100D01*
X3673712Y35971110D01*
X3612621Y36000735D01*
X3538058Y36021970D01*
X3453246Y36032781D01*
X3356110Y36032135D01*
X3244303Y36018333D01*
X3134823Y35993574D01*
X3035893Y35960142D01*
X2946377Y35918247D01*
X2865348Y35867812D01*
X2799631Y35814167D01*
X2751269Y35760016D01*
X2718008Y35704911D01*
X2698389Y35648132D01*
X2691826Y35588734D01*
X2527061Y35588734D01*
X2527061Y36193369D01*
X2691826Y36193369D01*
X2691826Y35994757D01*
X3779000Y36185981D01*
X3779000Y36384593D01*
X2691826Y36193369D01*
X2527061Y36193369D01*
X2527061Y36805326D01*
X2691826Y36805326D01*
X2691826Y36294119D01*
X2920437Y36334285D01*
X2920437Y36812378D01*
X2927555Y36842380D01*
X2949331Y36868597D01*
X2980782Y36888210D01*
X3017041Y36899225D01*
X3053118Y36900839D01*
X3081735Y36892643D01*
X3101260Y36874981D01*
X3108406Y36845424D01*
X3108406Y36563794D01*
X3115529Y36508710D01*
X3135415Y36464872D01*
X3167359Y36429742D01*
X3212710Y36401922D01*
X3276791Y36381263D01*
X3352590Y36374298D01*
X3443703Y36382981D01*
X3531225Y36405190D01*
X3607685Y36438534D01*
X3674696Y36483194D01*
X3721247Y36528373D01*
X3753388Y36575966D01*
X3772520Y36626724D01*
X3779000Y36681739D01*
X3779000Y37194356D01*
X3550388Y37154123D01*
X3550388Y36673880D01*
X3542609Y36645369D01*
X3518002Y36619610D01*
X3483232Y36600290D01*
X3443465Y36588847D01*
X3403123Y36586329D01*
X3371706Y36593213D01*
X3349834Y36609583D01*
X3342098Y36637275D01*
X3342098Y36919711D01*
X3335147Y36975372D01*
X3315769Y37019731D01*
X3284770Y37055299D01*
X3241049Y37083531D01*
X3178783Y37104978D01*
X3105286Y37112557D01*
X3016962Y37104420D01*
X2932706Y37082764D01*
X2858818Y37049691D01*
X2793748Y37004878D01*
X2748317Y36959294D01*
X2716888Y36911382D01*
X2698164Y36860408D01*
X2691826Y36805326D01*
X2527061Y36805326D01*
X2527061Y37662911D01*
X2691826Y37662911D01*
X2691826Y37151705D01*
X2920437Y37191871D01*
X2920437Y37669964D01*
X2927555Y37699965D01*
X2949331Y37726182D01*
X2980782Y37745796D01*
X3017041Y37756811D01*
X3053118Y37758424D01*
X3081735Y37750228D01*
X3101264Y37732575D01*
X3108406Y37703077D01*
X3108406Y37224984D01*
X3335906Y37264948D01*
X3342098Y37266090D01*
X3342098Y37771386D01*
X3357304Y37791379D01*
X3382105Y37809671D01*
X3411977Y37823454D01*
X3444814Y37832104D01*
X3485852Y37834546D01*
X3519034Y37827134D01*
X3542236Y37809725D01*
X3550388Y37780789D01*
X3550388Y37302696D01*
X3779000Y37342929D01*
X3779000Y37854135D01*
X3771811Y37909506D01*
X3751723Y37953645D01*
X3719419Y37989085D01*
X3673505Y38017216D01*
X3608570Y38038175D01*
X3532167Y38045254D01*
X3440766Y38036560D01*
X3360709Y38016707D01*
X3289271Y37987207D01*
X3225252Y37947900D01*
X3164979Y37964744D01*
X3096478Y37969893D01*
X3017359Y37962072D01*
X2933242Y37940435D01*
X2859151Y37907327D01*
X2793590Y37862397D01*
X2748312Y37817225D01*
X2716927Y37769474D01*
X2698185Y37718394D01*
X2691826Y37662911D01*
X2527061Y37662911D01*
X2527061Y38766126D01*
X2691826Y38766126D01*
X2691826Y38607679D01*
X2691826Y38326989D01*
X2699079Y38267000D01*
X2719673Y38216840D01*
X2753085Y38174438D01*
X2800443Y38138520D01*
X2864396Y38108764D01*
X2942054Y38087382D01*
X3029872Y38076640D01*
X3129863Y38077550D01*
X3244303Y38091771D01*
X3352145Y38116171D01*
X3448685Y38148961D01*
X3535171Y38189871D01*
X3612621Y38238934D01*
X3675094Y38291386D01*
X3721417Y38344966D01*
X3753519Y38400121D01*
X3772588Y38457560D01*
X3779000Y38518213D01*
X3779000Y38957350D01*
X2691826Y38766126D01*
X2527061Y38766126D01*
X2527061Y39101794D01*
X3938684Y39101794D01*
X3938684Y21015065D01*
G37*
D12*
G36*
X38828532Y8046520D02*
G01*
X39017210Y8046520D01*
X39017210Y7254000D01*
X39199720Y7254000D01*
X39199720Y8046520D01*
X39387665Y8046520D01*
X39387665Y8257546D01*
X38828532Y8257546D01*
X38828532Y8046520D01*
G37*
G36*
X38069792Y7254000D02*
G01*
X38544905Y7254000D01*
X38596471Y7260354D01*
X38640887Y7278616D01*
X38679662Y7308586D01*
X38713738Y7351380D01*
X38744369Y7412736D01*
X38763206Y7483561D01*
X38769792Y7566216D01*
X38764293Y7641020D01*
X38748445Y7706762D01*
X38722592Y7765152D01*
X38748528Y7821991D01*
X38764332Y7885420D01*
X38769792Y7957054D01*
X38763270Y8035693D01*
X38744504Y8103821D01*
X38713738Y8163610D01*
X38679842Y8204717D01*
X38641135Y8233661D01*
X38596654Y8251371D01*
X38544905Y8257546D01*
X38069792Y8257546D01*
X38069792Y8046520D01*
X38514131Y8046520D01*
X38541220Y8039744D01*
X38561636Y8019848D01*
X38574626Y7991108D01*
X38579038Y7957347D01*
X38574753Y7924543D01*
X38562308Y7897629D01*
X38542405Y7879443D01*
X38514131Y7873010D01*
X38069792Y7873010D01*
X38069792Y7663010D01*
X38069792Y7657294D01*
X38539410Y7657294D01*
X38555564Y7643205D01*
X38568475Y7620365D01*
X38576346Y7593019D01*
X38579038Y7562479D01*
X38574736Y7525121D01*
X38562308Y7493969D01*
X38542080Y7472391D01*
X38514131Y7465026D01*
X38069792Y7465026D01*
X38069792Y7254000D01*
G37*
G36*
X36708382Y7257298D02*
G01*
X36898403Y7257298D01*
X36942855Y7466345D01*
X36995783Y7695907D01*
X37036523Y7852566D01*
X37082187Y7997004D01*
X37107255Y8047311D01*
X37120603Y8055899D01*
X37136827Y8048703D01*
X37145577Y8039046D01*
X37150253Y8025695D01*
X37152049Y8005853D01*
X37152049Y7455574D01*
X37159316Y7395919D01*
X37180721Y7344197D01*
X37217690Y7298184D01*
X37260859Y7266096D01*
X37309369Y7246650D01*
X37364663Y7239932D01*
X37412697Y7245238D01*
X37456605Y7260801D01*
X37497287Y7286680D01*
X37536429Y7326216D01*
X37567278Y7375696D01*
X37590221Y7436743D01*
X37640169Y7649967D01*
X37680244Y7815417D01*
X37710572Y7924667D01*
X37743776Y8015815D01*
X37764728Y8049702D01*
X37778227Y8055899D01*
X37793353Y8048824D01*
X37802163Y8039119D01*
X37807112Y8025801D01*
X37809002Y8006073D01*
X37809002Y7257298D01*
X37993588Y7257298D01*
X37993588Y8060075D01*
X37988989Y8113230D01*
X37975922Y8157684D01*
X37954689Y8195281D01*
X37924528Y8227137D01*
X37883018Y8253579D01*
X37832886Y8270321D01*
X37772121Y8276303D01*
X37724908Y8270392D01*
X37682459Y8253086D01*
X37643645Y8224166D01*
X37607748Y8182297D01*
X37574528Y8125141D01*
X37545975Y8055002D01*
X37514677Y7949648D01*
X37480861Y7798784D01*
X37432698Y7574405D01*
X37409115Y7491405D01*
X37400698Y7474283D01*
X37389637Y7461656D01*
X37376534Y7453550D01*
X37363319Y7450958D01*
X37352126Y7453511D01*
X37343841Y7460850D01*
X37338657Y7472576D01*
X37336636Y7491405D01*
X37336636Y8058170D01*
X37332028Y8111836D01*
X37318944Y8156694D01*
X37297704Y8194603D01*
X37267576Y8226698D01*
X37226040Y8253388D01*
X37175909Y8270272D01*
X37115169Y8276303D01*
X37066607Y8269223D01*
X37022361Y8248233D01*
X36981140Y8212409D01*
X36944865Y8162369D01*
X36913231Y8095597D01*
X36886802Y8008418D01*
X36708382Y7257298D01*
G37*
G36*
X36234429Y7657294D02*
G01*
X36412177Y7657294D01*
X36455229Y7650442D01*
X36486836Y7631653D01*
X36509935Y7601241D01*
X36524505Y7559447D01*
X36529780Y7505033D01*
X36529474Y7479901D01*
X36527704Y7471548D01*
X36527704Y7254000D01*
X36709542Y7254000D01*
X36709542Y7322877D01*
X36709542Y7438208D01*
X36709542Y7590030D01*
X36703564Y7668858D01*
X36686850Y7733164D01*
X36660327Y7785888D01*
X36629060Y7823233D01*
X36591460Y7850144D01*
X36546235Y7867010D01*
X36491495Y7873010D01*
X36265204Y7873010D01*
X36236855Y7879531D01*
X36216660Y7898069D01*
X36203897Y7925212D01*
X36199563Y7957347D01*
X36203826Y7991574D01*
X36215989Y8018676D01*
X36237390Y8039489D01*
X36265204Y8046520D01*
X36709542Y8046520D01*
X36709542Y8257546D01*
X36234429Y8257546D01*
X36182645Y8251406D01*
X36138152Y8233802D01*
X36099458Y8205055D01*
X36065596Y8164269D01*
X36034888Y8104920D01*
X36016095Y8036731D01*
X36009542Y7957420D01*
X36016080Y7878648D01*
X36034860Y7810711D01*
X36065596Y7751377D01*
X36099500Y7710198D01*
X36138210Y7681210D01*
X36182688Y7663477D01*
X36234429Y7657294D01*
G37*
D11*
G36*
X5792482Y23946694D02*
G01*
X5542769Y24472366D01*
X5792702Y24472366D01*
X5792702Y24654205D01*
X5458431Y24654205D01*
X5380055Y24648230D01*
X5316112Y24631520D01*
X5263672Y24604990D01*
X5226538Y24573746D01*
X5199759Y24536157D01*
X5182966Y24490924D01*
X5176990Y24436157D01*
X5176990Y24209866D01*
X5170469Y24181517D01*
X5151931Y24161323D01*
X5124788Y24148560D01*
X5092653Y24144226D01*
X5058426Y24148488D01*
X5031324Y24160651D01*
X5010511Y24182053D01*
X5003480Y24209866D01*
X5003480Y24654205D01*
X4792454Y24654205D01*
X4792454Y24179092D01*
X4798594Y24127308D01*
X4816198Y24082814D01*
X4844945Y24044120D01*
X4885731Y24010259D01*
X4945080Y23979550D01*
X5013269Y23960757D01*
X5092580Y23954205D01*
X5171352Y23960743D01*
X5239289Y23979522D01*
X5298623Y24010259D01*
X5339802Y24044162D01*
X5368790Y24082872D01*
X5386523Y24127351D01*
X5392706Y24179092D01*
X5392706Y24293947D01*
X5553613Y23946694D01*
X5792482Y23946694D01*
G37*
G36*
X5796000Y23170491D02*
G01*
X5796000Y23645604D01*
X5789646Y23697170D01*
X5771384Y23741586D01*
X5741414Y23780361D01*
X5698620Y23814437D01*
X5637264Y23845068D01*
X5566439Y23863904D01*
X5483784Y23870491D01*
X5408980Y23864992D01*
X5343238Y23849144D01*
X5284848Y23823291D01*
X5228009Y23849227D01*
X5164580Y23865031D01*
X5092946Y23870491D01*
X5014307Y23863969D01*
X4946179Y23845203D01*
X4886390Y23814437D01*
X4845283Y23780541D01*
X4816339Y23741834D01*
X4798629Y23697353D01*
X4792454Y23645604D01*
X4792454Y23170491D01*
X5003480Y23170491D01*
X5003480Y23614830D01*
X5010256Y23641919D01*
X5030152Y23662335D01*
X5058892Y23675325D01*
X5092653Y23679737D01*
X5125457Y23675452D01*
X5152371Y23663006D01*
X5170557Y23643104D01*
X5176990Y23614830D01*
X5176990Y23170491D01*
X5386990Y23170491D01*
X5392706Y23170491D01*
X5392706Y23640109D01*
X5406795Y23656263D01*
X5429635Y23669174D01*
X5456981Y23677045D01*
X5487521Y23679737D01*
X5524879Y23675435D01*
X5556031Y23663006D01*
X5577609Y23642779D01*
X5584974Y23614830D01*
X5584974Y23170491D01*
X5796000Y23170491D01*
G37*
G36*
X4797144Y22270517D02*
G01*
X5083128Y22343668D01*
X5488034Y22453027D01*
X5675999Y22508439D01*
X5723166Y22526178D01*
X5758790Y22555186D01*
X5787133Y22598291D01*
X5804276Y22647675D01*
X5810068Y22700506D01*
X5804406Y22754349D01*
X5787939Y22802722D01*
X5760068Y22844642D01*
X5723166Y22874163D01*
X5677287Y22892187D01*
X5488840Y22947985D01*
X5084007Y23056002D01*
X4797144Y23131168D01*
X4797144Y22932904D01*
X5572737Y22715527D01*
X5581753Y22711118D01*
X5584974Y22701178D01*
X5581865Y22690528D01*
X5572737Y22683409D01*
X4797144Y22470796D01*
X4797144Y22270517D01*
G37*
G36*
X5796000Y21034953D02*
G01*
X5796000Y21232485D01*
X5025169Y21450594D01*
X5016094Y21455009D01*
X5012859Y21464943D01*
X5015934Y21475014D01*
X5025169Y21482040D01*
X5796000Y21695325D01*
X5796000Y21895604D01*
X5511701Y21822148D01*
X5109066Y21712422D01*
X4919777Y21656713D01*
X4874080Y21639943D01*
X4837785Y21610469D01*
X4809967Y21568197D01*
X4793436Y21519505D01*
X4787765Y21465615D01*
X4793447Y21411783D01*
X4809967Y21363460D01*
X4837758Y21321434D01*
X4874080Y21291958D01*
X4920561Y21273822D01*
X5107381Y21218136D01*
X5510016Y21110119D01*
X5796000Y21034953D01*
G37*
D12*
G36*
X36185371Y53704000D02*
G01*
X35777241Y53704000D01*
X35720367Y53710269D01*
X35669746Y53728455D01*
X35624129Y53758375D01*
X35582639Y53800837D01*
X35544844Y53857580D01*
X35512268Y53928111D01*
X35488389Y54007311D01*
X35473479Y54096577D01*
X35468274Y54197566D01*
X35469171Y54215152D01*
X35666477Y54215152D01*
X35670833Y54136881D01*
X35683157Y54069790D01*
X35702686Y54012113D01*
X35725953Y53969037D01*
X35750924Y53941051D01*
X35777932Y53925065D01*
X35808016Y53919716D01*
X36000785Y53919716D01*
X36000785Y54496520D01*
X35808016Y54496520D01*
X35776616Y54491287D01*
X35748978Y54475847D01*
X35724020Y54449271D01*
X35701343Y54409032D01*
X35682635Y54355196D01*
X35670724Y54291238D01*
X35666477Y54215152D01*
X35469171Y54215152D01*
X35473549Y54300968D01*
X35488689Y54392854D01*
X35512988Y54474830D01*
X35546188Y54548250D01*
X35584545Y54607594D01*
X35626227Y54651682D01*
X35671613Y54682523D01*
X35721542Y54701152D01*
X35777241Y54707546D01*
X36185371Y54707546D01*
X36185371Y53704000D01*
G37*
G36*
X34702329Y53704000D02*
G01*
X35177442Y53704000D01*
X35229008Y53710354D01*
X35273424Y53728616D01*
X35312199Y53758586D01*
X35346275Y53801380D01*
X35376906Y53862736D01*
X35395742Y53933561D01*
X35402329Y54016216D01*
X35396830Y54091020D01*
X35380982Y54156762D01*
X35355129Y54215152D01*
X35381064Y54271991D01*
X35396868Y54335420D01*
X35402329Y54407054D01*
X35395807Y54485693D01*
X35377041Y54553821D01*
X35346275Y54613610D01*
X35312379Y54654717D01*
X35273672Y54683661D01*
X35229191Y54701371D01*
X35177442Y54707546D01*
X34702329Y54707546D01*
X34702329Y54496520D01*
X35146667Y54496520D01*
X35173756Y54489744D01*
X35194173Y54469848D01*
X35207162Y54441108D01*
X35211575Y54407347D01*
X35207290Y54374543D01*
X35194844Y54347629D01*
X35174941Y54329443D01*
X35146667Y54323010D01*
X34702329Y54323010D01*
X34702329Y54113010D01*
X34702329Y54107294D01*
X35171946Y54107294D01*
X35188101Y54093205D01*
X35201011Y54070365D01*
X35208883Y54043019D01*
X35211575Y54012479D01*
X35207273Y53975121D01*
X35194844Y53943969D01*
X35174617Y53922391D01*
X35146667Y53915026D01*
X34702329Y53915026D01*
X34702329Y53704000D01*
G37*
G36*
X33969173Y54210462D02*
G01*
X33947143Y54168322D01*
X33931254Y54120776D01*
X33921836Y54069820D01*
X33918614Y54014531D01*
X33925211Y53933828D01*
X33944205Y53863694D01*
X33975340Y53801966D01*
X34009765Y53758865D01*
X34048789Y53728717D01*
X34093340Y53710373D01*
X34144905Y53704000D01*
X34619958Y53704000D01*
X34619958Y53915026D01*
X34175619Y53915026D01*
X34147904Y53922349D01*
X34126404Y53944262D01*
X34114260Y53972583D01*
X34109979Y54008522D01*
X34114122Y54043569D01*
X34125732Y54070365D01*
X34146754Y54090841D01*
X34175619Y54097915D01*
X34619958Y54097915D01*
X34619958Y54323010D01*
X34175619Y54323010D01*
X34147270Y54329531D01*
X34127076Y54348069D01*
X34114313Y54375212D01*
X34109979Y54407347D01*
X34114241Y54441574D01*
X34126404Y54468676D01*
X34147805Y54489489D01*
X34175619Y54496520D01*
X34619958Y54496520D01*
X34619958Y54707546D01*
X34144844Y54707546D01*
X34093647Y54701240D01*
X34049072Y54683034D01*
X34009709Y54653037D01*
X33974668Y54610093D01*
X33942636Y54547965D01*
X33923236Y54478259D01*
X33916538Y54398920D01*
X33919930Y54345536D01*
X33929911Y54295752D01*
X33946538Y54249727D01*
X33969173Y54210462D01*
G37*
G36*
X33143754Y54065016D02*
G01*
X33151018Y53981137D01*
X33171961Y53908463D01*
X33206451Y53844594D01*
X33255861Y53788044D01*
X33308200Y53747842D01*
X33366186Y53718791D01*
X33430818Y53700846D01*
X33503340Y53694622D01*
X33573786Y53700750D01*
X33636344Y53718396D01*
X33692273Y53746939D01*
X33742576Y53786432D01*
X33790177Y53842330D01*
X33823656Y53906184D01*
X33844128Y53979582D01*
X33851264Y54065016D01*
X33851264Y54707546D01*
X33670097Y54707546D01*
X33670097Y54102898D01*
X33663867Y54054067D01*
X33645616Y54012808D01*
X33614043Y53977088D01*
X33578304Y53953430D01*
X33537468Y53938865D01*
X33490334Y53933784D01*
X33444970Y53938712D01*
X33406191Y53952763D01*
X33372732Y53975476D01*
X33343011Y54010487D01*
X33325497Y54052211D01*
X33319426Y54102898D01*
X33319426Y54707546D01*
X33143754Y54707546D01*
X33143754Y54065016D01*
G37*
G36*
X32363459Y54496520D02*
G01*
X32740753Y54496520D01*
X32772504Y54491266D01*
X32800361Y54475788D01*
X32825422Y54449205D01*
X32848098Y54409032D01*
X32866805Y54355196D01*
X32878717Y54291238D01*
X32882964Y54215152D01*
X32878608Y54136881D01*
X32866284Y54069790D01*
X32846755Y54012113D01*
X32823489Y53969109D01*
X32798413Y53941115D01*
X32771185Y53925088D01*
X32740753Y53919716D01*
X32667663Y53915026D01*
X32576072Y53915026D01*
X32550521Y53922428D01*
X32530949Y53944922D01*
X32518715Y53976714D01*
X32514523Y54013725D01*
X32518624Y54050449D01*
X32530277Y54079964D01*
X32549311Y54100305D01*
X32576072Y54107294D01*
X32667663Y54107294D01*
X32667663Y54323010D01*
X32545969Y54323010D01*
X32494702Y54316717D01*
X32450609Y54298641D01*
X32412183Y54269005D01*
X32378480Y54226729D01*
X32348256Y54166168D01*
X32329626Y54095897D01*
X32323098Y54013505D01*
X32329596Y53931688D01*
X32348201Y53861377D01*
X32378480Y53800281D01*
X32412154Y53758011D01*
X32450568Y53728376D01*
X32494669Y53710296D01*
X32545969Y53704000D01*
X32667663Y53704000D01*
X32771528Y53704000D01*
X32828429Y53710270D01*
X32879069Y53728459D01*
X32924697Y53758380D01*
X32966192Y53800842D01*
X33003986Y53857580D01*
X33036562Y53928111D01*
X33060442Y54007311D01*
X33075351Y54096577D01*
X33080556Y54197566D01*
X33075305Y54300071D01*
X33060201Y54391558D01*
X33035906Y54473561D01*
X33002643Y54547371D01*
X32964247Y54607091D01*
X32922544Y54651424D01*
X32877158Y54682416D01*
X32827249Y54701126D01*
X32771589Y54707546D01*
X32363459Y54707546D01*
X32363459Y54496520D01*
G37*
D11*
G36*
X3546000Y69275786D02*
G01*
X3546000Y69460372D01*
X2542454Y69460372D01*
X2542454Y69275786D01*
X3546000Y69275786D01*
G37*
G36*
X3343620Y68357982D02*
G01*
X3403529Y68365253D01*
X3455469Y68386665D01*
X3501669Y68423622D01*
X3533843Y68466800D01*
X3553335Y68515309D01*
X3560068Y68570595D01*
X3554762Y68618630D01*
X3539199Y68662538D01*
X3513320Y68703219D01*
X3473784Y68742361D01*
X3424304Y68773211D01*
X3363257Y68796154D01*
X3150033Y68846101D01*
X2984583Y68886177D01*
X2875333Y68916504D01*
X2784185Y68949709D01*
X2750298Y68970660D01*
X2744101Y68984160D01*
X2751176Y68999286D01*
X2760881Y69008095D01*
X2774199Y69013044D01*
X2793927Y69014934D01*
X3542702Y69014934D01*
X3542702Y69199521D01*
X2739925Y69199521D01*
X2686770Y69194922D01*
X2642316Y69181855D01*
X2604719Y69160622D01*
X2572863Y69130461D01*
X2546423Y69088949D01*
X2529681Y69038799D01*
X2523697Y68977992D01*
X2529579Y68930762D01*
X2546792Y68888307D01*
X2575538Y68849505D01*
X2617121Y68813639D01*
X2673833Y68780461D01*
X2743481Y68751902D01*
X2848080Y68720604D01*
X2997845Y68686794D01*
X3220551Y68638613D01*
X3302953Y68614987D01*
X3327305Y68599062D01*
X3334974Y68577434D01*
X3331759Y68564818D01*
X3321858Y68553865D01*
X3306817Y68546569D01*
X3285661Y68543912D01*
X2532929Y68543912D01*
X2532929Y68357982D01*
X3343620Y68357982D01*
G37*
G36*
X3546000Y67686253D02*
G01*
X3546000Y67870840D01*
X2999677Y67870840D01*
X2932606Y67875002D01*
X2881372Y67886229D01*
X2842594Y67903218D01*
X2813711Y67925550D01*
X2789924Y67961568D01*
X2781617Y68006883D01*
X2781617Y68013355D01*
X2781617Y68017813D01*
X2551833Y68017813D01*
X2551833Y68011951D01*
X2551833Y68002792D01*
X2556597Y67946151D01*
X2570738Y67892028D01*
X2596935Y67836340D01*
X2631221Y67790796D01*
X2673540Y67753908D01*
X2723464Y67725352D01*
X2781998Y67704290D01*
X2850757Y67690974D01*
X2931753Y67686253D01*
X3546000Y67686253D01*
G37*
G36*
X2924743Y67632149D02*
G01*
X2993295Y67613367D01*
X3053240Y67582633D01*
X3094587Y67548715D01*
X3123584Y67510299D01*
X3141255Y67466475D01*
X3147395Y67415815D01*
X3147395Y67087003D01*
X3221209Y67106184D01*
X3273498Y67132799D01*
X3302921Y67158887D01*
X3319876Y67187669D01*
X3325595Y67220299D01*
X3325595Y67598326D01*
X3536621Y67598326D01*
X3536621Y67189524D01*
X3530262Y67133774D01*
X3511741Y67083816D01*
X3481101Y67038431D01*
X3437340Y66996778D01*
X3378498Y66958470D01*
X3305210Y66925191D01*
X3223827Y66900899D01*
X3133067Y66885804D01*
X3031404Y66880557D01*
X2931657Y66885751D01*
X2843359Y66900640D01*
X2764882Y66924515D01*
X2694862Y66957127D01*
X2638615Y66994871D01*
X2596479Y67036333D01*
X2566763Y67081948D01*
X2548687Y67132597D01*
X2542454Y67189524D01*
X2542454Y67385041D01*
X2753480Y67385041D01*
X2753480Y67220299D01*
X2759096Y67189975D01*
X2776037Y67162294D01*
X2806017Y67136218D01*
X2858524Y67109255D01*
X2931680Y67089079D01*
X2931680Y67385041D01*
X2925111Y67412014D01*
X2906254Y67431203D01*
X2878683Y67443145D01*
X2845438Y67447261D01*
X2809901Y67442960D01*
X2780591Y67430531D01*
X2760293Y67410821D01*
X2753480Y67385041D01*
X2542454Y67385041D01*
X2542454Y67415815D01*
X2548640Y67467229D01*
X2566379Y67511370D01*
X2595381Y67549742D01*
X2636610Y67583305D01*
X2696026Y67613568D01*
X2764821Y67632176D01*
X2845364Y67638687D01*
X2924743Y67632149D01*
G37*
G36*
X2547144Y66006595D02*
G01*
X2833128Y66079746D01*
X3238034Y66189106D01*
X3425999Y66244517D01*
X3473166Y66262256D01*
X3508790Y66291264D01*
X3537133Y66334369D01*
X3554276Y66383753D01*
X3560068Y66436585D01*
X3554406Y66490427D01*
X3537939Y66538800D01*
X3510068Y66580720D01*
X3473166Y66610241D01*
X3427287Y66628265D01*
X3238840Y66684064D01*
X2834007Y66792080D01*
X2547144Y66867246D01*
X2547144Y66668982D01*
X3322737Y66451606D01*
X3331753Y66447196D01*
X3334974Y66437256D01*
X3331865Y66426606D01*
X3322737Y66419488D01*
X2547144Y66206874D01*
X2547144Y66006595D01*
G37*
D12*
G36*
X24856952Y7657294D02*
G01*
X25375785Y7657294D01*
X25375785Y7254000D01*
X25560371Y7254000D01*
X25560371Y7763980D01*
X25554063Y7899744D01*
X25537107Y8004608D01*
X25513622Y8080272D01*
X25483900Y8139884D01*
X25448264Y8186104D01*
X25412319Y8216444D01*
X25370671Y8238664D01*
X25322263Y8252622D01*
X25265753Y8257546D01*
X24856952Y8257546D01*
X24856952Y8046520D01*
X25265753Y8046520D01*
X25297667Y8041091D01*
X25323548Y8025537D01*
X25344896Y7999300D01*
X25362107Y7959765D01*
X25369408Y7927305D01*
X25375785Y7873010D01*
X24856952Y7873010D01*
X24856952Y7663010D01*
X24856952Y7657294D01*
G37*
G36*
X24077329Y7254000D02*
G01*
X24552442Y7254000D01*
X24604008Y7260354D01*
X24648424Y7278616D01*
X24687199Y7308586D01*
X24721275Y7351380D01*
X24751906Y7412736D01*
X24770742Y7483561D01*
X24777329Y7566216D01*
X24771830Y7641020D01*
X24755982Y7706762D01*
X24730129Y7765152D01*
X24756064Y7821991D01*
X24771868Y7885420D01*
X24777329Y7957054D01*
X24770807Y8035693D01*
X24752041Y8103821D01*
X24721275Y8163610D01*
X24687379Y8204717D01*
X24648672Y8233661D01*
X24604191Y8251371D01*
X24552442Y8257546D01*
X24077329Y8257546D01*
X24077329Y8046520D01*
X24521667Y8046520D01*
X24548756Y8039744D01*
X24569173Y8019848D01*
X24582162Y7991108D01*
X24586575Y7957347D01*
X24582290Y7924543D01*
X24569844Y7897629D01*
X24549941Y7879443D01*
X24521667Y7873010D01*
X24077329Y7873010D01*
X24077329Y7663010D01*
X24077329Y7657294D01*
X24546946Y7657294D01*
X24563101Y7643205D01*
X24576011Y7620365D01*
X24583883Y7593019D01*
X24586575Y7562479D01*
X24582273Y7525121D01*
X24569844Y7493969D01*
X24549617Y7472391D01*
X24521667Y7465026D01*
X24077329Y7465026D01*
X24077329Y7254000D01*
G37*
G36*
X23159586Y7456380D02*
G01*
X23166857Y7396471D01*
X23188269Y7344531D01*
X23225226Y7298331D01*
X23268404Y7266157D01*
X23316913Y7246665D01*
X23372199Y7239932D01*
X23420234Y7245238D01*
X23464142Y7260801D01*
X23504823Y7286680D01*
X23543965Y7326216D01*
X23574815Y7375696D01*
X23597758Y7436743D01*
X23647705Y7649967D01*
X23687781Y7815417D01*
X23718108Y7924667D01*
X23751313Y8015815D01*
X23772264Y8049702D01*
X23785764Y8055899D01*
X23800890Y8048824D01*
X23809699Y8039119D01*
X23814648Y8025801D01*
X23816538Y8006073D01*
X23816538Y7257298D01*
X24001125Y7257298D01*
X24001125Y8060075D01*
X23996526Y8113230D01*
X23983459Y8157684D01*
X23962226Y8195281D01*
X23932065Y8227137D01*
X23890554Y8253577D01*
X23840403Y8270319D01*
X23779596Y8276303D01*
X23732366Y8270421D01*
X23689911Y8253208D01*
X23651109Y8224462D01*
X23615243Y8182879D01*
X23582065Y8126167D01*
X23553506Y8056519D01*
X23522208Y7951920D01*
X23488398Y7802155D01*
X23440217Y7579449D01*
X23416591Y7497047D01*
X23400666Y7472695D01*
X23379038Y7465026D01*
X23366422Y7468241D01*
X23355469Y7478142D01*
X23348173Y7493183D01*
X23345516Y7514339D01*
X23345516Y8267071D01*
X23159586Y8267071D01*
X23159586Y7456380D01*
G37*
D13*
G36*
X23465502Y46164550D02*
G01*
X23144958Y46164550D01*
X23094746Y46172568D01*
X23045196Y46197354D01*
X22994798Y46241791D01*
X22942645Y46310845D01*
X22892673Y46403282D01*
X22852507Y46509772D01*
X22822649Y46632324D01*
X22807172Y46754783D01*
X22808440Y46855761D01*
X22823583Y46939300D01*
X22849343Y47002920D01*
X22882518Y47044641D01*
X22923538Y47069226D01*
X22975032Y47077823D01*
X23295576Y47077823D01*
X23465502Y46164550D01*
G37*
G36*
X28207104Y45589615D02*
G01*
X16333334Y45589615D01*
X16333334Y47064978D01*
X16544445Y47064978D01*
X16556879Y46936748D01*
X16590355Y46813613D01*
X16641502Y46705622D01*
X16710819Y46610513D01*
X16780745Y46544218D01*
X16854615Y46498277D01*
X16933589Y46470852D01*
X17019323Y46461549D01*
X17210217Y46461549D01*
X16680198Y46206779D01*
X16750576Y45828569D01*
X17551106Y46223950D01*
X17624807Y45828221D01*
X17927082Y45828221D01*
X17828572Y46357483D01*
X17796128Y46480001D01*
X17749626Y46581708D01*
X17689476Y46665852D01*
X17625216Y46725692D01*
X17553803Y46768145D01*
X17473789Y46794108D01*
X17383153Y46803098D01*
X17006970Y46803098D01*
X16958570Y46813112D01*
X16918841Y46842775D01*
X16889330Y46886194D01*
X16872856Y46936632D01*
X16869943Y46991638D01*
X16882095Y47033737D01*
X16911178Y47066436D01*
X16955795Y47077823D01*
X17694562Y47077823D01*
X17632488Y47411947D01*
X17798469Y47411947D01*
X17860544Y47077823D01*
X18599415Y47077823D01*
X18645781Y47067420D01*
X18686298Y47035593D01*
X18716610Y46989627D01*
X18733633Y46936632D01*
X18736126Y46883905D01*
X18723460Y46842079D01*
X18696178Y46813537D01*
X18650590Y46803098D01*
X17911719Y46803098D01*
X17973482Y46470598D01*
X17975246Y46461549D01*
X18756158Y46461549D01*
X18787056Y46439325D01*
X18815326Y46403077D01*
X18836627Y46359419D01*
X18849996Y46311425D01*
X18853769Y46251447D01*
X18842315Y46202951D01*
X18815410Y46169040D01*
X18770690Y46157125D01*
X18031819Y46157125D01*
X18093997Y45823000D01*
X18884043Y45823000D01*
X18969617Y45833507D01*
X19037831Y45862866D01*
X19092603Y45910080D01*
X19136078Y45977185D01*
X19168468Y46072090D01*
X19179409Y46183755D01*
X19165973Y46317342D01*
X19135292Y46434347D01*
X19089699Y46538758D01*
X19028953Y46632324D01*
X19054984Y46720415D01*
X19062942Y46820532D01*
X19050855Y46936168D01*
X19017415Y47059108D01*
X18966249Y47167395D01*
X18896811Y47263215D01*
X18827000Y47329390D01*
X18753203Y47375261D01*
X18674262Y47402653D01*
X18657019Y47404522D01*
X19066218Y47404522D01*
X19272060Y46951714D01*
X19573193Y46310613D01*
X19720463Y46013427D01*
X19764087Y45938320D01*
X19823223Y45881624D01*
X19902872Y45837038D01*
X19990829Y45809732D01*
X20079545Y45800726D01*
X20168133Y45809854D01*
X20242931Y45835762D01*
X20304508Y45879936D01*
X20342686Y45938320D01*
X20359024Y46009987D01*
X20396456Y46309337D01*
X20456870Y46950322D01*
X20497353Y47404522D01*
X20167674Y47404522D01*
X20034702Y46176499D01*
X20030001Y46162244D01*
X20014357Y46157125D01*
X19995961Y46161906D01*
X19981243Y46176499D01*
X19399219Y47404522D01*
X19066218Y47404522D01*
X18657019Y47404522D01*
X18588516Y47411947D01*
X20571157Y47411947D01*
X20866685Y45823000D01*
X21173631Y45823000D01*
X20942636Y47064978D01*
X21116768Y47064978D01*
X21129203Y46936748D01*
X21162679Y46813613D01*
X21213826Y46705622D01*
X21283143Y46610513D01*
X21353069Y46544218D01*
X21426939Y46498277D01*
X21505913Y46470852D01*
X21591646Y46461549D01*
X21782540Y46461549D01*
X21252521Y46206779D01*
X21322900Y45828569D01*
X22123430Y46223950D01*
X22197131Y45828221D01*
X22499405Y45828221D01*
X22400896Y46357483D01*
X22368452Y46480001D01*
X22321950Y46581708D01*
X22261800Y46665852D01*
X22197540Y46725692D01*
X22126126Y46768145D01*
X22046112Y46794108D01*
X21955477Y46803098D01*
X21579294Y46803098D01*
X21530894Y46813112D01*
X21491165Y46842775D01*
X21461654Y46886194D01*
X21451305Y46917880D01*
X22474879Y46917880D01*
X22476285Y46771738D01*
X22478513Y46754783D01*
X22498264Y46604480D01*
X22535973Y46446865D01*
X22586648Y46305768D01*
X22649872Y46179365D01*
X22725696Y46066169D01*
X22806760Y45974862D01*
X22889565Y45907160D01*
X22974804Y45860241D01*
X23063574Y45832371D01*
X23157310Y45823000D01*
X23835976Y45823000D01*
X23540448Y47411947D01*
X24395371Y47411947D01*
X24457445Y47077823D01*
X25084832Y47077823D01*
X25154835Y47063801D01*
X25222067Y47020057D01*
X25289221Y46939300D01*
X25336628Y46852988D01*
X25375174Y46751441D01*
X25404234Y46632324D01*
X25420157Y46506386D01*
X25419149Y46400422D01*
X25403819Y46310845D01*
X25377797Y46242783D01*
X25344764Y46198843D01*
X25304572Y46173363D01*
X25254758Y46164550D01*
X24627371Y46164550D01*
X24690899Y45823000D01*
X25369564Y45823000D01*
X25464321Y45833400D01*
X25543151Y45862809D01*
X25609337Y45910214D01*
X25664980Y45976874D01*
X25710765Y46066169D01*
X25743583Y46175145D01*
X25760291Y46299102D01*
X25759293Y46441069D01*
X25737962Y46604480D01*
X25699699Y46764490D01*
X25648030Y46909079D01*
X25583284Y47039911D01*
X25505339Y47158337D01*
X25422432Y47254385D01*
X25338745Y47325068D01*
X25253583Y47373680D01*
X25165834Y47402355D01*
X25074036Y47411947D01*
X25720730Y47411947D01*
X25782805Y47077823D01*
X26521676Y47077823D01*
X26568042Y47067420D01*
X26608559Y47035593D01*
X26638871Y46989627D01*
X26655894Y46936632D01*
X26658387Y46883905D01*
X26645721Y46842079D01*
X26618439Y46813537D01*
X26572851Y46803098D01*
X25833980Y46803098D01*
X25895743Y46470598D01*
X25897507Y46461549D01*
X26678419Y46461549D01*
X26709317Y46439325D01*
X26737587Y46403077D01*
X26758888Y46359419D01*
X26772257Y46311425D01*
X26776030Y46251447D01*
X26764576Y46202951D01*
X26737671Y46169040D01*
X26692951Y46157125D01*
X25954080Y46157125D01*
X26016258Y45823000D01*
X26806304Y45823000D01*
X26891878Y45833507D01*
X26960092Y45862866D01*
X27014864Y45910080D01*
X27058339Y45977185D01*
X27090729Y46072090D01*
X27101670Y46183755D01*
X27088234Y46317342D01*
X27057552Y46434347D01*
X27011960Y46538758D01*
X26951214Y46632324D01*
X26977245Y46720415D01*
X26985203Y46820532D01*
X26973116Y46936168D01*
X26939676Y47059108D01*
X26888510Y47167395D01*
X26819072Y47263215D01*
X26749261Y47329390D01*
X26675464Y47375261D01*
X26596523Y47402653D01*
X26510777Y47411947D01*
X27004257Y47411947D01*
X27066331Y47077823D01*
X27380025Y47077823D01*
X27613478Y45823000D01*
X27916999Y45823000D01*
X27683545Y47077823D01*
X27995993Y47077823D01*
X27933919Y47411947D01*
X27004257Y47411947D01*
X26510777Y47411947D01*
X25720730Y47411947D01*
X25074036Y47411947D01*
X24395371Y47411947D01*
X23540448Y47411947D01*
X22861782Y47411947D01*
X22769072Y47401346D01*
X22691552Y47371247D01*
X22626022Y47322415D01*
X22570512Y47253198D01*
X22524526Y47159729D01*
X22491480Y47046228D01*
X22474879Y46917880D01*
X21451305Y46917880D01*
X21445180Y46936632D01*
X21442266Y46991638D01*
X21454419Y47033737D01*
X21483502Y47066436D01*
X21528119Y47077823D01*
X22266886Y47077823D01*
X22204812Y47411947D01*
X21414870Y47411947D01*
X21328848Y47401792D01*
X21260251Y47373473D01*
X21205211Y47328166D01*
X21161486Y47264259D01*
X21128425Y47172476D01*
X21116768Y47064978D01*
X20942636Y47064978D01*
X20878103Y47411947D01*
X20571157Y47411947D01*
X18588516Y47411947D01*
X17798469Y47411947D01*
X17632488Y47411947D01*
X16842546Y47411947D01*
X16756525Y47401792D01*
X16687928Y47373473D01*
X16632887Y47328166D01*
X16589162Y47264259D01*
X16556101Y47172476D01*
X16544445Y47064978D01*
X16333334Y47064978D01*
X16333334Y47623058D01*
X28207104Y47623058D01*
X28207104Y45589615D01*
G37*
D12*
G36*
X13742979Y12101139D02*
G01*
X13792682Y12082455D01*
X13837942Y12051482D01*
X13879589Y12007141D01*
X13917995Y11947371D01*
X13951258Y11873561D01*
X13975553Y11791558D01*
X13990657Y11700071D01*
X13995908Y11597566D01*
X13990703Y11496577D01*
X13975794Y11407311D01*
X13951914Y11328111D01*
X13919338Y11257580D01*
X13881805Y11200854D01*
X13840517Y11158400D01*
X13795043Y11128476D01*
X13744496Y11110278D01*
X13687613Y11104000D01*
X13414855Y11104000D01*
X13357675Y11110290D01*
X13306923Y11128512D01*
X13261323Y11158454D01*
X13219981Y11200902D01*
X13182458Y11257580D01*
X13150206Y11327666D01*
X13126532Y11406568D01*
X13111732Y11495705D01*
X13106559Y11596760D01*
X13107499Y11615152D01*
X13304091Y11615152D01*
X13308446Y11536881D01*
X13320770Y11469790D01*
X13340300Y11412113D01*
X13363567Y11369030D01*
X13388528Y11341045D01*
X13415516Y11325062D01*
X13445568Y11319716D01*
X13656838Y11319716D01*
X13687269Y11325089D01*
X13714486Y11341117D01*
X13739542Y11369110D01*
X13762779Y11412113D01*
X13781893Y11469230D01*
X13794014Y11536283D01*
X13798316Y11615152D01*
X13794070Y11691238D01*
X13782158Y11755196D01*
X13763450Y11809032D01*
X13740773Y11849277D01*
X13715825Y11875852D01*
X13688207Y11891289D01*
X13656838Y11896520D01*
X13445568Y11896520D01*
X13414200Y11891289D01*
X13386582Y11875852D01*
X13361633Y11849277D01*
X13338956Y11809032D01*
X13320249Y11755196D01*
X13308337Y11691238D01*
X13304091Y11615152D01*
X13107499Y11615152D01*
X13111818Y11699702D01*
X13126935Y11791455D01*
X13151232Y11873574D01*
X13184473Y11947371D01*
X13222878Y12007141D01*
X13264526Y12051482D01*
X13309786Y12082455D01*
X13359489Y12101139D01*
X13414855Y12107546D01*
X13687613Y12107546D01*
X13742979Y12101139D01*
G37*
G36*
X12350994Y11465016D02*
G01*
X12358258Y11381137D01*
X12379201Y11308463D01*
X12413691Y11244594D01*
X12463101Y11188044D01*
X12515440Y11147842D01*
X12573426Y11118791D01*
X12638058Y11100846D01*
X12710580Y11094622D01*
X12781026Y11100750D01*
X12843584Y11118396D01*
X12899513Y11146939D01*
X12949816Y11186432D01*
X12997417Y11242330D01*
X13030896Y11306184D01*
X13051368Y11379582D01*
X13058504Y11465016D01*
X13058504Y12107546D01*
X12877337Y12107546D01*
X12877337Y11502898D01*
X12871107Y11454067D01*
X12852856Y11412808D01*
X12821284Y11377088D01*
X12785545Y11353430D01*
X12744708Y11338865D01*
X12697575Y11333784D01*
X12652210Y11338712D01*
X12613431Y11352763D01*
X12579972Y11375476D01*
X12550251Y11410487D01*
X12532737Y11452211D01*
X12526666Y11502898D01*
X12526666Y12107546D01*
X12350994Y12107546D01*
X12350994Y11465016D01*
G37*
G36*
X11742280Y11896520D02*
G01*
X11930957Y11896520D01*
X11930957Y11104000D01*
X12113468Y11104000D01*
X12113468Y11896520D01*
X12301413Y11896520D01*
X12301413Y12107546D01*
X11742280Y12107546D01*
X11742280Y11896520D01*
G37*
G36*
X11058261Y12101139D02*
G01*
X11107964Y12082455D01*
X11153224Y12051482D01*
X11194872Y12007141D01*
X11233278Y11947371D01*
X11266541Y11873561D01*
X11290836Y11791558D01*
X11305940Y11700071D01*
X11311191Y11597566D01*
X11305986Y11496577D01*
X11291077Y11407311D01*
X11267197Y11328111D01*
X11234621Y11257580D01*
X11197088Y11200854D01*
X11155800Y11158400D01*
X11110326Y11128476D01*
X11059779Y11110278D01*
X11002896Y11104000D01*
X10730137Y11104000D01*
X10672958Y11110290D01*
X10622206Y11128512D01*
X10576606Y11158454D01*
X10535264Y11200902D01*
X10497740Y11257580D01*
X10465488Y11327666D01*
X10441814Y11406568D01*
X10427014Y11495705D01*
X10421842Y11596760D01*
X10422782Y11615152D01*
X10619373Y11615152D01*
X10623729Y11536881D01*
X10636053Y11469790D01*
X10655582Y11412113D01*
X10678849Y11369030D01*
X10703810Y11341045D01*
X10730798Y11325062D01*
X10760851Y11319716D01*
X10972121Y11319716D01*
X11002552Y11325089D01*
X11029769Y11341117D01*
X11054825Y11369110D01*
X11078061Y11412113D01*
X11097175Y11469230D01*
X11109297Y11536283D01*
X11113599Y11615152D01*
X11109352Y11691238D01*
X11097440Y11755196D01*
X11078733Y11809032D01*
X11056056Y11849277D01*
X11031107Y11875852D01*
X11003489Y11891289D01*
X10972121Y11896520D01*
X10760851Y11896520D01*
X10729482Y11891289D01*
X10701864Y11875852D01*
X10676916Y11849277D01*
X10654239Y11809032D01*
X10635531Y11755196D01*
X10623620Y11691238D01*
X10619373Y11615152D01*
X10422782Y11615152D01*
X10427101Y11699702D01*
X10442217Y11791455D01*
X10466514Y11873574D01*
X10499755Y11947371D01*
X10538161Y12007141D01*
X10579809Y12051482D01*
X10625069Y12082455D01*
X10674772Y12101139D01*
X10730137Y12107546D01*
X11002896Y12107546D01*
X11058261Y12101139D01*
G37*
G36*
X9545254Y12102856D02*
G01*
X9618405Y11816872D01*
X9727765Y11411966D01*
X9783177Y11224001D01*
X9800915Y11176834D01*
X9829923Y11141210D01*
X9873028Y11112867D01*
X9922412Y11095724D01*
X9975244Y11089932D01*
X10029087Y11095594D01*
X10077459Y11112061D01*
X10119379Y11139932D01*
X10148900Y11176834D01*
X10166924Y11222713D01*
X10222723Y11411160D01*
X10330739Y11815993D01*
X10405905Y12102856D01*
X10207641Y12102856D01*
X9990265Y11327263D01*
X9985856Y11318247D01*
X9975915Y11315026D01*
X9965265Y11318135D01*
X9958147Y11327263D01*
X9745533Y12102856D01*
X9545254Y12102856D01*
G37*
G36*
X8391634Y11507294D02*
G01*
X9095054Y11507294D01*
X9095054Y11723010D01*
X8391634Y11723010D01*
X8391634Y11507294D01*
G37*
G36*
X7719539Y11104000D02*
G01*
X7904125Y11104000D01*
X7904125Y11650323D01*
X7908288Y11717394D01*
X7919515Y11768628D01*
X7936504Y11807406D01*
X7958836Y11836289D01*
X7994854Y11860076D01*
X8040169Y11868383D01*
X8046641Y11868383D01*
X8051099Y11868383D01*
X8051099Y12098167D01*
X8045237Y12098167D01*
X8036078Y12098167D01*
X7979437Y12093403D01*
X7925314Y12079262D01*
X7869625Y12053065D01*
X7824082Y12018779D01*
X7787194Y11976460D01*
X7758638Y11926536D01*
X7737575Y11868002D01*
X7724260Y11799243D01*
X7719539Y11718247D01*
X7719539Y11104000D01*
G37*
G36*
X6939855Y11896520D02*
G01*
X7384193Y11896520D01*
X7411282Y11889744D01*
X7431699Y11869848D01*
X7444689Y11841108D01*
X7449101Y11807347D01*
X7444816Y11774543D01*
X7432370Y11747629D01*
X7412459Y11729446D01*
X7384132Y11723010D01*
X7122365Y11723010D01*
X7071065Y11716714D01*
X7026964Y11698634D01*
X6988550Y11668999D01*
X6954876Y11626729D01*
X6924652Y11566168D01*
X6906022Y11495897D01*
X6899494Y11413505D01*
X6905992Y11331688D01*
X6924596Y11261377D01*
X6954876Y11200281D01*
X6988550Y11158011D01*
X7026964Y11128376D01*
X7071065Y11110296D01*
X7122365Y11104000D01*
X7598822Y11104000D01*
X7598822Y11315026D01*
X7152468Y11315026D01*
X7126917Y11322428D01*
X7107344Y11344922D01*
X7095111Y11376714D01*
X7090919Y11413725D01*
X7095020Y11450449D01*
X7106673Y11479964D01*
X7125707Y11500305D01*
X7152468Y11507294D01*
X7414968Y11507294D01*
X7466752Y11513434D01*
X7511245Y11531037D01*
X7549940Y11559785D01*
X7583801Y11600571D01*
X7614457Y11659431D01*
X7633274Y11727585D01*
X7639855Y11807420D01*
X7633317Y11886192D01*
X7614538Y11954128D01*
X7583801Y12013463D01*
X7549575Y12054710D01*
X7510733Y12083696D01*
X7466346Y12101390D01*
X7414968Y12107546D01*
X6939855Y12107546D01*
X6939855Y11896520D01*
G37*
G36*
X6039881Y12102856D02*
G01*
X6113032Y11816872D01*
X6222391Y11411966D01*
X6277803Y11224001D01*
X6295542Y11176834D01*
X6324550Y11141210D01*
X6367655Y11112867D01*
X6417039Y11095724D01*
X6469870Y11089932D01*
X6523713Y11095594D01*
X6572086Y11112061D01*
X6614006Y11139932D01*
X6643527Y11176834D01*
X6661551Y11222713D01*
X6717349Y11411160D01*
X6825366Y11815993D01*
X6900532Y12102856D01*
X6702267Y12102856D01*
X6484891Y11327263D01*
X6480482Y11318247D01*
X6470542Y11315026D01*
X6459892Y11318135D01*
X6452773Y11327263D01*
X6240160Y12102856D01*
X6039881Y12102856D01*
G37*
D14*
%TO.C,Q2*%
X28000000Y22060000D02*
X27350000Y22060000D01*
X28000000Y22060000D02*
X28650000Y22060000D01*
X28000000Y18940000D02*
X27350000Y18940000D01*
X28000000Y18940000D02*
X28650000Y18940000D01*
X27077500Y18660000D02*
X26597500Y18660000D01*
X26837500Y18990000D01*
X27077500Y18660000D01*
G36*
X27077500Y18660000D02*
G01*
X26597500Y18660000D01*
X26837500Y18990000D01*
X27077500Y18660000D01*
G37*
D10*
%TO.C,U8*%
X33940000Y39170000D02*
X33940000Y41030000D01*
X34170000Y43460000D02*
X34170000Y39400000D01*
X34170000Y39400000D02*
X37530000Y39400000D01*
X35600000Y39170000D02*
X33940000Y39170000D01*
X37530000Y43460000D02*
X34170000Y43460000D01*
X37530000Y39400000D02*
X37530000Y43460000D01*
%TO.C,U11*%
X15460000Y31210000D02*
X15460000Y32990000D01*
X18540000Y31210000D02*
X18540000Y32990000D01*
D15*
X18490000Y30700000D02*
G75*
G02*
X18430000Y30700000I-30000J0D01*
G01*
X18430000Y30700000D02*
G75*
G02*
X18490000Y30700000I30000J0D01*
G01*
D16*
X18820000Y30800000D02*
G75*
G02*
X18520000Y30800000I-150000J0D01*
G01*
X18520000Y30800000D02*
G75*
G02*
X18820000Y30800000I150000J0D01*
G01*
D14*
%TO.C,Q3*%
X28000000Y15360000D02*
X27350000Y15360000D01*
X28000000Y15360000D02*
X28650000Y15360000D01*
X28000000Y12240000D02*
X27350000Y12240000D01*
X28000000Y12240000D02*
X28650000Y12240000D01*
X27077500Y11960000D02*
X26597500Y11960000D01*
X26837500Y12290000D01*
X27077500Y11960000D01*
G36*
X27077500Y11960000D02*
G01*
X26597500Y11960000D01*
X26837500Y12290000D01*
X27077500Y11960000D01*
G37*
D12*
%TO.C,U7*%
X30820000Y36350000D02*
X31290000Y36350000D01*
X30820000Y35890000D02*
X30820000Y36350000D01*
X30820000Y29150000D02*
X30820000Y29620000D01*
X31220000Y29150000D02*
X30820000Y29150000D01*
X31290000Y29150000D02*
X31220000Y29150000D01*
X37550000Y36350000D02*
X38020000Y36350000D01*
X38020000Y36350000D02*
X38020000Y35890000D01*
X38020000Y29620000D02*
X38020000Y29150000D01*
X38020000Y29150000D02*
X37550000Y29150000D01*
X30360000Y29190000D02*
G75*
G02*
X30100000Y29190000I-130000J0D01*
G01*
X30100000Y29190000D02*
G75*
G02*
X30360000Y29190000I130000J0D01*
G01*
D10*
%TO.C,U9*%
X15400000Y8630000D02*
X15400000Y3570000D01*
X15400000Y3570000D02*
X18200000Y3570000D01*
X18200000Y8630000D02*
X15400000Y8630000D01*
X18200000Y3570000D02*
X18200000Y8630000D01*
D16*
X16180000Y4200000D02*
G75*
G02*
X15880000Y4200000I-150000J0D01*
G01*
X15880000Y4200000D02*
G75*
G02*
X16180000Y4200000I150000J0D01*
G01*
D12*
%TO.C,L3*%
X37490000Y24480000D02*
X36950000Y24480000D01*
X37490000Y22880000D02*
X36950000Y22880000D01*
X36450000Y24780000D02*
G75*
G02*
X36190000Y24780000I-130000J0D01*
G01*
X36190000Y24780000D02*
G75*
G02*
X36450000Y24780000I130000J0D01*
G01*
%TD*%
M02*
