%TF.GenerationSoftware,KiCad,Pcbnew,9.0.3*%
%TF.CreationDate,2026-05-02T11:15:44+02:00*%
%TF.ProjectId,camera_cooler,63616d65-7261-45f6-936f-6f6c65722e6b,rev?*%
%TF.SameCoordinates,PX7a8c120PY839b680*%
%TF.FileFunction,Soldermask,Bot*%
%TF.FilePolarity,Negative*%
%FSLAX46Y46*%
G04 Gerber Fmt 4.6, Leading zero omitted, Abs format (unit mm)*
G04 Created by KiCad (PCBNEW 9.0.3) date 2026-05-02 11:15:44*
%MOMM*%
%LPD*%
G01*
G04 APERTURE LIST*
G04 APERTURE END LIST*
G36*
X16004047Y2824195D02*
G01*
X16055408Y2818236D01*
X16072954Y2810489D01*
X16095671Y2805970D01*
X16119991Y2789720D01*
X16140793Y2780535D01*
X16155000Y2766328D01*
X16176777Y2751777D01*
X16191327Y2730001D01*
X16205534Y2715794D01*
X16214718Y2694994D01*
X16230970Y2670671D01*
X16235489Y2647952D01*
X16243235Y2630409D01*
X16249192Y2579060D01*
X16250000Y2575000D01*
X16250000Y1625000D01*
X16249192Y1620941D01*
X16243235Y1569592D01*
X16235489Y1552050D01*
X16230970Y1529329D01*
X16214716Y1505005D01*
X16205534Y1484207D01*
X16191329Y1470003D01*
X16176777Y1448223D01*
X16154997Y1433671D01*
X16140793Y1419466D01*
X16119995Y1410284D01*
X16095671Y1394030D01*
X16072950Y1389511D01*
X16055408Y1381765D01*
X16004061Y1375808D01*
X16000000Y1375000D01*
X15500000Y1375000D01*
X15495941Y1375808D01*
X15444591Y1381765D01*
X15427048Y1389511D01*
X15404329Y1394030D01*
X15380006Y1410282D01*
X15359206Y1419466D01*
X15344999Y1433673D01*
X15323223Y1448223D01*
X15308672Y1470000D01*
X15294465Y1484207D01*
X15285280Y1505009D01*
X15269030Y1529329D01*
X15264511Y1552046D01*
X15256764Y1569592D01*
X15250805Y1620951D01*
X15250000Y1625000D01*
X15250000Y2575000D01*
X15250805Y2579048D01*
X15256764Y2630409D01*
X15264511Y2647957D01*
X15269030Y2670671D01*
X15285278Y2694990D01*
X15294465Y2715794D01*
X15308674Y2730004D01*
X15323223Y2751777D01*
X15344996Y2766326D01*
X15359206Y2780535D01*
X15380010Y2789722D01*
X15404329Y2805970D01*
X15427043Y2810489D01*
X15444591Y2818236D01*
X15495952Y2824195D01*
X15500000Y2825000D01*
X16000000Y2825000D01*
X16004047Y2824195D01*
G37*
G36*
X17904047Y2824195D02*
G01*
X17955408Y2818236D01*
X17972954Y2810489D01*
X17995671Y2805970D01*
X18019991Y2789720D01*
X18040793Y2780535D01*
X18055000Y2766328D01*
X18076777Y2751777D01*
X18091327Y2730001D01*
X18105534Y2715794D01*
X18114718Y2694994D01*
X18130970Y2670671D01*
X18135489Y2647952D01*
X18143235Y2630409D01*
X18149192Y2579060D01*
X18150000Y2575000D01*
X18150000Y1625000D01*
X18149192Y1620941D01*
X18143235Y1569592D01*
X18135489Y1552050D01*
X18130970Y1529329D01*
X18114716Y1505005D01*
X18105534Y1484207D01*
X18091329Y1470003D01*
X18076777Y1448223D01*
X18054997Y1433671D01*
X18040793Y1419466D01*
X18019995Y1410284D01*
X17995671Y1394030D01*
X17972950Y1389511D01*
X17955408Y1381765D01*
X17904061Y1375808D01*
X17900000Y1375000D01*
X17400000Y1375000D01*
X17395941Y1375808D01*
X17344591Y1381765D01*
X17327048Y1389511D01*
X17304329Y1394030D01*
X17280006Y1410282D01*
X17259206Y1419466D01*
X17244999Y1433673D01*
X17223223Y1448223D01*
X17208672Y1470000D01*
X17194465Y1484207D01*
X17185280Y1505009D01*
X17169030Y1529329D01*
X17164511Y1552046D01*
X17156764Y1569592D01*
X17150805Y1620951D01*
X17150000Y1625000D01*
X17150000Y2575000D01*
X17150805Y2579048D01*
X17156764Y2630409D01*
X17164511Y2647957D01*
X17169030Y2670671D01*
X17185278Y2694990D01*
X17194465Y2715794D01*
X17208674Y2730004D01*
X17223223Y2751777D01*
X17244996Y2766326D01*
X17259206Y2780535D01*
X17280010Y2789722D01*
X17304329Y2805970D01*
X17327043Y2810489D01*
X17344591Y2818236D01*
X17395952Y2824195D01*
X17400000Y2825000D01*
X17900000Y2825000D01*
X17904047Y2824195D01*
G37*
G36*
X3256790Y4069607D02*
G01*
X3420952Y4016267D01*
X3574748Y3937904D01*
X3714393Y3836447D01*
X3836447Y3714393D01*
X3937904Y3574748D01*
X4016267Y3420952D01*
X4069607Y3256790D01*
X4096609Y3086305D01*
X4096609Y2913695D01*
X4069607Y2743210D01*
X4016267Y2579048D01*
X3937904Y2425252D01*
X3836447Y2285607D01*
X3714393Y2163553D01*
X3574748Y2062096D01*
X3420952Y1983733D01*
X3256790Y1930393D01*
X3086305Y1903391D01*
X2913695Y1903391D01*
X2743210Y1930393D01*
X2579048Y1983733D01*
X2425252Y2062096D01*
X2285607Y2163553D01*
X2163553Y2285607D01*
X2062096Y2425252D01*
X1983733Y2579048D01*
X1930393Y2743210D01*
X1903391Y2913695D01*
X1903391Y3086305D01*
X1930393Y3256790D01*
X1983733Y3420952D01*
X2062096Y3574748D01*
X2163553Y3714393D01*
X2285607Y3836447D01*
X2425252Y3937904D01*
X2579048Y4016267D01*
X2743210Y4069607D01*
X2913695Y4096609D01*
X3086305Y4096609D01*
X3256790Y4069607D01*
G37*
G36*
X35256790Y4069607D02*
G01*
X35420952Y4016267D01*
X35574748Y3937904D01*
X35714393Y3836447D01*
X35836447Y3714393D01*
X35937904Y3574748D01*
X36016267Y3420952D01*
X36069607Y3256790D01*
X36096609Y3086305D01*
X36096609Y2913695D01*
X36069607Y2743210D01*
X36016267Y2579048D01*
X35937904Y2425252D01*
X35836447Y2285607D01*
X35714393Y2163553D01*
X35574748Y2062096D01*
X35420952Y1983733D01*
X35256790Y1930393D01*
X35086305Y1903391D01*
X34913695Y1903391D01*
X34743210Y1930393D01*
X34579048Y1983733D01*
X34425252Y2062096D01*
X34285607Y2163553D01*
X34163553Y2285607D01*
X34062096Y2425252D01*
X33983733Y2579048D01*
X33930393Y2743210D01*
X33903391Y2913695D01*
X33903391Y3086305D01*
X33930393Y3256790D01*
X33983733Y3420952D01*
X34062096Y3574748D01*
X34163553Y3714393D01*
X34285607Y3836447D01*
X34425252Y3937904D01*
X34579048Y4016267D01*
X34743210Y4069607D01*
X34913695Y4096609D01*
X35086305Y4096609D01*
X35256790Y4069607D01*
G37*
G36*
X10831104Y4557873D02*
G01*
X10904099Y4509099D01*
X10952873Y4436104D01*
X10970000Y4350000D01*
X10970000Y3850000D01*
X10952873Y3763896D01*
X10904099Y3690901D01*
X10831104Y3642127D01*
X10745000Y3625000D01*
X10295000Y3625000D01*
X10208896Y3642127D01*
X10135901Y3690901D01*
X10087127Y3763896D01*
X10070000Y3850000D01*
X10070000Y4350000D01*
X10087127Y4436104D01*
X10135901Y4509099D01*
X10208896Y4557873D01*
X10295000Y4575000D01*
X10745000Y4575000D01*
X10831104Y4557873D01*
G37*
G36*
X12391104Y4557873D02*
G01*
X12464099Y4509099D01*
X12512873Y4436104D01*
X12530000Y4350000D01*
X12530000Y3850000D01*
X12512873Y3763896D01*
X12464099Y3690901D01*
X12391104Y3642127D01*
X12305000Y3625000D01*
X11855000Y3625000D01*
X11768896Y3642127D01*
X11695901Y3690901D01*
X11647127Y3763896D01*
X11630000Y3850000D01*
X11630000Y4350000D01*
X11647127Y4436104D01*
X11695901Y4509099D01*
X11768896Y4557873D01*
X11855000Y4575000D01*
X12305000Y4575000D01*
X12391104Y4557873D01*
G37*
G36*
X14996875Y4491485D02*
G01*
X15071009Y4471621D01*
X15137476Y4433246D01*
X15191746Y4378976D01*
X15230121Y4312509D01*
X15249985Y4238375D01*
X15249985Y4161625D01*
X15230121Y4087491D01*
X15191746Y4021024D01*
X15137476Y3966754D01*
X15071009Y3928379D01*
X14996875Y3908515D01*
X14958500Y3906000D01*
X14956862Y3906000D01*
X13503138Y3906000D01*
X13501500Y3906000D01*
X13463125Y3908515D01*
X13388991Y3928379D01*
X13322524Y3966754D01*
X13268254Y4021024D01*
X13229879Y4087491D01*
X13210015Y4161625D01*
X13210015Y4238375D01*
X13229879Y4312509D01*
X13268254Y4378976D01*
X13322524Y4433246D01*
X13388991Y4471621D01*
X13463125Y4491485D01*
X13501500Y4494000D01*
X14958500Y4494000D01*
X14996875Y4491485D01*
G37*
G36*
X20136875Y4491485D02*
G01*
X20211009Y4471621D01*
X20277476Y4433246D01*
X20331746Y4378976D01*
X20370121Y4312509D01*
X20389985Y4238375D01*
X20389985Y4161625D01*
X20370121Y4087491D01*
X20331746Y4021024D01*
X20277476Y3966754D01*
X20211009Y3928379D01*
X20136875Y3908515D01*
X20098500Y3906000D01*
X20096862Y3906000D01*
X18643138Y3906000D01*
X18641500Y3906000D01*
X18603125Y3908515D01*
X18528991Y3928379D01*
X18462524Y3966754D01*
X18408254Y4021024D01*
X18369879Y4087491D01*
X18350015Y4161625D01*
X18350015Y4238375D01*
X18369879Y4312509D01*
X18408254Y4378976D01*
X18462524Y4433246D01*
X18528991Y4471621D01*
X18603125Y4491485D01*
X18641500Y4494000D01*
X20098500Y4494000D01*
X20136875Y4491485D01*
G37*
G36*
X14996875Y5761485D02*
G01*
X15071009Y5741621D01*
X15137476Y5703246D01*
X15191746Y5648976D01*
X15230121Y5582509D01*
X15249985Y5508375D01*
X15249985Y5431625D01*
X15230121Y5357491D01*
X15191746Y5291024D01*
X15137476Y5236754D01*
X15071009Y5198379D01*
X14996875Y5178515D01*
X14958500Y5176000D01*
X14956862Y5176000D01*
X13503138Y5176000D01*
X13501500Y5176000D01*
X13463125Y5178515D01*
X13388991Y5198379D01*
X13322524Y5236754D01*
X13268254Y5291024D01*
X13229879Y5357491D01*
X13210015Y5431625D01*
X13210015Y5508375D01*
X13229879Y5582509D01*
X13268254Y5648976D01*
X13322524Y5703246D01*
X13388991Y5741621D01*
X13463125Y5761485D01*
X13501500Y5764000D01*
X14958500Y5764000D01*
X14996875Y5761485D01*
G37*
G36*
X20136875Y5761485D02*
G01*
X20211009Y5741621D01*
X20277476Y5703246D01*
X20331746Y5648976D01*
X20370121Y5582509D01*
X20389985Y5508375D01*
X20389985Y5431625D01*
X20370121Y5357491D01*
X20331746Y5291024D01*
X20277476Y5236754D01*
X20211009Y5198379D01*
X20136875Y5178515D01*
X20098500Y5176000D01*
X20096862Y5176000D01*
X18643138Y5176000D01*
X18641500Y5176000D01*
X18603125Y5178515D01*
X18528991Y5198379D01*
X18462524Y5236754D01*
X18408254Y5291024D01*
X18369879Y5357491D01*
X18350015Y5431625D01*
X18350015Y5508375D01*
X18369879Y5582509D01*
X18408254Y5648976D01*
X18462524Y5703246D01*
X18528991Y5741621D01*
X18603125Y5761485D01*
X18641500Y5764000D01*
X20098500Y5764000D01*
X20136875Y5761485D01*
G37*
G36*
X12386104Y7022873D02*
G01*
X12459099Y6974099D01*
X12507873Y6901104D01*
X12525000Y6815000D01*
X12525000Y6365000D01*
X12507873Y6278896D01*
X12459099Y6205901D01*
X12386104Y6157127D01*
X12300000Y6140000D01*
X11800000Y6140000D01*
X11713896Y6157127D01*
X11640901Y6205901D01*
X11592127Y6278896D01*
X11575000Y6365000D01*
X11575000Y6815000D01*
X11592127Y6901104D01*
X11640901Y6974099D01*
X11713896Y7022873D01*
X11800000Y7040000D01*
X12300000Y7040000D01*
X12386104Y7022873D01*
G37*
G36*
X9256537Y7079776D02*
G01*
X9321421Y7036421D01*
X9364776Y6971537D01*
X9380000Y6895000D01*
X9380000Y6345000D01*
X9364776Y6268463D01*
X9321421Y6203579D01*
X9256537Y6160224D01*
X9180000Y6145000D01*
X8780000Y6145000D01*
X8703463Y6160224D01*
X8638579Y6203579D01*
X8595224Y6268463D01*
X8580000Y6345000D01*
X8580000Y6895000D01*
X8595224Y6971537D01*
X8638579Y7036421D01*
X8703463Y7079776D01*
X8780000Y7095000D01*
X9180000Y7095000D01*
X9256537Y7079776D01*
G37*
G36*
X10896537Y7079776D02*
G01*
X10961421Y7036421D01*
X11004776Y6971537D01*
X11020000Y6895000D01*
X11020000Y6345000D01*
X11004776Y6268463D01*
X10961421Y6203579D01*
X10896537Y6160224D01*
X10820000Y6145000D01*
X10420000Y6145000D01*
X10343463Y6160224D01*
X10278579Y6203579D01*
X10235224Y6268463D01*
X10220000Y6345000D01*
X10220000Y6895000D01*
X10235224Y6971537D01*
X10278579Y7036421D01*
X10343463Y7079776D01*
X10420000Y7095000D01*
X10820000Y7095000D01*
X10896537Y7079776D01*
G37*
G36*
X14996875Y7021485D02*
G01*
X15071009Y7001621D01*
X15137476Y6963246D01*
X15191746Y6908976D01*
X15230121Y6842509D01*
X15249985Y6768375D01*
X15249985Y6691625D01*
X15230121Y6617491D01*
X15191746Y6551024D01*
X15137476Y6496754D01*
X15071009Y6458379D01*
X14996875Y6438515D01*
X14958500Y6436000D01*
X14956862Y6436000D01*
X13503138Y6436000D01*
X13501500Y6436000D01*
X13463125Y6438515D01*
X13388991Y6458379D01*
X13322524Y6496754D01*
X13268254Y6551024D01*
X13229879Y6617491D01*
X13210015Y6691625D01*
X13210015Y6768375D01*
X13229879Y6842509D01*
X13268254Y6908976D01*
X13322524Y6963246D01*
X13388991Y7001621D01*
X13463125Y7021485D01*
X13501500Y7024000D01*
X14958500Y7024000D01*
X14996875Y7021485D01*
G37*
G36*
X20136875Y7021485D02*
G01*
X20211009Y7001621D01*
X20277476Y6963246D01*
X20331746Y6908976D01*
X20370121Y6842509D01*
X20389985Y6768375D01*
X20389985Y6691625D01*
X20370121Y6617491D01*
X20331746Y6551024D01*
X20277476Y6496754D01*
X20211009Y6458379D01*
X20136875Y6438515D01*
X20098500Y6436000D01*
X20096862Y6436000D01*
X18643138Y6436000D01*
X18641500Y6436000D01*
X18603125Y6438515D01*
X18528991Y6458379D01*
X18462524Y6496754D01*
X18408254Y6551024D01*
X18369879Y6617491D01*
X18350015Y6691625D01*
X18350015Y6768375D01*
X18369879Y6842509D01*
X18408254Y6908976D01*
X18462524Y6963246D01*
X18528991Y7001621D01*
X18603125Y7021485D01*
X18641500Y7024000D01*
X20098500Y7024000D01*
X20136875Y7021485D01*
G37*
G36*
X9256537Y8579776D02*
G01*
X9321421Y8536421D01*
X9364776Y8471537D01*
X9380000Y8395000D01*
X9380000Y7845000D01*
X9364776Y7768463D01*
X9321421Y7703579D01*
X9256537Y7660224D01*
X9180000Y7645000D01*
X8780000Y7645000D01*
X8703463Y7660224D01*
X8638579Y7703579D01*
X8595224Y7768463D01*
X8580000Y7845000D01*
X8580000Y8395000D01*
X8595224Y8471537D01*
X8638579Y8536421D01*
X8703463Y8579776D01*
X8780000Y8595000D01*
X9180000Y8595000D01*
X9256537Y8579776D01*
G37*
G36*
X10896537Y8579776D02*
G01*
X10961421Y8536421D01*
X11004776Y8471537D01*
X11020000Y8395000D01*
X11020000Y7845000D01*
X11004776Y7768463D01*
X10961421Y7703579D01*
X10896537Y7660224D01*
X10820000Y7645000D01*
X10420000Y7645000D01*
X10343463Y7660224D01*
X10278579Y7703579D01*
X10235224Y7768463D01*
X10220000Y7845000D01*
X10220000Y8395000D01*
X10235224Y8471537D01*
X10278579Y8536421D01*
X10343463Y8579776D01*
X10420000Y8595000D01*
X10820000Y8595000D01*
X10896537Y8579776D01*
G37*
G36*
X12386104Y8582873D02*
G01*
X12459099Y8534099D01*
X12507873Y8461104D01*
X12525000Y8375000D01*
X12525000Y7925000D01*
X12507873Y7838896D01*
X12459099Y7765901D01*
X12386104Y7717127D01*
X12300000Y7700000D01*
X11800000Y7700000D01*
X11713896Y7717127D01*
X11640901Y7765901D01*
X11592127Y7838896D01*
X11575000Y7925000D01*
X11575000Y8375000D01*
X11592127Y8461104D01*
X11640901Y8534099D01*
X11713896Y8582873D01*
X11800000Y8600000D01*
X12300000Y8600000D01*
X12386104Y8582873D01*
G37*
G36*
X14996875Y8291485D02*
G01*
X15071009Y8271621D01*
X15137476Y8233246D01*
X15191746Y8178976D01*
X15230121Y8112509D01*
X15249985Y8038375D01*
X15249985Y7961625D01*
X15230121Y7887491D01*
X15191746Y7821024D01*
X15137476Y7766754D01*
X15071009Y7728379D01*
X14996875Y7708515D01*
X14958500Y7706000D01*
X14956862Y7706000D01*
X13503138Y7706000D01*
X13501500Y7706000D01*
X13463125Y7708515D01*
X13388991Y7728379D01*
X13322524Y7766754D01*
X13268254Y7821024D01*
X13229879Y7887491D01*
X13210015Y7961625D01*
X13210015Y8038375D01*
X13229879Y8112509D01*
X13268254Y8178976D01*
X13322524Y8233246D01*
X13388991Y8271621D01*
X13463125Y8291485D01*
X13501500Y8294000D01*
X14958500Y8294000D01*
X14996875Y8291485D01*
G37*
G36*
X20136875Y8291485D02*
G01*
X20211009Y8271621D01*
X20277476Y8233246D01*
X20331746Y8178976D01*
X20370121Y8112509D01*
X20389985Y8038375D01*
X20389985Y7961625D01*
X20370121Y7887491D01*
X20331746Y7821024D01*
X20277476Y7766754D01*
X20211009Y7728379D01*
X20136875Y7708515D01*
X20098500Y7706000D01*
X20096862Y7706000D01*
X18643138Y7706000D01*
X18641500Y7706000D01*
X18603125Y7708515D01*
X18528991Y7728379D01*
X18462524Y7766754D01*
X18408254Y7821024D01*
X18369879Y7887491D01*
X18350015Y7961625D01*
X18350015Y8038375D01*
X18369879Y8112509D01*
X18408254Y8178976D01*
X18462524Y8233246D01*
X18528991Y8271621D01*
X18603125Y8291485D01*
X18641500Y8294000D01*
X20098500Y8294000D01*
X20136875Y8291485D01*
G37*
G36*
X37490000Y9225000D02*
G01*
X35890000Y9225000D01*
X35890000Y10825000D01*
X37490000Y10825000D01*
X37490000Y9225000D01*
G37*
G36*
X39462228Y10790552D02*
G01*
X39607117Y10730537D01*
X39737515Y10643408D01*
X39848408Y10532515D01*
X39935537Y10402117D01*
X39995552Y10257228D01*
X40026148Y10103414D01*
X40026148Y9946586D01*
X39995552Y9792772D01*
X39935537Y9647883D01*
X39848408Y9517485D01*
X39737515Y9406592D01*
X39607117Y9319463D01*
X39462228Y9259448D01*
X39308414Y9228852D01*
X39151586Y9228852D01*
X38997772Y9259448D01*
X38852883Y9319463D01*
X38722485Y9406592D01*
X38611592Y9517485D01*
X38524463Y9647883D01*
X38464448Y9792772D01*
X38433852Y9946586D01*
X38433852Y10103414D01*
X38464448Y10257228D01*
X38524463Y10402117D01*
X38611592Y10532515D01*
X38722485Y10643408D01*
X38852883Y10730537D01*
X38997772Y10790552D01*
X39151586Y10821148D01*
X39308414Y10821148D01*
X39462228Y10790552D01*
G37*
G36*
X42002228Y10790552D02*
G01*
X42147117Y10730537D01*
X42277515Y10643408D01*
X42388408Y10532515D01*
X42475537Y10402117D01*
X42535552Y10257228D01*
X42566148Y10103414D01*
X42566148Y9946586D01*
X42535552Y9792772D01*
X42475537Y9647883D01*
X42388408Y9517485D01*
X42277515Y9406592D01*
X42147117Y9319463D01*
X42002228Y9259448D01*
X41848414Y9228852D01*
X41691586Y9228852D01*
X41537772Y9259448D01*
X41392883Y9319463D01*
X41262485Y9406592D01*
X41151592Y9517485D01*
X41064463Y9647883D01*
X41004448Y9792772D01*
X40973852Y9946586D01*
X40973852Y10103414D01*
X41004448Y10257228D01*
X41064463Y10402117D01*
X41151592Y10532515D01*
X41262485Y10643408D01*
X41392883Y10730537D01*
X41537772Y10790552D01*
X41691586Y10821148D01*
X41848414Y10821148D01*
X42002228Y10790552D01*
G37*
G36*
X24490000Y9700000D02*
G01*
X22890000Y9700000D01*
X22890000Y11300000D01*
X24490000Y11300000D01*
X24490000Y9700000D01*
G37*
G36*
X15592885Y11794944D02*
G01*
X15602918Y11794944D01*
X15642117Y11787147D01*
X15745078Y11770840D01*
X15778200Y11760078D01*
X15804799Y11754787D01*
X15842335Y11739240D01*
X15901762Y11719930D01*
X15957433Y11691565D01*
X15994967Y11676017D01*
X16017517Y11660950D01*
X16048539Y11645143D01*
X16132866Y11583876D01*
X16166113Y11561661D01*
X16173208Y11554566D01*
X16181817Y11548311D01*
X16298310Y11431818D01*
X16304564Y11423210D01*
X16311661Y11416113D01*
X16333878Y11382862D01*
X16395142Y11298540D01*
X16410947Y11267521D01*
X16426017Y11244967D01*
X16441566Y11207428D01*
X16469929Y11151763D01*
X16489235Y11092343D01*
X16504787Y11054799D01*
X16510078Y11028195D01*
X16520839Y10995079D01*
X16537145Y10892124D01*
X16544944Y10852918D01*
X16544944Y10842886D01*
X16546609Y10832373D01*
X16546609Y10667628D01*
X16544944Y10657116D01*
X16544944Y10647082D01*
X16537144Y10607874D01*
X16520839Y10504922D01*
X16510079Y10471808D01*
X16504787Y10445201D01*
X16489234Y10407654D01*
X16469929Y10348238D01*
X16441568Y10292578D01*
X16426017Y10255033D01*
X16410945Y10232477D01*
X16395142Y10201461D01*
X16333887Y10117151D01*
X16311661Y10083887D01*
X16304561Y10076788D01*
X16298310Y10068183D01*
X16181817Y9951690D01*
X16173212Y9945439D01*
X16166113Y9938339D01*
X16132849Y9916113D01*
X16048539Y9854858D01*
X16017523Y9839055D01*
X15994967Y9823983D01*
X15957422Y9808432D01*
X15901762Y9780071D01*
X15842346Y9760766D01*
X15804799Y9745213D01*
X15778192Y9739921D01*
X15745078Y9729161D01*
X15642126Y9712856D01*
X15602918Y9705056D01*
X15592884Y9705056D01*
X15582372Y9703391D01*
X15417628Y9703391D01*
X15407115Y9705056D01*
X15397082Y9705056D01*
X15357874Y9712855D01*
X15254921Y9729161D01*
X15221805Y9739922D01*
X15195201Y9745213D01*
X15157657Y9760765D01*
X15098237Y9780071D01*
X15042572Y9808434D01*
X15005033Y9823983D01*
X14982479Y9839053D01*
X14951460Y9854858D01*
X14867138Y9916122D01*
X14833887Y9938339D01*
X14826790Y9945436D01*
X14818182Y9951690D01*
X14701689Y10068183D01*
X14695434Y10076792D01*
X14688339Y10083887D01*
X14666124Y10117134D01*
X14604857Y10201461D01*
X14589050Y10232483D01*
X14573983Y10255033D01*
X14558435Y10292567D01*
X14530070Y10348238D01*
X14510760Y10407665D01*
X14495213Y10445201D01*
X14489922Y10471800D01*
X14479160Y10504922D01*
X14462853Y10607883D01*
X14455056Y10647082D01*
X14455056Y10657116D01*
X14453391Y10667628D01*
X14453391Y10832373D01*
X14455056Y10842886D01*
X14455056Y10852918D01*
X14462852Y10892114D01*
X14479160Y10995079D01*
X14489922Y11028203D01*
X14495213Y11054799D01*
X14510759Y11092332D01*
X14530070Y11151763D01*
X14558438Y11207439D01*
X14573983Y11244967D01*
X14589048Y11267514D01*
X14604857Y11298540D01*
X14666132Y11382879D01*
X14688339Y11416113D01*
X14695432Y11423207D01*
X14701689Y11431818D01*
X14818182Y11548311D01*
X14826793Y11554568D01*
X14833887Y11561661D01*
X14867121Y11583868D01*
X14951460Y11645143D01*
X14982486Y11660952D01*
X15005033Y11676017D01*
X15042561Y11691562D01*
X15098237Y11719930D01*
X15157668Y11739241D01*
X15195201Y11754787D01*
X15221797Y11760078D01*
X15254921Y11770840D01*
X15357883Y11787147D01*
X15397082Y11794944D01*
X15407115Y11794944D01*
X15417628Y11796609D01*
X15582372Y11796609D01*
X15592885Y11794944D01*
G37*
G36*
X26462228Y11265552D02*
G01*
X26607117Y11205537D01*
X26737515Y11118408D01*
X26848408Y11007515D01*
X26935537Y10877117D01*
X26995552Y10732228D01*
X27026148Y10578414D01*
X27026148Y10421586D01*
X26995552Y10267772D01*
X26935537Y10122883D01*
X26848408Y9992485D01*
X26737515Y9881592D01*
X26607117Y9794463D01*
X26462228Y9734448D01*
X26308414Y9703852D01*
X26151586Y9703852D01*
X25997772Y9734448D01*
X25852883Y9794463D01*
X25722485Y9881592D01*
X25611592Y9992485D01*
X25524463Y10122883D01*
X25464448Y10267772D01*
X25433852Y10421586D01*
X25433852Y10578414D01*
X25464448Y10732228D01*
X25524463Y10877117D01*
X25611592Y11007515D01*
X25722485Y11118408D01*
X25852883Y11205537D01*
X25997772Y11265552D01*
X26151586Y11296148D01*
X26308414Y11296148D01*
X26462228Y11265552D01*
G37*
G36*
X29002228Y11265552D02*
G01*
X29147117Y11205537D01*
X29277515Y11118408D01*
X29388408Y11007515D01*
X29475537Y10877117D01*
X29535552Y10732228D01*
X29566148Y10578414D01*
X29566148Y10421586D01*
X29535552Y10267772D01*
X29475537Y10122883D01*
X29388408Y9992485D01*
X29277515Y9881592D01*
X29147117Y9794463D01*
X29002228Y9734448D01*
X28848414Y9703852D01*
X28691586Y9703852D01*
X28537772Y9734448D01*
X28392883Y9794463D01*
X28262485Y9881592D01*
X28151592Y9992485D01*
X28064463Y10122883D01*
X28004448Y10267772D01*
X27973852Y10421586D01*
X27973852Y10578414D01*
X28004448Y10732228D01*
X28064463Y10877117D01*
X28151592Y11007515D01*
X28262485Y11118408D01*
X28392883Y11205537D01*
X28537772Y11265552D01*
X28691586Y11296148D01*
X28848414Y11296148D01*
X29002228Y11265552D01*
G37*
G36*
X31542228Y11265552D02*
G01*
X31687117Y11205537D01*
X31817515Y11118408D01*
X31928408Y11007515D01*
X32015537Y10877117D01*
X32075552Y10732228D01*
X32106148Y10578414D01*
X32106148Y10421586D01*
X32075552Y10267772D01*
X32015537Y10122883D01*
X31928408Y9992485D01*
X31817515Y9881592D01*
X31687117Y9794463D01*
X31542228Y9734448D01*
X31388414Y9703852D01*
X31231586Y9703852D01*
X31077772Y9734448D01*
X30932883Y9794463D01*
X30802485Y9881592D01*
X30691592Y9992485D01*
X30604463Y10122883D01*
X30544448Y10267772D01*
X30513852Y10421586D01*
X30513852Y10578414D01*
X30544448Y10732228D01*
X30604463Y10877117D01*
X30691592Y11007515D01*
X30802485Y11118408D01*
X30932883Y11205537D01*
X31077772Y11265552D01*
X31231586Y11296148D01*
X31388414Y11296148D01*
X31542228Y11265552D01*
G37*
G36*
X4756790Y12069607D02*
G01*
X4920952Y12016267D01*
X5074748Y11937904D01*
X5214393Y11836447D01*
X5336447Y11714393D01*
X5437904Y11574748D01*
X5516267Y11420952D01*
X5569607Y11256790D01*
X5596609Y11086305D01*
X5596609Y10913695D01*
X5569607Y10743210D01*
X5516267Y10579048D01*
X5437904Y10425252D01*
X5336447Y10285607D01*
X5214393Y10163553D01*
X5074748Y10062096D01*
X4920952Y9983733D01*
X4756790Y9930393D01*
X4586305Y9903391D01*
X4413695Y9903391D01*
X4243210Y9930393D01*
X4079048Y9983733D01*
X3925252Y10062096D01*
X3785607Y10163553D01*
X3663553Y10285607D01*
X3562096Y10425252D01*
X3483733Y10579048D01*
X3430393Y10743210D01*
X3403391Y10913695D01*
X3403391Y11086305D01*
X3430393Y11256790D01*
X3483733Y11420952D01*
X3562096Y11574748D01*
X3663553Y11714393D01*
X3785607Y11836447D01*
X3925252Y11937904D01*
X4079048Y12016267D01*
X4243210Y12069607D01*
X4413695Y12096609D01*
X4586305Y12096609D01*
X4756790Y12069607D01*
G37*
G36*
X40054047Y13474195D02*
G01*
X40105408Y13468236D01*
X40122954Y13460489D01*
X40145671Y13455970D01*
X40169991Y13439720D01*
X40190793Y13430535D01*
X40205000Y13416328D01*
X40226777Y13401777D01*
X40241327Y13380001D01*
X40255534Y13365794D01*
X40264718Y13344994D01*
X40280970Y13320671D01*
X40285489Y13297952D01*
X40293235Y13280409D01*
X40299192Y13229060D01*
X40300000Y13225000D01*
X40300000Y12275000D01*
X40299192Y12270941D01*
X40293235Y12219592D01*
X40285489Y12202050D01*
X40280970Y12179329D01*
X40264716Y12155005D01*
X40255534Y12134207D01*
X40241329Y12120003D01*
X40226777Y12098223D01*
X40204997Y12083671D01*
X40190793Y12069466D01*
X40169995Y12060284D01*
X40145671Y12044030D01*
X40122950Y12039511D01*
X40105408Y12031765D01*
X40054061Y12025808D01*
X40050000Y12025000D01*
X39550000Y12025000D01*
X39545941Y12025808D01*
X39494591Y12031765D01*
X39477048Y12039511D01*
X39454329Y12044030D01*
X39430006Y12060282D01*
X39409206Y12069466D01*
X39394999Y12083673D01*
X39373223Y12098223D01*
X39358672Y12120000D01*
X39344465Y12134207D01*
X39335280Y12155009D01*
X39319030Y12179329D01*
X39314511Y12202046D01*
X39306764Y12219592D01*
X39300805Y12270951D01*
X39300000Y12275000D01*
X39300000Y13225000D01*
X39300804Y13229047D01*
X39306764Y13280409D01*
X39314511Y13297957D01*
X39319030Y13320671D01*
X39335278Y13344990D01*
X39344465Y13365794D01*
X39358674Y13380004D01*
X39373223Y13401777D01*
X39394996Y13416326D01*
X39409206Y13430535D01*
X39430010Y13439722D01*
X39454329Y13455970D01*
X39477043Y13460489D01*
X39494591Y13468236D01*
X39545952Y13474195D01*
X39550000Y13475000D01*
X40050000Y13475000D01*
X40054047Y13474195D01*
G37*
G36*
X41954047Y13474195D02*
G01*
X42005408Y13468236D01*
X42022954Y13460489D01*
X42045671Y13455970D01*
X42069991Y13439720D01*
X42090793Y13430535D01*
X42105000Y13416328D01*
X42126777Y13401777D01*
X42141327Y13380001D01*
X42155534Y13365794D01*
X42164718Y13344994D01*
X42180970Y13320671D01*
X42185489Y13297952D01*
X42193235Y13280409D01*
X42199192Y13229060D01*
X42200000Y13225000D01*
X42200000Y12275000D01*
X42199192Y12270941D01*
X42193235Y12219592D01*
X42185489Y12202050D01*
X42180970Y12179329D01*
X42164716Y12155005D01*
X42155534Y12134207D01*
X42141329Y12120003D01*
X42126777Y12098223D01*
X42104997Y12083671D01*
X42090793Y12069466D01*
X42069995Y12060284D01*
X42045671Y12044030D01*
X42022950Y12039511D01*
X42005408Y12031765D01*
X41954061Y12025808D01*
X41950000Y12025000D01*
X41450000Y12025000D01*
X41445941Y12025808D01*
X41394591Y12031765D01*
X41377048Y12039511D01*
X41354329Y12044030D01*
X41330006Y12060282D01*
X41309206Y12069466D01*
X41294999Y12083673D01*
X41273223Y12098223D01*
X41258672Y12120000D01*
X41244465Y12134207D01*
X41235280Y12155009D01*
X41219030Y12179329D01*
X41214511Y12202046D01*
X41206764Y12219592D01*
X41200805Y12270951D01*
X41200000Y12275000D01*
X41200000Y13225000D01*
X41200804Y13229047D01*
X41206764Y13280409D01*
X41214511Y13297957D01*
X41219030Y13320671D01*
X41235278Y13344990D01*
X41244465Y13365794D01*
X41258674Y13380004D01*
X41273223Y13401777D01*
X41294996Y13416326D01*
X41309206Y13430535D01*
X41330010Y13439722D01*
X41354329Y13455970D01*
X41377043Y13460489D01*
X41394591Y13468236D01*
X41445952Y13474195D01*
X41450000Y13475000D01*
X41950000Y13475000D01*
X41954047Y13474195D01*
G37*
G36*
X27707403Y13138582D02*
G01*
X27756066Y13106066D01*
X27788582Y13057403D01*
X27800000Y13000000D01*
X27800000Y12700000D01*
X27788582Y12642597D01*
X27756066Y12593934D01*
X27707403Y12561418D01*
X27650000Y12550000D01*
X26475000Y12550000D01*
X26417597Y12561418D01*
X26368934Y12593934D01*
X26336418Y12642597D01*
X26325000Y12700000D01*
X26325000Y13000000D01*
X26336418Y13057403D01*
X26368934Y13106066D01*
X26417597Y13138582D01*
X26475000Y13150000D01*
X27650000Y13150000D01*
X27707403Y13138582D01*
G37*
G36*
X24064037Y13364776D02*
G01*
X24128921Y13321421D01*
X24172276Y13256537D01*
X24187500Y13180000D01*
X24187500Y12780000D01*
X24172276Y12703463D01*
X24128921Y12638579D01*
X24064037Y12595224D01*
X23987500Y12580000D01*
X23437500Y12580000D01*
X23360963Y12595224D01*
X23296079Y12638579D01*
X23252724Y12703463D01*
X23237500Y12780000D01*
X23237500Y13180000D01*
X23252724Y13256537D01*
X23296079Y13321421D01*
X23360963Y13364776D01*
X23437500Y13380000D01*
X23987500Y13380000D01*
X24064037Y13364776D01*
G37*
G36*
X25564037Y13364776D02*
G01*
X25628921Y13321421D01*
X25672276Y13256537D01*
X25687500Y13180000D01*
X25687500Y12780000D01*
X25672276Y12703463D01*
X25628921Y12638579D01*
X25564037Y12595224D01*
X25487500Y12580000D01*
X24937500Y12580000D01*
X24860963Y12595224D01*
X24796079Y12638579D01*
X24752724Y12703463D01*
X24737500Y12780000D01*
X24737500Y13180000D01*
X24752724Y13256537D01*
X24796079Y13321421D01*
X24860963Y13364776D01*
X24937500Y13380000D01*
X25487500Y13380000D01*
X25564037Y13364776D01*
G37*
G36*
X31064037Y13364776D02*
G01*
X31128921Y13321421D01*
X31172276Y13256537D01*
X31187500Y13180000D01*
X31187500Y12780000D01*
X31172276Y12703463D01*
X31128921Y12638579D01*
X31064037Y12595224D01*
X30987500Y12580000D01*
X30437500Y12580000D01*
X30360963Y12595224D01*
X30296079Y12638579D01*
X30252724Y12703463D01*
X30237500Y12780000D01*
X30237500Y13180000D01*
X30252724Y13256537D01*
X30296079Y13321421D01*
X30360963Y13364776D01*
X30437500Y13380000D01*
X30987500Y13380000D01*
X31064037Y13364776D01*
G37*
G36*
X29582403Y14088582D02*
G01*
X29631066Y14056066D01*
X29663582Y14007403D01*
X29675000Y13950000D01*
X29675000Y13650000D01*
X29663582Y13592597D01*
X29631066Y13543934D01*
X29582403Y13511418D01*
X29525000Y13500000D01*
X28350000Y13500000D01*
X28292597Y13511418D01*
X28243934Y13543934D01*
X28211418Y13592597D01*
X28200000Y13650000D01*
X28200000Y13950000D01*
X28211418Y14007403D01*
X28243934Y14056066D01*
X28292597Y14088582D01*
X28350000Y14100000D01*
X29525000Y14100000D01*
X29582403Y14088582D01*
G37*
G36*
X7885747Y16788340D02*
G01*
X7892558Y16785800D01*
X7897576Y16785197D01*
X7956972Y16761775D01*
X8021810Y16737591D01*
X8025720Y16734664D01*
X8027122Y16734111D01*
X8078160Y16695408D01*
X8138064Y16650564D01*
X8182925Y16590637D01*
X8221610Y16539623D01*
X8222162Y16538223D01*
X8225091Y16534310D01*
X8249284Y16469445D01*
X8272696Y16410077D01*
X8273298Y16405062D01*
X8275840Y16398247D01*
X8287499Y16289794D01*
X8287499Y16286816D01*
X8287500Y16286807D01*
X8287500Y15163670D01*
X8287500Y14110205D01*
X8275840Y14001753D01*
X8273298Y13994939D01*
X8272696Y13989924D01*
X8249291Y13930574D01*
X8225091Y13865690D01*
X8222161Y13861777D01*
X8221610Y13860378D01*
X8182983Y13809442D01*
X8138064Y13749436D01*
X8078058Y13704517D01*
X8027122Y13665890D01*
X8025723Y13665339D01*
X8021810Y13662409D01*
X7956926Y13638209D01*
X7897576Y13614804D01*
X7892561Y13614202D01*
X7885747Y13611660D01*
X7777294Y13600001D01*
X7774315Y13600001D01*
X7774307Y13600000D01*
X6300693Y13600000D01*
X6300692Y13600001D01*
X6297705Y13600000D01*
X6189253Y13611660D01*
X6182438Y13614202D01*
X6177423Y13614804D01*
X6118055Y13638216D01*
X6053190Y13662409D01*
X6049277Y13665338D01*
X6047877Y13665890D01*
X5996863Y13704575D01*
X5936936Y13749436D01*
X5892092Y13809340D01*
X5853389Y13860378D01*
X5852836Y13861780D01*
X5849909Y13865690D01*
X5825725Y13930528D01*
X5802303Y13989924D01*
X5801700Y13994942D01*
X5799160Y14001753D01*
X5787501Y14110206D01*
X5787500Y14113186D01*
X5787500Y14113194D01*
X5787500Y16286807D01*
X5787500Y16286808D01*
X5787500Y16289795D01*
X5799160Y16398247D01*
X5801700Y16405058D01*
X5802303Y16410077D01*
X5825732Y16469492D01*
X5849909Y16534310D01*
X5852835Y16538220D01*
X5853389Y16539623D01*
X5892151Y16590739D01*
X5936936Y16650564D01*
X5996761Y16695349D01*
X6047877Y16734111D01*
X6049280Y16734665D01*
X6053190Y16737591D01*
X6118008Y16761768D01*
X6177423Y16785197D01*
X6182442Y16785800D01*
X6189253Y16788340D01*
X6297706Y16799999D01*
X6300684Y16800000D01*
X6300693Y16800000D01*
X7774307Y16800000D01*
X7777295Y16800000D01*
X7885747Y16788340D01*
G37*
G36*
X13810747Y16788340D02*
G01*
X13817558Y16785800D01*
X13822576Y16785197D01*
X13881972Y16761775D01*
X13946810Y16737591D01*
X13950720Y16734664D01*
X13952122Y16734111D01*
X14003160Y16695408D01*
X14063064Y16650564D01*
X14107925Y16590637D01*
X14146610Y16539623D01*
X14147162Y16538223D01*
X14150091Y16534310D01*
X14174284Y16469445D01*
X14197696Y16410077D01*
X14198298Y16405062D01*
X14200840Y16398247D01*
X14212499Y16289794D01*
X14212499Y16286816D01*
X14212500Y16286807D01*
X14212500Y15163670D01*
X14212500Y14110205D01*
X14200840Y14001753D01*
X14198298Y13994939D01*
X14197696Y13989924D01*
X14174291Y13930574D01*
X14150091Y13865690D01*
X14147161Y13861777D01*
X14146610Y13860378D01*
X14107983Y13809442D01*
X14063064Y13749436D01*
X14003058Y13704517D01*
X13952122Y13665890D01*
X13950723Y13665339D01*
X13946810Y13662409D01*
X13881926Y13638209D01*
X13822576Y13614804D01*
X13817561Y13614202D01*
X13810747Y13611660D01*
X13702294Y13600001D01*
X13699315Y13600001D01*
X13699307Y13600000D01*
X12225693Y13600000D01*
X12225692Y13600001D01*
X12222705Y13600000D01*
X12114253Y13611660D01*
X12107438Y13614202D01*
X12102423Y13614804D01*
X12043055Y13638216D01*
X11978190Y13662409D01*
X11974277Y13665338D01*
X11972877Y13665890D01*
X11921863Y13704575D01*
X11861936Y13749436D01*
X11817092Y13809340D01*
X11778389Y13860378D01*
X11777836Y13861780D01*
X11774909Y13865690D01*
X11750725Y13930528D01*
X11727303Y13989924D01*
X11726700Y13994942D01*
X11724160Y14001753D01*
X11712501Y14110206D01*
X11712500Y14113186D01*
X11712500Y14113194D01*
X11712500Y16286807D01*
X11712500Y16286808D01*
X11712500Y16289795D01*
X11724160Y16398247D01*
X11726700Y16405058D01*
X11727303Y16410077D01*
X11750732Y16469492D01*
X11774909Y16534310D01*
X11777835Y16538220D01*
X11778389Y16539623D01*
X11817151Y16590739D01*
X11861936Y16650564D01*
X11921761Y16695349D01*
X11972877Y16734111D01*
X11974280Y16734665D01*
X11978190Y16737591D01*
X12043008Y16761768D01*
X12102423Y16785197D01*
X12107442Y16785800D01*
X12114253Y16788340D01*
X12222706Y16799999D01*
X12225684Y16800000D01*
X12225693Y16800000D01*
X13699307Y16800000D01*
X13702295Y16800000D01*
X13810747Y16788340D01*
G37*
G36*
X24064037Y15004776D02*
G01*
X24128921Y14961421D01*
X24172276Y14896537D01*
X24187500Y14820000D01*
X24187500Y14420000D01*
X24172276Y14343463D01*
X24128921Y14278579D01*
X24064037Y14235224D01*
X23987500Y14220000D01*
X23437500Y14220000D01*
X23360963Y14235224D01*
X23296079Y14278579D01*
X23252724Y14343463D01*
X23237500Y14420000D01*
X23237500Y14820000D01*
X23252724Y14896537D01*
X23296079Y14961421D01*
X23360963Y15004776D01*
X23437500Y15020000D01*
X23987500Y15020000D01*
X24064037Y15004776D01*
G37*
G36*
X25564037Y15004776D02*
G01*
X25628921Y14961421D01*
X25672276Y14896537D01*
X25687500Y14820000D01*
X25687500Y14420000D01*
X25672276Y14343463D01*
X25628921Y14278579D01*
X25564037Y14235224D01*
X25487500Y14220000D01*
X24937500Y14220000D01*
X24860963Y14235224D01*
X24796079Y14278579D01*
X24752724Y14343463D01*
X24737500Y14420000D01*
X24737500Y14820000D01*
X24752724Y14896537D01*
X24796079Y14961421D01*
X24860963Y15004776D01*
X24937500Y15020000D01*
X25487500Y15020000D01*
X25564037Y15004776D01*
G37*
G36*
X31064037Y15004776D02*
G01*
X31128921Y14961421D01*
X31172276Y14896537D01*
X31187500Y14820000D01*
X31187500Y14420000D01*
X31172276Y14343463D01*
X31128921Y14278579D01*
X31064037Y14235224D01*
X30987500Y14220000D01*
X30437500Y14220000D01*
X30360963Y14235224D01*
X30296079Y14278579D01*
X30252724Y14343463D01*
X30237500Y14420000D01*
X30237500Y14820000D01*
X30252724Y14896537D01*
X30296079Y14961421D01*
X30360963Y15004776D01*
X30437500Y15020000D01*
X30987500Y15020000D01*
X31064037Y15004776D01*
G37*
G36*
X27707403Y15038582D02*
G01*
X27756066Y15006066D01*
X27788582Y14957403D01*
X27800000Y14900000D01*
X27800000Y14600000D01*
X27788582Y14542597D01*
X27756066Y14493934D01*
X27707403Y14461418D01*
X27650000Y14450000D01*
X26475000Y14450000D01*
X26417597Y14461418D01*
X26368934Y14493934D01*
X26336418Y14542597D01*
X26325000Y14600000D01*
X26325000Y14900000D01*
X26336418Y14957403D01*
X26368934Y15006066D01*
X26417597Y15038582D01*
X26475000Y15050000D01*
X27650000Y15050000D01*
X27707403Y15038582D01*
G37*
G36*
X15592885Y16794944D02*
G01*
X15602918Y16794944D01*
X15642117Y16787147D01*
X15745078Y16770840D01*
X15778200Y16760078D01*
X15804799Y16754787D01*
X15842335Y16739240D01*
X15901762Y16719930D01*
X15957433Y16691565D01*
X15994967Y16676017D01*
X16017517Y16660950D01*
X16048539Y16645143D01*
X16132866Y16583876D01*
X16166113Y16561661D01*
X16173208Y16554566D01*
X16181817Y16548311D01*
X16298310Y16431818D01*
X16304564Y16423210D01*
X16311661Y16416113D01*
X16333878Y16382862D01*
X16395142Y16298540D01*
X16410947Y16267521D01*
X16426017Y16244967D01*
X16441566Y16207428D01*
X16469929Y16151763D01*
X16489235Y16092343D01*
X16504787Y16054799D01*
X16510078Y16028195D01*
X16520839Y15995079D01*
X16537145Y15892124D01*
X16544944Y15852918D01*
X16544944Y15842886D01*
X16546609Y15832373D01*
X16546609Y15667628D01*
X16544944Y15657116D01*
X16544944Y15647082D01*
X16537144Y15607874D01*
X16520839Y15504922D01*
X16510079Y15471808D01*
X16504787Y15445201D01*
X16489234Y15407654D01*
X16469929Y15348238D01*
X16441568Y15292578D01*
X16426017Y15255033D01*
X16410945Y15232477D01*
X16395142Y15201461D01*
X16333887Y15117151D01*
X16311661Y15083887D01*
X16304561Y15076788D01*
X16298310Y15068183D01*
X16181817Y14951690D01*
X16173212Y14945439D01*
X16166113Y14938339D01*
X16132849Y14916113D01*
X16048539Y14854858D01*
X16017523Y14839055D01*
X15994967Y14823983D01*
X15957422Y14808432D01*
X15901762Y14780071D01*
X15842346Y14760766D01*
X15804799Y14745213D01*
X15778192Y14739921D01*
X15745078Y14729161D01*
X15642126Y14712856D01*
X15602918Y14705056D01*
X15592884Y14705056D01*
X15582372Y14703391D01*
X15417628Y14703391D01*
X15407115Y14705056D01*
X15397082Y14705056D01*
X15357874Y14712855D01*
X15254921Y14729161D01*
X15221805Y14739922D01*
X15195201Y14745213D01*
X15157657Y14760765D01*
X15098237Y14780071D01*
X15042572Y14808434D01*
X15005033Y14823983D01*
X14982479Y14839053D01*
X14951460Y14854858D01*
X14867138Y14916122D01*
X14833887Y14938339D01*
X14826790Y14945436D01*
X14818182Y14951690D01*
X14701689Y15068183D01*
X14695434Y15076792D01*
X14688339Y15083887D01*
X14666124Y15117134D01*
X14604857Y15201461D01*
X14589050Y15232483D01*
X14573983Y15255033D01*
X14558435Y15292567D01*
X14530070Y15348238D01*
X14510760Y15407665D01*
X14495213Y15445201D01*
X14489922Y15471800D01*
X14479160Y15504922D01*
X14462853Y15607883D01*
X14455056Y15647082D01*
X14455056Y15657116D01*
X14453391Y15667628D01*
X14453391Y15832373D01*
X14455056Y15842886D01*
X14455056Y15852918D01*
X14462852Y15892114D01*
X14479160Y15995079D01*
X14489922Y16028203D01*
X14495213Y16054799D01*
X14510759Y16092332D01*
X14530070Y16151763D01*
X14558438Y16207439D01*
X14573983Y16244967D01*
X14589048Y16267514D01*
X14604857Y16298540D01*
X14666132Y16382879D01*
X14688339Y16416113D01*
X14695432Y16423207D01*
X14701689Y16431818D01*
X14818182Y16548311D01*
X14826793Y16554568D01*
X14833887Y16561661D01*
X14867121Y16583868D01*
X14951460Y16645143D01*
X14982486Y16660952D01*
X15005033Y16676017D01*
X15042561Y16691562D01*
X15098237Y16719930D01*
X15157668Y16739241D01*
X15195201Y16754787D01*
X15221797Y16760078D01*
X15254921Y16770840D01*
X15357883Y16787147D01*
X15397082Y16794944D01*
X15407115Y16794944D01*
X15417628Y16796609D01*
X15582372Y16796609D01*
X15592885Y16794944D01*
G37*
G36*
X4756790Y17069607D02*
G01*
X4920952Y17016267D01*
X5074748Y16937904D01*
X5214393Y16836447D01*
X5336447Y16714393D01*
X5437904Y16574748D01*
X5516267Y16420952D01*
X5569607Y16256790D01*
X5596609Y16086305D01*
X5596609Y15913695D01*
X5569607Y15743210D01*
X5516267Y15579048D01*
X5437904Y15425252D01*
X5336447Y15285607D01*
X5214393Y15163553D01*
X5074748Y15062096D01*
X4920952Y14983733D01*
X4756790Y14930393D01*
X4586305Y14903391D01*
X4413695Y14903391D01*
X4243210Y14930393D01*
X4079048Y14983733D01*
X3925252Y15062096D01*
X3785607Y15163553D01*
X3663553Y15285607D01*
X3562096Y15425252D01*
X3483733Y15579048D01*
X3430393Y15743210D01*
X3403391Y15913695D01*
X3403391Y16086305D01*
X3430393Y16256790D01*
X3483733Y16420952D01*
X3562096Y16574748D01*
X3663553Y16714393D01*
X3785607Y16836447D01*
X3925252Y16937904D01*
X4079048Y17016267D01*
X4243210Y17069607D01*
X4413695Y17096609D01*
X4586305Y17096609D01*
X4756790Y17069607D01*
G37*
G36*
X37550000Y15700000D02*
G01*
X35950000Y15700000D01*
X35950000Y17300000D01*
X37550000Y17300000D01*
X37550000Y15700000D01*
G37*
G36*
X39522228Y17265552D02*
G01*
X39667117Y17205537D01*
X39797515Y17118408D01*
X39908408Y17007515D01*
X39995537Y16877117D01*
X40055552Y16732228D01*
X40086148Y16578414D01*
X40086148Y16421586D01*
X40055552Y16267772D01*
X39995537Y16122883D01*
X39908408Y15992485D01*
X39797515Y15881592D01*
X39667117Y15794463D01*
X39522228Y15734448D01*
X39368414Y15703852D01*
X39211586Y15703852D01*
X39057772Y15734448D01*
X38912883Y15794463D01*
X38782485Y15881592D01*
X38671592Y15992485D01*
X38584463Y16122883D01*
X38524448Y16267772D01*
X38493852Y16421586D01*
X38493852Y16578414D01*
X38524448Y16732228D01*
X38584463Y16877117D01*
X38671592Y17007515D01*
X38782485Y17118408D01*
X38912883Y17205537D01*
X39057772Y17265552D01*
X39211586Y17296148D01*
X39368414Y17296148D01*
X39522228Y17265552D01*
G37*
G36*
X42062228Y17265552D02*
G01*
X42207117Y17205537D01*
X42337515Y17118408D01*
X42448408Y17007515D01*
X42535537Y16877117D01*
X42595552Y16732228D01*
X42626148Y16578414D01*
X42626148Y16421586D01*
X42595552Y16267772D01*
X42535537Y16122883D01*
X42448408Y15992485D01*
X42337515Y15881592D01*
X42207117Y15794463D01*
X42062228Y15734448D01*
X41908414Y15703852D01*
X41751586Y15703852D01*
X41597772Y15734448D01*
X41452883Y15794463D01*
X41322485Y15881592D01*
X41211592Y15992485D01*
X41124463Y16122883D01*
X41064448Y16267772D01*
X41033852Y16421586D01*
X41033852Y16578414D01*
X41064448Y16732228D01*
X41124463Y16877117D01*
X41211592Y17007515D01*
X41322485Y17118408D01*
X41452883Y17205537D01*
X41597772Y17265552D01*
X41751586Y17296148D01*
X41908414Y17296148D01*
X42062228Y17265552D01*
G37*
G36*
X24490000Y16200000D02*
G01*
X22890000Y16200000D01*
X22890000Y17800000D01*
X24490000Y17800000D01*
X24490000Y16200000D01*
G37*
G36*
X26462228Y17765552D02*
G01*
X26607117Y17705537D01*
X26737515Y17618408D01*
X26848408Y17507515D01*
X26935537Y17377117D01*
X26995552Y17232228D01*
X27026148Y17078414D01*
X27026148Y16921586D01*
X26995552Y16767772D01*
X26935537Y16622883D01*
X26848408Y16492485D01*
X26737515Y16381592D01*
X26607117Y16294463D01*
X26462228Y16234448D01*
X26308414Y16203852D01*
X26151586Y16203852D01*
X25997772Y16234448D01*
X25852883Y16294463D01*
X25722485Y16381592D01*
X25611592Y16492485D01*
X25524463Y16622883D01*
X25464448Y16767772D01*
X25433852Y16921586D01*
X25433852Y17078414D01*
X25464448Y17232228D01*
X25524463Y17377117D01*
X25611592Y17507515D01*
X25722485Y17618408D01*
X25852883Y17705537D01*
X25997772Y17765552D01*
X26151586Y17796148D01*
X26308414Y17796148D01*
X26462228Y17765552D01*
G37*
G36*
X29002228Y17765552D02*
G01*
X29147117Y17705537D01*
X29277515Y17618408D01*
X29388408Y17507515D01*
X29475537Y17377117D01*
X29535552Y17232228D01*
X29566148Y17078414D01*
X29566148Y16921586D01*
X29535552Y16767772D01*
X29475537Y16622883D01*
X29388408Y16492485D01*
X29277515Y16381592D01*
X29147117Y16294463D01*
X29002228Y16234448D01*
X28848414Y16203852D01*
X28691586Y16203852D01*
X28537772Y16234448D01*
X28392883Y16294463D01*
X28262485Y16381592D01*
X28151592Y16492485D01*
X28064463Y16622883D01*
X28004448Y16767772D01*
X27973852Y16921586D01*
X27973852Y17078414D01*
X28004448Y17232228D01*
X28064463Y17377117D01*
X28151592Y17507515D01*
X28262485Y17618408D01*
X28392883Y17705537D01*
X28537772Y17765552D01*
X28691586Y17796148D01*
X28848414Y17796148D01*
X29002228Y17765552D01*
G37*
G36*
X31542228Y17765552D02*
G01*
X31687117Y17705537D01*
X31817515Y17618408D01*
X31928408Y17507515D01*
X32015537Y17377117D01*
X32075552Y17232228D01*
X32106148Y17078414D01*
X32106148Y16921586D01*
X32075552Y16767772D01*
X32015537Y16622883D01*
X31928408Y16492485D01*
X31817515Y16381592D01*
X31687117Y16294463D01*
X31542228Y16234448D01*
X31388414Y16203852D01*
X31231586Y16203852D01*
X31077772Y16234448D01*
X30932883Y16294463D01*
X30802485Y16381592D01*
X30691592Y16492485D01*
X30604463Y16622883D01*
X30544448Y16767772D01*
X30513852Y16921586D01*
X30513852Y17078414D01*
X30544448Y17232228D01*
X30604463Y17377117D01*
X30691592Y17507515D01*
X30802485Y17618408D01*
X30932883Y17705537D01*
X31077772Y17765552D01*
X31231586Y17796148D01*
X31388414Y17796148D01*
X31542228Y17765552D01*
G37*
G36*
X40054047Y19974195D02*
G01*
X40105408Y19968236D01*
X40122954Y19960489D01*
X40145671Y19955970D01*
X40169991Y19939720D01*
X40190793Y19930535D01*
X40205000Y19916328D01*
X40226777Y19901777D01*
X40241327Y19880001D01*
X40255534Y19865794D01*
X40264718Y19844994D01*
X40280970Y19820671D01*
X40285489Y19797952D01*
X40293235Y19780409D01*
X40299192Y19729060D01*
X40300000Y19725000D01*
X40300000Y18775000D01*
X40299192Y18770941D01*
X40293235Y18719592D01*
X40285489Y18702050D01*
X40280970Y18679329D01*
X40264716Y18655005D01*
X40255534Y18634207D01*
X40241329Y18620003D01*
X40226777Y18598223D01*
X40204997Y18583671D01*
X40190793Y18569466D01*
X40169995Y18560284D01*
X40145671Y18544030D01*
X40122950Y18539511D01*
X40105408Y18531765D01*
X40054061Y18525808D01*
X40050000Y18525000D01*
X39550000Y18525000D01*
X39545941Y18525808D01*
X39494591Y18531765D01*
X39477048Y18539511D01*
X39454329Y18544030D01*
X39430006Y18560282D01*
X39409206Y18569466D01*
X39394999Y18583673D01*
X39373223Y18598223D01*
X39358672Y18620000D01*
X39344465Y18634207D01*
X39335280Y18655009D01*
X39319030Y18679329D01*
X39314511Y18702046D01*
X39306764Y18719592D01*
X39300805Y18770951D01*
X39300000Y18775000D01*
X39300000Y19725000D01*
X39300804Y19729047D01*
X39306764Y19780409D01*
X39314511Y19797957D01*
X39319030Y19820671D01*
X39335278Y19844990D01*
X39344465Y19865794D01*
X39358674Y19880004D01*
X39373223Y19901777D01*
X39394996Y19916326D01*
X39409206Y19930535D01*
X39430010Y19939722D01*
X39454329Y19955970D01*
X39477043Y19960489D01*
X39494591Y19968236D01*
X39545952Y19974195D01*
X39550000Y19975000D01*
X40050000Y19975000D01*
X40054047Y19974195D01*
G37*
G36*
X41954047Y19974195D02*
G01*
X42005408Y19968236D01*
X42022954Y19960489D01*
X42045671Y19955970D01*
X42069991Y19939720D01*
X42090793Y19930535D01*
X42105000Y19916328D01*
X42126777Y19901777D01*
X42141327Y19880001D01*
X42155534Y19865794D01*
X42164718Y19844994D01*
X42180970Y19820671D01*
X42185489Y19797952D01*
X42193235Y19780409D01*
X42199192Y19729060D01*
X42200000Y19725000D01*
X42200000Y18775000D01*
X42199192Y18770941D01*
X42193235Y18719592D01*
X42185489Y18702050D01*
X42180970Y18679329D01*
X42164716Y18655005D01*
X42155534Y18634207D01*
X42141329Y18620003D01*
X42126777Y18598223D01*
X42104997Y18583671D01*
X42090793Y18569466D01*
X42069995Y18560284D01*
X42045671Y18544030D01*
X42022950Y18539511D01*
X42005408Y18531765D01*
X41954061Y18525808D01*
X41950000Y18525000D01*
X41450000Y18525000D01*
X41445941Y18525808D01*
X41394591Y18531765D01*
X41377048Y18539511D01*
X41354329Y18544030D01*
X41330006Y18560282D01*
X41309206Y18569466D01*
X41294999Y18583673D01*
X41273223Y18598223D01*
X41258672Y18620000D01*
X41244465Y18634207D01*
X41235280Y18655009D01*
X41219030Y18679329D01*
X41214511Y18702046D01*
X41206764Y18719592D01*
X41200805Y18770951D01*
X41200000Y18775000D01*
X41200000Y19725000D01*
X41200804Y19729047D01*
X41206764Y19780409D01*
X41214511Y19797957D01*
X41219030Y19820671D01*
X41235278Y19844990D01*
X41244465Y19865794D01*
X41258674Y19880004D01*
X41273223Y19901777D01*
X41294996Y19916326D01*
X41309206Y19930535D01*
X41330010Y19939722D01*
X41354329Y19955970D01*
X41377043Y19960489D01*
X41394591Y19968236D01*
X41445952Y19974195D01*
X41450000Y19975000D01*
X41950000Y19975000D01*
X41954047Y19974195D01*
G37*
G36*
X27707403Y19838582D02*
G01*
X27756066Y19806066D01*
X27788582Y19757403D01*
X27800000Y19700000D01*
X27800000Y19400000D01*
X27788582Y19342597D01*
X27756066Y19293934D01*
X27707403Y19261418D01*
X27650000Y19250000D01*
X26475000Y19250000D01*
X26417597Y19261418D01*
X26368934Y19293934D01*
X26336418Y19342597D01*
X26325000Y19400000D01*
X26325000Y19700000D01*
X26336418Y19757403D01*
X26368934Y19806066D01*
X26417597Y19838582D01*
X26475000Y19850000D01*
X27650000Y19850000D01*
X27707403Y19838582D01*
G37*
G36*
X23951537Y20064776D02*
G01*
X24016421Y20021421D01*
X24059776Y19956537D01*
X24075000Y19880000D01*
X24075000Y19480000D01*
X24059776Y19403463D01*
X24016421Y19338579D01*
X23951537Y19295224D01*
X23875000Y19280000D01*
X23325000Y19280000D01*
X23248463Y19295224D01*
X23183579Y19338579D01*
X23140224Y19403463D01*
X23125000Y19480000D01*
X23125000Y19880000D01*
X23140224Y19956537D01*
X23183579Y20021421D01*
X23248463Y20064776D01*
X23325000Y20080000D01*
X23875000Y20080000D01*
X23951537Y20064776D01*
G37*
G36*
X25551537Y20064776D02*
G01*
X25616421Y20021421D01*
X25659776Y19956537D01*
X25675000Y19880000D01*
X25675000Y19480000D01*
X25659776Y19403463D01*
X25616421Y19338579D01*
X25551537Y19295224D01*
X25475000Y19280000D01*
X24925000Y19280000D01*
X24848463Y19295224D01*
X24783579Y19338579D01*
X24740224Y19403463D01*
X24725000Y19480000D01*
X24725000Y19880000D01*
X24740224Y19956537D01*
X24783579Y20021421D01*
X24848463Y20064776D01*
X24925000Y20080000D01*
X25475000Y20080000D01*
X25551537Y20064776D01*
G37*
G36*
X31051537Y20084776D02*
G01*
X31116421Y20041421D01*
X31159776Y19976537D01*
X31175000Y19900000D01*
X31175000Y19500000D01*
X31159776Y19423463D01*
X31116421Y19358579D01*
X31051537Y19315224D01*
X30975000Y19300000D01*
X30425000Y19300000D01*
X30348463Y19315224D01*
X30283579Y19358579D01*
X30240224Y19423463D01*
X30225000Y19500000D01*
X30225000Y19900000D01*
X30240224Y19976537D01*
X30283579Y20041421D01*
X30348463Y20084776D01*
X30425000Y20100000D01*
X30975000Y20100000D01*
X31051537Y20084776D01*
G37*
G36*
X29582403Y20788582D02*
G01*
X29631066Y20756066D01*
X29663582Y20707403D01*
X29675000Y20650000D01*
X29675000Y20350000D01*
X29663582Y20292597D01*
X29631066Y20243934D01*
X29582403Y20211418D01*
X29525000Y20200000D01*
X28350000Y20200000D01*
X28292597Y20211418D01*
X28243934Y20243934D01*
X28211418Y20292597D01*
X28200000Y20350000D01*
X28200000Y20650000D01*
X28211418Y20707403D01*
X28243934Y20756066D01*
X28292597Y20788582D01*
X28350000Y20800000D01*
X29525000Y20800000D01*
X29582403Y20788582D01*
G37*
G36*
X23951537Y21704776D02*
G01*
X24016421Y21661421D01*
X24059776Y21596537D01*
X24075000Y21520000D01*
X24075000Y21120000D01*
X24059776Y21043463D01*
X24016421Y20978579D01*
X23951537Y20935224D01*
X23875000Y20920000D01*
X23325000Y20920000D01*
X23248463Y20935224D01*
X23183579Y20978579D01*
X23140224Y21043463D01*
X23125000Y21120000D01*
X23125000Y21520000D01*
X23140224Y21596537D01*
X23183579Y21661421D01*
X23248463Y21704776D01*
X23325000Y21720000D01*
X23875000Y21720000D01*
X23951537Y21704776D01*
G37*
G36*
X25551537Y21704776D02*
G01*
X25616421Y21661421D01*
X25659776Y21596537D01*
X25675000Y21520000D01*
X25675000Y21120000D01*
X25659776Y21043463D01*
X25616421Y20978579D01*
X25551537Y20935224D01*
X25475000Y20920000D01*
X24925000Y20920000D01*
X24848463Y20935224D01*
X24783579Y20978579D01*
X24740224Y21043463D01*
X24725000Y21120000D01*
X24725000Y21520000D01*
X24740224Y21596537D01*
X24783579Y21661421D01*
X24848463Y21704776D01*
X24925000Y21720000D01*
X25475000Y21720000D01*
X25551537Y21704776D01*
G37*
G36*
X31051537Y21724776D02*
G01*
X31116421Y21681421D01*
X31159776Y21616537D01*
X31175000Y21540000D01*
X31175000Y21140000D01*
X31159776Y21063463D01*
X31116421Y20998579D01*
X31051537Y20955224D01*
X30975000Y20940000D01*
X30425000Y20940000D01*
X30348463Y20955224D01*
X30283579Y20998579D01*
X30240224Y21063463D01*
X30225000Y21140000D01*
X30225000Y21540000D01*
X30240224Y21616537D01*
X30283579Y21681421D01*
X30348463Y21724776D01*
X30425000Y21740000D01*
X30975000Y21740000D01*
X31051537Y21724776D01*
G37*
G36*
X27707403Y21738582D02*
G01*
X27756066Y21706066D01*
X27788582Y21657403D01*
X27800000Y21600000D01*
X27800000Y21300000D01*
X27788582Y21242597D01*
X27756066Y21193934D01*
X27707403Y21161418D01*
X27650000Y21150000D01*
X26475000Y21150000D01*
X26417597Y21161418D01*
X26368934Y21193934D01*
X26336418Y21242597D01*
X26325000Y21300000D01*
X26325000Y21600000D01*
X26336418Y21657403D01*
X26368934Y21706066D01*
X26417597Y21738582D01*
X26475000Y21750000D01*
X27650000Y21750000D01*
X27707403Y21738582D01*
G37*
G36*
X36720000Y22880000D02*
G01*
X35720000Y22880000D01*
X35720000Y24480000D01*
X36720000Y24480000D01*
X36720000Y22880000D01*
G37*
G36*
X38720000Y22880000D02*
G01*
X37720000Y22880000D01*
X37720000Y24480000D01*
X38720000Y24480000D01*
X38720000Y22880000D01*
G37*
G36*
X18101104Y24307873D02*
G01*
X18174099Y24259099D01*
X18222873Y24186104D01*
X18240000Y24100000D01*
X18240000Y23600000D01*
X18222873Y23513896D01*
X18174099Y23440901D01*
X18101104Y23392127D01*
X18015000Y23375000D01*
X17565000Y23375000D01*
X17478896Y23392127D01*
X17405901Y23440901D01*
X17357127Y23513896D01*
X17340000Y23600000D01*
X17340000Y24100000D01*
X17357127Y24186104D01*
X17405901Y24259099D01*
X17478896Y24307873D01*
X17565000Y24325000D01*
X18015000Y24325000D01*
X18101104Y24307873D01*
G37*
G36*
X19661104Y24307873D02*
G01*
X19734099Y24259099D01*
X19782873Y24186104D01*
X19800000Y24100000D01*
X19800000Y23600000D01*
X19782873Y23513896D01*
X19734099Y23440901D01*
X19661104Y23392127D01*
X19575000Y23375000D01*
X19125000Y23375000D01*
X19038896Y23392127D01*
X18965901Y23440901D01*
X18917127Y23513896D01*
X18900000Y23600000D01*
X18900000Y24100000D01*
X18917127Y24186104D01*
X18965901Y24259099D01*
X19038896Y24307873D01*
X19125000Y24325000D01*
X19575000Y24325000D01*
X19661104Y24307873D01*
G37*
G36*
X10803479Y26264081D02*
G01*
X10997488Y26201043D01*
X11179248Y26108432D01*
X11344282Y25988528D01*
X11488528Y25844282D01*
X11608432Y25679248D01*
X11701043Y25497488D01*
X11764081Y25303479D01*
X11795993Y25101997D01*
X11795993Y24898003D01*
X11764081Y24696521D01*
X11701043Y24502512D01*
X11608432Y24320752D01*
X11488528Y24155718D01*
X11344282Y24011472D01*
X11179248Y23891568D01*
X10997488Y23798957D01*
X10803479Y23735919D01*
X10601997Y23704007D01*
X10398003Y23704007D01*
X10196521Y23735919D01*
X10002512Y23798957D01*
X9820752Y23891568D01*
X9655718Y24011472D01*
X9511472Y24155718D01*
X9391568Y24320752D01*
X9298957Y24502512D01*
X9235919Y24696521D01*
X9204007Y24898003D01*
X9204007Y25101997D01*
X9235919Y25303479D01*
X9298957Y25497488D01*
X9391568Y25679248D01*
X9511472Y25844282D01*
X9655718Y25988528D01*
X9820752Y26108432D01*
X10002512Y26201043D01*
X10196521Y26264081D01*
X10398003Y26295993D01*
X10601997Y26295993D01*
X10803479Y26264081D01*
G37*
G36*
X28736104Y24832873D02*
G01*
X28809099Y24784099D01*
X28857873Y24711104D01*
X28875000Y24625000D01*
X28875000Y24175000D01*
X28857873Y24088896D01*
X28809099Y24015901D01*
X28736104Y23967127D01*
X28650000Y23950000D01*
X28150000Y23950000D01*
X28063896Y23967127D01*
X27990901Y24015901D01*
X27942127Y24088896D01*
X27925000Y24175000D01*
X27925000Y24625000D01*
X27942127Y24711104D01*
X27990901Y24784099D01*
X28063896Y24832873D01*
X28150000Y24850000D01*
X28650000Y24850000D01*
X28736104Y24832873D01*
G37*
G36*
X30236104Y24832873D02*
G01*
X30309099Y24784099D01*
X30357873Y24711104D01*
X30375000Y24625000D01*
X30375000Y24175000D01*
X30357873Y24088896D01*
X30309099Y24015901D01*
X30236104Y23967127D01*
X30150000Y23950000D01*
X29650000Y23950000D01*
X29563896Y23967127D01*
X29490901Y24015901D01*
X29442127Y24088896D01*
X29425000Y24175000D01*
X29425000Y24625000D01*
X29442127Y24711104D01*
X29490901Y24784099D01*
X29563896Y24832873D01*
X29650000Y24850000D01*
X30150000Y24850000D01*
X30236104Y24832873D01*
G37*
G36*
X31951537Y24764776D02*
G01*
X32016421Y24721421D01*
X32059776Y24656537D01*
X32075000Y24580000D01*
X32075000Y24180000D01*
X32059776Y24103463D01*
X32016421Y24038579D01*
X31951537Y23995224D01*
X31875000Y23980000D01*
X31325000Y23980000D01*
X31248463Y23995224D01*
X31183579Y24038579D01*
X31140224Y24103463D01*
X31125000Y24180000D01*
X31125000Y24580000D01*
X31140224Y24656537D01*
X31183579Y24721421D01*
X31248463Y24764776D01*
X31325000Y24780000D01*
X31875000Y24780000D01*
X31951537Y24764776D01*
G37*
G36*
X33451537Y24764776D02*
G01*
X33516421Y24721421D01*
X33559776Y24656537D01*
X33575000Y24580000D01*
X33575000Y24180000D01*
X33559776Y24103463D01*
X33516421Y24038579D01*
X33451537Y23995224D01*
X33375000Y23980000D01*
X32825000Y23980000D01*
X32748463Y23995224D01*
X32683579Y24038579D01*
X32640224Y24103463D01*
X32625000Y24180000D01*
X32625000Y24580000D01*
X32640224Y24656537D01*
X32683579Y24721421D01*
X32748463Y24764776D01*
X32825000Y24780000D01*
X33375000Y24780000D01*
X33451537Y24764776D01*
G37*
G36*
X17959047Y26112195D02*
G01*
X18007661Y26106555D01*
X18024271Y26099221D01*
X18046079Y26094883D01*
X18069425Y26079284D01*
X18089012Y26070635D01*
X18102390Y26057257D01*
X18123291Y26043291D01*
X18137256Y26022391D01*
X18150634Y26009013D01*
X18159281Y25989428D01*
X18174883Y25966079D01*
X18179221Y25944269D01*
X18186554Y25927662D01*
X18192192Y25879058D01*
X18193000Y25875000D01*
X18193000Y25325000D01*
X18192192Y25320941D01*
X18186554Y25272339D01*
X18179221Y25255734D01*
X18174883Y25233921D01*
X18159280Y25210571D01*
X18150634Y25190988D01*
X18137258Y25177613D01*
X18123291Y25156709D01*
X18102387Y25142742D01*
X18089012Y25129366D01*
X18069429Y25120720D01*
X18046079Y25105117D01*
X18024266Y25100779D01*
X18007661Y25093446D01*
X17959059Y25087808D01*
X17955000Y25087000D01*
X17555000Y25087000D01*
X17550942Y25087808D01*
X17502338Y25093446D01*
X17485731Y25100779D01*
X17463921Y25105117D01*
X17440572Y25120719D01*
X17420987Y25129366D01*
X17407609Y25142744D01*
X17386709Y25156709D01*
X17372743Y25177610D01*
X17359365Y25190988D01*
X17350716Y25210575D01*
X17335117Y25233921D01*
X17330779Y25255729D01*
X17323445Y25272339D01*
X17317805Y25320953D01*
X17317000Y25325000D01*
X17317000Y25875000D01*
X17317804Y25879046D01*
X17323445Y25927662D01*
X17330779Y25944273D01*
X17335117Y25966079D01*
X17350715Y25989424D01*
X17359365Y26009013D01*
X17372745Y26022394D01*
X17386709Y26043291D01*
X17407606Y26057255D01*
X17420987Y26070635D01*
X17440576Y26079285D01*
X17463921Y26094883D01*
X17485727Y26099221D01*
X17502338Y26106555D01*
X17550954Y26112196D01*
X17555000Y26113000D01*
X17955000Y26113000D01*
X17959047Y26112195D01*
G37*
G36*
X19599047Y26112195D02*
G01*
X19647661Y26106555D01*
X19664271Y26099221D01*
X19686079Y26094883D01*
X19709425Y26079284D01*
X19729012Y26070635D01*
X19742390Y26057257D01*
X19763291Y26043291D01*
X19777256Y26022391D01*
X19790634Y26009013D01*
X19799281Y25989428D01*
X19814883Y25966079D01*
X19819221Y25944269D01*
X19826554Y25927662D01*
X19832192Y25879058D01*
X19833000Y25875000D01*
X19833000Y25325000D01*
X19832192Y25320941D01*
X19826554Y25272339D01*
X19819221Y25255734D01*
X19814883Y25233921D01*
X19799280Y25210571D01*
X19790634Y25190988D01*
X19777258Y25177613D01*
X19763291Y25156709D01*
X19742387Y25142742D01*
X19729012Y25129366D01*
X19709429Y25120720D01*
X19686079Y25105117D01*
X19664266Y25100779D01*
X19647661Y25093446D01*
X19599059Y25087808D01*
X19595000Y25087000D01*
X19195000Y25087000D01*
X19190942Y25087808D01*
X19142338Y25093446D01*
X19125731Y25100779D01*
X19103921Y25105117D01*
X19080572Y25120719D01*
X19060987Y25129366D01*
X19047609Y25142744D01*
X19026709Y25156709D01*
X19012743Y25177610D01*
X18999365Y25190988D01*
X18990716Y25210575D01*
X18975117Y25233921D01*
X18970779Y25255729D01*
X18963445Y25272339D01*
X18957805Y25320953D01*
X18957000Y25325000D01*
X18957000Y25875000D01*
X18957804Y25879046D01*
X18963445Y25927662D01*
X18970779Y25944273D01*
X18975117Y25966079D01*
X18990715Y25989424D01*
X18999365Y26009013D01*
X19012745Y26022394D01*
X19026709Y26043291D01*
X19047606Y26057255D01*
X19060987Y26070635D01*
X19080576Y26079285D01*
X19103921Y26094883D01*
X19125727Y26099221D01*
X19142338Y26106555D01*
X19190954Y26112196D01*
X19195000Y26113000D01*
X19595000Y26113000D01*
X19599047Y26112195D01*
G37*
G36*
X15026537Y26059776D02*
G01*
X15091421Y26016421D01*
X15134776Y25951537D01*
X15150000Y25875000D01*
X15150000Y25325000D01*
X15134776Y25248463D01*
X15091421Y25183579D01*
X15026537Y25140224D01*
X14950000Y25125000D01*
X14550000Y25125000D01*
X14473463Y25140224D01*
X14408579Y25183579D01*
X14365224Y25248463D01*
X14350000Y25325000D01*
X14350000Y25875000D01*
X14365224Y25951537D01*
X14408579Y26016421D01*
X14473463Y26059776D01*
X14550000Y26075000D01*
X14950000Y26075000D01*
X15026537Y26059776D01*
G37*
G36*
X16666537Y26059776D02*
G01*
X16731421Y26016421D01*
X16774776Y25951537D01*
X16790000Y25875000D01*
X16790000Y25325000D01*
X16774776Y25248463D01*
X16731421Y25183579D01*
X16666537Y25140224D01*
X16590000Y25125000D01*
X16190000Y25125000D01*
X16113463Y25140224D01*
X16048579Y25183579D01*
X16005224Y25248463D01*
X15990000Y25325000D01*
X15990000Y25875000D01*
X16005224Y25951537D01*
X16048579Y26016421D01*
X16113463Y26059776D01*
X16190000Y26075000D01*
X16590000Y26075000D01*
X16666537Y26059776D01*
G37*
G36*
X36751104Y26137873D02*
G01*
X36824099Y26089099D01*
X36872873Y26016104D01*
X36890000Y25930000D01*
X36890000Y25430000D01*
X36872873Y25343896D01*
X36824099Y25270901D01*
X36751104Y25222127D01*
X36665000Y25205000D01*
X36215000Y25205000D01*
X36128896Y25222127D01*
X36055901Y25270901D01*
X36007127Y25343896D01*
X35990000Y25430000D01*
X35990000Y25930000D01*
X36007127Y26016104D01*
X36055901Y26089099D01*
X36128896Y26137873D01*
X36215000Y26155000D01*
X36665000Y26155000D01*
X36751104Y26137873D01*
G37*
G36*
X38311104Y26137873D02*
G01*
X38384099Y26089099D01*
X38432873Y26016104D01*
X38450000Y25930000D01*
X38450000Y25430000D01*
X38432873Y25343896D01*
X38384099Y25270901D01*
X38311104Y25222127D01*
X38225000Y25205000D01*
X37775000Y25205000D01*
X37688896Y25222127D01*
X37615901Y25270901D01*
X37567127Y25343896D01*
X37550000Y25430000D01*
X37550000Y25930000D01*
X37567127Y26016104D01*
X37615901Y26089099D01*
X37688896Y26137873D01*
X37775000Y26155000D01*
X38225000Y26155000D01*
X38311104Y26137873D01*
G37*
G36*
X28736104Y26392873D02*
G01*
X28809099Y26344099D01*
X28857873Y26271104D01*
X28875000Y26185000D01*
X28875000Y25735000D01*
X28857873Y25648896D01*
X28809099Y25575901D01*
X28736104Y25527127D01*
X28650000Y25510000D01*
X28150000Y25510000D01*
X28063896Y25527127D01*
X27990901Y25575901D01*
X27942127Y25648896D01*
X27925000Y25735000D01*
X27925000Y26185000D01*
X27942127Y26271104D01*
X27990901Y26344099D01*
X28063896Y26392873D01*
X28150000Y26410000D01*
X28650000Y26410000D01*
X28736104Y26392873D01*
G37*
G36*
X30236104Y26392873D02*
G01*
X30309099Y26344099D01*
X30357873Y26271104D01*
X30375000Y26185000D01*
X30375000Y25735000D01*
X30357873Y25648896D01*
X30309099Y25575901D01*
X30236104Y25527127D01*
X30150000Y25510000D01*
X29650000Y25510000D01*
X29563896Y25527127D01*
X29490901Y25575901D01*
X29442127Y25648896D01*
X29425000Y25735000D01*
X29425000Y26185000D01*
X29442127Y26271104D01*
X29490901Y26344099D01*
X29563896Y26392873D01*
X29650000Y26410000D01*
X30150000Y26410000D01*
X30236104Y26392873D01*
G37*
G36*
X31951537Y26404776D02*
G01*
X32016421Y26361421D01*
X32059776Y26296537D01*
X32075000Y26220000D01*
X32075000Y25820000D01*
X32059776Y25743463D01*
X32016421Y25678579D01*
X31951537Y25635224D01*
X31875000Y25620000D01*
X31325000Y25620000D01*
X31248463Y25635224D01*
X31183579Y25678579D01*
X31140224Y25743463D01*
X31125000Y25820000D01*
X31125000Y26220000D01*
X31140224Y26296537D01*
X31183579Y26361421D01*
X31248463Y26404776D01*
X31325000Y26420000D01*
X31875000Y26420000D01*
X31951537Y26404776D01*
G37*
G36*
X33451537Y26404776D02*
G01*
X33516421Y26361421D01*
X33559776Y26296537D01*
X33575000Y26220000D01*
X33575000Y25820000D01*
X33559776Y25743463D01*
X33516421Y25678579D01*
X33451537Y25635224D01*
X33375000Y25620000D01*
X32825000Y25620000D01*
X32748463Y25635224D01*
X32683579Y25678579D01*
X32640224Y25743463D01*
X32625000Y25820000D01*
X32625000Y26220000D01*
X32640224Y26296537D01*
X32683579Y26361421D01*
X32748463Y26404776D01*
X32825000Y26420000D01*
X33375000Y26420000D01*
X33451537Y26404776D01*
G37*
G36*
X36751104Y27637873D02*
G01*
X36824099Y27589099D01*
X36872873Y27516104D01*
X36890000Y27430000D01*
X36890000Y26930000D01*
X36872873Y26843896D01*
X36824099Y26770901D01*
X36751104Y26722127D01*
X36665000Y26705000D01*
X36215000Y26705000D01*
X36128896Y26722127D01*
X36055901Y26770901D01*
X36007127Y26843896D01*
X35990000Y26930000D01*
X35990000Y27430000D01*
X36007127Y27516104D01*
X36055901Y27589099D01*
X36128896Y27637873D01*
X36215000Y27655000D01*
X36665000Y27655000D01*
X36751104Y27637873D01*
G37*
G36*
X38311104Y27637873D02*
G01*
X38384099Y27589099D01*
X38432873Y27516104D01*
X38450000Y27430000D01*
X38450000Y26930000D01*
X38432873Y26843896D01*
X38384099Y26770901D01*
X38311104Y26722127D01*
X38225000Y26705000D01*
X37775000Y26705000D01*
X37688896Y26722127D01*
X37615901Y26770901D01*
X37567127Y26843896D01*
X37550000Y26930000D01*
X37550000Y27430000D01*
X37567127Y27516104D01*
X37615901Y27589099D01*
X37688896Y27637873D01*
X37775000Y27655000D01*
X38225000Y27655000D01*
X38311104Y27637873D01*
G37*
G36*
X19656104Y27752873D02*
G01*
X19729099Y27704099D01*
X19777873Y27631104D01*
X19795000Y27545000D01*
X19795000Y27095000D01*
X19777873Y27008896D01*
X19729099Y26935901D01*
X19656104Y26887127D01*
X19570000Y26870000D01*
X19070000Y26870000D01*
X18983896Y26887127D01*
X18910901Y26935901D01*
X18862127Y27008896D01*
X18845000Y27095000D01*
X18845000Y27545000D01*
X18862127Y27631104D01*
X18910901Y27704099D01*
X18983896Y27752873D01*
X19070000Y27770000D01*
X19570000Y27770000D01*
X19656104Y27752873D01*
G37*
G36*
X16671537Y27664776D02*
G01*
X16736421Y27621421D01*
X16779776Y27556537D01*
X16795000Y27480000D01*
X16795000Y27080000D01*
X16779776Y27003463D01*
X16736421Y26938579D01*
X16671537Y26895224D01*
X16595000Y26880000D01*
X16045000Y26880000D01*
X15968463Y26895224D01*
X15903579Y26938579D01*
X15860224Y27003463D01*
X15845000Y27080000D01*
X15845000Y27480000D01*
X15860224Y27556537D01*
X15903579Y27621421D01*
X15968463Y27664776D01*
X16045000Y27680000D01*
X16595000Y27680000D01*
X16671537Y27664776D01*
G37*
G36*
X18171537Y27664776D02*
G01*
X18236421Y27621421D01*
X18279776Y27556537D01*
X18295000Y27480000D01*
X18295000Y27080000D01*
X18279776Y27003463D01*
X18236421Y26938579D01*
X18171537Y26895224D01*
X18095000Y26880000D01*
X17545000Y26880000D01*
X17468463Y26895224D01*
X17403579Y26938579D01*
X17360224Y27003463D01*
X17345000Y27080000D01*
X17345000Y27480000D01*
X17360224Y27556537D01*
X17403579Y27621421D01*
X17468463Y27664776D01*
X17545000Y27680000D01*
X18095000Y27680000D01*
X18171537Y27664776D01*
G37*
G36*
X40501104Y28457873D02*
G01*
X40574099Y28409099D01*
X40622873Y28336104D01*
X40640000Y28250000D01*
X40640000Y27750000D01*
X40622873Y27663896D01*
X40574099Y27590901D01*
X40501104Y27542127D01*
X40415000Y27525000D01*
X39965000Y27525000D01*
X39878896Y27542127D01*
X39805901Y27590901D01*
X39757127Y27663896D01*
X39740000Y27750000D01*
X39740000Y28250000D01*
X39757127Y28336104D01*
X39805901Y28409099D01*
X39878896Y28457873D01*
X39965000Y28475000D01*
X40415000Y28475000D01*
X40501104Y28457873D01*
G37*
G36*
X42061104Y28457873D02*
G01*
X42134099Y28409099D01*
X42182873Y28336104D01*
X42200000Y28250000D01*
X42200000Y27750000D01*
X42182873Y27663896D01*
X42134099Y27590901D01*
X42061104Y27542127D01*
X41975000Y27525000D01*
X41525000Y27525000D01*
X41438896Y27542127D01*
X41365901Y27590901D01*
X41317127Y27663896D01*
X41300000Y27750000D01*
X41300000Y28250000D01*
X41317127Y28336104D01*
X41365901Y28409099D01*
X41438896Y28457873D01*
X41525000Y28475000D01*
X41975000Y28475000D01*
X42061104Y28457873D01*
G37*
G36*
X19656104Y29312873D02*
G01*
X19729099Y29264099D01*
X19777873Y29191104D01*
X19795000Y29105000D01*
X19795000Y28655000D01*
X19777873Y28568896D01*
X19729099Y28495901D01*
X19656104Y28447127D01*
X19570000Y28430000D01*
X19070000Y28430000D01*
X18983896Y28447127D01*
X18910901Y28495901D01*
X18862127Y28568896D01*
X18845000Y28655000D01*
X18845000Y29105000D01*
X18862127Y29191104D01*
X18910901Y29264099D01*
X18983896Y29312873D01*
X19070000Y29330000D01*
X19570000Y29330000D01*
X19656104Y29312873D01*
G37*
G36*
X16671537Y29304776D02*
G01*
X16736421Y29261421D01*
X16779776Y29196537D01*
X16795000Y29120000D01*
X16795000Y28720000D01*
X16779776Y28643463D01*
X16736421Y28578579D01*
X16671537Y28535224D01*
X16595000Y28520000D01*
X16045000Y28520000D01*
X15968463Y28535224D01*
X15903579Y28578579D01*
X15860224Y28643463D01*
X15845000Y28720000D01*
X15845000Y29120000D01*
X15860224Y29196537D01*
X15903579Y29261421D01*
X15968463Y29304776D01*
X16045000Y29320000D01*
X16595000Y29320000D01*
X16671537Y29304776D01*
G37*
G36*
X18171537Y29304776D02*
G01*
X18236421Y29261421D01*
X18279776Y29196537D01*
X18295000Y29120000D01*
X18295000Y28720000D01*
X18279776Y28643463D01*
X18236421Y28578579D01*
X18171537Y28535224D01*
X18095000Y28520000D01*
X17545000Y28520000D01*
X17468463Y28535224D01*
X17403579Y28578579D01*
X17360224Y28643463D01*
X17345000Y28720000D01*
X17345000Y29120000D01*
X17360224Y29196537D01*
X17403579Y29261421D01*
X17468463Y29304776D01*
X17545000Y29320000D01*
X18095000Y29320000D01*
X18171537Y29304776D01*
G37*
G36*
X31720000Y28740000D02*
G01*
X31520000Y28740000D01*
X31520000Y29620000D01*
X31720000Y29620000D01*
X31720000Y28740000D01*
G37*
G36*
X32120000Y28740000D02*
G01*
X31920000Y28740000D01*
X31920000Y29620000D01*
X32120000Y29620000D01*
X32120000Y28740000D01*
G37*
G36*
X32520000Y28740000D02*
G01*
X32320000Y28740000D01*
X32320000Y29620000D01*
X32520000Y29620000D01*
X32520000Y28740000D01*
G37*
G36*
X32920000Y28740000D02*
G01*
X32720000Y28740000D01*
X32720000Y29620000D01*
X32920000Y29620000D01*
X32920000Y28740000D01*
G37*
G36*
X33320000Y28740000D02*
G01*
X33120000Y28740000D01*
X33120000Y29620000D01*
X33320000Y29620000D01*
X33320000Y28740000D01*
G37*
G36*
X33720000Y28740000D02*
G01*
X33520000Y28740000D01*
X33520000Y29620000D01*
X33720000Y29620000D01*
X33720000Y28740000D01*
G37*
G36*
X34120000Y28740000D02*
G01*
X33920000Y28740000D01*
X33920000Y29620000D01*
X34120000Y29620000D01*
X34120000Y28740000D01*
G37*
G36*
X34520000Y28740000D02*
G01*
X34320000Y28740000D01*
X34320000Y29620000D01*
X34520000Y29620000D01*
X34520000Y28740000D01*
G37*
G36*
X34920000Y28740000D02*
G01*
X34720000Y28740000D01*
X34720000Y29620000D01*
X34920000Y29620000D01*
X34920000Y28740000D01*
G37*
G36*
X35320000Y28740000D02*
G01*
X35120000Y28740000D01*
X35120000Y29620000D01*
X35320000Y29620000D01*
X35320000Y28740000D01*
G37*
G36*
X35720000Y28740000D02*
G01*
X35520000Y28740000D01*
X35520000Y29620000D01*
X35720000Y29620000D01*
X35720000Y28740000D01*
G37*
G36*
X36120000Y28740000D02*
G01*
X35920000Y28740000D01*
X35920000Y29620000D01*
X36120000Y29620000D01*
X36120000Y28740000D01*
G37*
G36*
X36520000Y28740000D02*
G01*
X36320000Y28740000D01*
X36320000Y29620000D01*
X36520000Y29620000D01*
X36520000Y28740000D01*
G37*
G36*
X36920000Y28740000D02*
G01*
X36720000Y28740000D01*
X36720000Y29620000D01*
X36920000Y29620000D01*
X36920000Y28740000D01*
G37*
G36*
X37320000Y28740000D02*
G01*
X37120000Y28740000D01*
X37120000Y29620000D01*
X37320000Y29620000D01*
X37320000Y28740000D01*
G37*
G36*
X27381104Y29857873D02*
G01*
X27454099Y29809099D01*
X27502873Y29736104D01*
X27520000Y29650000D01*
X27520000Y29150000D01*
X27502873Y29063896D01*
X27454099Y28990901D01*
X27381104Y28942127D01*
X27295000Y28925000D01*
X26845000Y28925000D01*
X26758896Y28942127D01*
X26685901Y28990901D01*
X26637127Y29063896D01*
X26620000Y29150000D01*
X26620000Y29650000D01*
X26637127Y29736104D01*
X26685901Y29809099D01*
X26758896Y29857873D01*
X26845000Y29875000D01*
X27295000Y29875000D01*
X27381104Y29857873D01*
G37*
G36*
X28941104Y29857873D02*
G01*
X29014099Y29809099D01*
X29062873Y29736104D01*
X29080000Y29650000D01*
X29080000Y29150000D01*
X29062873Y29063896D01*
X29014099Y28990901D01*
X28941104Y28942127D01*
X28855000Y28925000D01*
X28405000Y28925000D01*
X28318896Y28942127D01*
X28245901Y28990901D01*
X28197127Y29063896D01*
X28180000Y29150000D01*
X28180000Y29650000D01*
X28197127Y29736104D01*
X28245901Y29809099D01*
X28318896Y29857873D01*
X28405000Y29875000D01*
X28855000Y29875000D01*
X28941104Y29857873D01*
G37*
G36*
X40426537Y29959776D02*
G01*
X40491421Y29916421D01*
X40534776Y29851537D01*
X40550000Y29775000D01*
X40550000Y29225000D01*
X40534776Y29148463D01*
X40491421Y29083579D01*
X40426537Y29040224D01*
X40350000Y29025000D01*
X39950000Y29025000D01*
X39873463Y29040224D01*
X39808579Y29083579D01*
X39765224Y29148463D01*
X39750000Y29225000D01*
X39750000Y29775000D01*
X39765224Y29851537D01*
X39808579Y29916421D01*
X39873463Y29959776D01*
X39950000Y29975000D01*
X40350000Y29975000D01*
X40426537Y29959776D01*
G37*
G36*
X42066537Y29959776D02*
G01*
X42131421Y29916421D01*
X42174776Y29851537D01*
X42190000Y29775000D01*
X42190000Y29225000D01*
X42174776Y29148463D01*
X42131421Y29083579D01*
X42066537Y29040224D01*
X41990000Y29025000D01*
X41590000Y29025000D01*
X41513463Y29040224D01*
X41448579Y29083579D01*
X41405224Y29148463D01*
X41390000Y29225000D01*
X41390000Y29775000D01*
X41405224Y29851537D01*
X41448579Y29916421D01*
X41513463Y29959776D01*
X41590000Y29975000D01*
X41990000Y29975000D01*
X42066537Y29959776D01*
G37*
G36*
X31280000Y29850000D02*
G01*
X30400000Y29850000D01*
X30400000Y30050000D01*
X31280000Y30050000D01*
X31280000Y29850000D01*
G37*
G36*
X38440000Y29850000D02*
G01*
X37560000Y29850000D01*
X37560000Y30050000D01*
X38440000Y30050000D01*
X38440000Y29850000D01*
G37*
G36*
X31280000Y30250000D02*
G01*
X30400000Y30250000D01*
X30400000Y30450000D01*
X31280000Y30450000D01*
X31280000Y30250000D01*
G37*
G36*
X38440000Y30250000D02*
G01*
X37560000Y30250000D01*
X37560000Y30450000D01*
X38440000Y30450000D01*
X38440000Y30250000D01*
G37*
G36*
X13081104Y31307873D02*
G01*
X13154099Y31259099D01*
X13202873Y31186104D01*
X13220000Y31100000D01*
X13220000Y30600000D01*
X13202873Y30513896D01*
X13154099Y30440901D01*
X13081104Y30392127D01*
X12995000Y30375000D01*
X12545000Y30375000D01*
X12458896Y30392127D01*
X12385901Y30440901D01*
X12337127Y30513896D01*
X12320000Y30600000D01*
X12320000Y31100000D01*
X12337127Y31186104D01*
X12385901Y31259099D01*
X12458896Y31307873D01*
X12545000Y31325000D01*
X12995000Y31325000D01*
X13081104Y31307873D01*
G37*
G36*
X14641104Y31307873D02*
G01*
X14714099Y31259099D01*
X14762873Y31186104D01*
X14780000Y31100000D01*
X14780000Y30600000D01*
X14762873Y30513896D01*
X14714099Y30440901D01*
X14641104Y30392127D01*
X14555000Y30375000D01*
X14105000Y30375000D01*
X14018896Y30392127D01*
X13945901Y30440901D01*
X13897127Y30513896D01*
X13880000Y30600000D01*
X13880000Y31100000D01*
X13897127Y31186104D01*
X13945901Y31259099D01*
X14018896Y31307873D01*
X14105000Y31325000D01*
X14555000Y31325000D01*
X14641104Y31307873D01*
G37*
G36*
X16316000Y30414000D02*
G01*
X15784000Y30414000D01*
X15784000Y31486000D01*
X16316000Y31486000D01*
X16316000Y30414000D01*
G37*
G36*
X17266000Y30414000D02*
G01*
X16734000Y30414000D01*
X16734000Y31486000D01*
X17266000Y31486000D01*
X17266000Y30414000D01*
G37*
G36*
X18216000Y30414000D02*
G01*
X17684000Y30414000D01*
X17684000Y31486000D01*
X18216000Y31486000D01*
X18216000Y30414000D01*
G37*
G36*
X40501104Y31457873D02*
G01*
X40574099Y31409099D01*
X40622873Y31336104D01*
X40640000Y31250000D01*
X40640000Y30750000D01*
X40622873Y30663896D01*
X40574099Y30590901D01*
X40501104Y30542127D01*
X40415000Y30525000D01*
X39965000Y30525000D01*
X39878896Y30542127D01*
X39805901Y30590901D01*
X39757127Y30663896D01*
X39740000Y30750000D01*
X39740000Y31250000D01*
X39757127Y31336104D01*
X39805901Y31409099D01*
X39878896Y31457873D01*
X39965000Y31475000D01*
X40415000Y31475000D01*
X40501104Y31457873D01*
G37*
G36*
X42061104Y31457873D02*
G01*
X42134099Y31409099D01*
X42182873Y31336104D01*
X42200000Y31250000D01*
X42200000Y30750000D01*
X42182873Y30663896D01*
X42134099Y30590901D01*
X42061104Y30542127D01*
X41975000Y30525000D01*
X41525000Y30525000D01*
X41438896Y30542127D01*
X41365901Y30590901D01*
X41317127Y30663896D01*
X41300000Y30750000D01*
X41300000Y31250000D01*
X41317127Y31336104D01*
X41365901Y31409099D01*
X41438896Y31457873D01*
X41525000Y31475000D01*
X41975000Y31475000D01*
X42061104Y31457873D01*
G37*
G36*
X31280000Y30650000D02*
G01*
X30400000Y30650000D01*
X30400000Y30850000D01*
X31280000Y30850000D01*
X31280000Y30650000D01*
G37*
G36*
X38440000Y30650000D02*
G01*
X37560000Y30650000D01*
X37560000Y30850000D01*
X38440000Y30850000D01*
X38440000Y30650000D01*
G37*
G36*
X27331104Y31707873D02*
G01*
X27404099Y31659099D01*
X27452873Y31586104D01*
X27470000Y31500000D01*
X27470000Y31000000D01*
X27452873Y30913896D01*
X27404099Y30840901D01*
X27331104Y30792127D01*
X27245000Y30775000D01*
X26795000Y30775000D01*
X26708896Y30792127D01*
X26635901Y30840901D01*
X26587127Y30913896D01*
X26570000Y31000000D01*
X26570000Y31500000D01*
X26587127Y31586104D01*
X26635901Y31659099D01*
X26708896Y31707873D01*
X26795000Y31725000D01*
X27245000Y31725000D01*
X27331104Y31707873D01*
G37*
G36*
X28891104Y31707873D02*
G01*
X28964099Y31659099D01*
X29012873Y31586104D01*
X29030000Y31500000D01*
X29030000Y31000000D01*
X29012873Y30913896D01*
X28964099Y30840901D01*
X28891104Y30792127D01*
X28805000Y30775000D01*
X28355000Y30775000D01*
X28268896Y30792127D01*
X28195901Y30840901D01*
X28147127Y30913896D01*
X28130000Y31000000D01*
X28130000Y31500000D01*
X28147127Y31586104D01*
X28195901Y31659099D01*
X28268896Y31707873D01*
X28355000Y31725000D01*
X28805000Y31725000D01*
X28891104Y31707873D01*
G37*
G36*
X31280000Y31050000D02*
G01*
X30400000Y31050000D01*
X30400000Y31250000D01*
X31280000Y31250000D01*
X31280000Y31050000D01*
G37*
G36*
X36120000Y31050000D02*
G01*
X32720000Y31050000D01*
X32720000Y34450000D01*
X36120000Y34450000D01*
X36120000Y31050000D01*
G37*
G36*
X38440000Y31050000D02*
G01*
X37560000Y31050000D01*
X37560000Y31250000D01*
X38440000Y31250000D01*
X38440000Y31050000D01*
G37*
G36*
X31280000Y31450000D02*
G01*
X30400000Y31450000D01*
X30400000Y31650000D01*
X31280000Y31650000D01*
X31280000Y31450000D01*
G37*
G36*
X38440000Y31450000D02*
G01*
X37560000Y31450000D01*
X37560000Y31650000D01*
X38440000Y31650000D01*
X38440000Y31450000D01*
G37*
G36*
X24306537Y32389776D02*
G01*
X24371421Y32346421D01*
X24414776Y32281537D01*
X24430000Y32205000D01*
X24430000Y31655000D01*
X24414776Y31578463D01*
X24371421Y31513579D01*
X24306537Y31470224D01*
X24230000Y31455000D01*
X23830000Y31455000D01*
X23753463Y31470224D01*
X23688579Y31513579D01*
X23645224Y31578463D01*
X23630000Y31655000D01*
X23630000Y32205000D01*
X23645224Y32281537D01*
X23688579Y32346421D01*
X23753463Y32389776D01*
X23830000Y32405000D01*
X24230000Y32405000D01*
X24306537Y32389776D01*
G37*
G36*
X25946537Y32389776D02*
G01*
X26011421Y32346421D01*
X26054776Y32281537D01*
X26070000Y32205000D01*
X26070000Y31655000D01*
X26054776Y31578463D01*
X26011421Y31513579D01*
X25946537Y31470224D01*
X25870000Y31455000D01*
X25470000Y31455000D01*
X25393463Y31470224D01*
X25328579Y31513579D01*
X25285224Y31578463D01*
X25270000Y31655000D01*
X25270000Y32205000D01*
X25285224Y32281537D01*
X25328579Y32346421D01*
X25393463Y32389776D01*
X25470000Y32405000D01*
X25870000Y32405000D01*
X25946537Y32389776D01*
G37*
G36*
X31280000Y31850000D02*
G01*
X30400000Y31850000D01*
X30400000Y32050000D01*
X31280000Y32050000D01*
X31280000Y31850000D01*
G37*
G36*
X38440000Y31850000D02*
G01*
X37560000Y31850000D01*
X37560000Y32050000D01*
X38440000Y32050000D01*
X38440000Y31850000D01*
G37*
G36*
X12604047Y33324195D02*
G01*
X12655408Y33318236D01*
X12672954Y33310489D01*
X12695671Y33305970D01*
X12719991Y33289720D01*
X12740793Y33280535D01*
X12755000Y33266328D01*
X12776777Y33251777D01*
X12791327Y33230001D01*
X12805534Y33215794D01*
X12814718Y33194994D01*
X12830970Y33170671D01*
X12835489Y33147952D01*
X12843235Y33130409D01*
X12849192Y33079060D01*
X12850000Y33075000D01*
X12850000Y32125000D01*
X12849192Y32120941D01*
X12843235Y32069592D01*
X12835489Y32052050D01*
X12830970Y32029329D01*
X12814716Y32005005D01*
X12805534Y31984207D01*
X12791329Y31970003D01*
X12776777Y31948223D01*
X12754997Y31933671D01*
X12740793Y31919466D01*
X12719995Y31910284D01*
X12695671Y31894030D01*
X12672950Y31889511D01*
X12655408Y31881765D01*
X12604061Y31875808D01*
X12600000Y31875000D01*
X12100000Y31875000D01*
X12095941Y31875808D01*
X12044591Y31881765D01*
X12027048Y31889511D01*
X12004329Y31894030D01*
X11980006Y31910282D01*
X11959206Y31919466D01*
X11944999Y31933673D01*
X11923223Y31948223D01*
X11908672Y31970000D01*
X11894465Y31984207D01*
X11885280Y32005009D01*
X11869030Y32029329D01*
X11864511Y32052046D01*
X11856764Y32069592D01*
X11850805Y32120951D01*
X11850000Y32125000D01*
X11850000Y33075000D01*
X11850804Y33079047D01*
X11856764Y33130409D01*
X11864511Y33147957D01*
X11869030Y33170671D01*
X11885278Y33194990D01*
X11894465Y33215794D01*
X11908674Y33230004D01*
X11923223Y33251777D01*
X11944996Y33266326D01*
X11959206Y33280535D01*
X11980010Y33289722D01*
X12004329Y33305970D01*
X12027043Y33310489D01*
X12044591Y33318236D01*
X12095952Y33324195D01*
X12100000Y33325000D01*
X12600000Y33325000D01*
X12604047Y33324195D01*
G37*
G36*
X14504047Y33324195D02*
G01*
X14555408Y33318236D01*
X14572954Y33310489D01*
X14595671Y33305970D01*
X14619991Y33289720D01*
X14640793Y33280535D01*
X14655000Y33266328D01*
X14676777Y33251777D01*
X14691327Y33230001D01*
X14705534Y33215794D01*
X14714718Y33194994D01*
X14730970Y33170671D01*
X14735489Y33147952D01*
X14743235Y33130409D01*
X14749192Y33079060D01*
X14750000Y33075000D01*
X14750000Y32125000D01*
X14749192Y32120941D01*
X14743235Y32069592D01*
X14735489Y32052050D01*
X14730970Y32029329D01*
X14714716Y32005005D01*
X14705534Y31984207D01*
X14691329Y31970003D01*
X14676777Y31948223D01*
X14654997Y31933671D01*
X14640793Y31919466D01*
X14619995Y31910284D01*
X14595671Y31894030D01*
X14572950Y31889511D01*
X14555408Y31881765D01*
X14504061Y31875808D01*
X14500000Y31875000D01*
X14000000Y31875000D01*
X13995941Y31875808D01*
X13944591Y31881765D01*
X13927048Y31889511D01*
X13904329Y31894030D01*
X13880006Y31910282D01*
X13859206Y31919466D01*
X13844999Y31933673D01*
X13823223Y31948223D01*
X13808672Y31970000D01*
X13794465Y31984207D01*
X13785280Y32005009D01*
X13769030Y32029329D01*
X13764511Y32052046D01*
X13756764Y32069592D01*
X13750805Y32120951D01*
X13750000Y32125000D01*
X13750000Y33075000D01*
X13750804Y33079047D01*
X13756764Y33130409D01*
X13764511Y33147957D01*
X13769030Y33170671D01*
X13785278Y33194990D01*
X13794465Y33215794D01*
X13808674Y33230004D01*
X13823223Y33251777D01*
X13844996Y33266326D01*
X13859206Y33280535D01*
X13880010Y33289722D01*
X13904329Y33305970D01*
X13927043Y33310489D01*
X13944591Y33318236D01*
X13995952Y33324195D01*
X14000000Y33325000D01*
X14500000Y33325000D01*
X14504047Y33324195D01*
G37*
G36*
X40501104Y32957873D02*
G01*
X40574099Y32909099D01*
X40622873Y32836104D01*
X40640000Y32750000D01*
X40640000Y32250000D01*
X40622873Y32163896D01*
X40574099Y32090901D01*
X40501104Y32042127D01*
X40415000Y32025000D01*
X39965000Y32025000D01*
X39878896Y32042127D01*
X39805901Y32090901D01*
X39757127Y32163896D01*
X39740000Y32250000D01*
X39740000Y32750000D01*
X39757127Y32836104D01*
X39805901Y32909099D01*
X39878896Y32957873D01*
X39965000Y32975000D01*
X40415000Y32975000D01*
X40501104Y32957873D01*
G37*
G36*
X42061104Y32957873D02*
G01*
X42134099Y32909099D01*
X42182873Y32836104D01*
X42200000Y32750000D01*
X42200000Y32250000D01*
X42182873Y32163896D01*
X42134099Y32090901D01*
X42061104Y32042127D01*
X41975000Y32025000D01*
X41525000Y32025000D01*
X41438896Y32042127D01*
X41365901Y32090901D01*
X41317127Y32163896D01*
X41300000Y32250000D01*
X41300000Y32750000D01*
X41317127Y32836104D01*
X41365901Y32909099D01*
X41438896Y32957873D01*
X41525000Y32975000D01*
X41975000Y32975000D01*
X42061104Y32957873D01*
G37*
G36*
X31280000Y32250000D02*
G01*
X30400000Y32250000D01*
X30400000Y32450000D01*
X31280000Y32450000D01*
X31280000Y32250000D01*
G37*
G36*
X38440000Y32250000D02*
G01*
X37560000Y32250000D01*
X37560000Y32450000D01*
X38440000Y32450000D01*
X38440000Y32250000D01*
G37*
G36*
X31280000Y32650000D02*
G01*
X30400000Y32650000D01*
X30400000Y32850000D01*
X31280000Y32850000D01*
X31280000Y32650000D01*
G37*
G36*
X38440000Y32650000D02*
G01*
X37560000Y32650000D01*
X37560000Y32850000D01*
X38440000Y32850000D01*
X38440000Y32650000D01*
G37*
G36*
X16316000Y32714000D02*
G01*
X15784000Y32714000D01*
X15784000Y33786000D01*
X16316000Y33786000D01*
X16316000Y32714000D01*
G37*
G36*
X17266000Y32714000D02*
G01*
X16734000Y32714000D01*
X16734000Y33786000D01*
X17266000Y33786000D01*
X17266000Y32714000D01*
G37*
G36*
X18216000Y32714000D02*
G01*
X17684000Y32714000D01*
X17684000Y33786000D01*
X18216000Y33786000D01*
X18216000Y32714000D01*
G37*
G36*
X31280000Y33050000D02*
G01*
X30400000Y33050000D01*
X30400000Y33250000D01*
X31280000Y33250000D01*
X31280000Y33050000D01*
G37*
G36*
X38440000Y33050000D02*
G01*
X37560000Y33050000D01*
X37560000Y33250000D01*
X38440000Y33250000D01*
X38440000Y33050000D01*
G37*
G36*
X31280000Y33450000D02*
G01*
X30400000Y33450000D01*
X30400000Y33650000D01*
X31280000Y33650000D01*
X31280000Y33450000D01*
G37*
G36*
X38440000Y33450000D02*
G01*
X37560000Y33450000D01*
X37560000Y33650000D01*
X38440000Y33650000D01*
X38440000Y33450000D01*
G37*
G36*
X40501104Y34457873D02*
G01*
X40574099Y34409099D01*
X40622873Y34336104D01*
X40640000Y34250000D01*
X40640000Y33750000D01*
X40622873Y33663896D01*
X40574099Y33590901D01*
X40501104Y33542127D01*
X40415000Y33525000D01*
X39965000Y33525000D01*
X39878896Y33542127D01*
X39805901Y33590901D01*
X39757127Y33663896D01*
X39740000Y33750000D01*
X39740000Y34250000D01*
X39757127Y34336104D01*
X39805901Y34409099D01*
X39878896Y34457873D01*
X39965000Y34475000D01*
X40415000Y34475000D01*
X40501104Y34457873D01*
G37*
G36*
X42061104Y34457873D02*
G01*
X42134099Y34409099D01*
X42182873Y34336104D01*
X42200000Y34250000D01*
X42200000Y33750000D01*
X42182873Y33663896D01*
X42134099Y33590901D01*
X42061104Y33542127D01*
X41975000Y33525000D01*
X41525000Y33525000D01*
X41438896Y33542127D01*
X41365901Y33590901D01*
X41317127Y33663896D01*
X41300000Y33750000D01*
X41300000Y34250000D01*
X41317127Y34336104D01*
X41365901Y34409099D01*
X41438896Y34457873D01*
X41525000Y34475000D01*
X41975000Y34475000D01*
X42061104Y34457873D01*
G37*
G36*
X31280000Y33850000D02*
G01*
X30400000Y33850000D01*
X30400000Y34050000D01*
X31280000Y34050000D01*
X31280000Y33850000D01*
G37*
G36*
X38440000Y33850000D02*
G01*
X37560000Y33850000D01*
X37560000Y34050000D01*
X38440000Y34050000D01*
X38440000Y33850000D01*
G37*
G36*
X13006537Y34809776D02*
G01*
X13071421Y34766421D01*
X13114776Y34701537D01*
X13130000Y34625000D01*
X13130000Y34075000D01*
X13114776Y33998463D01*
X13071421Y33933579D01*
X13006537Y33890224D01*
X12930000Y33875000D01*
X12530000Y33875000D01*
X12453463Y33890224D01*
X12388579Y33933579D01*
X12345224Y33998463D01*
X12330000Y34075000D01*
X12330000Y34625000D01*
X12345224Y34701537D01*
X12388579Y34766421D01*
X12453463Y34809776D01*
X12530000Y34825000D01*
X12930000Y34825000D01*
X13006537Y34809776D01*
G37*
G36*
X14646537Y34809776D02*
G01*
X14711421Y34766421D01*
X14754776Y34701537D01*
X14770000Y34625000D01*
X14770000Y34075000D01*
X14754776Y33998463D01*
X14711421Y33933579D01*
X14646537Y33890224D01*
X14570000Y33875000D01*
X14170000Y33875000D01*
X14093463Y33890224D01*
X14028579Y33933579D01*
X13985224Y33998463D01*
X13970000Y34075000D01*
X13970000Y34625000D01*
X13985224Y34701537D01*
X14028579Y34766421D01*
X14093463Y34809776D01*
X14170000Y34825000D01*
X14570000Y34825000D01*
X14646537Y34809776D01*
G37*
G36*
X24306537Y34889776D02*
G01*
X24371421Y34846421D01*
X24414776Y34781537D01*
X24430000Y34705000D01*
X24430000Y34155000D01*
X24414776Y34078463D01*
X24371421Y34013579D01*
X24306537Y33970224D01*
X24230000Y33955000D01*
X23830000Y33955000D01*
X23753463Y33970224D01*
X23688579Y34013579D01*
X23645224Y34078463D01*
X23630000Y34155000D01*
X23630000Y34705000D01*
X23645224Y34781537D01*
X23688579Y34846421D01*
X23753463Y34889776D01*
X23830000Y34905000D01*
X24230000Y34905000D01*
X24306537Y34889776D01*
G37*
G36*
X25946537Y34889776D02*
G01*
X26011421Y34846421D01*
X26054776Y34781537D01*
X26070000Y34705000D01*
X26070000Y34155000D01*
X26054776Y34078463D01*
X26011421Y34013579D01*
X25946537Y33970224D01*
X25870000Y33955000D01*
X25470000Y33955000D01*
X25393463Y33970224D01*
X25328579Y34013579D01*
X25285224Y34078463D01*
X25270000Y34155000D01*
X25270000Y34705000D01*
X25285224Y34781537D01*
X25328579Y34846421D01*
X25393463Y34889776D01*
X25470000Y34905000D01*
X25870000Y34905000D01*
X25946537Y34889776D01*
G37*
G36*
X27381104Y34887873D02*
G01*
X27454099Y34839099D01*
X27502873Y34766104D01*
X27520000Y34680000D01*
X27520000Y34180000D01*
X27502873Y34093896D01*
X27454099Y34020901D01*
X27381104Y33972127D01*
X27295000Y33955000D01*
X26845000Y33955000D01*
X26758896Y33972127D01*
X26685901Y34020901D01*
X26637127Y34093896D01*
X26620000Y34180000D01*
X26620000Y34680000D01*
X26637127Y34766104D01*
X26685901Y34839099D01*
X26758896Y34887873D01*
X26845000Y34905000D01*
X27295000Y34905000D01*
X27381104Y34887873D01*
G37*
G36*
X28941104Y34887873D02*
G01*
X29014099Y34839099D01*
X29062873Y34766104D01*
X29080000Y34680000D01*
X29080000Y34180000D01*
X29062873Y34093896D01*
X29014099Y34020901D01*
X28941104Y33972127D01*
X28855000Y33955000D01*
X28405000Y33955000D01*
X28318896Y33972127D01*
X28245901Y34020901D01*
X28197127Y34093896D01*
X28180000Y34180000D01*
X28180000Y34680000D01*
X28197127Y34766104D01*
X28245901Y34839099D01*
X28318896Y34887873D01*
X28405000Y34905000D01*
X28855000Y34905000D01*
X28941104Y34887873D01*
G37*
G36*
X31280000Y34250000D02*
G01*
X30400000Y34250000D01*
X30400000Y34450000D01*
X31280000Y34450000D01*
X31280000Y34250000D01*
G37*
G36*
X38440000Y34250000D02*
G01*
X37560000Y34250000D01*
X37560000Y34450000D01*
X38440000Y34450000D01*
X38440000Y34250000D01*
G37*
G36*
X31280000Y34650000D02*
G01*
X30400000Y34650000D01*
X30400000Y34850000D01*
X31280000Y34850000D01*
X31280000Y34650000D01*
G37*
G36*
X38440000Y34650000D02*
G01*
X37560000Y34650000D01*
X37560000Y34850000D01*
X38440000Y34850000D01*
X38440000Y34650000D01*
G37*
G36*
X40501104Y35957873D02*
G01*
X40574099Y35909099D01*
X40622873Y35836104D01*
X40640000Y35750000D01*
X40640000Y35250000D01*
X40622873Y35163896D01*
X40574099Y35090901D01*
X40501104Y35042127D01*
X40415000Y35025000D01*
X39965000Y35025000D01*
X39878896Y35042127D01*
X39805901Y35090901D01*
X39757127Y35163896D01*
X39740000Y35250000D01*
X39740000Y35750000D01*
X39757127Y35836104D01*
X39805901Y35909099D01*
X39878896Y35957873D01*
X39965000Y35975000D01*
X40415000Y35975000D01*
X40501104Y35957873D01*
G37*
G36*
X42061104Y35957873D02*
G01*
X42134099Y35909099D01*
X42182873Y35836104D01*
X42200000Y35750000D01*
X42200000Y35250000D01*
X42182873Y35163896D01*
X42134099Y35090901D01*
X42061104Y35042127D01*
X41975000Y35025000D01*
X41525000Y35025000D01*
X41438896Y35042127D01*
X41365901Y35090901D01*
X41317127Y35163896D01*
X41300000Y35250000D01*
X41300000Y35750000D01*
X41317127Y35836104D01*
X41365901Y35909099D01*
X41438896Y35957873D01*
X41525000Y35975000D01*
X41975000Y35975000D01*
X42061104Y35957873D01*
G37*
G36*
X31280000Y35050000D02*
G01*
X30400000Y35050000D01*
X30400000Y35250000D01*
X31280000Y35250000D01*
X31280000Y35050000D01*
G37*
G36*
X38440000Y35050000D02*
G01*
X37560000Y35050000D01*
X37560000Y35250000D01*
X38440000Y35250000D01*
X38440000Y35050000D01*
G37*
G36*
X31280000Y35450000D02*
G01*
X30400000Y35450000D01*
X30400000Y35650000D01*
X31280000Y35650000D01*
X31280000Y35450000D01*
G37*
G36*
X38440000Y35450000D02*
G01*
X37560000Y35450000D01*
X37560000Y35650000D01*
X38440000Y35650000D01*
X38440000Y35450000D01*
G37*
G36*
X25806537Y36389776D02*
G01*
X25871421Y36346421D01*
X25914776Y36281537D01*
X25930000Y36205000D01*
X25930000Y35655000D01*
X25914776Y35578463D01*
X25871421Y35513579D01*
X25806537Y35470224D01*
X25730000Y35455000D01*
X25330000Y35455000D01*
X25253463Y35470224D01*
X25188579Y35513579D01*
X25145224Y35578463D01*
X25130000Y35655000D01*
X25130000Y36205000D01*
X25145224Y36281537D01*
X25188579Y36346421D01*
X25253463Y36389776D01*
X25330000Y36405000D01*
X25730000Y36405000D01*
X25806537Y36389776D01*
G37*
G36*
X27446537Y36389776D02*
G01*
X27511421Y36346421D01*
X27554776Y36281537D01*
X27570000Y36205000D01*
X27570000Y35655000D01*
X27554776Y35578463D01*
X27511421Y35513579D01*
X27446537Y35470224D01*
X27370000Y35455000D01*
X26970000Y35455000D01*
X26893463Y35470224D01*
X26828579Y35513579D01*
X26785224Y35578463D01*
X26770000Y35655000D01*
X26770000Y36205000D01*
X26785224Y36281537D01*
X26828579Y36346421D01*
X26893463Y36389776D01*
X26970000Y36405000D01*
X27370000Y36405000D01*
X27446537Y36389776D01*
G37*
G36*
X31720000Y35880000D02*
G01*
X31520000Y35880000D01*
X31520000Y36760000D01*
X31720000Y36760000D01*
X31720000Y35880000D01*
G37*
G36*
X32120000Y35880000D02*
G01*
X31920000Y35880000D01*
X31920000Y36760000D01*
X32120000Y36760000D01*
X32120000Y35880000D01*
G37*
G36*
X32520000Y35880000D02*
G01*
X32320000Y35880000D01*
X32320000Y36760000D01*
X32520000Y36760000D01*
X32520000Y35880000D01*
G37*
G36*
X32920000Y35880000D02*
G01*
X32720000Y35880000D01*
X32720000Y36760000D01*
X32920000Y36760000D01*
X32920000Y35880000D01*
G37*
G36*
X33320000Y35880000D02*
G01*
X33120000Y35880000D01*
X33120000Y36760000D01*
X33320000Y36760000D01*
X33320000Y35880000D01*
G37*
G36*
X33720000Y35880000D02*
G01*
X33520000Y35880000D01*
X33520000Y36760000D01*
X33720000Y36760000D01*
X33720000Y35880000D01*
G37*
G36*
X34120000Y35880000D02*
G01*
X33920000Y35880000D01*
X33920000Y36760000D01*
X34120000Y36760000D01*
X34120000Y35880000D01*
G37*
G36*
X34520000Y35880000D02*
G01*
X34320000Y35880000D01*
X34320000Y36760000D01*
X34520000Y36760000D01*
X34520000Y35880000D01*
G37*
G36*
X34920000Y35880000D02*
G01*
X34720000Y35880000D01*
X34720000Y36760000D01*
X34920000Y36760000D01*
X34920000Y35880000D01*
G37*
G36*
X35320000Y35880000D02*
G01*
X35120000Y35880000D01*
X35120000Y36760000D01*
X35320000Y36760000D01*
X35320000Y35880000D01*
G37*
G36*
X35720000Y35880000D02*
G01*
X35520000Y35880000D01*
X35520000Y36760000D01*
X35720000Y36760000D01*
X35720000Y35880000D01*
G37*
G36*
X36120000Y35880000D02*
G01*
X35920000Y35880000D01*
X35920000Y36760000D01*
X36120000Y36760000D01*
X36120000Y35880000D01*
G37*
G36*
X36520000Y35880000D02*
G01*
X36320000Y35880000D01*
X36320000Y36760000D01*
X36520000Y36760000D01*
X36520000Y35880000D01*
G37*
G36*
X36920000Y35880000D02*
G01*
X36720000Y35880000D01*
X36720000Y36760000D01*
X36920000Y36760000D01*
X36920000Y35880000D01*
G37*
G36*
X37320000Y35880000D02*
G01*
X37120000Y35880000D01*
X37120000Y36760000D01*
X37320000Y36760000D01*
X37320000Y35880000D01*
G37*
G36*
X40531104Y37457873D02*
G01*
X40604099Y37409099D01*
X40652873Y37336104D01*
X40670000Y37250000D01*
X40670000Y36750000D01*
X40652873Y36663896D01*
X40604099Y36590901D01*
X40531104Y36542127D01*
X40445000Y36525000D01*
X39995000Y36525000D01*
X39908896Y36542127D01*
X39835901Y36590901D01*
X39787127Y36663896D01*
X39770000Y36750000D01*
X39770000Y37250000D01*
X39787127Y37336104D01*
X39835901Y37409099D01*
X39908896Y37457873D01*
X39995000Y37475000D01*
X40445000Y37475000D01*
X40531104Y37457873D01*
G37*
G36*
X42091104Y37457873D02*
G01*
X42164099Y37409099D01*
X42212873Y37336104D01*
X42230000Y37250000D01*
X42230000Y36750000D01*
X42212873Y36663896D01*
X42164099Y36590901D01*
X42091104Y36542127D01*
X42005000Y36525000D01*
X41555000Y36525000D01*
X41468896Y36542127D01*
X41395901Y36590901D01*
X41347127Y36663896D01*
X41330000Y36750000D01*
X41330000Y37250000D01*
X41347127Y37336104D01*
X41395901Y37409099D01*
X41468896Y37457873D01*
X41555000Y37475000D01*
X42005000Y37475000D01*
X42091104Y37457873D01*
G37*
G36*
X10803479Y39264081D02*
G01*
X10997488Y39201043D01*
X11179248Y39108432D01*
X11344282Y38988528D01*
X11488528Y38844282D01*
X11608432Y38679248D01*
X11701043Y38497488D01*
X11764081Y38303479D01*
X11795993Y38101997D01*
X11795993Y37898003D01*
X11764081Y37696521D01*
X11701043Y37502512D01*
X11608432Y37320752D01*
X11488528Y37155718D01*
X11344282Y37011472D01*
X11179248Y36891568D01*
X10997488Y36798957D01*
X10803479Y36735919D01*
X10601997Y36704007D01*
X10398003Y36704007D01*
X10196521Y36735919D01*
X10002512Y36798957D01*
X9820752Y36891568D01*
X9655718Y37011472D01*
X9511472Y37155718D01*
X9391568Y37320752D01*
X9298957Y37502512D01*
X9235919Y37696521D01*
X9204007Y37898003D01*
X9204007Y38101997D01*
X9235919Y38303479D01*
X9298957Y38497488D01*
X9391568Y38679248D01*
X9511472Y38844282D01*
X9655718Y38988528D01*
X9820752Y39108432D01*
X10002512Y39201043D01*
X10196521Y39264081D01*
X10398003Y39295993D01*
X10601997Y39295993D01*
X10803479Y39264081D01*
G37*
G36*
X25806537Y37889776D02*
G01*
X25871421Y37846421D01*
X25914776Y37781537D01*
X25930000Y37705000D01*
X25930000Y37155000D01*
X25914776Y37078463D01*
X25871421Y37013579D01*
X25806537Y36970224D01*
X25730000Y36955000D01*
X25330000Y36955000D01*
X25253463Y36970224D01*
X25188579Y37013579D01*
X25145224Y37078463D01*
X25130000Y37155000D01*
X25130000Y37705000D01*
X25145224Y37781537D01*
X25188579Y37846421D01*
X25253463Y37889776D01*
X25330000Y37905000D01*
X25730000Y37905000D01*
X25806537Y37889776D01*
G37*
G36*
X27446537Y37889776D02*
G01*
X27511421Y37846421D01*
X27554776Y37781537D01*
X27570000Y37705000D01*
X27570000Y37155000D01*
X27554776Y37078463D01*
X27511421Y37013579D01*
X27446537Y36970224D01*
X27370000Y36955000D01*
X26970000Y36955000D01*
X26893463Y36970224D01*
X26828579Y37013579D01*
X26785224Y37078463D01*
X26770000Y37155000D01*
X26770000Y37705000D01*
X26785224Y37781537D01*
X26828579Y37846421D01*
X26893463Y37889776D01*
X26970000Y37905000D01*
X27370000Y37905000D01*
X27446537Y37889776D01*
G37*
G36*
X31136104Y38752873D02*
G01*
X31209099Y38704099D01*
X31257873Y38631104D01*
X31275000Y38545000D01*
X31275000Y38095000D01*
X31257873Y38008896D01*
X31209099Y37935901D01*
X31136104Y37887127D01*
X31050000Y37870000D01*
X30550000Y37870000D01*
X30463896Y37887127D01*
X30390901Y37935901D01*
X30342127Y38008896D01*
X30325000Y38095000D01*
X30325000Y38545000D01*
X30342127Y38631104D01*
X30390901Y38704099D01*
X30463896Y38752873D01*
X30550000Y38770000D01*
X31050000Y38770000D01*
X31136104Y38752873D01*
G37*
G36*
X32936104Y38752873D02*
G01*
X33009099Y38704099D01*
X33057873Y38631104D01*
X33075000Y38545000D01*
X33075000Y38095000D01*
X33057873Y38008896D01*
X33009099Y37935901D01*
X32936104Y37887127D01*
X32850000Y37870000D01*
X32350000Y37870000D01*
X32263896Y37887127D01*
X32190901Y37935901D01*
X32142127Y38008896D01*
X32125000Y38095000D01*
X32125000Y38545000D01*
X32142127Y38631104D01*
X32190901Y38704099D01*
X32263896Y38752873D01*
X32350000Y38770000D01*
X32850000Y38770000D01*
X32936104Y38752873D01*
G37*
G36*
X35056537Y38859776D02*
G01*
X35121421Y38816421D01*
X35164776Y38751537D01*
X35180000Y38675000D01*
X35180000Y38125000D01*
X35164776Y38048463D01*
X35121421Y37983579D01*
X35056537Y37940224D01*
X34980000Y37925000D01*
X34580000Y37925000D01*
X34503463Y37940224D01*
X34438579Y37983579D01*
X34395224Y38048463D01*
X34380000Y38125000D01*
X34380000Y38675000D01*
X34395224Y38751537D01*
X34438579Y38816421D01*
X34503463Y38859776D01*
X34580000Y38875000D01*
X34980000Y38875000D01*
X35056537Y38859776D01*
G37*
G36*
X36696537Y38859776D02*
G01*
X36761421Y38816421D01*
X36804776Y38751537D01*
X36820000Y38675000D01*
X36820000Y38125000D01*
X36804776Y38048463D01*
X36761421Y37983579D01*
X36696537Y37940224D01*
X36620000Y37925000D01*
X36220000Y37925000D01*
X36143463Y37940224D01*
X36078579Y37983579D01*
X36035224Y38048463D01*
X36020000Y38125000D01*
X36020000Y38675000D01*
X36035224Y38751537D01*
X36078579Y38816421D01*
X36143463Y38859776D01*
X36220000Y38875000D01*
X36620000Y38875000D01*
X36696537Y38859776D01*
G37*
G36*
X40531104Y38957873D02*
G01*
X40604099Y38909099D01*
X40652873Y38836104D01*
X40670000Y38750000D01*
X40670000Y38250000D01*
X40652873Y38163896D01*
X40604099Y38090901D01*
X40531104Y38042127D01*
X40445000Y38025000D01*
X39995000Y38025000D01*
X39908896Y38042127D01*
X39835901Y38090901D01*
X39787127Y38163896D01*
X39770000Y38250000D01*
X39770000Y38750000D01*
X39787127Y38836104D01*
X39835901Y38909099D01*
X39908896Y38957873D01*
X39995000Y38975000D01*
X40445000Y38975000D01*
X40531104Y38957873D01*
G37*
G36*
X42091104Y38957873D02*
G01*
X42164099Y38909099D01*
X42212873Y38836104D01*
X42230000Y38750000D01*
X42230000Y38250000D01*
X42212873Y38163896D01*
X42164099Y38090901D01*
X42091104Y38042127D01*
X42005000Y38025000D01*
X41555000Y38025000D01*
X41468896Y38042127D01*
X41395901Y38090901D01*
X41347127Y38163896D01*
X41330000Y38250000D01*
X41330000Y38750000D01*
X41347127Y38836104D01*
X41395901Y38909099D01*
X41468896Y38957873D01*
X41555000Y38975000D01*
X42005000Y38975000D01*
X42091104Y38957873D01*
G37*
G36*
X25806537Y39389776D02*
G01*
X25871421Y39346421D01*
X25914776Y39281537D01*
X25930000Y39205000D01*
X25930000Y38655000D01*
X25914776Y38578463D01*
X25871421Y38513579D01*
X25806537Y38470224D01*
X25730000Y38455000D01*
X25330000Y38455000D01*
X25253463Y38470224D01*
X25188579Y38513579D01*
X25145224Y38578463D01*
X25130000Y38655000D01*
X25130000Y39205000D01*
X25145224Y39281537D01*
X25188579Y39346421D01*
X25253463Y39389776D01*
X25330000Y39405000D01*
X25730000Y39405000D01*
X25806537Y39389776D01*
G37*
G36*
X27446537Y39389776D02*
G01*
X27511421Y39346421D01*
X27554776Y39281537D01*
X27570000Y39205000D01*
X27570000Y38655000D01*
X27554776Y38578463D01*
X27511421Y38513579D01*
X27446537Y38470224D01*
X27370000Y38455000D01*
X26970000Y38455000D01*
X26893463Y38470224D01*
X26828579Y38513579D01*
X26785224Y38578463D01*
X26770000Y38655000D01*
X26770000Y39205000D01*
X26785224Y39281537D01*
X26828579Y39346421D01*
X26893463Y39389776D01*
X26970000Y39405000D01*
X27370000Y39405000D01*
X27446537Y39389776D01*
G37*
G36*
X31136104Y40312873D02*
G01*
X31209099Y40264099D01*
X31257873Y40191104D01*
X31275000Y40105000D01*
X31275000Y39655000D01*
X31257873Y39568896D01*
X31209099Y39495901D01*
X31136104Y39447127D01*
X31050000Y39430000D01*
X30550000Y39430000D01*
X30463896Y39447127D01*
X30390901Y39495901D01*
X30342127Y39568896D01*
X30325000Y39655000D01*
X30325000Y40105000D01*
X30342127Y40191104D01*
X30390901Y40264099D01*
X30463896Y40312873D01*
X30550000Y40330000D01*
X31050000Y40330000D01*
X31136104Y40312873D01*
G37*
G36*
X32936104Y40312873D02*
G01*
X33009099Y40264099D01*
X33057873Y40191104D01*
X33075000Y40105000D01*
X33075000Y39655000D01*
X33057873Y39568896D01*
X33009099Y39495901D01*
X32936104Y39447127D01*
X32850000Y39430000D01*
X32350000Y39430000D01*
X32263896Y39447127D01*
X32190901Y39495901D01*
X32142127Y39568896D01*
X32125000Y39655000D01*
X32125000Y40105000D01*
X32142127Y40191104D01*
X32190901Y40264099D01*
X32263896Y40312873D01*
X32350000Y40330000D01*
X32850000Y40330000D01*
X32936104Y40312873D01*
G37*
G36*
X35600000Y39630000D02*
G01*
X34400000Y39630000D01*
X34400000Y41030000D01*
X35600000Y41030000D01*
X35600000Y39630000D01*
G37*
G36*
X37300000Y39630000D02*
G01*
X36100000Y39630000D01*
X36100000Y41030000D01*
X37300000Y41030000D01*
X37300000Y39630000D01*
G37*
G36*
X25734047Y40937195D02*
G01*
X25782661Y40931555D01*
X25799271Y40924221D01*
X25821079Y40919883D01*
X25844425Y40904284D01*
X25864012Y40895635D01*
X25877390Y40882257D01*
X25898291Y40868291D01*
X25912256Y40847391D01*
X25925634Y40834013D01*
X25934281Y40814428D01*
X25949883Y40791079D01*
X25954221Y40769269D01*
X25961554Y40752662D01*
X25967192Y40704058D01*
X25968000Y40700000D01*
X25968000Y40150000D01*
X25967192Y40145941D01*
X25961554Y40097339D01*
X25954221Y40080734D01*
X25949883Y40058921D01*
X25934280Y40035571D01*
X25925634Y40015988D01*
X25912258Y40002613D01*
X25898291Y39981709D01*
X25877387Y39967742D01*
X25864012Y39954366D01*
X25844429Y39945720D01*
X25821079Y39930117D01*
X25799266Y39925779D01*
X25782661Y39918446D01*
X25734059Y39912808D01*
X25730000Y39912000D01*
X25330000Y39912000D01*
X25325942Y39912808D01*
X25277338Y39918446D01*
X25260731Y39925779D01*
X25238921Y39930117D01*
X25215572Y39945719D01*
X25195987Y39954366D01*
X25182609Y39967744D01*
X25161709Y39981709D01*
X25147743Y40002610D01*
X25134365Y40015988D01*
X25125716Y40035575D01*
X25110117Y40058921D01*
X25105779Y40080729D01*
X25098445Y40097339D01*
X25092805Y40145953D01*
X25092000Y40150000D01*
X25092000Y40700000D01*
X25092804Y40704046D01*
X25098445Y40752662D01*
X25105779Y40769273D01*
X25110117Y40791079D01*
X25125715Y40814424D01*
X25134365Y40834013D01*
X25147745Y40847394D01*
X25161709Y40868291D01*
X25182606Y40882255D01*
X25195987Y40895635D01*
X25215576Y40904285D01*
X25238921Y40919883D01*
X25260727Y40924221D01*
X25277338Y40931555D01*
X25325954Y40937196D01*
X25330000Y40938000D01*
X25730000Y40938000D01*
X25734047Y40937195D01*
G37*
G36*
X27374047Y40937195D02*
G01*
X27422661Y40931555D01*
X27439271Y40924221D01*
X27461079Y40919883D01*
X27484425Y40904284D01*
X27504012Y40895635D01*
X27517390Y40882257D01*
X27538291Y40868291D01*
X27552256Y40847391D01*
X27565634Y40834013D01*
X27574281Y40814428D01*
X27589883Y40791079D01*
X27594221Y40769269D01*
X27601554Y40752662D01*
X27607192Y40704058D01*
X27608000Y40700000D01*
X27608000Y40150000D01*
X27607192Y40145941D01*
X27601554Y40097339D01*
X27594221Y40080734D01*
X27589883Y40058921D01*
X27574280Y40035571D01*
X27565634Y40015988D01*
X27552258Y40002613D01*
X27538291Y39981709D01*
X27517387Y39967742D01*
X27504012Y39954366D01*
X27484429Y39945720D01*
X27461079Y39930117D01*
X27439266Y39925779D01*
X27422661Y39918446D01*
X27374059Y39912808D01*
X27370000Y39912000D01*
X26970000Y39912000D01*
X26965942Y39912808D01*
X26917338Y39918446D01*
X26900731Y39925779D01*
X26878921Y39930117D01*
X26855572Y39945719D01*
X26835987Y39954366D01*
X26822609Y39967744D01*
X26801709Y39981709D01*
X26787743Y40002610D01*
X26774365Y40015988D01*
X26765716Y40035575D01*
X26750117Y40058921D01*
X26745779Y40080729D01*
X26738445Y40097339D01*
X26732805Y40145953D01*
X26732000Y40150000D01*
X26732000Y40700000D01*
X26732804Y40704046D01*
X26738445Y40752662D01*
X26745779Y40769273D01*
X26750117Y40791079D01*
X26765715Y40814424D01*
X26774365Y40834013D01*
X26787745Y40847394D01*
X26801709Y40868291D01*
X26822606Y40882255D01*
X26835987Y40895635D01*
X26855576Y40904285D01*
X26878921Y40919883D01*
X26900727Y40924221D01*
X26917338Y40931555D01*
X26965954Y40937196D01*
X26970000Y40938000D01*
X27370000Y40938000D01*
X27374047Y40937195D01*
G37*
G36*
X38836104Y41652873D02*
G01*
X38909099Y41604099D01*
X38957873Y41531104D01*
X38975000Y41445000D01*
X38975000Y40995000D01*
X38957873Y40908896D01*
X38909099Y40835901D01*
X38836104Y40787127D01*
X38750000Y40770000D01*
X38250000Y40770000D01*
X38163896Y40787127D01*
X38090901Y40835901D01*
X38042127Y40908896D01*
X38025000Y40995000D01*
X38025000Y41445000D01*
X38042127Y41531104D01*
X38090901Y41604099D01*
X38163896Y41652873D01*
X38250000Y41670000D01*
X38750000Y41670000D01*
X38836104Y41652873D01*
G37*
G36*
X35600000Y41830000D02*
G01*
X34400000Y41830000D01*
X34400000Y43230000D01*
X35600000Y43230000D01*
X35600000Y41830000D01*
G37*
G36*
X37300000Y41830000D02*
G01*
X36100000Y41830000D01*
X36100000Y43230000D01*
X37300000Y43230000D01*
X37300000Y41830000D01*
G37*
G36*
X38836104Y43212873D02*
G01*
X38909099Y43164099D01*
X38957873Y43091104D01*
X38975000Y43005000D01*
X38975000Y42555000D01*
X38957873Y42468896D01*
X38909099Y42395901D01*
X38836104Y42347127D01*
X38750000Y42330000D01*
X38250000Y42330000D01*
X38163896Y42347127D01*
X38090901Y42395901D01*
X38042127Y42468896D01*
X38025000Y42555000D01*
X38025000Y43005000D01*
X38042127Y43091104D01*
X38090901Y43164099D01*
X38163896Y43212873D01*
X38250000Y43230000D01*
X38750000Y43230000D01*
X38836104Y43212873D01*
G37*
G36*
X10159690Y50059649D02*
G01*
X10425023Y49988553D01*
X10678806Y49883433D01*
X10916697Y49746086D01*
X11134626Y49578864D01*
X11328864Y49384626D01*
X11496086Y49166697D01*
X11633433Y48928806D01*
X11738553Y48675023D01*
X11809649Y48409690D01*
X11845504Y48137347D01*
X11845504Y47862653D01*
X11809649Y47590310D01*
X11738553Y47324977D01*
X11633433Y47071194D01*
X11496086Y46833303D01*
X11328864Y46615374D01*
X11134626Y46421136D01*
X10916697Y46253914D01*
X10678806Y46116567D01*
X10425023Y46011447D01*
X10159690Y45940351D01*
X9887347Y45904496D01*
X9612653Y45904496D01*
X9340310Y45940351D01*
X9074977Y46011447D01*
X8821194Y46116567D01*
X8583303Y46253914D01*
X8365374Y46421136D01*
X8171136Y46615374D01*
X8003914Y46833303D01*
X7866567Y47071194D01*
X7761447Y47324977D01*
X7690351Y47590310D01*
X7654496Y47862653D01*
X7654496Y48137347D01*
X7690351Y48409690D01*
X7761447Y48675023D01*
X7866567Y48928806D01*
X8003914Y49166697D01*
X8171136Y49384626D01*
X8365374Y49578864D01*
X8583303Y49746086D01*
X8821194Y49883433D01*
X9074977Y49988553D01*
X9340310Y50059649D01*
X9612653Y50095504D01*
X9887347Y50095504D01*
X10159690Y50059649D01*
G37*
G36*
X35559690Y50059649D02*
G01*
X35825023Y49988553D01*
X36078806Y49883433D01*
X36316697Y49746086D01*
X36534626Y49578864D01*
X36728864Y49384626D01*
X36896086Y49166697D01*
X37033433Y48928806D01*
X37138553Y48675023D01*
X37209649Y48409690D01*
X37245504Y48137347D01*
X37245504Y47862653D01*
X37209649Y47590310D01*
X37138553Y47324977D01*
X37033433Y47071194D01*
X36896086Y46833303D01*
X36728864Y46615374D01*
X36534626Y46421136D01*
X36316697Y46253914D01*
X36078806Y46116567D01*
X35825023Y46011447D01*
X35559690Y45940351D01*
X35287347Y45904496D01*
X35012653Y45904496D01*
X34740310Y45940351D01*
X34474977Y46011447D01*
X34221194Y46116567D01*
X33983303Y46253914D01*
X33765374Y46421136D01*
X33571136Y46615374D01*
X33403914Y46833303D01*
X33266567Y47071194D01*
X33161447Y47324977D01*
X33090351Y47590310D01*
X33054496Y47862653D01*
X33054496Y48137347D01*
X33090351Y48409690D01*
X33161447Y48675023D01*
X33266567Y48928806D01*
X33403914Y49166697D01*
X33571136Y49384626D01*
X33765374Y49578864D01*
X33983303Y49746086D01*
X34221194Y49883433D01*
X34474977Y49988553D01*
X34740310Y50059649D01*
X35012653Y50095504D01*
X35287347Y50095504D01*
X35559690Y50059649D01*
G37*
G36*
X19283199Y52669858D02*
G01*
X19409978Y52617345D01*
X19524075Y52541107D01*
X19621107Y52444075D01*
X19697345Y52329978D01*
X19749858Y52203199D01*
X19776629Y52068612D01*
X19776629Y51931388D01*
X19749858Y51796801D01*
X19697345Y51670022D01*
X19621107Y51555925D01*
X19524075Y51458893D01*
X19409978Y51382655D01*
X19283199Y51330142D01*
X19148612Y51303371D01*
X19011388Y51303371D01*
X18876801Y51330142D01*
X18750022Y51382655D01*
X18635925Y51458893D01*
X18538893Y51555925D01*
X18462655Y51670022D01*
X18410142Y51796801D01*
X18383371Y51931388D01*
X18383371Y52068612D01*
X18410142Y52203199D01*
X18462655Y52329978D01*
X18538893Y52444075D01*
X18635925Y52541107D01*
X18750022Y52617345D01*
X18876801Y52669858D01*
X19011388Y52696629D01*
X19148612Y52696629D01*
X19283199Y52669858D01*
G37*
G36*
X20993199Y52669858D02*
G01*
X21119978Y52617345D01*
X21234075Y52541107D01*
X21331107Y52444075D01*
X21407345Y52329978D01*
X21459858Y52203199D01*
X21486629Y52068612D01*
X21486629Y51931388D01*
X21459858Y51796801D01*
X21407345Y51670022D01*
X21331107Y51555925D01*
X21234075Y51458893D01*
X21119978Y51382655D01*
X20993199Y51330142D01*
X20858612Y51303371D01*
X20721388Y51303371D01*
X20586801Y51330142D01*
X20460022Y51382655D01*
X20345925Y51458893D01*
X20248893Y51555925D01*
X20172655Y51670022D01*
X20120142Y51796801D01*
X20093371Y51931388D01*
X20093371Y52068612D01*
X20120142Y52203199D01*
X20172655Y52329978D01*
X20248893Y52444075D01*
X20345925Y52541107D01*
X20460022Y52617345D01*
X20586801Y52669858D01*
X20721388Y52696629D01*
X20858612Y52696629D01*
X20993199Y52669858D01*
G37*
G36*
X22703199Y52669858D02*
G01*
X22829978Y52617345D01*
X22944075Y52541107D01*
X23041107Y52444075D01*
X23117345Y52329978D01*
X23169858Y52203199D01*
X23196629Y52068612D01*
X23196629Y51931388D01*
X23169858Y51796801D01*
X23117345Y51670022D01*
X23041107Y51555925D01*
X22944075Y51458893D01*
X22829978Y51382655D01*
X22703199Y51330142D01*
X22568612Y51303371D01*
X22431388Y51303371D01*
X22296801Y51330142D01*
X22170022Y51382655D01*
X22055925Y51458893D01*
X21958893Y51555925D01*
X21882655Y51670022D01*
X21830142Y51796801D01*
X21803371Y51931388D01*
X21803371Y52068612D01*
X21830142Y52203199D01*
X21882655Y52329978D01*
X21958893Y52444075D01*
X22055925Y52541107D01*
X22170022Y52617345D01*
X22296801Y52669858D01*
X22431388Y52696629D01*
X22568612Y52696629D01*
X22703199Y52669858D01*
G37*
G36*
X24413199Y52669858D02*
G01*
X24539978Y52617345D01*
X24654075Y52541107D01*
X24751107Y52444075D01*
X24827345Y52329978D01*
X24879858Y52203199D01*
X24906629Y52068612D01*
X24906629Y51931388D01*
X24879858Y51796801D01*
X24827345Y51670022D01*
X24751107Y51555925D01*
X24654075Y51458893D01*
X24539978Y51382655D01*
X24413199Y51330142D01*
X24278612Y51303371D01*
X24141388Y51303371D01*
X24006801Y51330142D01*
X23880022Y51382655D01*
X23765925Y51458893D01*
X23668893Y51555925D01*
X23592655Y51670022D01*
X23540142Y51796801D01*
X23513371Y51931388D01*
X23513371Y52068612D01*
X23540142Y52203199D01*
X23592655Y52329978D01*
X23668893Y52444075D01*
X23765925Y52541107D01*
X23880022Y52617345D01*
X24006801Y52669858D01*
X24141388Y52696629D01*
X24278612Y52696629D01*
X24413199Y52669858D01*
G37*
G36*
X26123199Y52669858D02*
G01*
X26249978Y52617345D01*
X26364075Y52541107D01*
X26461107Y52444075D01*
X26537345Y52329978D01*
X26589858Y52203199D01*
X26616629Y52068612D01*
X26616629Y51931388D01*
X26589858Y51796801D01*
X26537345Y51670022D01*
X26461107Y51555925D01*
X26364075Y51458893D01*
X26249978Y51382655D01*
X26123199Y51330142D01*
X25988612Y51303371D01*
X25851388Y51303371D01*
X25716801Y51330142D01*
X25590022Y51382655D01*
X25475925Y51458893D01*
X25378893Y51555925D01*
X25302655Y51670022D01*
X25250142Y51796801D01*
X25223371Y51931388D01*
X25223371Y52068612D01*
X25250142Y52203199D01*
X25302655Y52329978D01*
X25378893Y52444075D01*
X25475925Y52541107D01*
X25590022Y52617345D01*
X25716801Y52669858D01*
X25851388Y52696629D01*
X25988612Y52696629D01*
X26123199Y52669858D01*
G37*
G36*
X33507500Y56100000D02*
G01*
X31932500Y56100000D01*
X31932500Y57900000D01*
X33507500Y57900000D01*
X33507500Y56100000D01*
G37*
G36*
X35521256Y57861246D02*
G01*
X35684257Y57793729D01*
X35830954Y57695709D01*
X35955709Y57570954D01*
X36053729Y57424257D01*
X36121246Y57261256D01*
X36155666Y57088215D01*
X36155666Y56911785D01*
X36121246Y56738744D01*
X36053729Y56575743D01*
X35955709Y56429046D01*
X35830954Y56304291D01*
X35684257Y56206271D01*
X35521256Y56138754D01*
X35348215Y56104334D01*
X35171785Y56104334D01*
X34998744Y56138754D01*
X34835743Y56206271D01*
X34689046Y56304291D01*
X34564291Y56429046D01*
X34466271Y56575743D01*
X34398754Y56738744D01*
X34364334Y56911785D01*
X34364334Y57088215D01*
X34398754Y57261256D01*
X34466271Y57424257D01*
X34564291Y57570954D01*
X34689046Y57695709D01*
X34835743Y57793729D01*
X34998744Y57861246D01*
X35171785Y57895666D01*
X35348215Y57895666D01*
X35521256Y57861246D01*
G37*
G36*
X38061256Y57861246D02*
G01*
X38224257Y57793729D01*
X38370954Y57695709D01*
X38495709Y57570954D01*
X38593729Y57424257D01*
X38661246Y57261256D01*
X38695666Y57088215D01*
X38695666Y56911785D01*
X38661246Y56738744D01*
X38593729Y56575743D01*
X38495709Y56429046D01*
X38370954Y56304291D01*
X38224257Y56206271D01*
X38061256Y56138754D01*
X37888215Y56104334D01*
X37711785Y56104334D01*
X37538744Y56138754D01*
X37375743Y56206271D01*
X37229046Y56304291D01*
X37104291Y56429046D01*
X37006271Y56575743D01*
X36938754Y56738744D01*
X36904334Y56911785D01*
X36904334Y57088215D01*
X36938754Y57261256D01*
X37006271Y57424257D01*
X37104291Y57570954D01*
X37229046Y57695709D01*
X37375743Y57793729D01*
X37538744Y57861246D01*
X37711785Y57895666D01*
X37888215Y57895666D01*
X38061256Y57861246D01*
G37*
G36*
X3256790Y62569607D02*
G01*
X3420952Y62516267D01*
X3574748Y62437904D01*
X3714393Y62336447D01*
X3836447Y62214393D01*
X3937904Y62074748D01*
X4016267Y61920952D01*
X4069607Y61756790D01*
X4096609Y61586305D01*
X4096609Y61413695D01*
X4069607Y61243210D01*
X4016267Y61079048D01*
X3937904Y60925252D01*
X3836447Y60785607D01*
X3714393Y60663553D01*
X3574748Y60562096D01*
X3420952Y60483733D01*
X3256790Y60430393D01*
X3086305Y60403391D01*
X2913695Y60403391D01*
X2743210Y60430393D01*
X2579048Y60483733D01*
X2425252Y60562096D01*
X2285607Y60663553D01*
X2163553Y60785607D01*
X2062096Y60925252D01*
X1983733Y61079048D01*
X1930393Y61243210D01*
X1903391Y61413695D01*
X1903391Y61586305D01*
X1930393Y61756790D01*
X1983733Y61920952D01*
X2062096Y62074748D01*
X2163553Y62214393D01*
X2285607Y62336447D01*
X2425252Y62437904D01*
X2579048Y62516267D01*
X2743210Y62569607D01*
X2913695Y62596609D01*
X3086305Y62596609D01*
X3256790Y62569607D01*
G37*
G36*
X35256790Y62569607D02*
G01*
X35420952Y62516267D01*
X35574748Y62437904D01*
X35714393Y62336447D01*
X35836447Y62214393D01*
X35937904Y62074748D01*
X36016267Y61920952D01*
X36069607Y61756790D01*
X36096609Y61586305D01*
X36096609Y61413695D01*
X36069607Y61243210D01*
X36016267Y61079048D01*
X35937904Y60925252D01*
X35836447Y60785607D01*
X35714393Y60663553D01*
X35574748Y60562096D01*
X35420952Y60483733D01*
X35256790Y60430393D01*
X35086305Y60403391D01*
X34913695Y60403391D01*
X34743210Y60430393D01*
X34579048Y60483733D01*
X34425252Y60562096D01*
X34285607Y60663553D01*
X34163553Y60785607D01*
X34062096Y60925252D01*
X33983733Y61079048D01*
X33930393Y61243210D01*
X33903391Y61413695D01*
X33903391Y61586305D01*
X33930393Y61756790D01*
X33983733Y61920952D01*
X34062096Y62074748D01*
X34163553Y62214393D01*
X34285607Y62336447D01*
X34425252Y62437904D01*
X34579048Y62516267D01*
X34743210Y62569607D01*
X34913695Y62596609D01*
X35086305Y62596609D01*
X35256790Y62569607D01*
G37*
G36*
X7090285Y63046940D02*
G01*
X7271397Y62971921D01*
X7434393Y62863010D01*
X7573010Y62724393D01*
X7681921Y62561397D01*
X7756940Y62380285D01*
X7795185Y62188017D01*
X7795185Y61991983D01*
X7756940Y61799715D01*
X7681921Y61618603D01*
X7573010Y61455607D01*
X7434393Y61316990D01*
X7271397Y61208079D01*
X7090285Y61133060D01*
X6898017Y61094815D01*
X6701983Y61094815D01*
X6509715Y61133060D01*
X6328603Y61208079D01*
X6165607Y61316990D01*
X6026990Y61455607D01*
X5918079Y61618603D01*
X5843060Y61799715D01*
X5804815Y61991983D01*
X5804815Y62188017D01*
X5843060Y62380285D01*
X5918079Y62561397D01*
X6026990Y62724393D01*
X6165607Y62863010D01*
X6328603Y62971921D01*
X6509715Y63046940D01*
X6701983Y63085185D01*
X6898017Y63085185D01*
X7090285Y63046940D01*
G37*
G36*
X6868858Y66584867D02*
G01*
X6878316Y66584867D01*
X6905563Y66577567D01*
X6974099Y66563934D01*
X7006448Y66550535D01*
X7029610Y66544328D01*
X7050377Y66532338D01*
X7082722Y66518940D01*
X7140816Y66480123D01*
X7165257Y66466012D01*
X7171946Y66459323D01*
X7180481Y66453620D01*
X7263619Y66370482D01*
X7269321Y66361948D01*
X7276012Y66355257D01*
X7290124Y66330814D01*
X7328939Y66272723D01*
X7342335Y66240382D01*
X7354328Y66219610D01*
X7360535Y66196445D01*
X7373933Y66164100D01*
X7387563Y66095574D01*
X7394867Y66068316D01*
X7395791Y66054205D01*
X7397110Y66047578D01*
X7399758Y65993689D01*
X7400000Y65990000D01*
X7400000Y64690000D01*
X7399758Y64686309D01*
X7397110Y64632423D01*
X7395791Y64625797D01*
X7394867Y64611684D01*
X7387562Y64584424D01*
X7373933Y64515901D01*
X7360535Y64483559D01*
X7354328Y64460390D01*
X7342334Y64439617D01*
X7328939Y64407278D01*
X7290128Y64349195D01*
X7276012Y64324743D01*
X7269319Y64318051D01*
X7263619Y64309519D01*
X7180481Y64226381D01*
X7171949Y64220681D01*
X7165257Y64213988D01*
X7140805Y64199872D01*
X7082722Y64161061D01*
X7050383Y64147666D01*
X7029610Y64135672D01*
X7006441Y64129465D01*
X6974099Y64116067D01*
X6905569Y64102436D01*
X6878316Y64095133D01*
X6868858Y64095133D01*
X6858788Y64093130D01*
X6741212Y64093130D01*
X6731142Y64095133D01*
X6721684Y64095133D01*
X6694432Y64102436D01*
X6625900Y64116067D01*
X6593555Y64129465D01*
X6570390Y64135672D01*
X6549618Y64147665D01*
X6517277Y64161061D01*
X6459186Y64199876D01*
X6434743Y64213988D01*
X6428052Y64220679D01*
X6419518Y64226381D01*
X6336380Y64309519D01*
X6330677Y64318054D01*
X6323988Y64324743D01*
X6309877Y64349184D01*
X6271060Y64407278D01*
X6257662Y64439623D01*
X6245672Y64460390D01*
X6239465Y64483552D01*
X6226066Y64515901D01*
X6212433Y64584438D01*
X6205133Y64611684D01*
X6204208Y64625790D01*
X6202889Y64632423D01*
X6200241Y64686314D01*
X6200000Y64690000D01*
X6200000Y65990000D01*
X6200241Y65993684D01*
X6202889Y66047578D01*
X6204208Y66054213D01*
X6205133Y66068316D01*
X6212432Y66095560D01*
X6226066Y66164100D01*
X6239466Y66196452D01*
X6245672Y66219610D01*
X6257660Y66240376D01*
X6271060Y66272723D01*
X6309881Y66330825D01*
X6323988Y66355257D01*
X6330675Y66361945D01*
X6336380Y66370482D01*
X6419518Y66453620D01*
X6428055Y66459325D01*
X6434743Y66466012D01*
X6459175Y66480119D01*
X6517277Y66518940D01*
X6549624Y66532340D01*
X6570390Y66544328D01*
X6593548Y66550534D01*
X6625900Y66563934D01*
X6694437Y66577567D01*
X6721684Y66584867D01*
X6731142Y66584867D01*
X6741212Y66586870D01*
X6858788Y66586870D01*
X6868858Y66584867D01*
G37*
G36*
X12068858Y66584867D02*
G01*
X12078316Y66584867D01*
X12105563Y66577567D01*
X12174099Y66563934D01*
X12206448Y66550535D01*
X12229610Y66544328D01*
X12250377Y66532338D01*
X12282722Y66518940D01*
X12340816Y66480123D01*
X12365257Y66466012D01*
X12371946Y66459323D01*
X12380481Y66453620D01*
X12463619Y66370482D01*
X12469321Y66361948D01*
X12476012Y66355257D01*
X12490124Y66330814D01*
X12528939Y66272723D01*
X12542335Y66240382D01*
X12554328Y66219610D01*
X12560535Y66196445D01*
X12573933Y66164100D01*
X12587563Y66095574D01*
X12594867Y66068316D01*
X12595791Y66054205D01*
X12597110Y66047578D01*
X12599758Y65993689D01*
X12600000Y65990000D01*
X12600000Y64690000D01*
X12599758Y64686309D01*
X12597110Y64632423D01*
X12595791Y64625797D01*
X12594867Y64611684D01*
X12587562Y64584424D01*
X12573933Y64515901D01*
X12560535Y64483559D01*
X12554328Y64460390D01*
X12542334Y64439617D01*
X12528939Y64407278D01*
X12490128Y64349195D01*
X12476012Y64324743D01*
X12469319Y64318051D01*
X12463619Y64309519D01*
X12380481Y64226381D01*
X12371949Y64220681D01*
X12365257Y64213988D01*
X12340805Y64199872D01*
X12282722Y64161061D01*
X12250383Y64147666D01*
X12229610Y64135672D01*
X12206441Y64129465D01*
X12174099Y64116067D01*
X12105569Y64102436D01*
X12078316Y64095133D01*
X12068858Y64095133D01*
X12058788Y64093130D01*
X11941212Y64093130D01*
X11931142Y64095133D01*
X11921684Y64095133D01*
X11894432Y64102436D01*
X11825900Y64116067D01*
X11793555Y64129465D01*
X11770390Y64135672D01*
X11749618Y64147665D01*
X11717277Y64161061D01*
X11659186Y64199876D01*
X11634743Y64213988D01*
X11628052Y64220679D01*
X11619518Y64226381D01*
X11536380Y64309519D01*
X11530677Y64318054D01*
X11523988Y64324743D01*
X11509877Y64349184D01*
X11471060Y64407278D01*
X11457662Y64439623D01*
X11445672Y64460390D01*
X11439465Y64483552D01*
X11426066Y64515901D01*
X11412433Y64584438D01*
X11405133Y64611684D01*
X11404208Y64625790D01*
X11402889Y64632423D01*
X11400241Y64686314D01*
X11400000Y64690000D01*
X11400000Y65990000D01*
X11400241Y65993684D01*
X11402889Y66047578D01*
X11404208Y66054213D01*
X11405133Y66068316D01*
X11412432Y66095560D01*
X11426066Y66164100D01*
X11439466Y66196452D01*
X11445672Y66219610D01*
X11457660Y66240376D01*
X11471060Y66272723D01*
X11509881Y66330825D01*
X11523988Y66355257D01*
X11530675Y66361945D01*
X11536380Y66370482D01*
X11619518Y66453620D01*
X11628055Y66459325D01*
X11634743Y66466012D01*
X11659175Y66480119D01*
X11717277Y66518940D01*
X11749624Y66532340D01*
X11770390Y66544328D01*
X11793548Y66550534D01*
X11825900Y66563934D01*
X11894437Y66577567D01*
X11921684Y66584867D01*
X11931142Y66584867D01*
X11941212Y66586870D01*
X12058788Y66586870D01*
X12068858Y66584867D01*
G37*
G36*
X26890476Y69928134D02*
G01*
X27014819Y69856344D01*
X27116344Y69754819D01*
X27188134Y69630476D01*
X27225295Y69491789D01*
X27230000Y69420000D01*
X27230000Y68520000D01*
X27225295Y68448211D01*
X27188134Y68309524D01*
X27116344Y68185181D01*
X27014819Y68083656D01*
X26890476Y68011866D01*
X26751789Y67974705D01*
X26608211Y67974705D01*
X26469524Y68011866D01*
X26345181Y68083656D01*
X26243656Y68185181D01*
X26171866Y68309524D01*
X26134705Y68448211D01*
X26130000Y68520000D01*
X26130000Y69420000D01*
X26134705Y69491789D01*
X26171866Y69630476D01*
X26243656Y69754819D01*
X26345181Y69856344D01*
X26469524Y69928134D01*
X26608211Y69965295D01*
X26751789Y69965295D01*
X26890476Y69928134D01*
G37*
G36*
X35530476Y69928134D02*
G01*
X35654819Y69856344D01*
X35756344Y69754819D01*
X35828134Y69630476D01*
X35865295Y69491789D01*
X35870000Y69420000D01*
X35870000Y68520000D01*
X35865295Y68448211D01*
X35828134Y68309524D01*
X35756344Y68185181D01*
X35654819Y68083656D01*
X35530476Y68011866D01*
X35391789Y67974705D01*
X35248211Y67974705D01*
X35109524Y68011866D01*
X34985181Y68083656D01*
X34883656Y68185181D01*
X34811866Y68309524D01*
X34774705Y68448211D01*
X34770000Y68520000D01*
X34770000Y69420000D01*
X34774705Y69491789D01*
X34811866Y69630476D01*
X34883656Y69754819D01*
X34985181Y69856344D01*
X35109524Y69928134D01*
X35248211Y69965295D01*
X35391789Y69965295D01*
X35530476Y69928134D01*
G37*
G36*
X28243939Y69823358D02*
G01*
X28323067Y69777674D01*
X28387674Y69713067D01*
X28433358Y69633939D01*
X28457006Y69545684D01*
X28457006Y69454316D01*
X28433358Y69366061D01*
X28387674Y69286933D01*
X28323067Y69222326D01*
X28243939Y69176642D01*
X28155684Y69152994D01*
X28064316Y69152994D01*
X27976061Y69176642D01*
X27896933Y69222326D01*
X27832326Y69286933D01*
X27786642Y69366061D01*
X27762994Y69454316D01*
X27762994Y69545684D01*
X27786642Y69633939D01*
X27832326Y69713067D01*
X27896933Y69777674D01*
X27976061Y69823358D01*
X28064316Y69847006D01*
X28155684Y69847006D01*
X28243939Y69823358D01*
G37*
G36*
X34023939Y69823358D02*
G01*
X34103067Y69777674D01*
X34167674Y69713067D01*
X34213358Y69633939D01*
X34237006Y69545684D01*
X34237006Y69454316D01*
X34213358Y69366061D01*
X34167674Y69286933D01*
X34103067Y69222326D01*
X34023939Y69176642D01*
X33935684Y69152994D01*
X33844316Y69152994D01*
X33756061Y69176642D01*
X33676933Y69222326D01*
X33612326Y69286933D01*
X33566642Y69366061D01*
X33542994Y69454316D01*
X33542994Y69545684D01*
X33566642Y69633939D01*
X33612326Y69713067D01*
X33676933Y69777674D01*
X33756061Y69823358D01*
X33844316Y69847006D01*
X33935684Y69847006D01*
X34023939Y69823358D01*
G37*
G36*
X7091807Y72805462D02*
G01*
X7278354Y72744849D01*
X7453123Y72655800D01*
X7611810Y72540507D01*
X7750507Y72401810D01*
X7865800Y72243123D01*
X7954849Y72068354D01*
X8015462Y71881807D01*
X8046147Y71688074D01*
X8046147Y71491926D01*
X8015462Y71298193D01*
X7954849Y71111646D01*
X7865800Y70936877D01*
X7750507Y70778190D01*
X7611810Y70639493D01*
X7453123Y70524200D01*
X7278354Y70435151D01*
X7091807Y70374538D01*
X6898074Y70343853D01*
X6701926Y70343853D01*
X6508193Y70374538D01*
X6321646Y70435151D01*
X6146877Y70524200D01*
X5988190Y70639493D01*
X5849493Y70778190D01*
X5734200Y70936877D01*
X5645151Y71111646D01*
X5584538Y71298193D01*
X5553853Y71491926D01*
X5553853Y71688074D01*
X5584538Y71881807D01*
X5645151Y72068354D01*
X5734200Y72243123D01*
X5849493Y72401810D01*
X5988190Y72540507D01*
X6146877Y72655800D01*
X6321646Y72744849D01*
X6508193Y72805462D01*
X6701926Y72836147D01*
X6898074Y72836147D01*
X7091807Y72805462D01*
G37*
G36*
X3138858Y74444867D02*
G01*
X3148316Y74444867D01*
X3175563Y74437567D01*
X3244099Y74423934D01*
X3276448Y74410535D01*
X3299610Y74404328D01*
X3320377Y74392338D01*
X3352722Y74378940D01*
X3410816Y74340123D01*
X3435257Y74326012D01*
X3441946Y74319323D01*
X3450481Y74313620D01*
X3533619Y74230482D01*
X3539321Y74221948D01*
X3546012Y74215257D01*
X3560124Y74190814D01*
X3598939Y74132723D01*
X3612335Y74100382D01*
X3624328Y74079610D01*
X3630535Y74056445D01*
X3643933Y74024100D01*
X3657563Y73955574D01*
X3664867Y73928316D01*
X3665791Y73914205D01*
X3667110Y73907578D01*
X3669758Y73853689D01*
X3670000Y73850000D01*
X3670000Y71250000D01*
X3669758Y71246309D01*
X3667110Y71192423D01*
X3665791Y71185797D01*
X3664867Y71171684D01*
X3657562Y71144424D01*
X3643933Y71075901D01*
X3630535Y71043559D01*
X3624328Y71020390D01*
X3612334Y70999617D01*
X3598939Y70967278D01*
X3560128Y70909195D01*
X3546012Y70884743D01*
X3539319Y70878051D01*
X3533619Y70869519D01*
X3450481Y70786381D01*
X3441949Y70780681D01*
X3435257Y70773988D01*
X3410805Y70759872D01*
X3352722Y70721061D01*
X3320383Y70707666D01*
X3299610Y70695672D01*
X3276441Y70689465D01*
X3244099Y70676067D01*
X3175569Y70662436D01*
X3148316Y70655133D01*
X3138858Y70655133D01*
X3128788Y70653130D01*
X3011212Y70653130D01*
X3001142Y70655133D01*
X2991684Y70655133D01*
X2964432Y70662436D01*
X2895900Y70676067D01*
X2863555Y70689465D01*
X2840390Y70695672D01*
X2819618Y70707665D01*
X2787277Y70721061D01*
X2729186Y70759876D01*
X2704743Y70773988D01*
X2698052Y70780679D01*
X2689518Y70786381D01*
X2606380Y70869519D01*
X2600677Y70878054D01*
X2593988Y70884743D01*
X2579877Y70909184D01*
X2541060Y70967278D01*
X2527662Y70999623D01*
X2515672Y71020390D01*
X2509465Y71043552D01*
X2496066Y71075901D01*
X2482433Y71144438D01*
X2475133Y71171684D01*
X2474208Y71185790D01*
X2472889Y71192423D01*
X2470241Y71246314D01*
X2470000Y71250000D01*
X2470000Y73850000D01*
X2470241Y73853684D01*
X2472889Y73907578D01*
X2474208Y73914213D01*
X2475133Y73928316D01*
X2482432Y73955560D01*
X2496066Y74024100D01*
X2509466Y74056452D01*
X2515672Y74079610D01*
X2527660Y74100376D01*
X2541060Y74132723D01*
X2579881Y74190825D01*
X2593988Y74215257D01*
X2600675Y74221945D01*
X2606380Y74230482D01*
X2689518Y74313620D01*
X2698055Y74319325D01*
X2704743Y74326012D01*
X2729175Y74340119D01*
X2787277Y74378940D01*
X2819624Y74392340D01*
X2840390Y74404328D01*
X2863548Y74410534D01*
X2895900Y74423934D01*
X2964437Y74437567D01*
X2991684Y74444867D01*
X3001142Y74444867D01*
X3011212Y74446870D01*
X3128788Y74446870D01*
X3138858Y74444867D01*
G37*
G36*
X12998858Y74444867D02*
G01*
X13008316Y74444867D01*
X13035563Y74437567D01*
X13104099Y74423934D01*
X13136448Y74410535D01*
X13159610Y74404328D01*
X13180377Y74392338D01*
X13212722Y74378940D01*
X13270816Y74340123D01*
X13295257Y74326012D01*
X13301946Y74319323D01*
X13310481Y74313620D01*
X13393619Y74230482D01*
X13399321Y74221948D01*
X13406012Y74215257D01*
X13420124Y74190814D01*
X13458939Y74132723D01*
X13472335Y74100382D01*
X13484328Y74079610D01*
X13490535Y74056445D01*
X13503933Y74024100D01*
X13517563Y73955574D01*
X13524867Y73928316D01*
X13525791Y73914205D01*
X13527110Y73907578D01*
X13529758Y73853689D01*
X13530000Y73850000D01*
X13530000Y71250000D01*
X13529758Y71246309D01*
X13527110Y71192423D01*
X13525791Y71185797D01*
X13524867Y71171684D01*
X13517562Y71144424D01*
X13503933Y71075901D01*
X13490535Y71043559D01*
X13484328Y71020390D01*
X13472334Y70999617D01*
X13458939Y70967278D01*
X13420128Y70909195D01*
X13406012Y70884743D01*
X13399319Y70878051D01*
X13393619Y70869519D01*
X13310481Y70786381D01*
X13301949Y70780681D01*
X13295257Y70773988D01*
X13270805Y70759872D01*
X13212722Y70721061D01*
X13180383Y70707666D01*
X13159610Y70695672D01*
X13136441Y70689465D01*
X13104099Y70676067D01*
X13035569Y70662436D01*
X13008316Y70655133D01*
X12998858Y70655133D01*
X12988788Y70653130D01*
X12871212Y70653130D01*
X12861142Y70655133D01*
X12851684Y70655133D01*
X12824432Y70662436D01*
X12755900Y70676067D01*
X12723555Y70689465D01*
X12700390Y70695672D01*
X12679618Y70707665D01*
X12647277Y70721061D01*
X12589186Y70759876D01*
X12564743Y70773988D01*
X12558052Y70780679D01*
X12549518Y70786381D01*
X12466380Y70869519D01*
X12460677Y70878054D01*
X12453988Y70884743D01*
X12439877Y70909184D01*
X12401060Y70967278D01*
X12387662Y70999623D01*
X12375672Y71020390D01*
X12369465Y71043552D01*
X12356066Y71075901D01*
X12342433Y71144438D01*
X12335133Y71171684D01*
X12334208Y71185790D01*
X12332889Y71192423D01*
X12330241Y71246314D01*
X12330000Y71250000D01*
X12330000Y73850000D01*
X12330241Y73853684D01*
X12332889Y73907578D01*
X12334208Y73914213D01*
X12335133Y73928316D01*
X12342432Y73955560D01*
X12356066Y74024100D01*
X12369466Y74056452D01*
X12375672Y74079610D01*
X12387660Y74100376D01*
X12401060Y74132723D01*
X12439881Y74190825D01*
X12453988Y74215257D01*
X12460675Y74221945D01*
X12466380Y74230482D01*
X12549518Y74313620D01*
X12558055Y74319325D01*
X12564743Y74326012D01*
X12589175Y74340119D01*
X12647277Y74378940D01*
X12679624Y74392340D01*
X12700390Y74404328D01*
X12723548Y74410534D01*
X12755900Y74423934D01*
X12824437Y74437567D01*
X12851684Y74444867D01*
X12861142Y74444867D01*
X12871212Y74446870D01*
X12988788Y74446870D01*
X12998858Y74444867D01*
G37*
G36*
X26748858Y74074867D02*
G01*
X26758316Y74074867D01*
X26785563Y74067567D01*
X26854099Y74053934D01*
X26886448Y74040535D01*
X26909610Y74034328D01*
X26930377Y74022338D01*
X26962722Y74008940D01*
X27020816Y73970123D01*
X27045257Y73956012D01*
X27051946Y73949323D01*
X27060481Y73943620D01*
X27143619Y73860482D01*
X27149321Y73851948D01*
X27156012Y73845257D01*
X27170124Y73820814D01*
X27208939Y73762723D01*
X27222335Y73730382D01*
X27234328Y73709610D01*
X27240535Y73686445D01*
X27253933Y73654100D01*
X27267563Y73585574D01*
X27274867Y73558316D01*
X27275791Y73544205D01*
X27277110Y73537578D01*
X27279758Y73483689D01*
X27280000Y73480000D01*
X27280000Y72880000D01*
X27279758Y72876309D01*
X27277110Y72822423D01*
X27275791Y72815797D01*
X27274867Y72801684D01*
X27267562Y72774424D01*
X27253933Y72705901D01*
X27240535Y72673559D01*
X27234328Y72650390D01*
X27222334Y72629617D01*
X27208939Y72597278D01*
X27170128Y72539195D01*
X27156012Y72514743D01*
X27149319Y72508051D01*
X27143619Y72499519D01*
X27060481Y72416381D01*
X27051949Y72410681D01*
X27045257Y72403988D01*
X27020805Y72389872D01*
X26962722Y72351061D01*
X26930383Y72337666D01*
X26909610Y72325672D01*
X26886441Y72319465D01*
X26854099Y72306067D01*
X26785569Y72292436D01*
X26758316Y72285133D01*
X26748858Y72285133D01*
X26738788Y72283130D01*
X26621212Y72283130D01*
X26611142Y72285133D01*
X26601684Y72285133D01*
X26574432Y72292436D01*
X26505900Y72306067D01*
X26473555Y72319465D01*
X26450390Y72325672D01*
X26429618Y72337665D01*
X26397277Y72351061D01*
X26339186Y72389876D01*
X26314743Y72403988D01*
X26308052Y72410679D01*
X26299518Y72416381D01*
X26216380Y72499519D01*
X26210677Y72508054D01*
X26203988Y72514743D01*
X26189877Y72539184D01*
X26151060Y72597278D01*
X26137662Y72629623D01*
X26125672Y72650390D01*
X26119465Y72673552D01*
X26106066Y72705901D01*
X26092433Y72774438D01*
X26085133Y72801684D01*
X26084208Y72815790D01*
X26082889Y72822423D01*
X26080241Y72876314D01*
X26080000Y72880000D01*
X26080000Y73480000D01*
X26080241Y73483684D01*
X26082889Y73537578D01*
X26084208Y73544213D01*
X26085133Y73558316D01*
X26092432Y73585560D01*
X26106066Y73654100D01*
X26119466Y73686452D01*
X26125672Y73709610D01*
X26137660Y73730376D01*
X26151060Y73762723D01*
X26189881Y73820825D01*
X26203988Y73845257D01*
X26210675Y73851945D01*
X26216380Y73860482D01*
X26299518Y73943620D01*
X26308055Y73949325D01*
X26314743Y73956012D01*
X26339175Y73970119D01*
X26397277Y74008940D01*
X26429624Y74022340D01*
X26450390Y74034328D01*
X26473548Y74040534D01*
X26505900Y74053934D01*
X26574437Y74067567D01*
X26601684Y74074867D01*
X26611142Y74074867D01*
X26621212Y74076870D01*
X26738788Y74076870D01*
X26748858Y74074867D01*
G37*
G36*
X35388858Y74074867D02*
G01*
X35398316Y74074867D01*
X35425563Y74067567D01*
X35494099Y74053934D01*
X35526448Y74040535D01*
X35549610Y74034328D01*
X35570377Y74022338D01*
X35602722Y74008940D01*
X35660816Y73970123D01*
X35685257Y73956012D01*
X35691946Y73949323D01*
X35700481Y73943620D01*
X35783619Y73860482D01*
X35789321Y73851948D01*
X35796012Y73845257D01*
X35810124Y73820814D01*
X35848939Y73762723D01*
X35862335Y73730382D01*
X35874328Y73709610D01*
X35880535Y73686445D01*
X35893933Y73654100D01*
X35907563Y73585574D01*
X35914867Y73558316D01*
X35915791Y73544205D01*
X35917110Y73537578D01*
X35919758Y73483689D01*
X35920000Y73480000D01*
X35920000Y72880000D01*
X35919758Y72876309D01*
X35917110Y72822423D01*
X35915791Y72815797D01*
X35914867Y72801684D01*
X35907562Y72774424D01*
X35893933Y72705901D01*
X35880535Y72673559D01*
X35874328Y72650390D01*
X35862334Y72629617D01*
X35848939Y72597278D01*
X35810128Y72539195D01*
X35796012Y72514743D01*
X35789319Y72508051D01*
X35783619Y72499519D01*
X35700481Y72416381D01*
X35691949Y72410681D01*
X35685257Y72403988D01*
X35660805Y72389872D01*
X35602722Y72351061D01*
X35570383Y72337666D01*
X35549610Y72325672D01*
X35526441Y72319465D01*
X35494099Y72306067D01*
X35425569Y72292436D01*
X35398316Y72285133D01*
X35388858Y72285133D01*
X35378788Y72283130D01*
X35261212Y72283130D01*
X35251142Y72285133D01*
X35241684Y72285133D01*
X35214432Y72292436D01*
X35145900Y72306067D01*
X35113555Y72319465D01*
X35090390Y72325672D01*
X35069618Y72337665D01*
X35037277Y72351061D01*
X34979186Y72389876D01*
X34954743Y72403988D01*
X34948052Y72410679D01*
X34939518Y72416381D01*
X34856380Y72499519D01*
X34850677Y72508054D01*
X34843988Y72514743D01*
X34829877Y72539184D01*
X34791060Y72597278D01*
X34777662Y72629623D01*
X34765672Y72650390D01*
X34759465Y72673552D01*
X34746066Y72705901D01*
X34732433Y72774438D01*
X34725133Y72801684D01*
X34724208Y72815790D01*
X34722889Y72822423D01*
X34720241Y72876314D01*
X34720000Y72880000D01*
X34720000Y73480000D01*
X34720241Y73483684D01*
X34722889Y73537578D01*
X34724208Y73544213D01*
X34725133Y73558316D01*
X34732432Y73585560D01*
X34746066Y73654100D01*
X34759466Y73686452D01*
X34765672Y73709610D01*
X34777660Y73730376D01*
X34791060Y73762723D01*
X34829881Y73820825D01*
X34843988Y73845257D01*
X34850675Y73851945D01*
X34856380Y73860482D01*
X34939518Y73943620D01*
X34948055Y73949325D01*
X34954743Y73956012D01*
X34979175Y73970119D01*
X35037277Y74008940D01*
X35069624Y74022340D01*
X35090390Y74034328D01*
X35113548Y74040534D01*
X35145900Y74053934D01*
X35214437Y74067567D01*
X35241684Y74074867D01*
X35251142Y74074867D01*
X35261212Y74076870D01*
X35378788Y74076870D01*
X35388858Y74074867D01*
G37*
M02*
