M48
; DRILL file {KiCad 9.0.3} date 2026-05-02T11:15:45+0200
; FORMAT={-:-/ absolute / metric / decimal}
; #@! TF.CreationDate,2026-05-02T11:15:45+02:00
; #@! TF.GenerationSoftware,Kicad,Pcbnew,9.0.3
; #@! TF.FileFunction,Plated,1,4,PTH
FMAT,2
METRIC
; #@! TA.AperFunction,Plated,PTH,ViaDrill
T1C0.300
; #@! TA.AperFunction,Plated,PTH,ViaDrill
T2C0.400
; #@! TA.AperFunction,Plated,PTH,ComponentDrill
T3C0.600
; #@! TA.AperFunction,Plated,PTH,ComponentDrill
T4C0.600
; #@! TA.AperFunction,Plated,PTH,ComponentDrill
T5C1.000
; #@! TA.AperFunction,Plated,PTH,ComponentDrill
T6C1.050
; #@! TA.AperFunction,Plated,PTH,ComponentDrill
T7C1.100
; #@! TA.AperFunction,Plated,PTH,ComponentDrill
T8C1.200
; #@! TA.AperFunction,Plated,PTH,ComponentDrill
T9C1.300
; #@! TA.AperFunction,Plated,PTH,ComponentDrill
T10C1.400
; #@! TA.AperFunction,Plated,PTH,ComponentDrill
T11C1.800
; #@! TA.AperFunction,Plated,PTH,ComponentDrill
T12C2.800
%
G90
G05
T1
X1.3Y73.4
X1.3Y71.4
X1.3Y69.4
X1.3Y67.4
X1.3Y65.4
X1.3Y63.4
X1.3Y59.4
X1.3Y57.4
X1.3Y55.4
X1.3Y53.4
X1.3Y51.4
X1.3Y49.4
X1.3Y47.4
X1.3Y45.4
X1.3Y43.4
X1.3Y41.4
X1.3Y39.4
X1.3Y37.4
X1.3Y35.4
X1.3Y33.4
X1.3Y31.4
X1.3Y29.4
X1.3Y27.4
X1.3Y25.4
X1.3Y23.4
X1.3Y21.4
X1.3Y19.4
X1.3Y17.4
X1.3Y15.4
X1.3Y13.4
X1.3Y11.4
X1.3Y9.4
X1.3Y7.4
X1.3Y5.4
X1.3Y1.4
X3.3Y59.4
X3.3Y57.4
X3.3Y55.4
X3.3Y53.4
X3.3Y51.4
X3.3Y49.4
X3.3Y47.4
X3.3Y45.4
X3.3Y43.4
X3.3Y19.4
X3.3Y9.4
X3.3Y7.4
X3.3Y5.4
X3.525Y63.525
X4.8Y19.2
X5.3Y73.4
X5.3Y69.4
X5.3Y67.4
X5.3Y65.4
X5.3Y63.4
X5.3Y53.4
X5.3Y51.4
X5.3Y49.4
X5.3Y47.4
X5.3Y45.4
X5.3Y9.4
X5.3Y7.4
X5.3Y5.4
X5.3Y3.4
X5.3Y1.4
X5.5Y55.7
X7.3Y73.4
X7.3Y69.4
X7.3Y67.4
X7.3Y55.4
X7.3Y53.4
X7.3Y51.4
X7.3Y49.4
X7.3Y47.4
X7.3Y45.4
X7.3Y39.4
X7.3Y37.4
X7.3Y35.4
X7.3Y33.4
X7.3Y31.4
X7.3Y29.4
X7.3Y27.4
X7.3Y25.575
X7.3Y1.4
X7.5Y56.3
X7.525Y23.55
X8.5Y57.875
X9.3Y73.4
X9.3Y71.4
X9.3Y69.4
X9.3Y67.4
X9.3Y65.4
X9.3Y55.4
X9.3Y53.4
X9.3Y51.4
X9.3Y45.4
X9.3Y35.4
X9.3Y33.4
X9.3Y31.4
X9.3Y29.4
X9.3Y27.4
X9.3Y9.4
X9.5Y56.1
X11.15Y55.4
X11.3Y73.4
X11.3Y71.4
X11.3Y69.4
X11.3Y67.4
X11.3Y53.4
X11.3Y51.4
X11.3Y45.4
X11.3Y35.4
X11.3Y33.4
X11.3Y31.4
X11.3Y29.4
X11.3Y27.4
X11.3Y13.4
X11.3Y10.45
X11.3Y9.4
X11.7Y5.4
X11.8Y63.6
X12.5Y5.4
X12.7Y35.4
X13.3Y69.4
X13.3Y67.4
X13.3Y65.4
X13.3Y53.4
X13.3Y51.4
X13.3Y49.4
X13.3Y47.4
X13.3Y45.4
X13.3Y39.4
X13.3Y29.4
X13.3Y27.4
X13.3Y10.425
X13.3Y9.4
X13.5Y63.7
X13.65Y55.4
X13.7Y25.6
X15.1Y31.625
X15.3Y73.4
X15.3Y71.4
X15.3Y69.4
X15.3Y67.4
X15.3Y65.4
X15.3Y63.4
X15.3Y55.4
X15.3Y53.4
X15.3Y51.4
X15.3Y49.4
X15.3Y39.4
X15.3Y30.75
X15.3Y27.4
X15.975Y5.927
X15.975Y5.228
X16.025Y34.375
X17.025Y34.375
X17.3Y73.4
X17.3Y71.4
X17.3Y69.4
X17.3Y67.4
X17.3Y65.4
X17.3Y63.4
X17.3Y55.4
X17.3Y41.4
X17.3Y39.4
X17.3Y13.4
X17.3Y11.4
X18.0Y32.1
X18.8Y29.8
X19.3Y73.4
X19.3Y65.4
X19.3Y53.4
X19.6Y41.4
X20.4Y56.6
X20.4Y55.6
X20.4Y41.4
X20.6Y8.5
X20.6Y7.3
X20.8Y27.2
X21.125Y5.475
X21.225Y6.325
X21.3Y73.4
X21.3Y71.4
X21.3Y69.4
X21.3Y67.4
X21.3Y65.4
X21.3Y1.4
X21.6Y59.3
X21.6Y58.6
X21.6Y28.1
X21.725Y32.175
X22.4Y59.3
X22.4Y58.6
X22.6Y19.9
X22.75Y5.725
X23.0Y24.3
X23.1Y59.3
X23.1Y58.6
X23.3Y73.4
X23.3Y71.4
X23.3Y69.4
X23.3Y67.4
X23.3Y65.4
X23.3Y63.4
X23.3Y53.4
X23.625Y30.5
X23.7Y15.525
X23.8Y43.5
X24.3Y24.3
X24.5Y28.1
X24.6Y43.5
X24.7Y30.475
X25.3Y73.4
X25.3Y71.4
X25.3Y61.4
X25.3Y53.4
X25.3Y9.4
X25.4Y43.5
X27.3Y71.4
X27.3Y65.4
X27.3Y63.4
X27.3Y61.4
X27.3Y59.4
X27.3Y9.4
X27.79Y57.31
X27.8Y67.175
X28.4Y38.275
X28.4Y4.9
X28.475Y39.05
X28.575Y30.325
X28.65Y36.4
X28.7Y33.0
X28.9Y63.7
X29.125Y28.45
X29.175Y26.7
X29.2Y27.3
X29.3Y73.4
X29.3Y71.4
X29.3Y65.4
X29.3Y61.4
X29.3Y57.4
X29.3Y45.4
X29.3Y15.4
X29.3Y9.4
X29.45Y37.4
X29.5Y33.3
X29.625Y30.75
X29.7Y29.95
X29.75Y38.4
X30.1Y15.625
X30.3Y23.4
X30.35Y36.125
X30.7Y22.2
X31.05Y36.125
X31.225Y23.525
X31.3Y73.4
X31.3Y71.4
X31.3Y49.4
X31.3Y47.4
X31.3Y45.4
X31.3Y15.4
X31.3Y1.4
X31.775Y19.35
X31.9Y18.45
X31.975Y33.6
X32.0Y30.3
X32.7Y30.575
X33.251Y19.126
X33.3Y73.4
X33.3Y71.4
X33.3Y65.4
X33.3Y55.4
X33.3Y51.4
X33.3Y45.4
X33.3Y1.4
X33.425Y21.95
X33.425Y21.325
X33.45Y22.7
X33.5Y43.1
X33.5Y42.4
X33.5Y35.2
X33.6Y63.7
X33.749Y19.624
X35.023Y35.002
X35.275Y30.5
X35.3Y67.4
X35.3Y65.4
X35.3Y55.4
X35.3Y51.4
X35.3Y45.4
X35.575Y63.675
X35.625Y24.95
X36.275Y34.975
X36.6Y5.8
X36.9Y34.1
X36.9Y33.4
X37.05Y35.25
X37.3Y69.4
X37.3Y67.4
X37.3Y65.4
X37.3Y63.4
X37.3Y61.4
X37.3Y53.4
X37.3Y45.4
X37.3Y13.4
X37.675Y21.65
X38.375Y21.625
X38.6Y12.1
X39.1Y21.6
X39.2Y30.8
X39.2Y30.2
X39.3Y67.4
X39.3Y65.4
X39.3Y59.4
X39.3Y37.0
X39.3Y35.4
X39.3Y13.4
X39.35Y61.525
X39.475Y42.125
X39.6Y11.5
X39.8Y17.9
X40.1Y21.7
X40.7Y18.3
X40.71Y39.32
X40.925Y25.875
X40.925Y24.35
X40.925Y20.45
X40.95Y37.725
X40.975Y28.75
X41.0Y34.7
X41.075Y36.275
X41.3Y65.4
X41.3Y61.4
X41.3Y59.4
X41.3Y57.4
X41.3Y55.4
X41.3Y53.4
X41.3Y51.4
X41.3Y49.4
X41.3Y45.4
X41.3Y43.4
X41.3Y41.4
X41.3Y21.4
X43.1Y11.4
X43.1Y9.4
X43.3Y65.4
X43.3Y63.4
X43.3Y61.4
X43.3Y59.4
X43.3Y57.4
X43.3Y55.4
X43.3Y53.4
X43.3Y51.4
X43.3Y49.4
X43.8Y45.4
X43.8Y43.4
X43.8Y41.4
X43.8Y39.4
X43.8Y37.4
X43.8Y35.4
X43.8Y33.4
X43.8Y31.4
X43.8Y29.4
X43.8Y27.6
X43.8Y25.6
X43.8Y23.6
X43.8Y21.6
T2
X18.85Y9.55
T5
X36.69Y10.025
X36.75Y16.5
X39.23Y10.025
X39.29Y16.5
X41.77Y10.025
X41.83Y16.5
T6
X23.69Y17.0
X23.69Y10.5
X26.23Y17.0
X26.23Y10.5
X28.77Y17.0
X28.77Y10.5
X31.31Y17.0
X31.31Y10.5
T7
X19.08Y52.0
X20.79Y52.0
X22.5Y52.0
X24.21Y52.0
X25.92Y52.0
T8
X15.5Y15.75
X15.5Y10.75
X32.72Y57.0
X35.26Y57.0
X37.8Y57.0
T9
X6.8Y62.09
T10
X4.5Y16.0
X4.5Y11.0
T11
X10.5Y38.0
X10.5Y25.0
T12
X9.75Y48.0
X35.15Y48.0
T3
G00X26.68Y72.88
M15
G01X26.68Y73.48
M16
G05
G00X26.68Y68.52
M15
G01X26.68Y69.42
M16
G05
G00X35.32Y72.88
M15
G01X35.32Y73.48
M16
G05
G00X35.32Y68.52
M15
G01X35.32Y69.42
M16
G05
T4
G00X3.07Y73.75
M15
G01X3.07Y71.35
M16
G05
G00X6.8Y66.04
M15
G01X6.8Y64.64
M16
G05
G00X12.0Y66.04
M15
G01X12.0Y64.64
M16
G05
G00X12.93Y73.75
M15
G01X12.93Y71.35
M16
G05
M30
