%TF.GenerationSoftware,KiCad,Pcbnew,9.0.3*%
%TF.CreationDate,2026-05-02T11:15:43+02:00*%
%TF.ProjectId,camera_cooler,63616d65-7261-45f6-936f-6f6c65722e6b,rev?*%
%TF.SameCoordinates,PX7a8c120PY839b680*%
%TF.FileFunction,Paste,Top*%
%TF.FilePolarity,Positive*%
%FSLAX46Y46*%
G04 Gerber Fmt 4.6, Leading zero omitted, Abs format (unit mm)*
G04 Created by KiCad (PCBNEW 9.0.3) date 2026-05-02 11:15:43*
%MOMM*%
%LPD*%
G01*
G04 APERTURE LIST*
G04 Aperture macros list*
%AMRoundRect*
0 Rectangle with rounded corners*
0 $1 Rounding radius*
0 $2 $3 $4 $5 $6 $7 $8 $9 X,Y pos of 4 corners*
0 Add a 4 corners polygon primitive as box body*
4,1,4,$2,$3,$4,$5,$6,$7,$8,$9,$2,$3,0*
0 Add four circle primitives for the rounded corners*
1,1,$1+$1,$2,$3*
1,1,$1+$1,$4,$5*
1,1,$1+$1,$6,$7*
1,1,$1+$1,$8,$9*
0 Add four rect primitives between the rounded corners*
20,1,$1+$1,$2,$3,$4,$5,0*
20,1,$1+$1,$4,$5,$6,$7,0*
20,1,$1+$1,$6,$7,$8,$9,0*
20,1,$1+$1,$8,$9,$2,$3,0*%
G04 Aperture macros list end*
%ADD10C,0.010000*%
%ADD11RoundRect,0.225000X-0.225000X-0.250000X0.225000X-0.250000X0.225000X0.250000X-0.225000X0.250000X0*%
%ADD12RoundRect,0.250000X-0.325000X-0.650000X0.325000X-0.650000X0.325000X0.650000X-0.325000X0.650000X0*%
%ADD13RoundRect,0.250000X0.325000X0.650000X-0.325000X0.650000X-0.325000X-0.650000X0.325000X-0.650000X0*%
%ADD14RoundRect,0.225000X0.225000X0.250000X-0.225000X0.250000X-0.225000X-0.250000X0.225000X-0.250000X0*%
%ADD15RoundRect,0.225000X-0.250000X0.225000X-0.250000X-0.225000X0.250000X-0.225000X0.250000X0.225000X0*%
%ADD16RoundRect,0.249997X2.651003X-2.948503X2.651003X2.948503X-2.651003X2.948503X-2.651003X-2.948503X0*%
%ADD17RoundRect,0.250000X0.350000X-0.850000X0.350000X0.850000X-0.350000X0.850000X-0.350000X-0.850000X0*%
%ADD18R,0.532000X1.072000*%
%ADD19R,1.261000X3.910000*%
%ADD20R,0.550000X0.980000*%
%ADD21R,0.300000X1.100000*%
%ADD22R,0.550000X1.005000*%
%ADD23RoundRect,0.200000X0.275000X-0.200000X0.275000X0.200000X-0.275000X0.200000X-0.275000X-0.200000X0*%
%ADD24RoundRect,0.250000X-0.650000X0.325000X-0.650000X-0.325000X0.650000X-0.325000X0.650000X0.325000X0*%
%ADD25R,1.000000X0.700000*%
%ADD26RoundRect,0.200000X0.200000X0.275000X-0.200000X0.275000X-0.200000X-0.275000X0.200000X-0.275000X0*%
%ADD27R,6.000000X2.000000*%
%ADD28R,0.700000X0.420000*%
%ADD29R,0.450000X0.420000*%
%ADD30R,0.200000X0.565000*%
%ADD31R,0.400000X0.565000*%
%ADD32RoundRect,0.250000X0.250000X0.475000X-0.250000X0.475000X-0.250000X-0.475000X0.250000X-0.475000X0*%
%ADD33R,0.490000X0.990000*%
%ADD34R,1.100000X0.600000*%
%ADD35R,1.220000X0.910000*%
%ADD36RoundRect,0.250000X-0.250000X-0.475000X0.250000X-0.475000X0.250000X0.475000X-0.250000X0.475000X0*%
%ADD37RoundRect,0.200000X-0.200000X-0.275000X0.200000X-0.275000X0.200000X0.275000X-0.200000X0.275000X0*%
%ADD38RoundRect,0.225000X0.250000X-0.225000X0.250000X0.225000X-0.250000X0.225000X-0.250000X-0.225000X0*%
G04 APERTURE END LIST*
D10*
%TO.C,Q1*%
X10850000Y60315000D02*
X9150000Y60315000D01*
X9150000Y62685000D01*
X10850000Y62685000D01*
X10850000Y60315000D01*
G36*
X10850000Y60315000D02*
G01*
X9150000Y60315000D01*
X9150000Y62685000D01*
X10850000Y62685000D01*
X10850000Y60315000D01*
G37*
%TD*%
D11*
%TO.C,C10*%
X30720000Y26500000D03*
X32280000Y26500000D03*
%TD*%
D12*
%TO.C,C37*%
X18520000Y56000000D03*
X21480000Y56000000D03*
%TD*%
%TO.C,C12*%
X29320000Y22300000D03*
X32280000Y22300000D03*
%TD*%
D13*
%TO.C,C7*%
X32230000Y35000000D03*
X29270000Y35000000D03*
%TD*%
D14*
%TO.C,C4*%
X32280000Y40400000D03*
X30720000Y40400000D03*
%TD*%
D15*
%TO.C,C2*%
X7500000Y58750000D03*
X7500000Y57190000D03*
%TD*%
D16*
%TO.C,D4*%
X24749000Y35748500D03*
D17*
X22470000Y29450000D03*
X27030000Y29450000D03*
%TD*%
D18*
%TO.C,U4*%
X35950000Y38650000D03*
X35000000Y38650000D03*
X34050000Y38650000D03*
X34050000Y36350000D03*
X35000000Y36350000D03*
X35950000Y36350000D03*
%TD*%
D19*
%TO.C,C38*%
X20000000Y61000000D03*
X20000000Y69500000D03*
%TD*%
D20*
%TO.C,J2*%
X34200000Y68360000D03*
X33400000Y68360000D03*
D21*
X32750000Y68420000D03*
X32250000Y68420000D03*
X31750000Y68420000D03*
X31250000Y68420000D03*
X30750000Y68420000D03*
X30250000Y68420000D03*
X29750000Y68420000D03*
X29250000Y68420000D03*
D22*
X28600000Y68350000D03*
X27800000Y68350000D03*
%TD*%
D23*
%TO.C,R6*%
X33600000Y64580000D03*
X33600000Y66220000D03*
%TD*%
D11*
%TO.C,C14*%
X38220000Y22800000D03*
X39780000Y22800000D03*
%TD*%
D24*
%TO.C,C1*%
X20000000Y45480000D03*
X20000000Y42520000D03*
%TD*%
D23*
%TO.C,R10*%
X28900000Y64580000D03*
X28900000Y66220000D03*
%TD*%
D25*
%TO.C,SW2*%
X15750000Y4080000D03*
X20250000Y4080000D03*
X15750000Y1920000D03*
X20250000Y1920000D03*
%TD*%
D26*
%TO.C,R1*%
X39820000Y38400000D03*
X38180000Y38400000D03*
%TD*%
D23*
%TO.C,R19*%
X29000000Y2180000D03*
X29000000Y3820000D03*
%TD*%
D27*
%TO.C,L2*%
X24527500Y26550000D03*
X24527500Y22250000D03*
%TD*%
D28*
%TO.C,Q1*%
X11850000Y60525000D03*
X11850000Y61175000D03*
X11850000Y61825000D03*
X11850000Y62475000D03*
D29*
X8925000Y62475000D03*
X8925000Y61825000D03*
X8925000Y61175000D03*
X8925000Y60525000D03*
%TD*%
D30*
%TO.C,D3*%
X30250000Y65050000D03*
X30750000Y65050000D03*
D31*
X31250000Y65050000D03*
D30*
X31750000Y65050000D03*
X32250000Y65050000D03*
X32250000Y65850000D03*
X31750000Y65850000D03*
D31*
X31250000Y65850000D03*
D30*
X30750000Y65850000D03*
X30250000Y65850000D03*
%TD*%
D32*
%TO.C,C9*%
X32200000Y32000000D03*
X30300000Y32000000D03*
%TD*%
D33*
%TO.C,D1*%
X5500000Y56670000D03*
X5500000Y58910000D03*
%TD*%
D27*
%TO.C,L1*%
X24677500Y45050000D03*
X24677500Y40750000D03*
%TD*%
D23*
%TO.C,R18*%
X14000000Y2180000D03*
X14000000Y3820000D03*
%TD*%
D12*
%TO.C,C36*%
X23520000Y56000000D03*
X26480000Y56000000D03*
%TD*%
D15*
%TO.C,C5*%
X15750000Y58500000D03*
X15750000Y56940000D03*
%TD*%
D34*
%TO.C,U5*%
X36300000Y30550000D03*
X36300000Y31500000D03*
X36300000Y32450000D03*
X33700000Y32450000D03*
X33700000Y30550000D03*
%TD*%
D35*
%TO.C,D2*%
X12500000Y58890000D03*
X12500000Y55610000D03*
%TD*%
D36*
%TO.C,C8*%
X38300000Y32500000D03*
X40200000Y32500000D03*
%TD*%
D37*
%TO.C,R2*%
X38180000Y39900000D03*
X39820000Y39900000D03*
%TD*%
D11*
%TO.C,C20*%
X38220000Y29300000D03*
X39780000Y29300000D03*
%TD*%
D23*
%TO.C,R3*%
X9500000Y57150000D03*
X9500000Y58790000D03*
%TD*%
D25*
%TO.C,SW1*%
X22750000Y4080000D03*
X27250000Y4080000D03*
X22750000Y1920000D03*
X27250000Y1920000D03*
%TD*%
D18*
%TO.C,U6*%
X34050000Y23750000D03*
X35000000Y23750000D03*
X35950000Y23750000D03*
X35950000Y26050000D03*
X35000000Y26050000D03*
X34050000Y26050000D03*
%TD*%
D26*
%TO.C,R4*%
X39820000Y25800000D03*
X38180000Y25800000D03*
%TD*%
D11*
%TO.C,C11*%
X38220000Y24300000D03*
X39780000Y24300000D03*
%TD*%
D38*
%TO.C,C3*%
X13450000Y61220000D03*
X13450000Y62780000D03*
%TD*%
D37*
%TO.C,R5*%
X38180000Y27300000D03*
X39820000Y27300000D03*
%TD*%
D14*
%TO.C,C6*%
X32280000Y37250000D03*
X30720000Y37250000D03*
%TD*%
D13*
%TO.C,C41*%
X10480000Y21000000D03*
X7520000Y21000000D03*
%TD*%
D32*
%TO.C,C13*%
X36525000Y21850000D03*
X34625000Y21850000D03*
%TD*%
M02*
