%TF.GenerationSoftware,KiCad,Pcbnew,9.0.3*%
%TF.CreationDate,2026-05-02T11:15:43+02:00*%
%TF.ProjectId,camera_cooler,63616d65-7261-45f6-936f-6f6c65722e6b,rev?*%
%TF.SameCoordinates,PX7a8c120PY839b680*%
%TF.FileFunction,Copper,L2,Inr*%
%TF.FilePolarity,Positive*%
%FSLAX46Y46*%
G04 Gerber Fmt 4.6, Leading zero omitted, Abs format (unit mm)*
G04 Created by KiCad (PCBNEW 9.0.3) date 2026-05-02 11:15:43*
%MOMM*%
%LPD*%
G01*
G04 APERTURE LIST*
%TA.AperFunction,ComponentPad*%
%ADD10C,4.200000*%
%TD*%
%TA.AperFunction,ComponentPad*%
%ADD11O,1.100000X2.000000*%
%TD*%
%TA.AperFunction,ComponentPad*%
%ADD12O,1.200000X1.800000*%
%TD*%
%TA.AperFunction,ComponentPad*%
%ADD13R,1.600000X1.600000*%
%TD*%
%TA.AperFunction,ComponentPad*%
%ADD14C,1.600000*%
%TD*%
%TA.AperFunction,ComponentPad*%
%ADD15C,2.200000*%
%TD*%
%TA.AperFunction,ComponentPad*%
%ADD16O,1.200000X3.800000*%
%TD*%
%TA.AperFunction,ComponentPad*%
%ADD17O,1.200000X2.500000*%
%TD*%
%TA.AperFunction,ComponentPad*%
%ADD18C,2.000000*%
%TD*%
%TA.AperFunction,ComponentPad*%
%ADD19R,1.575000X1.800000*%
%TD*%
%TA.AperFunction,ComponentPad*%
%ADD20C,1.800000*%
%TD*%
%TA.AperFunction,ComponentPad*%
%ADD21C,2.100000*%
%TD*%
%TA.AperFunction,ComponentPad*%
%ADD22C,1.400000*%
%TD*%
%TA.AperFunction,ComponentPad*%
%ADD23C,2.600000*%
%TD*%
%TA.AperFunction,ViaPad*%
%ADD24C,0.500000*%
%TD*%
%TA.AperFunction,Conductor*%
%ADD25C,0.200000*%
%TD*%
G04 APERTURE END LIST*
D10*
%TO.N,GND*%
%TO.C,HS1*%
X9750000Y48000000D03*
X35150000Y48000000D03*
%TD*%
D11*
%TO.N,GND*%
%TO.C,J2*%
X35320000Y68970000D03*
D12*
X35320000Y73180000D03*
D11*
X26680000Y68970000D03*
D12*
X26680000Y73180000D03*
%TD*%
D13*
%TO.N,GND*%
%TO.C,J9*%
X36690000Y10025000D03*
D14*
%TO.N,DQ2*%
X39230000Y10025000D03*
%TO.N,3.3V*%
X41770000Y10025000D03*
%TD*%
D15*
%TO.N,Vtec*%
%TO.C,J4*%
X4500000Y16000000D03*
%TO.N,GND*%
X4500000Y11000000D03*
%TD*%
D16*
%TO.N,GND*%
%TO.C,J1*%
X12930000Y72550000D03*
D17*
X12000000Y65340000D03*
X6800000Y65340000D03*
D18*
%TO.N,VIN*%
X6800000Y62090000D03*
D16*
%TO.N,GND*%
X3070000Y72550000D03*
%TD*%
D19*
%TO.N,GND*%
%TO.C,J3*%
X32720000Y57000000D03*
D20*
%TO.N,SWCLK*%
X35260000Y57000000D03*
%TO.N,SWDIO*%
X37800000Y57000000D03*
%TD*%
D21*
%TO.N,/TEC/SW_TEC1*%
%TO.C,C40*%
X15500000Y15750000D03*
%TO.N,GND*%
X15500000Y10750000D03*
%TD*%
D13*
%TO.N,GND*%
%TO.C,J6*%
X36750000Y16500000D03*
D14*
%TO.N,DQ1*%
X39290000Y16500000D03*
%TO.N,3.3V*%
X41830000Y16500000D03*
%TD*%
D13*
%TO.N,GND*%
%TO.C,J8*%
X23690000Y10500000D03*
D14*
%TO.N,12V*%
X26230000Y10500000D03*
%TO.N,Net-(J8-Pad3)*%
X28770000Y10500000D03*
%TO.N,Net-(Q3-D)*%
X31310000Y10500000D03*
%TD*%
D13*
%TO.N,GND*%
%TO.C,J5*%
X23690000Y17000000D03*
D14*
%TO.N,12V*%
X26230000Y17000000D03*
%TO.N,Net-(J5-Pad3)*%
X28770000Y17000000D03*
%TO.N,Net-(Q2-D)*%
X31310000Y17000000D03*
%TD*%
D22*
%TO.N,GND*%
%TO.C,U10*%
X25920000Y52000000D03*
%TO.N,/TEC/FB_TEC*%
X24210000Y52000000D03*
%TO.N,/TEC/SW_TEC0*%
X22500000Y52000000D03*
%TO.N,/TEC/VC*%
X20790000Y52000000D03*
%TO.N,20V*%
X19080000Y52000000D03*
%TD*%
D23*
%TO.N,/TEC/SW_TEC1*%
%TO.C,L4*%
X10500000Y25000000D03*
%TO.N,/TEC/SW_TEC0*%
X10500000Y38000000D03*
%TD*%
D24*
%TO.N,GND*%
X27300000Y9400000D03*
X9300000Y67400000D03*
X11300000Y51400000D03*
X11150000Y55400000D03*
X43800000Y33400000D03*
X23300000Y71400000D03*
X15300000Y51400000D03*
X43800000Y41400000D03*
X35300000Y67400000D03*
X15300000Y67400000D03*
X1300000Y19400000D03*
X30300000Y23400000D03*
X25300000Y53400000D03*
X13300000Y51400000D03*
X21300000Y71400000D03*
X25300000Y73400000D03*
X7300000Y49400000D03*
X33300000Y45400000D03*
X15300000Y49400000D03*
X13650000Y55400000D03*
X31300000Y73400000D03*
X9300000Y51400000D03*
X43100000Y9400000D03*
X43300000Y63400000D03*
X43300000Y53400000D03*
X1300000Y21400000D03*
X3300000Y53400000D03*
X1300000Y45400000D03*
X39475000Y42125000D03*
X40925000Y24350000D03*
X24300000Y24300000D03*
X31300000Y45400000D03*
X41300000Y61400000D03*
X43100000Y11400000D03*
X15300000Y55400000D03*
X41300000Y51400000D03*
X27300000Y59400000D03*
X9300000Y73400000D03*
X1300000Y35400000D03*
X1300000Y5400000D03*
X11300000Y13400000D03*
X11300000Y29400000D03*
X13300000Y10425000D03*
X7300000Y45400000D03*
X11300000Y33400000D03*
X29300000Y57400000D03*
X1300000Y43400000D03*
X3300000Y5400000D03*
X43800000Y35400000D03*
X13300000Y69400000D03*
X1300000Y67400000D03*
X28400000Y4900000D03*
X33425000Y21325000D03*
X1300000Y1400000D03*
X15300000Y63400000D03*
X19600000Y41400000D03*
X28700000Y33000000D03*
X43800000Y39400000D03*
X7300000Y73400000D03*
X13300000Y65400000D03*
X9300000Y65400000D03*
X9300000Y71400000D03*
X43800000Y43400000D03*
X3300000Y7400000D03*
X29300000Y45400000D03*
X37300000Y61400000D03*
X21300000Y73400000D03*
X27800000Y67175000D03*
X13500000Y63700000D03*
X41300000Y53400000D03*
X17300000Y63400000D03*
X5300000Y65400000D03*
X25300000Y9400000D03*
X21300000Y1400000D03*
X17300000Y39400000D03*
X1300000Y47400000D03*
X20800000Y27200000D03*
X1300000Y7400000D03*
X17300000Y69400000D03*
X41075000Y36275000D03*
X1300000Y65400000D03*
X27300000Y71400000D03*
X17300000Y67400000D03*
X5300000Y69400000D03*
X5300000Y45400000D03*
X7300000Y39400000D03*
X7300000Y25575000D03*
X28900000Y63700000D03*
X33300000Y73400000D03*
X9300000Y45400000D03*
X7300000Y33400000D03*
X5300000Y5400000D03*
X5300000Y73400000D03*
X40925000Y25875000D03*
X37300000Y67400000D03*
X41300000Y41400000D03*
X5300000Y51400000D03*
X43300000Y59400000D03*
X15300000Y39400000D03*
X5300000Y47400000D03*
X13300000Y27400000D03*
X39300000Y59400000D03*
X7300000Y1400000D03*
X15300000Y27400000D03*
X9300000Y33400000D03*
X31300000Y71400000D03*
X9300000Y27400000D03*
X23300000Y53400000D03*
X43300000Y57400000D03*
X41300000Y55400000D03*
X1300000Y55400000D03*
X3300000Y57400000D03*
X33500000Y42400000D03*
X15300000Y69400000D03*
X43800000Y25600000D03*
X39600000Y11500000D03*
X7300000Y69400000D03*
X31300000Y15400000D03*
X23300000Y65400000D03*
X23300000Y67400000D03*
X7500000Y56300000D03*
X7300000Y55400000D03*
X39300000Y67400000D03*
X17300000Y41400000D03*
X1300000Y17400000D03*
X7300000Y37400000D03*
X27300000Y65400000D03*
X1300000Y63400000D03*
X9300000Y31400000D03*
X15300000Y53400000D03*
X37300000Y53400000D03*
X3300000Y51400000D03*
X11300000Y73400000D03*
X15300000Y73400000D03*
X7525000Y23550000D03*
X43300000Y65400000D03*
X1300000Y71400000D03*
X43800000Y29400000D03*
X33300000Y55400000D03*
X3300000Y45400000D03*
X41300000Y49400000D03*
X31300000Y49400000D03*
X13700000Y25600000D03*
X5300000Y7400000D03*
X20600000Y7300000D03*
X43800000Y37400000D03*
X1300000Y25400000D03*
X43300000Y55400000D03*
X11300000Y71400000D03*
X17300000Y55400000D03*
X33300000Y51400000D03*
X13300000Y67400000D03*
X17300000Y65400000D03*
X33300000Y71400000D03*
X19300000Y53400000D03*
X8500000Y57875000D03*
X9300000Y35400000D03*
X11300000Y69400000D03*
X5300000Y63400000D03*
X13300000Y45400000D03*
X29300000Y71400000D03*
X1300000Y59400000D03*
X11300000Y9400000D03*
X3300000Y59400000D03*
X11300000Y53400000D03*
X13300000Y47400000D03*
X38600000Y12100000D03*
X13300000Y9400000D03*
X1300000Y13400000D03*
X37300000Y45400000D03*
X9300000Y9400000D03*
X43800000Y27600000D03*
X17300000Y11400000D03*
X1300000Y57400000D03*
X43300000Y61400000D03*
X7300000Y67400000D03*
X39300000Y65400000D03*
X11700000Y5400000D03*
X20400000Y55600000D03*
X33300000Y65400000D03*
X7300000Y53400000D03*
X39800000Y17900000D03*
X1300000Y39400000D03*
X41300000Y57400000D03*
X40700000Y18300000D03*
X37300000Y63400000D03*
X1300000Y23400000D03*
X17300000Y71400000D03*
X15300000Y65400000D03*
X41300000Y21400000D03*
X17300000Y73400000D03*
X24500000Y28100000D03*
X1300000Y15400000D03*
X1300000Y37400000D03*
X43800000Y45400000D03*
X11300000Y35400000D03*
X18000000Y32100000D03*
X41300000Y65400000D03*
X21725000Y32175000D03*
X37300000Y69400000D03*
X19300000Y65400000D03*
X21600000Y28100000D03*
X13300000Y39400000D03*
X21300000Y65400000D03*
X1300000Y33400000D03*
X33425000Y21950000D03*
X7300000Y51400000D03*
X43800000Y23600000D03*
X5300000Y67400000D03*
X27300000Y63400000D03*
X23300000Y73400000D03*
X20600000Y8500000D03*
X31300000Y1400000D03*
X15300000Y71400000D03*
X43800000Y21600000D03*
X7300000Y31400000D03*
X43300000Y49400000D03*
X23300000Y63400000D03*
X35300000Y51400000D03*
X29300000Y73400000D03*
X3525000Y63525000D03*
X3300000Y49400000D03*
X11300000Y10450000D03*
X23000000Y24300000D03*
X35300000Y45400000D03*
X29300000Y65400000D03*
X7300000Y27400000D03*
X3300000Y47400000D03*
X9300000Y53400000D03*
X33500000Y43100000D03*
X43300000Y51400000D03*
X13300000Y29400000D03*
X41300000Y45400000D03*
X5300000Y49400000D03*
X39300000Y35400000D03*
X33600000Y63700000D03*
X35300000Y65400000D03*
X19300000Y73400000D03*
X1300000Y9400000D03*
X17300000Y13400000D03*
X23300000Y69400000D03*
X35300000Y55400000D03*
X33300000Y1400000D03*
X11300000Y67400000D03*
X1300000Y27400000D03*
X5500000Y55700000D03*
X29300000Y9400000D03*
X4800000Y19200000D03*
X1300000Y11400000D03*
X5300000Y9400000D03*
X5300000Y3400000D03*
X40100000Y21700000D03*
X20400000Y41400000D03*
X1300000Y53400000D03*
X28475000Y39050000D03*
X12500000Y5400000D03*
X11300000Y27400000D03*
X1300000Y29400000D03*
X3300000Y43400000D03*
X18800000Y29800000D03*
X3300000Y19400000D03*
X31300000Y47400000D03*
X40925000Y20450000D03*
X35575000Y63675000D03*
X13300000Y49400000D03*
X20400000Y56600000D03*
X9300000Y69400000D03*
X27300000Y61400000D03*
X11300000Y45400000D03*
X3300000Y55400000D03*
X25300000Y61400000D03*
X29300000Y61400000D03*
X37300000Y13400000D03*
X21300000Y67400000D03*
X39300000Y13400000D03*
X29300000Y15400000D03*
X7300000Y35400000D03*
X41300000Y43400000D03*
X9300000Y55400000D03*
X12700000Y35400000D03*
X7300000Y47400000D03*
X1300000Y49400000D03*
X9300000Y29400000D03*
X7300000Y29400000D03*
X21300000Y69400000D03*
X1300000Y31400000D03*
X13300000Y53400000D03*
X1300000Y69400000D03*
X3300000Y9400000D03*
X1300000Y41400000D03*
X43800000Y31400000D03*
X5300000Y53400000D03*
X11300000Y31400000D03*
X1300000Y51400000D03*
X25300000Y71400000D03*
X41300000Y59400000D03*
X1300000Y73400000D03*
X37300000Y65400000D03*
X5300000Y1400000D03*
%TO.N,SWDIO*%
X36275000Y34975000D03*
%TO.N,SDA*%
X24700000Y30475000D03*
%TO.N,RUN*%
X36600000Y5800000D03*
%TO.N,TO1*%
X28400000Y38275000D03*
%TO.N,PWM2*%
X30100000Y15625000D03*
%TO.N,TO2*%
X23700000Y15525000D03*
%TD*%
D25*
%TO.N,SWDIO*%
X36275000Y34975000D02*
X36250000Y34950000D01*
%TO.N,SDA*%
X24550000Y30325000D02*
X24700000Y30475000D01*
%TO.N,RUN*%
X36625000Y5775000D02*
X36600000Y5800000D01*
%TO.N,TO1*%
X28400000Y38275000D02*
X28400000Y38225000D01*
%TO.N,PWM2*%
X30050000Y15675000D02*
X30100000Y15625000D01*
%TO.N,TO2*%
X23725000Y15500000D02*
X23700000Y15525000D01*
%TD*%
%TA.AperFunction,Conductor*%
%TO.N,GND*%
G36*
X37004126Y74499035D02*
G01*
X37014292Y74497890D01*
X37102873Y74487909D01*
X37119013Y74484225D01*
X37208852Y74452789D01*
X37223781Y74445600D01*
X37304372Y74394962D01*
X37317328Y74384630D01*
X37384629Y74317329D01*
X37394961Y74304373D01*
X37445599Y74223782D01*
X37452788Y74208853D01*
X37484222Y74119020D01*
X37487909Y74102869D01*
X37499035Y74004127D01*
X37499500Y73995841D01*
X37499500Y71315040D01*
X37533628Y70946733D01*
X37533630Y70946718D01*
X37601602Y70583104D01*
X37702834Y70227312D01*
X37836458Y69882387D01*
X37908884Y69736938D01*
X37987498Y69579060D01*
X38001338Y69551267D01*
X38001343Y69551257D01*
X38196073Y69236755D01*
X38196076Y69236750D01*
X38418987Y68941571D01*
X38418992Y68941564D01*
X38584673Y68759820D01*
X38668198Y68668198D01*
X38941564Y68418992D01*
X38954155Y68409484D01*
X39236749Y68196077D01*
X39236754Y68196074D01*
X39236757Y68196072D01*
X39551260Y68001341D01*
X39882388Y67836458D01*
X40227318Y67702832D01*
X40583105Y67601602D01*
X40946715Y67533631D01*
X40946721Y67533631D01*
X40946732Y67533629D01*
X41148293Y67514952D01*
X41315046Y67499500D01*
X41434108Y67499500D01*
X43934108Y67499500D01*
X43995841Y67499500D01*
X44004126Y67499035D01*
X44014292Y67497890D01*
X44102873Y67487909D01*
X44119013Y67484225D01*
X44208852Y67452789D01*
X44223781Y67445600D01*
X44304372Y67394962D01*
X44317328Y67384630D01*
X44384629Y67317329D01*
X44394961Y67304373D01*
X44445599Y67223782D01*
X44452788Y67208853D01*
X44484222Y67119020D01*
X44487909Y67102869D01*
X44499035Y67004127D01*
X44499500Y66995841D01*
X44499500Y8004160D01*
X44499035Y7995874D01*
X44487909Y7897132D01*
X44484221Y7880977D01*
X44452788Y7791148D01*
X44445599Y7776219D01*
X44394961Y7695628D01*
X44384629Y7682672D01*
X44317328Y7615371D01*
X44304372Y7605039D01*
X44223781Y7554401D01*
X44208852Y7547212D01*
X44135258Y7521461D01*
X44119021Y7515779D01*
X44102868Y7512091D01*
X44004127Y7500965D01*
X43995841Y7500500D01*
X41315039Y7500500D01*
X40946732Y7466372D01*
X40946717Y7466370D01*
X40583103Y7398398D01*
X40227311Y7297166D01*
X39882386Y7163542D01*
X39551266Y6998662D01*
X39551256Y6998657D01*
X39236754Y6803927D01*
X39236749Y6803924D01*
X38941570Y6581013D01*
X38941563Y6581008D01*
X38668201Y6331806D01*
X38668194Y6331799D01*
X38418992Y6058437D01*
X38418987Y6058430D01*
X38196076Y5763251D01*
X38196073Y5763246D01*
X38001343Y5448744D01*
X38001338Y5448734D01*
X37836458Y5117614D01*
X37702834Y4772689D01*
X37601602Y4416897D01*
X37533630Y4053283D01*
X37533628Y4053268D01*
X37499500Y3684961D01*
X37499500Y1004160D01*
X37499035Y995875D01*
X37499035Y995874D01*
X37487909Y897132D01*
X37484221Y880977D01*
X37452788Y791148D01*
X37445599Y776219D01*
X37394961Y695628D01*
X37384629Y682672D01*
X37317328Y615371D01*
X37304372Y605039D01*
X37223781Y554401D01*
X37208852Y547212D01*
X37135258Y521461D01*
X37119021Y515779D01*
X37102868Y512091D01*
X37004127Y500965D01*
X36995841Y500500D01*
X1004159Y500500D01*
X995873Y500965D01*
X897131Y512091D01*
X880980Y515778D01*
X833867Y532264D01*
X791147Y547212D01*
X776218Y554401D01*
X695627Y605039D01*
X682671Y615371D01*
X615370Y682672D01*
X605038Y695628D01*
X554400Y776219D01*
X547211Y791148D01*
X515775Y880987D01*
X512091Y897127D01*
X500965Y995875D01*
X500500Y1004160D01*
X500500Y3125964D01*
X1399500Y3125964D01*
X1399500Y2874037D01*
X1438909Y2625218D01*
X1438912Y2625205D01*
X1516756Y2385627D01*
X1631129Y2161155D01*
X1779203Y1957349D01*
X1779207Y1957344D01*
X1957344Y1779207D01*
X1957347Y1779205D01*
X1957348Y1779204D01*
X2161154Y1631130D01*
X2269345Y1576005D01*
X2385621Y1516759D01*
X2385623Y1516759D01*
X2385626Y1516757D01*
X2625204Y1438913D01*
X2625210Y1438912D01*
X2625215Y1438910D01*
X2749626Y1419205D01*
X2874036Y1399500D01*
X2874038Y1399500D01*
X3125964Y1399500D01*
X3225491Y1415264D01*
X3374785Y1438910D01*
X3374792Y1438913D01*
X3374795Y1438913D01*
X3614373Y1516757D01*
X3614373Y1516758D01*
X3614379Y1516759D01*
X3838845Y1631130D01*
X4042656Y1779207D01*
X4220793Y1957344D01*
X4368870Y2161155D01*
X4483241Y2385621D01*
X4561090Y2625215D01*
X4600500Y2874038D01*
X4600500Y3125962D01*
X4600500Y3125964D01*
X33399500Y3125964D01*
X33399500Y2874037D01*
X33438909Y2625218D01*
X33438912Y2625205D01*
X33516756Y2385627D01*
X33631129Y2161155D01*
X33779203Y1957349D01*
X33779207Y1957344D01*
X33957344Y1779207D01*
X33957347Y1779205D01*
X33957348Y1779204D01*
X34161154Y1631130D01*
X34269345Y1576005D01*
X34385621Y1516759D01*
X34385623Y1516759D01*
X34385626Y1516757D01*
X34625204Y1438913D01*
X34625210Y1438912D01*
X34625215Y1438910D01*
X34749626Y1419205D01*
X34874036Y1399500D01*
X34874038Y1399500D01*
X35125964Y1399500D01*
X35225491Y1415264D01*
X35374785Y1438910D01*
X35374792Y1438913D01*
X35374795Y1438913D01*
X35614373Y1516757D01*
X35614373Y1516758D01*
X35614379Y1516759D01*
X35838845Y1631130D01*
X36042656Y1779207D01*
X36220793Y1957344D01*
X36368870Y2161155D01*
X36483241Y2385621D01*
X36561090Y2625215D01*
X36600500Y2874038D01*
X36600500Y3125962D01*
X36561090Y3374785D01*
X36561088Y3374790D01*
X36561087Y3374796D01*
X36483243Y3614374D01*
X36483241Y3614377D01*
X36483241Y3614379D01*
X36381767Y3813533D01*
X36368870Y3838846D01*
X36220796Y4042652D01*
X36220795Y4042653D01*
X36220793Y4042656D01*
X36042656Y4220793D01*
X36042653Y4220796D01*
X36042651Y4220797D01*
X35838845Y4368871D01*
X35614373Y4483244D01*
X35374795Y4561088D01*
X35374782Y4561091D01*
X35125964Y4600500D01*
X35125962Y4600500D01*
X34874038Y4600500D01*
X34874036Y4600500D01*
X34625217Y4561091D01*
X34625204Y4561088D01*
X34385626Y4483244D01*
X34161154Y4368871D01*
X33957348Y4220797D01*
X33779203Y4042652D01*
X33631129Y3838846D01*
X33516756Y3614374D01*
X33438912Y3374796D01*
X33438909Y3374783D01*
X33399500Y3125964D01*
X4600500Y3125964D01*
X4561090Y3374785D01*
X4561088Y3374790D01*
X4561087Y3374796D01*
X4483243Y3614374D01*
X4483241Y3614377D01*
X4483241Y3614379D01*
X4381767Y3813533D01*
X4368870Y3838846D01*
X4220796Y4042652D01*
X4220795Y4042653D01*
X4220793Y4042656D01*
X4042656Y4220793D01*
X4042653Y4220796D01*
X4042651Y4220797D01*
X3838845Y4368871D01*
X3614373Y4483244D01*
X3374795Y4561088D01*
X3374782Y4561091D01*
X3125964Y4600500D01*
X3125962Y4600500D01*
X2874038Y4600500D01*
X2874036Y4600500D01*
X2625217Y4561091D01*
X2625204Y4561088D01*
X2385626Y4483244D01*
X2161154Y4368871D01*
X1957348Y4220797D01*
X1779203Y4042652D01*
X1631129Y3838846D01*
X1516756Y3614374D01*
X1438912Y3374796D01*
X1438909Y3374783D01*
X1399500Y3125964D01*
X500500Y3125964D01*
X500500Y5980230D01*
X15574500Y5980230D01*
X15574500Y5874771D01*
X15589364Y5819299D01*
X15601793Y5772913D01*
X15601794Y5772911D01*
X15601795Y5772909D01*
X15654520Y5681587D01*
X15706281Y5629826D01*
X15727955Y5577500D01*
X15706281Y5525174D01*
X15654520Y5473414D01*
X15601795Y5382092D01*
X15601791Y5382083D01*
X15574500Y5280230D01*
X15574500Y5174771D01*
X15601791Y5072918D01*
X15601792Y5072915D01*
X15601793Y5072913D01*
X15654520Y4981587D01*
X15729087Y4907020D01*
X15820413Y4854293D01*
X15922270Y4827001D01*
X15922271Y4827000D01*
X15922273Y4827000D01*
X16027729Y4827000D01*
X16027729Y4827001D01*
X16129587Y4854293D01*
X16220913Y4907020D01*
X16295480Y4981587D01*
X16348207Y5072913D01*
X16375499Y5174771D01*
X16375500Y5174771D01*
X16375500Y5280229D01*
X16375499Y5280230D01*
X16348208Y5382083D01*
X16348207Y5382087D01*
X16295480Y5473413D01*
X16243719Y5525174D01*
X16242660Y5527730D01*
X20724500Y5527730D01*
X20724500Y5422271D01*
X20751791Y5320418D01*
X20751795Y5320409D01*
X20804520Y5229087D01*
X20879087Y5154520D01*
X20970413Y5101793D01*
X21072270Y5074501D01*
X21072271Y5074500D01*
X21072273Y5074500D01*
X21177729Y5074500D01*
X21177729Y5074501D01*
X21279587Y5101793D01*
X21370913Y5154520D01*
X21445480Y5229087D01*
X21498207Y5320413D01*
X21525499Y5422271D01*
X21525500Y5422271D01*
X21525500Y5527729D01*
X21525499Y5527730D01*
X21514063Y5570409D01*
X21498207Y5629587D01*
X21445480Y5720913D01*
X21388663Y5777730D01*
X22349500Y5777730D01*
X22349500Y5672271D01*
X22376791Y5570418D01*
X22376795Y5570409D01*
X22429269Y5479521D01*
X22429520Y5479087D01*
X22504087Y5404520D01*
X22595413Y5351793D01*
X22697270Y5324501D01*
X22697271Y5324500D01*
X22697273Y5324500D01*
X22802729Y5324500D01*
X22802729Y5324501D01*
X22904587Y5351793D01*
X22995913Y5404520D01*
X23070480Y5479087D01*
X23123207Y5570413D01*
X23150499Y5672271D01*
X23150500Y5672271D01*
X23150500Y5777726D01*
X23134236Y5838424D01*
X23134236Y5838427D01*
X23130403Y5852730D01*
X36199500Y5852730D01*
X36199500Y5747271D01*
X36226791Y5645418D01*
X36226795Y5645409D01*
X36279520Y5554087D01*
X36354087Y5479520D01*
X36445413Y5426793D01*
X36547270Y5399501D01*
X36547271Y5399500D01*
X36547273Y5399500D01*
X36652729Y5399500D01*
X36652729Y5399501D01*
X36754587Y5426793D01*
X36845913Y5479520D01*
X36920480Y5554087D01*
X36973207Y5645413D01*
X37000499Y5747271D01*
X37000500Y5747271D01*
X37000500Y5852729D01*
X37000499Y5852730D01*
X36995913Y5869844D01*
X36973207Y5954587D01*
X36920480Y6045913D01*
X36845913Y6120480D01*
X36837218Y6125500D01*
X36754591Y6173205D01*
X36754582Y6173209D01*
X36652729Y6200500D01*
X36652727Y6200500D01*
X36547273Y6200500D01*
X36547271Y6200500D01*
X36445417Y6173209D01*
X36445408Y6173205D01*
X36354086Y6120480D01*
X36279520Y6045914D01*
X36226795Y5954592D01*
X36226791Y5954583D01*
X36199500Y5852730D01*
X23130403Y5852730D01*
X23123208Y5879583D01*
X23123207Y5879587D01*
X23070480Y5970913D01*
X22995913Y6045480D01*
X22905564Y6097643D01*
X22904591Y6098205D01*
X22904582Y6098209D01*
X22802729Y6125500D01*
X22802727Y6125500D01*
X22697273Y6125500D01*
X22697271Y6125500D01*
X22595417Y6098209D01*
X22595408Y6098205D01*
X22504086Y6045480D01*
X22429520Y5970914D01*
X22376795Y5879592D01*
X22376791Y5879583D01*
X22349500Y5777730D01*
X21388663Y5777730D01*
X21370913Y5795480D01*
X21337469Y5814789D01*
X21332222Y5819299D01*
X21322328Y5838869D01*
X21308980Y5856265D01*
X21309921Y5863412D01*
X21306669Y5869844D01*
X21313511Y5890679D01*
X21316374Y5912418D01*
X21322091Y5916806D01*
X21324341Y5923654D01*
X21343910Y5933548D01*
X21361304Y5946895D01*
X21379587Y5951793D01*
X21470913Y6004520D01*
X21545480Y6079087D01*
X21598207Y6170413D01*
X21625499Y6272271D01*
X21625500Y6272271D01*
X21625500Y6377729D01*
X21625499Y6377730D01*
X21598208Y6479583D01*
X21598207Y6479587D01*
X21545480Y6570913D01*
X21470913Y6645480D01*
X21379591Y6698205D01*
X21379582Y6698209D01*
X21277729Y6725500D01*
X21277727Y6725500D01*
X21172273Y6725500D01*
X21172271Y6725500D01*
X21070417Y6698209D01*
X21070408Y6698205D01*
X20979086Y6645480D01*
X20904520Y6570914D01*
X20851795Y6479592D01*
X20851791Y6479583D01*
X20824500Y6377730D01*
X20824500Y6272271D01*
X20851791Y6170418D01*
X20851792Y6170415D01*
X20851793Y6170413D01*
X20904520Y6079087D01*
X20979087Y6004520D01*
X21004702Y5989731D01*
X21006540Y5988670D01*
X21041019Y5943736D01*
X21033626Y5887584D01*
X20988695Y5853106D01*
X20970414Y5848208D01*
X20970408Y5848205D01*
X20879086Y5795480D01*
X20804520Y5720914D01*
X20751795Y5629592D01*
X20751791Y5629583D01*
X20724500Y5527730D01*
X16242660Y5527730D01*
X16222045Y5577500D01*
X16243719Y5629826D01*
X16259311Y5645418D01*
X16295480Y5681587D01*
X16348207Y5772913D01*
X16375499Y5874771D01*
X16375500Y5874771D01*
X16375500Y5980229D01*
X16375499Y5980230D01*
X16368990Y6004521D01*
X16348207Y6082087D01*
X16295480Y6173413D01*
X16220913Y6247980D01*
X16178836Y6272273D01*
X16129591Y6300705D01*
X16129582Y6300709D01*
X16027729Y6328000D01*
X16027727Y6328000D01*
X15922273Y6328000D01*
X15922271Y6328000D01*
X15820417Y6300709D01*
X15820408Y6300705D01*
X15729086Y6247980D01*
X15654520Y6173414D01*
X15601795Y6082092D01*
X15601791Y6082083D01*
X15574500Y5980230D01*
X500500Y5980230D01*
X500500Y9609312D01*
X18399500Y9609312D01*
X18399500Y9490689D01*
X18430199Y9376118D01*
X18430201Y9376113D01*
X18489508Y9273391D01*
X18489509Y9273390D01*
X18489511Y9273387D01*
X18573387Y9189511D01*
X18573389Y9189510D01*
X18573390Y9189509D01*
X18676112Y9130202D01*
X18676114Y9130201D01*
X18676115Y9130201D01*
X18676117Y9130200D01*
X18733402Y9114851D01*
X18790688Y9099501D01*
X18790689Y9099500D01*
X18790691Y9099500D01*
X18909311Y9099500D01*
X18909311Y9099501D01*
X19023886Y9130201D01*
X19126613Y9189511D01*
X19210489Y9273387D01*
X19269799Y9376114D01*
X19300499Y9490689D01*
X19300500Y9490689D01*
X19300500Y9609311D01*
X19300499Y9609312D01*
X19269800Y9723883D01*
X19269798Y9723888D01*
X19210491Y9826610D01*
X19210490Y9826611D01*
X19210489Y9826613D01*
X19126613Y9910489D01*
X19126610Y9910491D01*
X19126609Y9910492D01*
X19023887Y9969799D01*
X19023882Y9969801D01*
X18909311Y10000500D01*
X18909309Y10000500D01*
X18790691Y10000500D01*
X18790689Y10000500D01*
X18676117Y9969801D01*
X18676112Y9969799D01*
X18573390Y9910492D01*
X18489508Y9826610D01*
X18430201Y9723888D01*
X18430199Y9723883D01*
X18399500Y9609312D01*
X500500Y9609312D01*
X500500Y10593616D01*
X25279500Y10593616D01*
X25279500Y10406385D01*
X25316025Y10222756D01*
X25316027Y10222749D01*
X25359160Y10118616D01*
X25387678Y10049769D01*
X25491698Y9894092D01*
X25624092Y9761698D01*
X25779769Y9657678D01*
X25952749Y9586027D01*
X26136384Y9549500D01*
X26136385Y9549500D01*
X26323615Y9549500D01*
X26323616Y9549500D01*
X26507251Y9586027D01*
X26680231Y9657678D01*
X26835908Y9761698D01*
X26968302Y9894092D01*
X27072322Y10049769D01*
X27143973Y10222749D01*
X27180500Y10406384D01*
X27180500Y10593616D01*
X27819500Y10593616D01*
X27819500Y10406385D01*
X27856025Y10222756D01*
X27856027Y10222749D01*
X27899160Y10118616D01*
X27927678Y10049769D01*
X28031698Y9894092D01*
X28164092Y9761698D01*
X28319769Y9657678D01*
X28492749Y9586027D01*
X28676384Y9549500D01*
X28676385Y9549500D01*
X28863615Y9549500D01*
X28863616Y9549500D01*
X29047251Y9586027D01*
X29220231Y9657678D01*
X29375908Y9761698D01*
X29508302Y9894092D01*
X29612322Y10049769D01*
X29683973Y10222749D01*
X29720500Y10406384D01*
X29720500Y10593616D01*
X30359500Y10593616D01*
X30359500Y10406385D01*
X30396025Y10222756D01*
X30396027Y10222749D01*
X30439160Y10118616D01*
X30467678Y10049769D01*
X30571698Y9894092D01*
X30704092Y9761698D01*
X30859769Y9657678D01*
X31032749Y9586027D01*
X31216384Y9549500D01*
X31216385Y9549500D01*
X31403615Y9549500D01*
X31403616Y9549500D01*
X31587251Y9586027D01*
X31760231Y9657678D01*
X31915908Y9761698D01*
X32048302Y9894092D01*
X32152322Y10049769D01*
X32180839Y10118616D01*
X38279500Y10118616D01*
X38279500Y9931385D01*
X38316025Y9747756D01*
X38316027Y9747749D01*
X38383014Y9586027D01*
X38387678Y9574769D01*
X38491698Y9419092D01*
X38624092Y9286698D01*
X38779769Y9182678D01*
X38952749Y9111027D01*
X39136384Y9074500D01*
X39136385Y9074500D01*
X39323615Y9074500D01*
X39323616Y9074500D01*
X39507251Y9111027D01*
X39680231Y9182678D01*
X39835908Y9286698D01*
X39968302Y9419092D01*
X40072322Y9574769D01*
X40143973Y9747749D01*
X40180500Y9931384D01*
X40180500Y10118616D01*
X40819500Y10118616D01*
X40819500Y9931385D01*
X40856025Y9747756D01*
X40856027Y9747749D01*
X40923014Y9586027D01*
X40927678Y9574769D01*
X41031698Y9419092D01*
X41164092Y9286698D01*
X41319769Y9182678D01*
X41492749Y9111027D01*
X41676384Y9074500D01*
X41676385Y9074500D01*
X41863615Y9074500D01*
X41863616Y9074500D01*
X42047251Y9111027D01*
X42220231Y9182678D01*
X42375908Y9286698D01*
X42508302Y9419092D01*
X42612322Y9574769D01*
X42683973Y9747749D01*
X42720500Y9931384D01*
X42720500Y10118616D01*
X42683973Y10302251D01*
X42612322Y10475231D01*
X42508302Y10630908D01*
X42375908Y10763302D01*
X42355030Y10777252D01*
X42324482Y10797664D01*
X42220231Y10867322D01*
X42220228Y10867324D01*
X42220227Y10867324D01*
X42047251Y10938973D01*
X42047244Y10938975D01*
X41908902Y10966493D01*
X41863616Y10975500D01*
X41676384Y10975500D01*
X41640056Y10968275D01*
X41492755Y10938975D01*
X41492748Y10938973D01*
X41319772Y10867324D01*
X41164092Y10763303D01*
X41164091Y10763301D01*
X41031699Y10630909D01*
X41031697Y10630908D01*
X40927676Y10475228D01*
X40856027Y10302252D01*
X40856025Y10302245D01*
X40819500Y10118616D01*
X40180500Y10118616D01*
X40143973Y10302251D01*
X40072322Y10475231D01*
X39968302Y10630908D01*
X39835908Y10763302D01*
X39815030Y10777252D01*
X39784482Y10797664D01*
X39680231Y10867322D01*
X39680228Y10867324D01*
X39680227Y10867324D01*
X39507251Y10938973D01*
X39507244Y10938975D01*
X39368902Y10966493D01*
X39323616Y10975500D01*
X39136384Y10975500D01*
X39100056Y10968275D01*
X38952755Y10938975D01*
X38952748Y10938973D01*
X38779772Y10867324D01*
X38624092Y10763303D01*
X38624091Y10763301D01*
X38491699Y10630909D01*
X38491697Y10630908D01*
X38387676Y10475228D01*
X38316027Y10302252D01*
X38316025Y10302245D01*
X38279500Y10118616D01*
X32180839Y10118616D01*
X32223973Y10222749D01*
X32260500Y10406384D01*
X32260500Y10593616D01*
X32223973Y10777251D01*
X32152322Y10950231D01*
X32048302Y11105908D01*
X31915908Y11238302D01*
X31760231Y11342322D01*
X31760228Y11342324D01*
X31760227Y11342324D01*
X31587251Y11413973D01*
X31587244Y11413975D01*
X31448902Y11441493D01*
X31403616Y11450500D01*
X31216384Y11450500D01*
X31180056Y11443275D01*
X31032755Y11413975D01*
X31032748Y11413973D01*
X30859772Y11342324D01*
X30704092Y11238303D01*
X30704091Y11238301D01*
X30571699Y11105909D01*
X30571697Y11105908D01*
X30467676Y10950228D01*
X30396027Y10777252D01*
X30396025Y10777245D01*
X30359500Y10593616D01*
X29720500Y10593616D01*
X29683973Y10777251D01*
X29612322Y10950231D01*
X29508302Y11105908D01*
X29375908Y11238302D01*
X29220231Y11342322D01*
X29220228Y11342324D01*
X29220227Y11342324D01*
X29047251Y11413973D01*
X29047244Y11413975D01*
X28908902Y11441493D01*
X28863616Y11450500D01*
X28676384Y11450500D01*
X28640056Y11443275D01*
X28492755Y11413975D01*
X28492748Y11413973D01*
X28319772Y11342324D01*
X28164092Y11238303D01*
X28164091Y11238301D01*
X28031699Y11105909D01*
X28031697Y11105908D01*
X27927676Y10950228D01*
X27856027Y10777252D01*
X27856025Y10777245D01*
X27819500Y10593616D01*
X27180500Y10593616D01*
X27143973Y10777251D01*
X27072322Y10950231D01*
X26968302Y11105908D01*
X26835908Y11238302D01*
X26680231Y11342322D01*
X26680228Y11342324D01*
X26680227Y11342324D01*
X26507251Y11413973D01*
X26507244Y11413975D01*
X26368902Y11441493D01*
X26323616Y11450500D01*
X26136384Y11450500D01*
X26100056Y11443275D01*
X25952755Y11413975D01*
X25952748Y11413973D01*
X25779772Y11342324D01*
X25624092Y11238303D01*
X25624091Y11238301D01*
X25491699Y11105909D01*
X25491697Y11105908D01*
X25387676Y10950228D01*
X25316027Y10777252D01*
X25316025Y10777245D01*
X25279500Y10593616D01*
X500500Y10593616D01*
X500500Y16098418D01*
X3249500Y16098418D01*
X3249500Y15901583D01*
X3280290Y15707177D01*
X3280293Y15707164D01*
X3341113Y15519981D01*
X3430475Y15344596D01*
X3517730Y15224500D01*
X3546172Y15185354D01*
X3685354Y15046172D01*
X3685357Y15046170D01*
X3685358Y15046169D01*
X3793048Y14967927D01*
X3844595Y14930476D01*
X4019975Y14841116D01*
X4019977Y14841116D01*
X4019980Y14841114D01*
X4207163Y14780294D01*
X4207169Y14780293D01*
X4207174Y14780291D01*
X4336780Y14759764D01*
X4401582Y14749500D01*
X4401583Y14749500D01*
X4598418Y14749500D01*
X4647019Y14757198D01*
X4792826Y14780291D01*
X4792833Y14780294D01*
X4792836Y14780294D01*
X4980019Y14841114D01*
X4980019Y14841115D01*
X4980025Y14841116D01*
X5155405Y14930476D01*
X5314646Y15046172D01*
X5453828Y15185354D01*
X5569524Y15344595D01*
X5658884Y15519975D01*
X5677650Y15577730D01*
X5719706Y15707164D01*
X5719706Y15707167D01*
X5719709Y15707174D01*
X5741456Y15844482D01*
X14299500Y15844482D01*
X14299500Y15655519D01*
X14329059Y15468885D01*
X14329062Y15468872D01*
X14387449Y15289176D01*
X14473239Y15120802D01*
X14527463Y15046169D01*
X14584310Y14967927D01*
X14717927Y14834310D01*
X14870801Y14723240D01*
X15039168Y14637453D01*
X15039171Y14637453D01*
X15039175Y14637450D01*
X15218871Y14579063D01*
X15218877Y14579062D01*
X15218882Y14579060D01*
X15343306Y14559354D01*
X15405518Y14549500D01*
X15405519Y14549500D01*
X15594482Y14549500D01*
X15641140Y14556890D01*
X15781118Y14579060D01*
X15781125Y14579063D01*
X15781128Y14579063D01*
X15960824Y14637450D01*
X15960826Y14637452D01*
X15960832Y14637453D01*
X16129199Y14723240D01*
X16282073Y14834310D01*
X16415690Y14967927D01*
X16526760Y15120801D01*
X16612547Y15289168D01*
X16617536Y15304520D01*
X16670937Y15468872D01*
X16670937Y15468875D01*
X16670940Y15468882D01*
X16688179Y15577727D01*
X16688179Y15577730D01*
X23299500Y15577730D01*
X23299500Y15472271D01*
X23326791Y15370418D01*
X23326792Y15370415D01*
X23326793Y15370413D01*
X23379520Y15279087D01*
X23454087Y15204520D01*
X23545413Y15151793D01*
X23647270Y15124501D01*
X23647271Y15124500D01*
X23647273Y15124500D01*
X23752729Y15124500D01*
X23752729Y15124501D01*
X23854587Y15151793D01*
X23945913Y15204520D01*
X24020480Y15279087D01*
X24073207Y15370413D01*
X24100499Y15472271D01*
X24100500Y15472271D01*
X24100500Y15577729D01*
X24100499Y15577730D01*
X24077538Y15663424D01*
X24073705Y15677730D01*
X29699500Y15677730D01*
X29699500Y15572271D01*
X29726791Y15470418D01*
X29726795Y15470409D01*
X29779520Y15379087D01*
X29854087Y15304520D01*
X29945413Y15251793D01*
X30047270Y15224501D01*
X30047271Y15224500D01*
X30047273Y15224500D01*
X30152729Y15224500D01*
X30152729Y15224501D01*
X30254587Y15251793D01*
X30345913Y15304520D01*
X30420480Y15379087D01*
X30473207Y15470413D01*
X30500499Y15572271D01*
X30500500Y15572271D01*
X30500500Y15677729D01*
X30500499Y15677730D01*
X30500002Y15679583D01*
X30473207Y15779587D01*
X30420480Y15870913D01*
X30345913Y15945480D01*
X30254591Y15998205D01*
X30254582Y15998209D01*
X30152729Y16025500D01*
X30152727Y16025500D01*
X30047273Y16025500D01*
X30047271Y16025500D01*
X29945417Y15998209D01*
X29945408Y15998205D01*
X29854086Y15945480D01*
X29779520Y15870914D01*
X29726795Y15779592D01*
X29726791Y15779583D01*
X29699500Y15677730D01*
X24073705Y15677730D01*
X24073208Y15679583D01*
X24073207Y15679587D01*
X24020480Y15770913D01*
X23945913Y15845480D01*
X23901860Y15870914D01*
X23854591Y15898205D01*
X23854582Y15898209D01*
X23752729Y15925500D01*
X23752727Y15925500D01*
X23647273Y15925500D01*
X23647271Y15925500D01*
X23545417Y15898209D01*
X23545408Y15898205D01*
X23454086Y15845480D01*
X23379520Y15770914D01*
X23326795Y15679592D01*
X23326791Y15679583D01*
X23299500Y15577730D01*
X16688179Y15577730D01*
X16690781Y15594153D01*
X16700500Y15655519D01*
X16700500Y15844482D01*
X16687668Y15925500D01*
X16670940Y16031118D01*
X16670938Y16031123D01*
X16670937Y16031129D01*
X16612550Y16210825D01*
X16612547Y16210829D01*
X16612547Y16210832D01*
X16526760Y16379199D01*
X16415690Y16532073D01*
X16282073Y16665690D01*
X16282070Y16665693D01*
X16282068Y16665694D01*
X16129198Y16776761D01*
X15960824Y16862551D01*
X15781128Y16920938D01*
X15781115Y16920941D01*
X15594482Y16950500D01*
X15594481Y16950500D01*
X15405519Y16950500D01*
X15405518Y16950500D01*
X15218884Y16920941D01*
X15218871Y16920938D01*
X15039175Y16862551D01*
X14870801Y16776761D01*
X14717931Y16665694D01*
X14584306Y16532069D01*
X14473239Y16379199D01*
X14387449Y16210825D01*
X14329062Y16031129D01*
X14329059Y16031116D01*
X14299500Y15844482D01*
X5741456Y15844482D01*
X5750500Y15901583D01*
X5750500Y16098417D01*
X5719709Y16292826D01*
X5719707Y16292831D01*
X5719706Y16292837D01*
X5658886Y16480020D01*
X5658884Y16480023D01*
X5658884Y16480025D01*
X5569524Y16655405D01*
X5480997Y16777251D01*
X5453831Y16814642D01*
X5453830Y16814643D01*
X5453828Y16814646D01*
X5314646Y16953828D01*
X5314643Y16953831D01*
X5314641Y16953832D01*
X5199642Y17037384D01*
X5155405Y17069525D01*
X5108123Y17093616D01*
X25279500Y17093616D01*
X25279500Y16906385D01*
X25316025Y16722756D01*
X25316027Y16722749D01*
X25356279Y16625571D01*
X25387678Y16549769D01*
X25434283Y16480020D01*
X25483484Y16406384D01*
X25491698Y16394092D01*
X25624092Y16261698D01*
X25779769Y16157678D01*
X25952749Y16086027D01*
X26136384Y16049500D01*
X26136385Y16049500D01*
X26323615Y16049500D01*
X26323616Y16049500D01*
X26507251Y16086027D01*
X26680231Y16157678D01*
X26835908Y16261698D01*
X26968302Y16394092D01*
X27072322Y16549769D01*
X27143973Y16722749D01*
X27180500Y16906384D01*
X27180500Y17093616D01*
X27819500Y17093616D01*
X27819500Y16906385D01*
X27856025Y16722756D01*
X27856027Y16722749D01*
X27896279Y16625571D01*
X27927678Y16549769D01*
X27974283Y16480020D01*
X28023484Y16406384D01*
X28031698Y16394092D01*
X28164092Y16261698D01*
X28319769Y16157678D01*
X28492749Y16086027D01*
X28676384Y16049500D01*
X28676385Y16049500D01*
X28863615Y16049500D01*
X28863616Y16049500D01*
X29047251Y16086027D01*
X29220231Y16157678D01*
X29375908Y16261698D01*
X29508302Y16394092D01*
X29612322Y16549769D01*
X29683973Y16722749D01*
X29720500Y16906384D01*
X29720500Y17093616D01*
X30359500Y17093616D01*
X30359500Y16906385D01*
X30396025Y16722756D01*
X30396027Y16722749D01*
X30436279Y16625571D01*
X30467678Y16549769D01*
X30514283Y16480020D01*
X30563484Y16406384D01*
X30571698Y16394092D01*
X30704092Y16261698D01*
X30859769Y16157678D01*
X31032749Y16086027D01*
X31216384Y16049500D01*
X31216385Y16049500D01*
X31403615Y16049500D01*
X31403616Y16049500D01*
X31587251Y16086027D01*
X31760231Y16157678D01*
X31915908Y16261698D01*
X32048302Y16394092D01*
X32152322Y16549769D01*
X32170484Y16593616D01*
X38339500Y16593616D01*
X38339500Y16406385D01*
X38376025Y16222756D01*
X38376027Y16222749D01*
X38447678Y16049769D01*
X38482131Y15998207D01*
X38548949Y15898205D01*
X38551698Y15894092D01*
X38684092Y15761698D01*
X38839769Y15657678D01*
X39012749Y15586027D01*
X39196384Y15549500D01*
X39196385Y15549500D01*
X39383615Y15549500D01*
X39383616Y15549500D01*
X39567251Y15586027D01*
X39740231Y15657678D01*
X39895908Y15761698D01*
X40028302Y15894092D01*
X40132322Y16049769D01*
X40203973Y16222749D01*
X40240500Y16406384D01*
X40240500Y16593616D01*
X40879500Y16593616D01*
X40879500Y16406385D01*
X40916025Y16222756D01*
X40916027Y16222749D01*
X40987678Y16049769D01*
X41022131Y15998207D01*
X41088949Y15898205D01*
X41091698Y15894092D01*
X41224092Y15761698D01*
X41379769Y15657678D01*
X41552749Y15586027D01*
X41736384Y15549500D01*
X41736385Y15549500D01*
X41923615Y15549500D01*
X41923616Y15549500D01*
X42107251Y15586027D01*
X42280231Y15657678D01*
X42435908Y15761698D01*
X42568302Y15894092D01*
X42672322Y16049769D01*
X42743973Y16222749D01*
X42780500Y16406384D01*
X42780500Y16593616D01*
X42743973Y16777251D01*
X42672322Y16950231D01*
X42568302Y17105908D01*
X42435908Y17238302D01*
X42417652Y17250500D01*
X42377615Y17277252D01*
X42280231Y17342322D01*
X42280228Y17342324D01*
X42280227Y17342324D01*
X42107251Y17413973D01*
X42107244Y17413975D01*
X41968902Y17441493D01*
X41923616Y17450500D01*
X41736384Y17450500D01*
X41700056Y17443275D01*
X41552755Y17413975D01*
X41552748Y17413973D01*
X41379772Y17342324D01*
X41224092Y17238303D01*
X41224091Y17238301D01*
X41091699Y17105909D01*
X41091697Y17105908D01*
X40987676Y16950228D01*
X40916027Y16777252D01*
X40916025Y16777245D01*
X40879500Y16593616D01*
X40240500Y16593616D01*
X40203973Y16777251D01*
X40132322Y16950231D01*
X40028302Y17105908D01*
X39895908Y17238302D01*
X39877652Y17250500D01*
X39837615Y17277252D01*
X39740231Y17342322D01*
X39740228Y17342324D01*
X39740227Y17342324D01*
X39567251Y17413973D01*
X39567244Y17413975D01*
X39428902Y17441493D01*
X39383616Y17450500D01*
X39196384Y17450500D01*
X39160056Y17443275D01*
X39012755Y17413975D01*
X39012748Y17413973D01*
X38839772Y17342324D01*
X38684092Y17238303D01*
X38684091Y17238301D01*
X38551699Y17105909D01*
X38551697Y17105908D01*
X38447676Y16950228D01*
X38376027Y16777252D01*
X38376025Y16777245D01*
X38339500Y16593616D01*
X32170484Y16593616D01*
X32223973Y16722749D01*
X32260500Y16906384D01*
X32260500Y17093616D01*
X32223973Y17277251D01*
X32152322Y17450231D01*
X32048302Y17605908D01*
X31915908Y17738302D01*
X31760231Y17842322D01*
X31760228Y17842324D01*
X31760227Y17842324D01*
X31587251Y17913973D01*
X31587244Y17913975D01*
X31448902Y17941493D01*
X31403616Y17950500D01*
X31216384Y17950500D01*
X31180056Y17943275D01*
X31032755Y17913975D01*
X31032748Y17913973D01*
X30859772Y17842324D01*
X30704092Y17738303D01*
X30704091Y17738301D01*
X30571699Y17605909D01*
X30571697Y17605908D01*
X30467676Y17450228D01*
X30396027Y17277252D01*
X30396025Y17277245D01*
X30359500Y17093616D01*
X29720500Y17093616D01*
X29683973Y17277251D01*
X29612322Y17450231D01*
X29508302Y17605908D01*
X29375908Y17738302D01*
X29220231Y17842322D01*
X29220228Y17842324D01*
X29220227Y17842324D01*
X29047251Y17913973D01*
X29047244Y17913975D01*
X28908902Y17941493D01*
X28863616Y17950500D01*
X28676384Y17950500D01*
X28640056Y17943275D01*
X28492755Y17913975D01*
X28492748Y17913973D01*
X28319772Y17842324D01*
X28164092Y17738303D01*
X28164091Y17738301D01*
X28031699Y17605909D01*
X28031697Y17605908D01*
X27927676Y17450228D01*
X27856027Y17277252D01*
X27856025Y17277245D01*
X27819500Y17093616D01*
X27180500Y17093616D01*
X27143973Y17277251D01*
X27072322Y17450231D01*
X26968302Y17605908D01*
X26835908Y17738302D01*
X26680231Y17842322D01*
X26680228Y17842324D01*
X26680227Y17842324D01*
X26507251Y17913973D01*
X26507244Y17913975D01*
X26368902Y17941493D01*
X26323616Y17950500D01*
X26136384Y17950500D01*
X26100056Y17943275D01*
X25952755Y17913975D01*
X25952748Y17913973D01*
X25779772Y17842324D01*
X25624092Y17738303D01*
X25624091Y17738301D01*
X25491699Y17605909D01*
X25491697Y17605908D01*
X25387676Y17450228D01*
X25316027Y17277252D01*
X25316025Y17277245D01*
X25279500Y17093616D01*
X5108123Y17093616D01*
X4980019Y17158887D01*
X4792836Y17219707D01*
X4792823Y17219710D01*
X4598418Y17250500D01*
X4598417Y17250500D01*
X4401583Y17250500D01*
X4401582Y17250500D01*
X4207176Y17219710D01*
X4207163Y17219707D01*
X4019980Y17158887D01*
X3844595Y17069525D01*
X3685358Y16953832D01*
X3546168Y16814642D01*
X3430475Y16655405D01*
X3341113Y16480020D01*
X3280293Y16292837D01*
X3280290Y16292824D01*
X3249500Y16098418D01*
X500500Y16098418D01*
X500500Y19402730D01*
X31374500Y19402730D01*
X31374500Y19297271D01*
X31401791Y19195418D01*
X31401795Y19195409D01*
X31428521Y19149119D01*
X31454520Y19104087D01*
X31529087Y19029520D01*
X31620413Y18976793D01*
X31620417Y18976792D01*
X31714919Y18951470D01*
X31759852Y18916992D01*
X31767244Y18860839D01*
X31732766Y18815906D01*
X31654086Y18770480D01*
X31579520Y18695914D01*
X31526795Y18604592D01*
X31526791Y18604583D01*
X31499500Y18502730D01*
X31499500Y18397271D01*
X31526791Y18295418D01*
X31526792Y18295415D01*
X31526793Y18295413D01*
X31579520Y18204087D01*
X31654087Y18129520D01*
X31745413Y18076793D01*
X31847270Y18049501D01*
X31847271Y18049500D01*
X31847273Y18049500D01*
X31952729Y18049500D01*
X31952729Y18049501D01*
X32054587Y18076793D01*
X32145913Y18129520D01*
X32220480Y18204087D01*
X32273207Y18295413D01*
X32300499Y18397271D01*
X32300500Y18397271D01*
X32300500Y18502729D01*
X32300499Y18502730D01*
X32273208Y18604583D01*
X32273207Y18604587D01*
X32220480Y18695913D01*
X32145913Y18770480D01*
X32084562Y18805901D01*
X32054591Y18823205D01*
X32054582Y18823209D01*
X31960080Y18848531D01*
X31915147Y18883010D01*
X31907755Y18939162D01*
X31942231Y18984094D01*
X32020913Y19029520D01*
X32095480Y19104087D01*
X32138795Y19179111D01*
X32850881Y19179111D01*
X32850881Y19073652D01*
X32878172Y18971799D01*
X32878173Y18971796D01*
X32878174Y18971794D01*
X32930901Y18880468D01*
X33005468Y18805901D01*
X33096794Y18753174D01*
X33198651Y18725882D01*
X33198652Y18725881D01*
X33198654Y18725881D01*
X33304110Y18725881D01*
X33304110Y18725882D01*
X33405968Y18753174D01*
X33497294Y18805901D01*
X33571861Y18880468D01*
X33624588Y18971794D01*
X33651880Y19073652D01*
X33651881Y19073652D01*
X33651881Y19149119D01*
X33673555Y19201445D01*
X33725881Y19223119D01*
X33801348Y19223119D01*
X33801348Y19223120D01*
X33903206Y19250412D01*
X33994532Y19303139D01*
X34069099Y19377706D01*
X34121826Y19469032D01*
X34149118Y19570890D01*
X34149119Y19570890D01*
X34149119Y19676348D01*
X34149118Y19676349D01*
X34121827Y19778202D01*
X34121826Y19778206D01*
X34069099Y19869532D01*
X33994532Y19944099D01*
X33979583Y19952730D01*
X33903210Y19996824D01*
X33903201Y19996828D01*
X33801348Y20024119D01*
X33801346Y20024119D01*
X33695892Y20024119D01*
X33695890Y20024119D01*
X33594036Y19996828D01*
X33594027Y19996824D01*
X33502705Y19944099D01*
X33428139Y19869533D01*
X33375414Y19778211D01*
X33375410Y19778202D01*
X33348119Y19676349D01*
X33348119Y19600881D01*
X33326445Y19548555D01*
X33274119Y19526881D01*
X33198652Y19526881D01*
X33096798Y19499590D01*
X33096789Y19499586D01*
X33005467Y19446861D01*
X32930901Y19372295D01*
X32878176Y19280973D01*
X32878172Y19280964D01*
X32850881Y19179111D01*
X32138795Y19179111D01*
X32148207Y19195413D01*
X32175500Y19297273D01*
X32175500Y19402727D01*
X32175500Y19402729D01*
X32175499Y19402730D01*
X32148208Y19504583D01*
X32148207Y19504587D01*
X32095480Y19595913D01*
X32020913Y19670480D01*
X32010748Y19676349D01*
X31929591Y19723205D01*
X31929582Y19723209D01*
X31827729Y19750500D01*
X31827727Y19750500D01*
X31722273Y19750500D01*
X31722271Y19750500D01*
X31620417Y19723209D01*
X31620408Y19723205D01*
X31529086Y19670480D01*
X31454520Y19595914D01*
X31401795Y19504592D01*
X31401791Y19504583D01*
X31374500Y19402730D01*
X500500Y19402730D01*
X500500Y19952730D01*
X22199500Y19952730D01*
X22199500Y19847271D01*
X22226791Y19745418D01*
X22226795Y19745409D01*
X22279520Y19654087D01*
X22354087Y19579520D01*
X22445413Y19526793D01*
X22547270Y19499501D01*
X22547271Y19499500D01*
X22547273Y19499500D01*
X22652729Y19499500D01*
X22652729Y19499501D01*
X22754587Y19526793D01*
X22845913Y19579520D01*
X22920480Y19654087D01*
X22973207Y19745413D01*
X23000499Y19847271D01*
X23000500Y19847271D01*
X23000500Y19952729D01*
X23000499Y19952730D01*
X22973208Y20054583D01*
X22973207Y20054587D01*
X22920480Y20145913D01*
X22845913Y20220480D01*
X22754591Y20273205D01*
X22754582Y20273209D01*
X22652729Y20300500D01*
X22652727Y20300500D01*
X22547273Y20300500D01*
X22547271Y20300500D01*
X22445417Y20273209D01*
X22445408Y20273205D01*
X22354086Y20220480D01*
X22279520Y20145914D01*
X22226795Y20054592D01*
X22226791Y20054583D01*
X22199500Y19952730D01*
X500500Y19952730D01*
X500500Y21702730D01*
X37274500Y21702730D01*
X37274500Y21597271D01*
X37301791Y21495418D01*
X37301795Y21495409D01*
X37354520Y21404087D01*
X37429087Y21329520D01*
X37520413Y21276793D01*
X37622270Y21249501D01*
X37622271Y21249500D01*
X37622273Y21249500D01*
X37727729Y21249500D01*
X37727729Y21249501D01*
X37829587Y21276793D01*
X37920913Y21329520D01*
X37960174Y21368781D01*
X38012500Y21390455D01*
X38064826Y21368781D01*
X38129087Y21304520D01*
X38220413Y21251793D01*
X38322270Y21224501D01*
X38322271Y21224500D01*
X38322273Y21224500D01*
X38427729Y21224500D01*
X38427729Y21224501D01*
X38529587Y21251793D01*
X38620913Y21304520D01*
X38672674Y21356281D01*
X38725000Y21377955D01*
X38777326Y21356281D01*
X38779520Y21354087D01*
X38854087Y21279520D01*
X38945413Y21226793D01*
X39047270Y21199501D01*
X39047271Y21199500D01*
X39047273Y21199500D01*
X39152729Y21199500D01*
X39152729Y21199501D01*
X39254587Y21226793D01*
X39345913Y21279520D01*
X39420480Y21354087D01*
X39473207Y21445413D01*
X39500499Y21547271D01*
X39500500Y21547271D01*
X39500500Y21652729D01*
X39500499Y21652730D01*
X39473208Y21754583D01*
X39473207Y21754587D01*
X39420480Y21845913D01*
X39345913Y21920480D01*
X39287704Y21954087D01*
X39254591Y21973205D01*
X39254582Y21973209D01*
X39152729Y22000500D01*
X39152727Y22000500D01*
X39047273Y22000500D01*
X39047271Y22000500D01*
X38945417Y21973209D01*
X38945408Y21973205D01*
X38854086Y21920480D01*
X38802326Y21868719D01*
X38750000Y21847045D01*
X38697674Y21868719D01*
X38620913Y21945480D01*
X38529591Y21998205D01*
X38529582Y21998209D01*
X38427729Y22025500D01*
X38427727Y22025500D01*
X38322273Y22025500D01*
X38322271Y22025500D01*
X38220417Y21998209D01*
X38220408Y21998205D01*
X38129086Y21945480D01*
X38089826Y21906219D01*
X38037500Y21884545D01*
X37985174Y21906219D01*
X37920913Y21970480D01*
X37829591Y22023205D01*
X37829582Y22023209D01*
X37727729Y22050500D01*
X37727727Y22050500D01*
X37622273Y22050500D01*
X37622271Y22050500D01*
X37520417Y22023209D01*
X37520408Y22023205D01*
X37429086Y21970480D01*
X37354520Y21895914D01*
X37301795Y21804592D01*
X37301791Y21804583D01*
X37274500Y21702730D01*
X500500Y21702730D01*
X500500Y22252730D01*
X30299500Y22252730D01*
X30299500Y22147271D01*
X30326791Y22045418D01*
X30326795Y22045409D01*
X30379520Y21954087D01*
X30454087Y21879520D01*
X30545413Y21826793D01*
X30647270Y21799501D01*
X30647271Y21799500D01*
X30647273Y21799500D01*
X30752729Y21799500D01*
X30752729Y21799501D01*
X30854587Y21826793D01*
X30945913Y21879520D01*
X31020480Y21954087D01*
X31073207Y22045413D01*
X31100499Y22147271D01*
X31100500Y22147271D01*
X31100500Y22252729D01*
X31100499Y22252730D01*
X31080654Y22326792D01*
X31073207Y22354587D01*
X31020480Y22445913D01*
X30945913Y22520480D01*
X30902719Y22545418D01*
X30854591Y22573205D01*
X30854582Y22573209D01*
X30752729Y22600500D01*
X30752727Y22600500D01*
X30647273Y22600500D01*
X30647271Y22600500D01*
X30545417Y22573209D01*
X30545408Y22573205D01*
X30454086Y22520480D01*
X30379520Y22445914D01*
X30326795Y22354592D01*
X30326791Y22354583D01*
X30299500Y22252730D01*
X500500Y22252730D01*
X500500Y22752730D01*
X33049500Y22752730D01*
X33049500Y22647271D01*
X33076791Y22545418D01*
X33076792Y22545415D01*
X33076793Y22545413D01*
X33129520Y22454087D01*
X33204087Y22379520D01*
X33295413Y22326793D01*
X33397270Y22299501D01*
X33397271Y22299500D01*
X33397273Y22299500D01*
X33502729Y22299500D01*
X33502729Y22299501D01*
X33604587Y22326793D01*
X33695913Y22379520D01*
X33770480Y22454087D01*
X33823207Y22545413D01*
X33850499Y22647271D01*
X33850500Y22647271D01*
X33850500Y22752729D01*
X33850499Y22752730D01*
X33823208Y22854583D01*
X33823207Y22854587D01*
X33770480Y22945913D01*
X33695913Y23020480D01*
X33604591Y23073205D01*
X33604582Y23073209D01*
X33502729Y23100500D01*
X33502727Y23100500D01*
X33397273Y23100500D01*
X33397271Y23100500D01*
X33295417Y23073209D01*
X33295408Y23073205D01*
X33204086Y23020480D01*
X33129520Y22945914D01*
X33076795Y22854592D01*
X33076791Y22854583D01*
X33049500Y22752730D01*
X500500Y22752730D01*
X500500Y25114158D01*
X9049500Y25114158D01*
X9049500Y24885843D01*
X9085215Y24660343D01*
X9085218Y24660330D01*
X9155766Y24443207D01*
X9155768Y24443202D01*
X9155769Y24443201D01*
X9259421Y24239772D01*
X9393621Y24055063D01*
X9555063Y23893621D01*
X9739772Y23759421D01*
X9943201Y23655769D01*
X9943203Y23655769D01*
X9943206Y23655767D01*
X10160329Y23585219D01*
X10160335Y23585218D01*
X10160340Y23585216D01*
X10310675Y23561406D01*
X10385842Y23549500D01*
X10385843Y23549500D01*
X10614158Y23549500D01*
X10670532Y23558429D01*
X10792395Y23577730D01*
X30824500Y23577730D01*
X30824500Y23472271D01*
X30851791Y23370418D01*
X30851792Y23370415D01*
X30851793Y23370413D01*
X30904520Y23279087D01*
X30979087Y23204520D01*
X31070413Y23151793D01*
X31172270Y23124501D01*
X31172271Y23124500D01*
X31172273Y23124500D01*
X31277729Y23124500D01*
X31277729Y23124501D01*
X31379587Y23151793D01*
X31470913Y23204520D01*
X31545480Y23279087D01*
X31598207Y23370413D01*
X31625499Y23472271D01*
X31625500Y23472271D01*
X31625500Y23577729D01*
X31625499Y23577730D01*
X31623492Y23585219D01*
X31598207Y23679587D01*
X31545480Y23770913D01*
X31470913Y23845480D01*
X31379591Y23898205D01*
X31379582Y23898209D01*
X31277729Y23925500D01*
X31277727Y23925500D01*
X31172273Y23925500D01*
X31172271Y23925500D01*
X31070417Y23898209D01*
X31070408Y23898205D01*
X30979086Y23845480D01*
X30904520Y23770914D01*
X30851795Y23679592D01*
X30851791Y23679583D01*
X30824500Y23577730D01*
X10792395Y23577730D01*
X10839660Y23585216D01*
X10839667Y23585219D01*
X10839670Y23585219D01*
X10912424Y23608859D01*
X11048138Y23652955D01*
X11048139Y23652955D01*
X11050116Y23653598D01*
X11056799Y23655769D01*
X11260228Y23759421D01*
X11444937Y23893621D01*
X11606379Y24055063D01*
X11740579Y24239772D01*
X11844231Y24443201D01*
X11914784Y24660340D01*
X11950500Y24885843D01*
X11950500Y25002730D01*
X35224500Y25002730D01*
X35224500Y24897271D01*
X35251791Y24795418D01*
X35251792Y24795415D01*
X35251793Y24795413D01*
X35304520Y24704087D01*
X35379087Y24629520D01*
X35470413Y24576793D01*
X35572270Y24549501D01*
X35572271Y24549500D01*
X35572273Y24549500D01*
X35677729Y24549500D01*
X35677729Y24549501D01*
X35779587Y24576793D01*
X35870913Y24629520D01*
X35945480Y24704087D01*
X35998207Y24795413D01*
X36025499Y24897271D01*
X36025500Y24897271D01*
X36025500Y25002729D01*
X36025499Y25002730D01*
X35998208Y25104583D01*
X35998207Y25104587D01*
X35945480Y25195913D01*
X35870913Y25270480D01*
X35779591Y25323205D01*
X35779582Y25323209D01*
X35677729Y25350500D01*
X35677727Y25350500D01*
X35572273Y25350500D01*
X35572271Y25350500D01*
X35470417Y25323209D01*
X35470408Y25323205D01*
X35379086Y25270480D01*
X35304520Y25195914D01*
X35251795Y25104592D01*
X35251791Y25104583D01*
X35224500Y25002730D01*
X11950500Y25002730D01*
X11950500Y25114157D01*
X11914784Y25339660D01*
X11914782Y25339665D01*
X11914781Y25339671D01*
X11844233Y25556794D01*
X11844231Y25556797D01*
X11844231Y25556799D01*
X11740579Y25760228D01*
X11606379Y25944937D01*
X11444937Y26106379D01*
X11444934Y26106382D01*
X11444932Y26106383D01*
X11260227Y26240580D01*
X11056793Y26344234D01*
X10839670Y26414782D01*
X10839657Y26414785D01*
X10614158Y26450500D01*
X10614157Y26450500D01*
X10385843Y26450500D01*
X10385842Y26450500D01*
X10160342Y26414785D01*
X10160329Y26414782D01*
X9943206Y26344234D01*
X9739772Y26240580D01*
X9555067Y26106383D01*
X9393617Y25944933D01*
X9259420Y25760228D01*
X9155766Y25556794D01*
X9085218Y25339671D01*
X9085215Y25339658D01*
X9049500Y25114158D01*
X500500Y25114158D01*
X500500Y26752730D01*
X28774500Y26752730D01*
X28774500Y26647271D01*
X28801791Y26545418D01*
X28801792Y26545415D01*
X28801793Y26545413D01*
X28854520Y26454087D01*
X28929087Y26379520D01*
X29020413Y26326793D01*
X29122270Y26299501D01*
X29122271Y26299500D01*
X29122273Y26299500D01*
X29227729Y26299500D01*
X29227729Y26299501D01*
X29329587Y26326793D01*
X29420913Y26379520D01*
X29495480Y26454087D01*
X29548207Y26545413D01*
X29575499Y26647271D01*
X29575500Y26647271D01*
X29575500Y26752729D01*
X29575499Y26752730D01*
X29548208Y26854583D01*
X29548207Y26854587D01*
X29495480Y26945913D01*
X29495479Y26945914D01*
X29493427Y26949469D01*
X29486034Y27005622D01*
X29505186Y27038794D01*
X29520480Y27054087D01*
X29573207Y27145413D01*
X29600499Y27247271D01*
X29600500Y27247271D01*
X29600500Y27352729D01*
X29600499Y27352730D01*
X29573208Y27454583D01*
X29573207Y27454587D01*
X29520480Y27545913D01*
X29445913Y27620480D01*
X29354591Y27673205D01*
X29354582Y27673209D01*
X29252729Y27700500D01*
X29252727Y27700500D01*
X29147273Y27700500D01*
X29147271Y27700500D01*
X29045417Y27673209D01*
X29045408Y27673205D01*
X28954086Y27620480D01*
X28879520Y27545914D01*
X28826795Y27454592D01*
X28826791Y27454583D01*
X28799500Y27352730D01*
X28799500Y27247271D01*
X28826791Y27145418D01*
X28826795Y27145409D01*
X28881572Y27050532D01*
X28888964Y26994379D01*
X28869813Y26961207D01*
X28854520Y26945914D01*
X28801795Y26854592D01*
X28801791Y26854583D01*
X28774500Y26752730D01*
X500500Y26752730D01*
X500500Y28502730D01*
X28724500Y28502730D01*
X28724500Y28397271D01*
X28751791Y28295418D01*
X28751792Y28295415D01*
X28751793Y28295413D01*
X28804520Y28204087D01*
X28879087Y28129520D01*
X28970413Y28076793D01*
X29072270Y28049501D01*
X29072271Y28049500D01*
X29072273Y28049500D01*
X29177729Y28049500D01*
X29177729Y28049501D01*
X29279587Y28076793D01*
X29370913Y28129520D01*
X29445480Y28204087D01*
X29498207Y28295413D01*
X29525499Y28397271D01*
X29525500Y28397271D01*
X29525500Y28502729D01*
X29525499Y28502730D01*
X29525135Y28504087D01*
X29498207Y28604587D01*
X29445480Y28695913D01*
X29370913Y28770480D01*
X29315055Y28802730D01*
X40574500Y28802730D01*
X40574500Y28697271D01*
X40601791Y28595418D01*
X40601792Y28595415D01*
X40601793Y28595413D01*
X40654520Y28504087D01*
X40729087Y28429520D01*
X40820413Y28376793D01*
X40922270Y28349501D01*
X40922271Y28349500D01*
X40922273Y28349500D01*
X41027729Y28349500D01*
X41027729Y28349501D01*
X41129587Y28376793D01*
X41220913Y28429520D01*
X41295480Y28504087D01*
X41348207Y28595413D01*
X41375499Y28697271D01*
X41375500Y28697271D01*
X41375500Y28802729D01*
X41375499Y28802730D01*
X41348208Y28904583D01*
X41348207Y28904587D01*
X41295480Y28995913D01*
X41220913Y29070480D01*
X41129591Y29123205D01*
X41129582Y29123209D01*
X41027729Y29150500D01*
X41027727Y29150500D01*
X40922273Y29150500D01*
X40922271Y29150500D01*
X40820417Y29123209D01*
X40820408Y29123205D01*
X40729086Y29070480D01*
X40654520Y28995914D01*
X40601795Y28904592D01*
X40601791Y28904583D01*
X40574500Y28802730D01*
X29315055Y28802730D01*
X29279591Y28823205D01*
X29279582Y28823209D01*
X29177729Y28850500D01*
X29177727Y28850500D01*
X29072273Y28850500D01*
X29072271Y28850500D01*
X28970417Y28823209D01*
X28970408Y28823205D01*
X28879086Y28770480D01*
X28804520Y28695914D01*
X28751795Y28604592D01*
X28751791Y28604583D01*
X28724500Y28502730D01*
X500500Y28502730D01*
X500500Y31677730D01*
X14699500Y31677730D01*
X14699500Y31572271D01*
X14726791Y31470418D01*
X14726792Y31470415D01*
X14726793Y31470413D01*
X14779520Y31379087D01*
X14854087Y31304520D01*
X14945413Y31251793D01*
X15047273Y31224500D01*
X15047278Y31224500D01*
X15052080Y31223867D01*
X15051776Y31221563D01*
X15097012Y31202826D01*
X15118686Y31150500D01*
X15097012Y31098174D01*
X15081686Y31086414D01*
X15054086Y31070480D01*
X14979520Y30995914D01*
X14926795Y30904592D01*
X14926791Y30904583D01*
X14899500Y30802730D01*
X14899500Y30697271D01*
X14926791Y30595418D01*
X14926795Y30595409D01*
X14952875Y30550238D01*
X14979520Y30504087D01*
X15054087Y30429520D01*
X15145413Y30376793D01*
X15247270Y30349501D01*
X15247271Y30349500D01*
X15247273Y30349500D01*
X15352729Y30349500D01*
X15352729Y30349501D01*
X15454587Y30376793D01*
X15545913Y30429520D01*
X15620480Y30504087D01*
X15648564Y30552730D01*
X23224500Y30552730D01*
X23224500Y30447271D01*
X23251791Y30345418D01*
X23251795Y30345409D01*
X23304269Y30254521D01*
X23304520Y30254087D01*
X23379087Y30179520D01*
X23470413Y30126793D01*
X23572270Y30099501D01*
X23572271Y30099500D01*
X23572273Y30099500D01*
X23677729Y30099500D01*
X23677729Y30099501D01*
X23779587Y30126793D01*
X23870913Y30179520D01*
X23945480Y30254087D01*
X23998207Y30345413D01*
X24025499Y30447271D01*
X24025500Y30447271D01*
X24025500Y30527727D01*
X24299500Y30527727D01*
X24299500Y30422273D01*
X24302967Y30409333D01*
X24303210Y30400639D01*
X24299809Y30382199D01*
X24300922Y30381977D01*
X24299500Y30374827D01*
X24299500Y30275171D01*
X24337634Y30183106D01*
X24337635Y30183104D01*
X24337636Y30183103D01*
X24408103Y30112636D01*
X24500172Y30074500D01*
X24500173Y30074500D01*
X24599830Y30074500D01*
X24606979Y30075922D01*
X24607480Y30073399D01*
X24642735Y30075716D01*
X24644738Y30075180D01*
X24647272Y30074500D01*
X24647273Y30074500D01*
X24752729Y30074500D01*
X24752729Y30074501D01*
X24854587Y30101793D01*
X24945913Y30154520D01*
X25020480Y30229087D01*
X25073207Y30320413D01*
X25088565Y30377730D01*
X28174500Y30377730D01*
X28174500Y30272271D01*
X28201791Y30170418D01*
X28201795Y30170409D01*
X28235151Y30112635D01*
X28254520Y30079087D01*
X28329087Y30004520D01*
X28420413Y29951793D01*
X28522270Y29924501D01*
X28522271Y29924500D01*
X28522273Y29924500D01*
X28627729Y29924500D01*
X28627729Y29924501D01*
X28729587Y29951793D01*
X28820913Y30004520D01*
X28895480Y30079087D01*
X28948207Y30170413D01*
X28975499Y30272271D01*
X28975500Y30272271D01*
X28975500Y30377729D01*
X28975499Y30377730D01*
X28964063Y30420409D01*
X28948207Y30479587D01*
X28895480Y30570913D01*
X28820913Y30645480D01*
X28772892Y30673205D01*
X28729591Y30698205D01*
X28729582Y30698209D01*
X28627729Y30725500D01*
X28627727Y30725500D01*
X28522273Y30725500D01*
X28522271Y30725500D01*
X28420417Y30698209D01*
X28420408Y30698205D01*
X28329086Y30645480D01*
X28254520Y30570914D01*
X28201795Y30479592D01*
X28201791Y30479583D01*
X28174500Y30377730D01*
X25088565Y30377730D01*
X25089703Y30381977D01*
X25094996Y30401730D01*
X25097606Y30411474D01*
X25100499Y30422271D01*
X25100500Y30422271D01*
X25100500Y30527729D01*
X25100499Y30527730D01*
X25093800Y30552730D01*
X25073207Y30629587D01*
X25020480Y30720913D01*
X24945913Y30795480D01*
X24933356Y30802730D01*
X29224500Y30802730D01*
X29224500Y30697271D01*
X29251791Y30595418D01*
X29251795Y30595409D01*
X29277875Y30550238D01*
X29304520Y30504087D01*
X29379087Y30429520D01*
X29441536Y30393465D01*
X29444247Y30391900D01*
X29478726Y30346967D01*
X29471333Y30290814D01*
X29456980Y30274447D01*
X29457517Y30273910D01*
X29379520Y30195914D01*
X29326795Y30104592D01*
X29326791Y30104583D01*
X29299500Y30002730D01*
X29299500Y29897271D01*
X29326791Y29795418D01*
X29326792Y29795415D01*
X29326793Y29795413D01*
X29379520Y29704087D01*
X29454087Y29629520D01*
X29545413Y29576793D01*
X29647270Y29549501D01*
X29647271Y29549500D01*
X29647273Y29549500D01*
X29752729Y29549500D01*
X29752729Y29549501D01*
X29854587Y29576793D01*
X29945913Y29629520D01*
X30020480Y29704087D01*
X30073207Y29795413D01*
X30100499Y29897271D01*
X30100500Y29897271D01*
X30100500Y30002729D01*
X30100499Y30002730D01*
X30100019Y30004520D01*
X30073207Y30104587D01*
X30020480Y30195913D01*
X29945913Y30270480D01*
X29937786Y30275172D01*
X29906057Y30293491D01*
X29880752Y30308101D01*
X29846507Y30352730D01*
X31599500Y30352730D01*
X31599500Y30247271D01*
X31626791Y30145418D01*
X31626795Y30145409D01*
X31667734Y30074501D01*
X31679520Y30054087D01*
X31754087Y29979520D01*
X31845413Y29926793D01*
X31947270Y29899501D01*
X31947271Y29899500D01*
X31947273Y29899500D01*
X32052729Y29899500D01*
X32052729Y29899501D01*
X32154587Y29926793D01*
X32245913Y29979520D01*
X32320480Y30054087D01*
X32373207Y30145413D01*
X32384401Y30187192D01*
X32418878Y30232124D01*
X32475031Y30239517D01*
X32492873Y30232127D01*
X32545413Y30201793D01*
X32647270Y30174501D01*
X32647271Y30174500D01*
X32647273Y30174500D01*
X32752729Y30174500D01*
X32752729Y30174501D01*
X32854587Y30201793D01*
X32945913Y30254520D01*
X33020480Y30329087D01*
X33073207Y30420413D01*
X33100499Y30522271D01*
X33100500Y30522271D01*
X33100500Y30552730D01*
X34874500Y30552730D01*
X34874500Y30447271D01*
X34901791Y30345418D01*
X34901795Y30345409D01*
X34954269Y30254521D01*
X34954520Y30254087D01*
X35029087Y30179520D01*
X35120413Y30126793D01*
X35222270Y30099501D01*
X35222271Y30099500D01*
X35222273Y30099500D01*
X35327729Y30099500D01*
X35327729Y30099501D01*
X35429587Y30126793D01*
X35520913Y30179520D01*
X35595480Y30254087D01*
X35648207Y30345413D01*
X35675499Y30447271D01*
X35675500Y30447271D01*
X35675500Y30552729D01*
X35675499Y30552730D01*
X35675135Y30554087D01*
X35648207Y30654587D01*
X35595480Y30745913D01*
X35520913Y30820480D01*
X35472892Y30848205D01*
X35465055Y30852730D01*
X38799500Y30852730D01*
X38799500Y30747271D01*
X38826791Y30645418D01*
X38826795Y30645409D01*
X38879520Y30554087D01*
X38881281Y30552326D01*
X38881762Y30551165D01*
X38882473Y30550238D01*
X38882224Y30550048D01*
X38902955Y30500000D01*
X38882224Y30449953D01*
X38882473Y30449762D01*
X38881762Y30448836D01*
X38881281Y30447674D01*
X38879520Y30445914D01*
X38826795Y30354592D01*
X38826791Y30354583D01*
X38799500Y30252730D01*
X38799500Y30147271D01*
X38826791Y30045418D01*
X38826795Y30045409D01*
X38851438Y30002727D01*
X38879520Y29954087D01*
X38954087Y29879520D01*
X39045413Y29826793D01*
X39147270Y29799501D01*
X39147271Y29799500D01*
X39147273Y29799500D01*
X39252729Y29799500D01*
X39252729Y29799501D01*
X39354587Y29826793D01*
X39445913Y29879520D01*
X39520480Y29954087D01*
X39573207Y30045413D01*
X39600499Y30147271D01*
X39600500Y30147271D01*
X39600500Y30252729D01*
X39600499Y30252730D01*
X39600135Y30254087D01*
X39573207Y30354587D01*
X39520480Y30445913D01*
X39518719Y30447674D01*
X39518237Y30448836D01*
X39517527Y30449762D01*
X39517775Y30449953D01*
X39497045Y30500000D01*
X39517775Y30550048D01*
X39517527Y30550238D01*
X39518237Y30551165D01*
X39518719Y30552326D01*
X39519123Y30552730D01*
X39520480Y30554087D01*
X39573207Y30645413D01*
X39600499Y30747271D01*
X39600500Y30747271D01*
X39600500Y30852729D01*
X39600499Y30852730D01*
X39573208Y30954583D01*
X39573207Y30954587D01*
X39520480Y31045913D01*
X39445913Y31120480D01*
X39393917Y31150500D01*
X39354591Y31173205D01*
X39354582Y31173209D01*
X39252729Y31200500D01*
X39252727Y31200500D01*
X39147273Y31200500D01*
X39147271Y31200500D01*
X39045417Y31173209D01*
X39045408Y31173205D01*
X38954086Y31120480D01*
X38879520Y31045914D01*
X38826795Y30954592D01*
X38826791Y30954583D01*
X38799500Y30852730D01*
X35465055Y30852730D01*
X35429591Y30873205D01*
X35429582Y30873209D01*
X35327729Y30900500D01*
X35327727Y30900500D01*
X35222273Y30900500D01*
X35222271Y30900500D01*
X35120417Y30873209D01*
X35120408Y30873205D01*
X35029086Y30820480D01*
X34954520Y30745914D01*
X34901795Y30654592D01*
X34901791Y30654583D01*
X34874500Y30552730D01*
X33100500Y30552730D01*
X33100500Y30627729D01*
X33100499Y30627730D01*
X33100002Y30629583D01*
X33073207Y30729587D01*
X33020480Y30820913D01*
X32945913Y30895480D01*
X32930131Y30904592D01*
X32854591Y30948205D01*
X32854582Y30948209D01*
X32752729Y30975500D01*
X32752727Y30975500D01*
X32647273Y30975500D01*
X32647271Y30975500D01*
X32545417Y30948209D01*
X32545408Y30948205D01*
X32454086Y30895480D01*
X32379520Y30820914D01*
X32326795Y30729592D01*
X32326792Y30729585D01*
X32315598Y30687809D01*
X32281119Y30642877D01*
X32224966Y30635485D01*
X32207120Y30642877D01*
X32154591Y30673205D01*
X32154582Y30673209D01*
X32052729Y30700500D01*
X32052727Y30700500D01*
X31947273Y30700500D01*
X31947271Y30700500D01*
X31845417Y30673209D01*
X31845408Y30673205D01*
X31754086Y30620480D01*
X31679520Y30545914D01*
X31626795Y30454592D01*
X31626791Y30454583D01*
X31599500Y30352730D01*
X29846507Y30352730D01*
X29846273Y30353035D01*
X29853666Y30409187D01*
X29868022Y30425551D01*
X29867483Y30426090D01*
X29895985Y30454592D01*
X29945480Y30504087D01*
X29998207Y30595413D01*
X30025499Y30697271D01*
X30025500Y30697271D01*
X30025500Y30802729D01*
X30025499Y30802730D01*
X29998208Y30904583D01*
X29998207Y30904587D01*
X29945480Y30995913D01*
X29870913Y31070480D01*
X29779591Y31123205D01*
X29779582Y31123209D01*
X29677729Y31150500D01*
X29677727Y31150500D01*
X29572273Y31150500D01*
X29572271Y31150500D01*
X29470417Y31123209D01*
X29470408Y31123205D01*
X29379086Y31070480D01*
X29304520Y30995914D01*
X29251795Y30904592D01*
X29251791Y30904583D01*
X29224500Y30802730D01*
X24933356Y30802730D01*
X24901860Y30820914D01*
X24854591Y30848205D01*
X24854582Y30848209D01*
X24752729Y30875500D01*
X24752727Y30875500D01*
X24647273Y30875500D01*
X24647271Y30875500D01*
X24545417Y30848209D01*
X24545408Y30848205D01*
X24454086Y30795480D01*
X24379520Y30720914D01*
X24326795Y30629592D01*
X24326791Y30629583D01*
X24299648Y30528284D01*
X24299648Y30528280D01*
X24299500Y30527727D01*
X24025500Y30527727D01*
X24025500Y30552729D01*
X24025499Y30552730D01*
X24025135Y30554087D01*
X23998207Y30654587D01*
X23945480Y30745913D01*
X23870913Y30820480D01*
X23822892Y30848205D01*
X23779591Y30873205D01*
X23779582Y30873209D01*
X23677729Y30900500D01*
X23677727Y30900500D01*
X23572273Y30900500D01*
X23572271Y30900500D01*
X23470417Y30873209D01*
X23470408Y30873205D01*
X23379086Y30820480D01*
X23304520Y30745914D01*
X23251795Y30654592D01*
X23251791Y30654583D01*
X23224500Y30552730D01*
X15648564Y30552730D01*
X15672724Y30594578D01*
X15672726Y30594579D01*
X15672727Y30594581D01*
X15672916Y30594910D01*
X15673207Y30595413D01*
X15700499Y30697271D01*
X15700500Y30697271D01*
X15700500Y30802729D01*
X15700499Y30802730D01*
X15673208Y30904583D01*
X15673207Y30904587D01*
X15620480Y30995913D01*
X15545913Y31070480D01*
X15454591Y31123205D01*
X15454582Y31123209D01*
X15352729Y31150500D01*
X15347920Y31151133D01*
X15348223Y31153438D01*
X15302988Y31172174D01*
X15281314Y31224500D01*
X15302988Y31276826D01*
X15318314Y31288586D01*
X15345913Y31304520D01*
X15420480Y31379087D01*
X15473207Y31470413D01*
X15500499Y31572271D01*
X15500500Y31572271D01*
X15500500Y31677729D01*
X15500499Y31677730D01*
X15473208Y31779583D01*
X15473207Y31779587D01*
X15420480Y31870913D01*
X15345913Y31945480D01*
X15254591Y31998205D01*
X15254582Y31998209D01*
X15152729Y32025500D01*
X15152727Y32025500D01*
X15047273Y32025500D01*
X15047271Y32025500D01*
X14945417Y31998209D01*
X14945408Y31998205D01*
X14854086Y31945480D01*
X14779520Y31870914D01*
X14726795Y31779592D01*
X14726791Y31779583D01*
X14699500Y31677730D01*
X500500Y31677730D01*
X500500Y33352730D01*
X29099500Y33352730D01*
X29099500Y33247271D01*
X29126791Y33145418D01*
X29126792Y33145415D01*
X29126793Y33145413D01*
X29179520Y33054087D01*
X29254087Y32979520D01*
X29345413Y32926793D01*
X29447270Y32899501D01*
X29447271Y32899500D01*
X29447273Y32899500D01*
X29552729Y32899500D01*
X29552729Y32899501D01*
X29654587Y32926793D01*
X29745913Y32979520D01*
X29820480Y33054087D01*
X29873207Y33145413D01*
X29900499Y33247271D01*
X29900500Y33247271D01*
X29900500Y33352729D01*
X29900499Y33352730D01*
X29900135Y33354087D01*
X29873207Y33454587D01*
X29820480Y33545913D01*
X29745913Y33620480D01*
X29701860Y33645914D01*
X29690054Y33652730D01*
X31574500Y33652730D01*
X31574500Y33547271D01*
X31601791Y33445418D01*
X31601792Y33445415D01*
X31601793Y33445413D01*
X31654520Y33354087D01*
X31729087Y33279520D01*
X31820413Y33226793D01*
X31922270Y33199501D01*
X31922271Y33199500D01*
X31922273Y33199500D01*
X32027729Y33199500D01*
X32027729Y33199501D01*
X32129587Y33226793D01*
X32220913Y33279520D01*
X32295480Y33354087D01*
X32348207Y33445413D01*
X32375499Y33547271D01*
X32375500Y33547271D01*
X32375500Y33652729D01*
X32375499Y33652730D01*
X32363456Y33697674D01*
X32348207Y33754587D01*
X32295480Y33845913D01*
X32220913Y33920480D01*
X32177719Y33945418D01*
X32129591Y33973205D01*
X32129582Y33973209D01*
X32027729Y34000500D01*
X32027727Y34000500D01*
X31922273Y34000500D01*
X31922271Y34000500D01*
X31820417Y33973209D01*
X31820408Y33973205D01*
X31729086Y33920480D01*
X31654520Y33845914D01*
X31601795Y33754592D01*
X31601791Y33754583D01*
X31574500Y33652730D01*
X29690054Y33652730D01*
X29654591Y33673205D01*
X29654582Y33673209D01*
X29552729Y33700500D01*
X29552727Y33700500D01*
X29447273Y33700500D01*
X29447271Y33700500D01*
X29345417Y33673209D01*
X29345408Y33673205D01*
X29254086Y33620480D01*
X29179520Y33545914D01*
X29126795Y33454592D01*
X29126791Y33454583D01*
X29099500Y33352730D01*
X500500Y33352730D01*
X500500Y34427730D01*
X15624500Y34427730D01*
X15624500Y34322271D01*
X15651791Y34220418D01*
X15651792Y34220415D01*
X15651793Y34220413D01*
X15704520Y34129087D01*
X15779087Y34054520D01*
X15870413Y34001793D01*
X15972270Y33974501D01*
X15972271Y33974500D01*
X15972273Y33974500D01*
X16077729Y33974500D01*
X16077729Y33974501D01*
X16179587Y34001793D01*
X16270913Y34054520D01*
X16345480Y34129087D01*
X16398207Y34220413D01*
X16425499Y34322271D01*
X16425500Y34322271D01*
X16425500Y34427729D01*
X16425499Y34427730D01*
X16624500Y34427730D01*
X16624500Y34322271D01*
X16651791Y34220418D01*
X16651792Y34220415D01*
X16651793Y34220413D01*
X16704520Y34129087D01*
X16779087Y34054520D01*
X16870413Y34001793D01*
X16972270Y33974501D01*
X16972271Y33974500D01*
X16972273Y33974500D01*
X17077729Y33974500D01*
X17077729Y33974501D01*
X17179587Y34001793D01*
X17270913Y34054520D01*
X17345480Y34129087D01*
X17359130Y34152730D01*
X36499500Y34152730D01*
X36499500Y34047271D01*
X36526791Y33945418D01*
X36526795Y33945409D01*
X36579520Y33854087D01*
X36631281Y33802326D01*
X36652955Y33750000D01*
X36631281Y33697674D01*
X36579520Y33645914D01*
X36526795Y33554592D01*
X36526791Y33554583D01*
X36499500Y33452730D01*
X36499500Y33347271D01*
X36526791Y33245418D01*
X36526795Y33245409D01*
X36537543Y33226793D01*
X36579520Y33154087D01*
X36654087Y33079520D01*
X36745413Y33026793D01*
X36847270Y32999501D01*
X36847271Y32999500D01*
X36847273Y32999500D01*
X36952729Y32999500D01*
X36952729Y32999501D01*
X37054587Y33026793D01*
X37145913Y33079520D01*
X37220480Y33154087D01*
X37273207Y33245413D01*
X37300499Y33347271D01*
X37300500Y33347271D01*
X37300500Y33452729D01*
X37300499Y33452730D01*
X37300002Y33454583D01*
X37273207Y33554587D01*
X37220480Y33645913D01*
X37168719Y33697674D01*
X37147045Y33750000D01*
X37168719Y33802326D01*
X37220480Y33854087D01*
X37273207Y33945413D01*
X37300499Y34047271D01*
X37300500Y34047271D01*
X37300500Y34152729D01*
X37300499Y34152730D01*
X37273208Y34254583D01*
X37273207Y34254587D01*
X37220480Y34345913D01*
X37145913Y34420480D01*
X37087704Y34454087D01*
X37054591Y34473205D01*
X37054582Y34473209D01*
X36952729Y34500500D01*
X36952727Y34500500D01*
X36847273Y34500500D01*
X36847271Y34500500D01*
X36745417Y34473209D01*
X36745408Y34473205D01*
X36654086Y34420480D01*
X36579520Y34345914D01*
X36526795Y34254592D01*
X36526791Y34254583D01*
X36499500Y34152730D01*
X17359130Y34152730D01*
X17398207Y34220413D01*
X17425499Y34322271D01*
X17425500Y34322271D01*
X17425500Y34427729D01*
X17425499Y34427730D01*
X17398208Y34529583D01*
X17398207Y34529587D01*
X17345480Y34620913D01*
X17270913Y34695480D01*
X17212704Y34729087D01*
X17179591Y34748205D01*
X17179582Y34748209D01*
X17077729Y34775500D01*
X17077727Y34775500D01*
X16972273Y34775500D01*
X16972271Y34775500D01*
X16870417Y34748209D01*
X16870408Y34748205D01*
X16779086Y34695480D01*
X16704520Y34620914D01*
X16651795Y34529592D01*
X16651791Y34529583D01*
X16624500Y34427730D01*
X16425499Y34427730D01*
X16398208Y34529583D01*
X16398207Y34529587D01*
X16345480Y34620913D01*
X16270913Y34695480D01*
X16212704Y34729087D01*
X16179591Y34748205D01*
X16179582Y34748209D01*
X16077729Y34775500D01*
X16077727Y34775500D01*
X15972273Y34775500D01*
X15972271Y34775500D01*
X15870417Y34748209D01*
X15870408Y34748205D01*
X15779086Y34695480D01*
X15704520Y34620914D01*
X15651795Y34529592D01*
X15651791Y34529583D01*
X15624500Y34427730D01*
X500500Y34427730D01*
X500500Y35252730D01*
X33099500Y35252730D01*
X33099500Y35147271D01*
X33126791Y35045418D01*
X33126795Y35045409D01*
X33177305Y34957924D01*
X33179520Y34954087D01*
X33254087Y34879520D01*
X33345413Y34826793D01*
X33447270Y34799501D01*
X33447271Y34799500D01*
X33447273Y34799500D01*
X33552729Y34799500D01*
X33552729Y34799501D01*
X33654587Y34826793D01*
X33745913Y34879520D01*
X33820480Y34954087D01*
X33873207Y35045413D01*
X33875837Y35055230D01*
X34622000Y35055230D01*
X34622000Y34949771D01*
X34649291Y34847918D01*
X34649295Y34847909D01*
X34677244Y34799500D01*
X34702020Y34756587D01*
X34776587Y34682020D01*
X34867913Y34629293D01*
X34969770Y34602001D01*
X34969771Y34602000D01*
X34969773Y34602000D01*
X35075229Y34602000D01*
X35075229Y34602001D01*
X35177087Y34629293D01*
X35268413Y34682020D01*
X35342980Y34756587D01*
X35395707Y34847913D01*
X35422999Y34949771D01*
X35423000Y34949771D01*
X35423000Y35027730D01*
X35874500Y35027730D01*
X35874500Y34922271D01*
X35901791Y34820418D01*
X35901795Y34820409D01*
X35913867Y34799500D01*
X35954520Y34729087D01*
X36029087Y34654520D01*
X36120413Y34601793D01*
X36222270Y34574501D01*
X36222271Y34574500D01*
X36222273Y34574500D01*
X36327729Y34574500D01*
X36327729Y34574501D01*
X36429587Y34601793D01*
X36520913Y34654520D01*
X36595480Y34729087D01*
X36609130Y34752730D01*
X40599500Y34752730D01*
X40599500Y34647271D01*
X40626791Y34545418D01*
X40626792Y34545415D01*
X40626793Y34545413D01*
X40679520Y34454087D01*
X40754087Y34379520D01*
X40845413Y34326793D01*
X40947270Y34299501D01*
X40947271Y34299500D01*
X40947273Y34299500D01*
X41052729Y34299500D01*
X41052729Y34299501D01*
X41154587Y34326793D01*
X41245913Y34379520D01*
X41320480Y34454087D01*
X41373207Y34545413D01*
X41400499Y34647271D01*
X41400500Y34647271D01*
X41400500Y34752729D01*
X41400499Y34752730D01*
X41380654Y34826792D01*
X41373207Y34854587D01*
X41320480Y34945913D01*
X41245913Y35020480D01*
X41202719Y35045418D01*
X41154591Y35073205D01*
X41154582Y35073209D01*
X41052729Y35100500D01*
X41052727Y35100500D01*
X40947273Y35100500D01*
X40947271Y35100500D01*
X40845417Y35073209D01*
X40845408Y35073205D01*
X40754086Y35020480D01*
X40679520Y34945914D01*
X40626795Y34854592D01*
X40626791Y34854583D01*
X40599500Y34752730D01*
X36609130Y34752730D01*
X36648207Y34820413D01*
X36671753Y34908293D01*
X36672669Y34910905D01*
X36689835Y34930105D01*
X36705510Y34950531D01*
X36708446Y34950918D01*
X36710421Y34953126D01*
X36736132Y34954563D01*
X36761662Y34957924D01*
X36764717Y34956161D01*
X36766970Y34956286D01*
X36771473Y34952260D01*
X36794836Y34938771D01*
X36804087Y34929520D01*
X36895413Y34876793D01*
X36997270Y34849501D01*
X36997271Y34849500D01*
X36997273Y34849500D01*
X37102729Y34849500D01*
X37102729Y34849501D01*
X37204587Y34876793D01*
X37295913Y34929520D01*
X37370480Y35004087D01*
X37423207Y35095413D01*
X37450499Y35197271D01*
X37450500Y35197271D01*
X37450500Y35302729D01*
X37450499Y35302730D01*
X37423208Y35404583D01*
X37423207Y35404587D01*
X37370480Y35495913D01*
X37295913Y35570480D01*
X37243917Y35600500D01*
X37204591Y35623205D01*
X37204582Y35623209D01*
X37102729Y35650500D01*
X37102727Y35650500D01*
X36997273Y35650500D01*
X36997271Y35650500D01*
X36895417Y35623209D01*
X36895408Y35623205D01*
X36804086Y35570480D01*
X36729520Y35495914D01*
X36676795Y35404592D01*
X36676791Y35404583D01*
X36653967Y35319403D01*
X36619488Y35274470D01*
X36563336Y35267078D01*
X36530163Y35286230D01*
X36520913Y35295480D01*
X36429591Y35348205D01*
X36429582Y35348209D01*
X36327729Y35375500D01*
X36327727Y35375500D01*
X36222273Y35375500D01*
X36222271Y35375500D01*
X36120417Y35348209D01*
X36120408Y35348205D01*
X36029086Y35295480D01*
X35954520Y35220914D01*
X35901795Y35129592D01*
X35901791Y35129583D01*
X35874500Y35027730D01*
X35423000Y35027730D01*
X35423000Y35055229D01*
X35422999Y35055230D01*
X35403076Y35129583D01*
X35395707Y35157087D01*
X35342980Y35248413D01*
X35268413Y35322980D01*
X35224722Y35348205D01*
X35177091Y35375705D01*
X35177082Y35375709D01*
X35075229Y35403000D01*
X35075227Y35403000D01*
X34969773Y35403000D01*
X34969771Y35403000D01*
X34867917Y35375709D01*
X34867908Y35375705D01*
X34776586Y35322980D01*
X34702020Y35248414D01*
X34649295Y35157092D01*
X34649291Y35157083D01*
X34622000Y35055230D01*
X33875837Y35055230D01*
X33900499Y35147271D01*
X33900500Y35147271D01*
X33900500Y35252729D01*
X33900499Y35252730D01*
X33873208Y35354583D01*
X33873207Y35354587D01*
X33820480Y35445913D01*
X33745913Y35520480D01*
X33654591Y35573205D01*
X33654582Y35573209D01*
X33552729Y35600500D01*
X33552727Y35600500D01*
X33447273Y35600500D01*
X33447271Y35600500D01*
X33345417Y35573209D01*
X33345408Y35573205D01*
X33254086Y35520480D01*
X33179520Y35445914D01*
X33126795Y35354592D01*
X33126791Y35354583D01*
X33099500Y35252730D01*
X500500Y35252730D01*
X500500Y36452730D01*
X28249500Y36452730D01*
X28249500Y36347271D01*
X28276791Y36245418D01*
X28276792Y36245415D01*
X28276793Y36245413D01*
X28329520Y36154087D01*
X28404087Y36079520D01*
X28495413Y36026793D01*
X28597270Y35999501D01*
X28597271Y35999500D01*
X28597273Y35999500D01*
X28702729Y35999500D01*
X28702729Y35999501D01*
X28804587Y36026793D01*
X28895913Y36079520D01*
X28970480Y36154087D01*
X28984130Y36177730D01*
X29949500Y36177730D01*
X29949500Y36072271D01*
X29976791Y35970418D01*
X29976795Y35970409D01*
X30029520Y35879087D01*
X30104087Y35804520D01*
X30195413Y35751793D01*
X30297270Y35724501D01*
X30297271Y35724500D01*
X30297273Y35724500D01*
X30402729Y35724500D01*
X30402729Y35724501D01*
X30504587Y35751793D01*
X30595913Y35804520D01*
X30647674Y35856281D01*
X30700000Y35877955D01*
X30752326Y35856281D01*
X30804087Y35804520D01*
X30895413Y35751793D01*
X30997270Y35724501D01*
X30997271Y35724500D01*
X30997273Y35724500D01*
X31102729Y35724500D01*
X31102729Y35724501D01*
X31204587Y35751793D01*
X31295913Y35804520D01*
X31370480Y35879087D01*
X31423207Y35970413D01*
X31450499Y36072271D01*
X31450500Y36072271D01*
X31450500Y36177729D01*
X31450499Y36177730D01*
X31423208Y36279583D01*
X31423207Y36279587D01*
X31370480Y36370913D01*
X31295913Y36445480D01*
X31283356Y36452730D01*
X31204591Y36498205D01*
X31204582Y36498209D01*
X31102729Y36525500D01*
X31102727Y36525500D01*
X30997273Y36525500D01*
X30997271Y36525500D01*
X30895417Y36498209D01*
X30895408Y36498205D01*
X30804086Y36445480D01*
X30752326Y36393719D01*
X30700000Y36372045D01*
X30647674Y36393719D01*
X30595913Y36445480D01*
X30504591Y36498205D01*
X30504582Y36498209D01*
X30402729Y36525500D01*
X30402727Y36525500D01*
X30297273Y36525500D01*
X30297271Y36525500D01*
X30195417Y36498209D01*
X30195408Y36498205D01*
X30104086Y36445480D01*
X30029520Y36370914D01*
X29976795Y36279592D01*
X29976791Y36279583D01*
X29949500Y36177730D01*
X28984130Y36177730D01*
X29023207Y36245413D01*
X29050499Y36347271D01*
X29050500Y36347271D01*
X29050500Y36452729D01*
X29050499Y36452730D01*
X29023208Y36554583D01*
X29023207Y36554587D01*
X28970480Y36645913D01*
X28895913Y36720480D01*
X28828465Y36759421D01*
X28804591Y36773205D01*
X28804582Y36773209D01*
X28702729Y36800500D01*
X28702727Y36800500D01*
X28597273Y36800500D01*
X28597271Y36800500D01*
X28495417Y36773209D01*
X28495408Y36773205D01*
X28404086Y36720480D01*
X28329520Y36645914D01*
X28276795Y36554592D01*
X28276791Y36554583D01*
X28249500Y36452730D01*
X500500Y36452730D01*
X500500Y38114158D01*
X9049500Y38114158D01*
X9049500Y37885843D01*
X9085215Y37660343D01*
X9085218Y37660330D01*
X9155766Y37443207D01*
X9259420Y37239773D01*
X9375851Y37079520D01*
X9393621Y37055063D01*
X9555063Y36893621D01*
X9739772Y36759421D01*
X9943201Y36655769D01*
X9943203Y36655769D01*
X9943206Y36655767D01*
X10160329Y36585219D01*
X10160335Y36585218D01*
X10160340Y36585216D01*
X10310675Y36561406D01*
X10385842Y36549500D01*
X10385843Y36549500D01*
X10614158Y36549500D01*
X10670532Y36558429D01*
X10839660Y36585216D01*
X10839667Y36585219D01*
X10839670Y36585219D01*
X11056793Y36655767D01*
X11056793Y36655768D01*
X11056799Y36655769D01*
X11260228Y36759421D01*
X11444937Y36893621D01*
X11606379Y37055063D01*
X11740579Y37239772D01*
X11844231Y37443201D01*
X11847327Y37452730D01*
X29049500Y37452730D01*
X29049500Y37347271D01*
X29076791Y37245418D01*
X29076792Y37245415D01*
X29076793Y37245413D01*
X29129520Y37154087D01*
X29204087Y37079520D01*
X29295413Y37026793D01*
X29397270Y36999501D01*
X29397271Y36999500D01*
X29397273Y36999500D01*
X29502729Y36999500D01*
X29502729Y36999501D01*
X29604587Y37026793D01*
X29649511Y37052730D01*
X38899500Y37052730D01*
X38899500Y36947271D01*
X38926791Y36845418D01*
X38926792Y36845415D01*
X38926793Y36845413D01*
X38979520Y36754087D01*
X39054087Y36679520D01*
X39145413Y36626793D01*
X39247270Y36599501D01*
X39247271Y36599500D01*
X39247273Y36599500D01*
X39352729Y36599500D01*
X39352729Y36599501D01*
X39454587Y36626793D01*
X39545913Y36679520D01*
X39620480Y36754087D01*
X39673207Y36845413D01*
X39700499Y36947271D01*
X39700500Y36947271D01*
X39700500Y37052729D01*
X39700499Y37052730D01*
X39693320Y37079521D01*
X39673207Y37154587D01*
X39620480Y37245913D01*
X39545913Y37320480D01*
X39491679Y37351792D01*
X39454591Y37373205D01*
X39454582Y37373209D01*
X39352729Y37400500D01*
X39352727Y37400500D01*
X39247273Y37400500D01*
X39247271Y37400500D01*
X39145417Y37373209D01*
X39145408Y37373205D01*
X39054086Y37320480D01*
X38979520Y37245914D01*
X38926795Y37154592D01*
X38926791Y37154583D01*
X38899500Y37052730D01*
X29649511Y37052730D01*
X29695913Y37079520D01*
X29770480Y37154087D01*
X29823207Y37245413D01*
X29850499Y37347271D01*
X29850500Y37347271D01*
X29850500Y37452729D01*
X29850499Y37452730D01*
X29823208Y37554583D01*
X29823207Y37554587D01*
X29770480Y37645913D01*
X29695913Y37720480D01*
X29604591Y37773205D01*
X29604582Y37773209D01*
X29587709Y37777730D01*
X40549500Y37777730D01*
X40549500Y37672271D01*
X40576791Y37570418D01*
X40576792Y37570415D01*
X40576793Y37570413D01*
X40629520Y37479087D01*
X40704087Y37404520D01*
X40795413Y37351793D01*
X40897270Y37324501D01*
X40897271Y37324500D01*
X40897273Y37324500D01*
X41002729Y37324500D01*
X41002729Y37324501D01*
X41104587Y37351793D01*
X41195913Y37404520D01*
X41270480Y37479087D01*
X41323207Y37570413D01*
X41350499Y37672271D01*
X41350500Y37672271D01*
X41350500Y37777729D01*
X41350499Y37777730D01*
X41323208Y37879583D01*
X41323207Y37879587D01*
X41270480Y37970913D01*
X41195913Y38045480D01*
X41136954Y38079520D01*
X41104591Y38098205D01*
X41104582Y38098209D01*
X41002729Y38125500D01*
X41002727Y38125500D01*
X40897273Y38125500D01*
X40897271Y38125500D01*
X40795417Y38098209D01*
X40795408Y38098205D01*
X40704086Y38045480D01*
X40629520Y37970914D01*
X40576795Y37879592D01*
X40576791Y37879583D01*
X40549500Y37777730D01*
X29587709Y37777730D01*
X29502729Y37800500D01*
X29502727Y37800500D01*
X29397273Y37800500D01*
X29397271Y37800500D01*
X29295417Y37773209D01*
X29295408Y37773205D01*
X29204086Y37720480D01*
X29129520Y37645914D01*
X29076795Y37554592D01*
X29076791Y37554583D01*
X29049500Y37452730D01*
X11847327Y37452730D01*
X11914784Y37660340D01*
X11950500Y37885843D01*
X11950500Y38114157D01*
X11949508Y38120418D01*
X11938704Y38188634D01*
X11916674Y38327730D01*
X27999500Y38327730D01*
X27999500Y38222271D01*
X28026791Y38120418D01*
X28026795Y38120409D01*
X28079520Y38029087D01*
X28154087Y37954520D01*
X28245413Y37901793D01*
X28347270Y37874501D01*
X28347271Y37874500D01*
X28347273Y37874500D01*
X28452729Y37874500D01*
X28452729Y37874501D01*
X28554587Y37901793D01*
X28645913Y37954520D01*
X28720480Y38029087D01*
X28773207Y38120413D01*
X28800499Y38222271D01*
X28800500Y38222271D01*
X28800500Y38327729D01*
X28800499Y38327730D01*
X28797303Y38339659D01*
X28773207Y38429587D01*
X28759845Y38452730D01*
X29349500Y38452730D01*
X29349500Y38347271D01*
X29376791Y38245418D01*
X29376792Y38245415D01*
X29376793Y38245413D01*
X29429520Y38154087D01*
X29504087Y38079520D01*
X29595413Y38026793D01*
X29697270Y37999501D01*
X29697271Y37999500D01*
X29697273Y37999500D01*
X29802729Y37999500D01*
X29802729Y37999501D01*
X29904587Y38026793D01*
X29995913Y38079520D01*
X30070480Y38154087D01*
X30123207Y38245413D01*
X30150499Y38347271D01*
X30150500Y38347271D01*
X30150500Y38452729D01*
X30150499Y38452730D01*
X30132229Y38520914D01*
X30123207Y38554587D01*
X30070480Y38645913D01*
X29995913Y38720480D01*
X29904591Y38773205D01*
X29904582Y38773209D01*
X29802729Y38800500D01*
X29802727Y38800500D01*
X29697273Y38800500D01*
X29697271Y38800500D01*
X29595417Y38773209D01*
X29595408Y38773205D01*
X29504086Y38720480D01*
X29429520Y38645914D01*
X29376795Y38554592D01*
X29376791Y38554583D01*
X29349500Y38452730D01*
X28759845Y38452730D01*
X28720480Y38520913D01*
X28645913Y38595480D01*
X28554591Y38648205D01*
X28554582Y38648209D01*
X28452729Y38675500D01*
X28452727Y38675500D01*
X28347273Y38675500D01*
X28347271Y38675500D01*
X28245417Y38648209D01*
X28245408Y38648205D01*
X28154086Y38595480D01*
X28079520Y38520914D01*
X28026795Y38429592D01*
X28026791Y38429583D01*
X27999500Y38327730D01*
X11916674Y38327730D01*
X11914784Y38339660D01*
X11914782Y38339664D01*
X11914781Y38339671D01*
X11844233Y38556794D01*
X11844231Y38556797D01*
X11844231Y38556799D01*
X11740579Y38760228D01*
X11711319Y38800500D01*
X11606382Y38944933D01*
X11606381Y38944934D01*
X11606379Y38944937D01*
X11444937Y39106379D01*
X11444934Y39106382D01*
X11444932Y39106383D01*
X11260227Y39240580D01*
X11197826Y39272374D01*
X11056799Y39344231D01*
X11056798Y39344232D01*
X11056793Y39344234D01*
X10967648Y39373199D01*
X40309663Y39373199D01*
X40309663Y39267740D01*
X40336954Y39165887D01*
X40336955Y39165884D01*
X40336956Y39165882D01*
X40389683Y39074556D01*
X40464250Y38999989D01*
X40555576Y38947262D01*
X40657433Y38919970D01*
X40657434Y38919969D01*
X40657436Y38919969D01*
X40762892Y38919969D01*
X40762892Y38919970D01*
X40864750Y38947262D01*
X40956076Y38999989D01*
X41030643Y39074556D01*
X41083370Y39165882D01*
X41110662Y39267740D01*
X41110663Y39267740D01*
X41110663Y39373198D01*
X41110662Y39373199D01*
X41083371Y39475052D01*
X41083370Y39475056D01*
X41030643Y39566382D01*
X40956076Y39640949D01*
X40864754Y39693674D01*
X40864745Y39693678D01*
X40762892Y39720969D01*
X40762890Y39720969D01*
X40657436Y39720969D01*
X40657434Y39720969D01*
X40555580Y39693678D01*
X40555571Y39693674D01*
X40464249Y39640949D01*
X40389683Y39566383D01*
X40336958Y39475061D01*
X40336954Y39475052D01*
X40309663Y39373199D01*
X10967648Y39373199D01*
X10839670Y39414782D01*
X10839657Y39414785D01*
X10614158Y39450500D01*
X10614157Y39450500D01*
X10385843Y39450500D01*
X10385842Y39450500D01*
X10160342Y39414785D01*
X10160329Y39414782D01*
X9943206Y39344234D01*
X9739772Y39240580D01*
X9555067Y39106383D01*
X9393617Y38944933D01*
X9259420Y38760228D01*
X9155766Y38556794D01*
X9085218Y38339671D01*
X9085215Y38339658D01*
X9049500Y38114158D01*
X500500Y38114158D01*
X500500Y43552730D01*
X23399500Y43552730D01*
X23399500Y43447271D01*
X23426791Y43345418D01*
X23426795Y43345409D01*
X23464086Y43280820D01*
X23479520Y43254087D01*
X23554087Y43179520D01*
X23645413Y43126793D01*
X23747270Y43099501D01*
X23747271Y43099500D01*
X23747273Y43099500D01*
X23852729Y43099500D01*
X23852729Y43099501D01*
X23954587Y43126793D01*
X24045913Y43179520D01*
X24120480Y43254087D01*
X24135914Y43280821D01*
X24180847Y43315298D01*
X24237000Y43307906D01*
X24264085Y43280821D01*
X24279520Y43254087D01*
X24354087Y43179520D01*
X24445413Y43126793D01*
X24547270Y43099501D01*
X24547271Y43099500D01*
X24547273Y43099500D01*
X24652729Y43099500D01*
X24652729Y43099501D01*
X24754587Y43126793D01*
X24845913Y43179520D01*
X24920480Y43254087D01*
X24935914Y43280821D01*
X24980847Y43315298D01*
X25037000Y43307906D01*
X25064085Y43280821D01*
X25079520Y43254087D01*
X25154087Y43179520D01*
X25245413Y43126793D01*
X25347270Y43099501D01*
X25347271Y43099500D01*
X25347273Y43099500D01*
X25452729Y43099500D01*
X25452729Y43099501D01*
X25554587Y43126793D01*
X25645913Y43179520D01*
X25720480Y43254087D01*
X25773207Y43345413D01*
X25800499Y43447271D01*
X25800500Y43447271D01*
X25800500Y43552729D01*
X25800499Y43552730D01*
X25773208Y43654583D01*
X25773207Y43654587D01*
X25720480Y43745913D01*
X25645913Y43820480D01*
X25554591Y43873205D01*
X25554582Y43873209D01*
X25452729Y43900500D01*
X25452727Y43900500D01*
X25347273Y43900500D01*
X25347271Y43900500D01*
X25245417Y43873209D01*
X25245408Y43873205D01*
X25154086Y43820480D01*
X25079521Y43745915D01*
X25064086Y43719180D01*
X25019152Y43684702D01*
X24962999Y43692095D01*
X24935914Y43719180D01*
X24920480Y43745913D01*
X24845913Y43820480D01*
X24754591Y43873205D01*
X24754582Y43873209D01*
X24652729Y43900500D01*
X24652727Y43900500D01*
X24547273Y43900500D01*
X24547271Y43900500D01*
X24445417Y43873209D01*
X24445408Y43873205D01*
X24354086Y43820480D01*
X24279521Y43745915D01*
X24264086Y43719180D01*
X24219152Y43684702D01*
X24162999Y43692095D01*
X24135914Y43719180D01*
X24120480Y43745913D01*
X24045913Y43820480D01*
X23954591Y43873205D01*
X23954582Y43873209D01*
X23852729Y43900500D01*
X23852727Y43900500D01*
X23747273Y43900500D01*
X23747271Y43900500D01*
X23645417Y43873209D01*
X23645408Y43873205D01*
X23554086Y43820480D01*
X23479520Y43745914D01*
X23426795Y43654592D01*
X23426791Y43654583D01*
X23399500Y43552730D01*
X500500Y43552730D01*
X500500Y52083767D01*
X18229500Y52083767D01*
X18229500Y51916234D01*
X18262182Y51751925D01*
X18262184Y51751918D01*
X18326296Y51597138D01*
X18326297Y51597137D01*
X18419374Y51457838D01*
X18537838Y51339374D01*
X18677137Y51246297D01*
X18831918Y51182184D01*
X18996233Y51149500D01*
X18996234Y51149500D01*
X19163766Y51149500D01*
X19163767Y51149500D01*
X19328082Y51182184D01*
X19482863Y51246297D01*
X19622162Y51339374D01*
X19740626Y51457838D01*
X19833703Y51597137D01*
X19866633Y51676638D01*
X19906681Y51716685D01*
X19963319Y51716685D01*
X20003367Y51676637D01*
X20036296Y51597138D01*
X20036297Y51597137D01*
X20129374Y51457838D01*
X20247838Y51339374D01*
X20387137Y51246297D01*
X20541918Y51182184D01*
X20706233Y51149500D01*
X20706234Y51149500D01*
X20873766Y51149500D01*
X20873767Y51149500D01*
X21038082Y51182184D01*
X21192863Y51246297D01*
X21332162Y51339374D01*
X21450626Y51457838D01*
X21543703Y51597137D01*
X21576633Y51676638D01*
X21616681Y51716685D01*
X21673319Y51716685D01*
X21713367Y51676637D01*
X21746296Y51597138D01*
X21746297Y51597137D01*
X21839374Y51457838D01*
X21957838Y51339374D01*
X22097137Y51246297D01*
X22251918Y51182184D01*
X22416233Y51149500D01*
X22416234Y51149500D01*
X22583766Y51149500D01*
X22583767Y51149500D01*
X22748082Y51182184D01*
X22902863Y51246297D01*
X23042162Y51339374D01*
X23160626Y51457838D01*
X23253703Y51597137D01*
X23286633Y51676638D01*
X23326681Y51716685D01*
X23383319Y51716685D01*
X23423367Y51676637D01*
X23456296Y51597138D01*
X23456297Y51597137D01*
X23549374Y51457838D01*
X23667838Y51339374D01*
X23807137Y51246297D01*
X23961918Y51182184D01*
X24126233Y51149500D01*
X24126234Y51149500D01*
X24293766Y51149500D01*
X24293767Y51149500D01*
X24458082Y51182184D01*
X24612863Y51246297D01*
X24752162Y51339374D01*
X24870626Y51457838D01*
X24963703Y51597137D01*
X25027816Y51751918D01*
X25060500Y51916233D01*
X25060500Y52083767D01*
X25027816Y52248082D01*
X24963703Y52402863D01*
X24870626Y52542162D01*
X24752162Y52660626D01*
X24612863Y52753703D01*
X24612864Y52753703D01*
X24612862Y52753704D01*
X24458082Y52817816D01*
X24458075Y52817818D01*
X24334288Y52842440D01*
X24293767Y52850500D01*
X24126233Y52850500D01*
X24093728Y52844035D01*
X23961924Y52817818D01*
X23961917Y52817816D01*
X23807137Y52753704D01*
X23667841Y52660629D01*
X23549371Y52542159D01*
X23456296Y52402863D01*
X23423367Y52323364D01*
X23383318Y52283316D01*
X23326681Y52283316D01*
X23286633Y52323364D01*
X23253703Y52402863D01*
X23160628Y52542159D01*
X23160626Y52542162D01*
X23042162Y52660626D01*
X22902863Y52753703D01*
X22902864Y52753703D01*
X22902862Y52753704D01*
X22748082Y52817816D01*
X22748075Y52817818D01*
X22624288Y52842440D01*
X22583767Y52850500D01*
X22416233Y52850500D01*
X22383728Y52844035D01*
X22251924Y52817818D01*
X22251917Y52817816D01*
X22097137Y52753704D01*
X21957841Y52660629D01*
X21839371Y52542159D01*
X21746296Y52402863D01*
X21713367Y52323364D01*
X21673318Y52283316D01*
X21616681Y52283316D01*
X21576633Y52323364D01*
X21543703Y52402863D01*
X21450628Y52542159D01*
X21450626Y52542162D01*
X21332162Y52660626D01*
X21192863Y52753703D01*
X21192864Y52753703D01*
X21192862Y52753704D01*
X21038082Y52817816D01*
X21038075Y52817818D01*
X20914288Y52842440D01*
X20873767Y52850500D01*
X20706233Y52850500D01*
X20673728Y52844035D01*
X20541924Y52817818D01*
X20541917Y52817816D01*
X20387137Y52753704D01*
X20247841Y52660629D01*
X20129371Y52542159D01*
X20036296Y52402863D01*
X20003367Y52323364D01*
X19963318Y52283316D01*
X19906681Y52283316D01*
X19866633Y52323364D01*
X19833703Y52402863D01*
X19740628Y52542159D01*
X19740626Y52542162D01*
X19622162Y52660626D01*
X19482863Y52753703D01*
X19482864Y52753703D01*
X19482862Y52753704D01*
X19328082Y52817816D01*
X19328075Y52817818D01*
X19204288Y52842440D01*
X19163767Y52850500D01*
X18996233Y52850500D01*
X18963728Y52844035D01*
X18831924Y52817818D01*
X18831917Y52817816D01*
X18677137Y52753704D01*
X18537841Y52660629D01*
X18419371Y52542159D01*
X18326296Y52402863D01*
X18262184Y52248083D01*
X18262182Y52248076D01*
X18229500Y52083767D01*
X500500Y52083767D01*
X500500Y56152730D01*
X9099500Y56152730D01*
X9099500Y56047271D01*
X9126791Y55945418D01*
X9126792Y55945415D01*
X9126793Y55945413D01*
X9179520Y55854087D01*
X9254087Y55779520D01*
X9345413Y55726793D01*
X9447270Y55699501D01*
X9447271Y55699500D01*
X9447273Y55699500D01*
X9552729Y55699500D01*
X9552729Y55699501D01*
X9654587Y55726793D01*
X9745913Y55779520D01*
X9820480Y55854087D01*
X9873207Y55945413D01*
X9900499Y56047271D01*
X9900500Y56047271D01*
X9900500Y56152729D01*
X9900499Y56152730D01*
X9873208Y56254583D01*
X9873207Y56254587D01*
X9820480Y56345913D01*
X9745913Y56420480D01*
X9654591Y56473205D01*
X9654582Y56473209D01*
X9552729Y56500500D01*
X9552727Y56500500D01*
X9447273Y56500500D01*
X9447271Y56500500D01*
X9345417Y56473209D01*
X9345408Y56473205D01*
X9254086Y56420480D01*
X9179520Y56345914D01*
X9126795Y56254592D01*
X9126791Y56254583D01*
X9099500Y56152730D01*
X500500Y56152730D01*
X500500Y57362730D01*
X27389500Y57362730D01*
X27389500Y57257271D01*
X27416791Y57155418D01*
X27416795Y57155409D01*
X27446785Y57103465D01*
X27469520Y57064087D01*
X27544087Y56989520D01*
X27635413Y56936793D01*
X27737270Y56909501D01*
X27737271Y56909500D01*
X27737273Y56909500D01*
X27842729Y56909500D01*
X27842729Y56909501D01*
X27944587Y56936793D01*
X28035913Y56989520D01*
X28110480Y57064087D01*
X28133215Y57103465D01*
X34209500Y57103465D01*
X34209500Y56896536D01*
X34249868Y56693587D01*
X34249870Y56693580D01*
X34329059Y56502402D01*
X34444023Y56330345D01*
X34590345Y56184023D01*
X34762402Y56069059D01*
X34953580Y55989870D01*
X35156535Y55949500D01*
X35156536Y55949500D01*
X35363464Y55949500D01*
X35363465Y55949500D01*
X35566420Y55989870D01*
X35757598Y56069059D01*
X35929655Y56184023D01*
X36075977Y56330345D01*
X36190941Y56502402D01*
X36270130Y56693580D01*
X36310500Y56896535D01*
X36310500Y57103465D01*
X36749500Y57103465D01*
X36749500Y56896536D01*
X36789868Y56693587D01*
X36789870Y56693580D01*
X36869059Y56502402D01*
X36984023Y56330345D01*
X37130345Y56184023D01*
X37302402Y56069059D01*
X37493580Y55989870D01*
X37696535Y55949500D01*
X37696536Y55949500D01*
X37903464Y55949500D01*
X37903465Y55949500D01*
X38106420Y55989870D01*
X38297598Y56069059D01*
X38469655Y56184023D01*
X38615977Y56330345D01*
X38730941Y56502402D01*
X38810130Y56693580D01*
X38850500Y56896535D01*
X38850500Y57103465D01*
X38810130Y57306420D01*
X38730941Y57497598D01*
X38615977Y57669655D01*
X38469655Y57815977D01*
X38297598Y57930941D01*
X38106420Y58010130D01*
X38106413Y58010132D01*
X37953516Y58040545D01*
X37903465Y58050500D01*
X37696535Y58050500D01*
X37656385Y58042514D01*
X37493586Y58010132D01*
X37493579Y58010130D01*
X37302401Y57930941D01*
X37130345Y57815978D01*
X37130344Y57815976D01*
X36984024Y57669656D01*
X36984022Y57669655D01*
X36869059Y57497599D01*
X36789870Y57306421D01*
X36789868Y57306414D01*
X36749500Y57103465D01*
X36310500Y57103465D01*
X36270130Y57306420D01*
X36190941Y57497598D01*
X36075977Y57669655D01*
X35929655Y57815977D01*
X35757598Y57930941D01*
X35566420Y58010130D01*
X35566413Y58010132D01*
X35413516Y58040545D01*
X35363465Y58050500D01*
X35156535Y58050500D01*
X35116385Y58042514D01*
X34953586Y58010132D01*
X34953579Y58010130D01*
X34762401Y57930941D01*
X34590345Y57815978D01*
X34590344Y57815976D01*
X34444024Y57669656D01*
X34444022Y57669655D01*
X34329059Y57497599D01*
X34249870Y57306421D01*
X34249868Y57306414D01*
X34209500Y57103465D01*
X28133215Y57103465D01*
X28140238Y57115630D01*
X28156676Y57144100D01*
X28159256Y57148571D01*
X28163207Y57155413D01*
X28190499Y57257271D01*
X28190500Y57257271D01*
X28190500Y57362729D01*
X28190499Y57362730D01*
X28163208Y57464583D01*
X28163207Y57464587D01*
X28110480Y57555913D01*
X28035913Y57630480D01*
X27968058Y57669656D01*
X27944591Y57683205D01*
X27944582Y57683209D01*
X27842729Y57710500D01*
X27842727Y57710500D01*
X27737273Y57710500D01*
X27737271Y57710500D01*
X27635417Y57683209D01*
X27635408Y57683205D01*
X27544086Y57630480D01*
X27469520Y57555914D01*
X27416795Y57464592D01*
X27416791Y57464583D01*
X27389500Y57362730D01*
X500500Y57362730D01*
X500500Y59352730D01*
X21199500Y59352730D01*
X21199500Y59247271D01*
X21226791Y59145418D01*
X21226795Y59145409D01*
X21279520Y59054087D01*
X21331281Y59002326D01*
X21352955Y58950000D01*
X21331281Y58897674D01*
X21279520Y58845914D01*
X21226795Y58754592D01*
X21226791Y58754583D01*
X21199500Y58652730D01*
X21199500Y58547271D01*
X21226791Y58445418D01*
X21226795Y58445409D01*
X21264086Y58380820D01*
X21279520Y58354087D01*
X21354087Y58279520D01*
X21445413Y58226793D01*
X21547270Y58199501D01*
X21547271Y58199500D01*
X21547273Y58199500D01*
X21652729Y58199500D01*
X21652729Y58199501D01*
X21754587Y58226793D01*
X21845913Y58279520D01*
X21920480Y58354087D01*
X21935914Y58380821D01*
X21980847Y58415298D01*
X22037000Y58407906D01*
X22064085Y58380821D01*
X22079520Y58354087D01*
X22154087Y58279520D01*
X22245413Y58226793D01*
X22347270Y58199501D01*
X22347271Y58199500D01*
X22347273Y58199500D01*
X22452729Y58199500D01*
X22452729Y58199501D01*
X22554587Y58226793D01*
X22645913Y58279520D01*
X22697674Y58331281D01*
X22750000Y58352955D01*
X22802326Y58331281D01*
X22854087Y58279520D01*
X22945413Y58226793D01*
X23047270Y58199501D01*
X23047271Y58199500D01*
X23047273Y58199500D01*
X23152729Y58199500D01*
X23152729Y58199501D01*
X23254587Y58226793D01*
X23345913Y58279520D01*
X23420480Y58354087D01*
X23473207Y58445413D01*
X23500499Y58547271D01*
X23500500Y58547271D01*
X23500500Y58652729D01*
X23500499Y58652730D01*
X23473208Y58754583D01*
X23473207Y58754587D01*
X23420480Y58845913D01*
X23368719Y58897674D01*
X23347045Y58950000D01*
X23368719Y59002326D01*
X23420480Y59054087D01*
X23473207Y59145413D01*
X23500499Y59247271D01*
X23500500Y59247271D01*
X23500500Y59352729D01*
X23500499Y59352730D01*
X23473208Y59454583D01*
X23473207Y59454587D01*
X23420480Y59545913D01*
X23345913Y59620480D01*
X23254591Y59673205D01*
X23254582Y59673209D01*
X23152729Y59700500D01*
X23152727Y59700500D01*
X23047273Y59700500D01*
X23047271Y59700500D01*
X22945417Y59673209D01*
X22945408Y59673205D01*
X22854086Y59620480D01*
X22802326Y59568719D01*
X22750000Y59547045D01*
X22697674Y59568719D01*
X22645913Y59620480D01*
X22554591Y59673205D01*
X22554582Y59673209D01*
X22452729Y59700500D01*
X22452727Y59700500D01*
X22347273Y59700500D01*
X22347271Y59700500D01*
X22245417Y59673209D01*
X22245408Y59673205D01*
X22154086Y59620480D01*
X22079521Y59545915D01*
X22064086Y59519180D01*
X22019152Y59484702D01*
X21962999Y59492095D01*
X21935914Y59519180D01*
X21920480Y59545913D01*
X21845913Y59620480D01*
X21754591Y59673205D01*
X21754582Y59673209D01*
X21652729Y59700500D01*
X21652727Y59700500D01*
X21547273Y59700500D01*
X21547271Y59700500D01*
X21445417Y59673209D01*
X21445408Y59673205D01*
X21354086Y59620480D01*
X21279520Y59545914D01*
X21226795Y59454592D01*
X21226791Y59454583D01*
X21199500Y59352730D01*
X500500Y59352730D01*
X500500Y61625964D01*
X1399500Y61625964D01*
X1399500Y61374037D01*
X1438909Y61125218D01*
X1438912Y61125205D01*
X1516756Y60885627D01*
X1631129Y60661155D01*
X1779203Y60457349D01*
X1779207Y60457344D01*
X1957344Y60279207D01*
X1957347Y60279205D01*
X1957348Y60279204D01*
X2161154Y60131130D01*
X2269345Y60076005D01*
X2385621Y60016759D01*
X2385623Y60016759D01*
X2385626Y60016757D01*
X2625204Y59938913D01*
X2625210Y59938912D01*
X2625215Y59938910D01*
X2749626Y59919205D01*
X2874036Y59899500D01*
X2874038Y59899500D01*
X3125964Y59899500D01*
X3225491Y59915264D01*
X3374785Y59938910D01*
X3374792Y59938913D01*
X3374795Y59938913D01*
X3614373Y60016757D01*
X3614373Y60016758D01*
X3614379Y60016759D01*
X3838845Y60131130D01*
X4042656Y60279207D01*
X4220793Y60457344D01*
X4368870Y60661155D01*
X4483241Y60885621D01*
X4561090Y61125215D01*
X4600500Y61374038D01*
X4600500Y61625962D01*
X4596952Y61648361D01*
X4569675Y61820581D01*
X4561090Y61874785D01*
X4561088Y61874790D01*
X4561087Y61874796D01*
X4483243Y62114374D01*
X4483241Y62114377D01*
X4483241Y62114379D01*
X4449526Y62180547D01*
X5649500Y62180547D01*
X5649500Y61999454D01*
X5677828Y61820594D01*
X5677831Y61820581D01*
X5733787Y61648365D01*
X5816005Y61487005D01*
X5816005Y61487004D01*
X5860420Y61425872D01*
X5922447Y61340499D01*
X6050499Y61212447D01*
X6197006Y61106004D01*
X6358361Y61023789D01*
X6358364Y61023788D01*
X6358363Y61023788D01*
X6530580Y60967832D01*
X6530586Y60967831D01*
X6530591Y60967829D01*
X6649833Y60948943D01*
X6709453Y60939500D01*
X6709454Y60939500D01*
X6890547Y60939500D01*
X6935261Y60946583D01*
X7069409Y60967829D01*
X7069416Y60967832D01*
X7069419Y60967832D01*
X7147601Y60993235D01*
X7241639Y61023789D01*
X7402994Y61106004D01*
X7549501Y61212447D01*
X7677553Y61340499D01*
X7783996Y61487006D01*
X7854799Y61625964D01*
X33399500Y61625964D01*
X33399500Y61374037D01*
X33438909Y61125218D01*
X33438912Y61125205D01*
X33516756Y60885627D01*
X33631129Y60661155D01*
X33779203Y60457349D01*
X33779207Y60457344D01*
X33957344Y60279207D01*
X33957347Y60279205D01*
X33957348Y60279204D01*
X34161154Y60131130D01*
X34269345Y60076005D01*
X34385621Y60016759D01*
X34385623Y60016759D01*
X34385626Y60016757D01*
X34625204Y59938913D01*
X34625210Y59938912D01*
X34625215Y59938910D01*
X34749626Y59919205D01*
X34874036Y59899500D01*
X34874038Y59899500D01*
X35125964Y59899500D01*
X35225491Y59915264D01*
X35374785Y59938910D01*
X35374792Y59938913D01*
X35374795Y59938913D01*
X35614373Y60016757D01*
X35614373Y60016758D01*
X35614379Y60016759D01*
X35838845Y60131130D01*
X36042656Y60279207D01*
X36220793Y60457344D01*
X36368870Y60661155D01*
X36483241Y60885621D01*
X36561090Y61125215D01*
X36600500Y61374038D01*
X36600500Y61577730D01*
X38949500Y61577730D01*
X38949500Y61472271D01*
X38976791Y61370418D01*
X38976792Y61370415D01*
X38976793Y61370413D01*
X39029520Y61279087D01*
X39104087Y61204520D01*
X39195413Y61151793D01*
X39297270Y61124501D01*
X39297271Y61124500D01*
X39297273Y61124500D01*
X39402729Y61124500D01*
X39402729Y61124501D01*
X39504587Y61151793D01*
X39595913Y61204520D01*
X39670480Y61279087D01*
X39723207Y61370413D01*
X39750499Y61472271D01*
X39750500Y61472271D01*
X39750500Y61577729D01*
X39750499Y61577730D01*
X39737575Y61625962D01*
X39723207Y61679587D01*
X39670480Y61770913D01*
X39595913Y61845480D01*
X39545136Y61874796D01*
X39504591Y61898205D01*
X39504582Y61898209D01*
X39402729Y61925500D01*
X39402727Y61925500D01*
X39297273Y61925500D01*
X39297271Y61925500D01*
X39195417Y61898209D01*
X39195408Y61898205D01*
X39104086Y61845480D01*
X39029520Y61770914D01*
X38976795Y61679592D01*
X38976791Y61679583D01*
X38949500Y61577730D01*
X36600500Y61577730D01*
X36600500Y61625962D01*
X36596952Y61648361D01*
X36569675Y61820581D01*
X36561090Y61874785D01*
X36561088Y61874790D01*
X36561087Y61874796D01*
X36483243Y62114374D01*
X36483241Y62114377D01*
X36483241Y62114379D01*
X36423995Y62230655D01*
X36368870Y62338846D01*
X36220796Y62542652D01*
X36220795Y62542653D01*
X36220793Y62542656D01*
X36042656Y62720793D01*
X36042653Y62720796D01*
X36042651Y62720797D01*
X35838845Y62868871D01*
X35614373Y62983244D01*
X35374795Y63061088D01*
X35374782Y63061091D01*
X35125964Y63100500D01*
X35125962Y63100500D01*
X34874038Y63100500D01*
X34874036Y63100500D01*
X34625217Y63061091D01*
X34625204Y63061088D01*
X34385626Y62983244D01*
X34161154Y62868871D01*
X33957348Y62720797D01*
X33779203Y62542652D01*
X33631129Y62338846D01*
X33516756Y62114374D01*
X33438912Y61874796D01*
X33438909Y61874783D01*
X33399500Y61625964D01*
X7854799Y61625964D01*
X7866211Y61648361D01*
X7876356Y61679583D01*
X7922168Y61820581D01*
X7922168Y61820584D01*
X7922171Y61820591D01*
X7950500Y61999454D01*
X7950500Y62180546D01*
X7922171Y62359409D01*
X7922169Y62359414D01*
X7922168Y62359420D01*
X7866212Y62531636D01*
X7866211Y62531637D01*
X7866211Y62531639D01*
X7783996Y62692994D01*
X7677553Y62839501D01*
X7549501Y62967553D01*
X7464128Y63029580D01*
X7402996Y63073995D01*
X7241635Y63156213D01*
X7241636Y63156213D01*
X7069419Y63212169D01*
X7069406Y63212172D01*
X6890547Y63240500D01*
X6890546Y63240500D01*
X6709454Y63240500D01*
X6709453Y63240500D01*
X6530593Y63212172D01*
X6530580Y63212169D01*
X6358364Y63156213D01*
X6197004Y63073995D01*
X6197003Y63073995D01*
X6050503Y62967556D01*
X6050499Y62967553D01*
X5922447Y62839501D01*
X5922444Y62839498D01*
X5922444Y62839497D01*
X5816005Y62692997D01*
X5816005Y62692996D01*
X5733787Y62531636D01*
X5677831Y62359420D01*
X5677828Y62359407D01*
X5649500Y62180547D01*
X4449526Y62180547D01*
X4414376Y62249533D01*
X4368870Y62338846D01*
X4220796Y62542652D01*
X4220795Y62542653D01*
X4220793Y62542656D01*
X4042656Y62720793D01*
X4042653Y62720796D01*
X4042651Y62720797D01*
X3838845Y62868871D01*
X3614373Y62983244D01*
X3374795Y63061088D01*
X3374782Y63061091D01*
X3125964Y63100500D01*
X3125962Y63100500D01*
X2874038Y63100500D01*
X2874036Y63100500D01*
X2625217Y63061091D01*
X2625204Y63061088D01*
X2385626Y62983244D01*
X2161154Y62868871D01*
X1957348Y62720797D01*
X1779203Y62542652D01*
X1631129Y62338846D01*
X1516756Y62114374D01*
X1438912Y61874796D01*
X1438909Y61874783D01*
X1399500Y61625964D01*
X500500Y61625964D01*
X500500Y63652730D01*
X11399500Y63652730D01*
X11399500Y63547271D01*
X11426791Y63445418D01*
X11426792Y63445415D01*
X11426793Y63445413D01*
X11479520Y63354087D01*
X11554087Y63279520D01*
X11645413Y63226793D01*
X11747270Y63199501D01*
X11747271Y63199500D01*
X11747273Y63199500D01*
X11852729Y63199500D01*
X11852729Y63199501D01*
X11954587Y63226793D01*
X12045913Y63279520D01*
X12120480Y63354087D01*
X12173207Y63445413D01*
X12200499Y63547271D01*
X12200500Y63547271D01*
X12200500Y63652729D01*
X12200499Y63652730D01*
X12173208Y63754583D01*
X12173207Y63754587D01*
X12120480Y63845913D01*
X12045913Y63920480D01*
X11954591Y63973205D01*
X11954582Y63973209D01*
X11852729Y64000500D01*
X11852727Y64000500D01*
X11747273Y64000500D01*
X11747271Y64000500D01*
X11645417Y63973209D01*
X11645408Y63973205D01*
X11554086Y63920480D01*
X11479520Y63845914D01*
X11426795Y63754592D01*
X11426791Y63754583D01*
X11399500Y63652730D01*
X500500Y63652730D01*
X500500Y69579060D01*
X27509500Y69579060D01*
X27509500Y69420941D01*
X27550421Y69268221D01*
X27550422Y69268219D01*
X27550423Y69268216D01*
X27629480Y69131284D01*
X27741284Y69019480D01*
X27878216Y68940423D01*
X28030940Y68899501D01*
X28030941Y68899500D01*
X28030943Y68899500D01*
X28189059Y68899500D01*
X28189059Y68899501D01*
X28341784Y68940423D01*
X28478716Y69019480D01*
X28590520Y69131284D01*
X28669577Y69268216D01*
X28710499Y69420941D01*
X28710500Y69420941D01*
X28710500Y69579059D01*
X28710499Y69579060D01*
X33289500Y69579060D01*
X33289500Y69420941D01*
X33330421Y69268221D01*
X33330422Y69268219D01*
X33330423Y69268216D01*
X33409480Y69131284D01*
X33521284Y69019480D01*
X33658216Y68940423D01*
X33810940Y68899501D01*
X33810941Y68899500D01*
X33810943Y68899500D01*
X33969059Y68899500D01*
X33969059Y68899501D01*
X34121784Y68940423D01*
X34258716Y69019480D01*
X34370520Y69131284D01*
X34449577Y69268216D01*
X34490499Y69420941D01*
X34490500Y69420941D01*
X34490500Y69579059D01*
X34490499Y69579060D01*
X34449578Y69731780D01*
X34449577Y69731784D01*
X34370520Y69868716D01*
X34258716Y69980520D01*
X34121784Y70059577D01*
X34121781Y70059578D01*
X34121779Y70059579D01*
X33969059Y70100500D01*
X33969057Y70100500D01*
X33810943Y70100500D01*
X33810941Y70100500D01*
X33658220Y70059579D01*
X33658214Y70059576D01*
X33521283Y69980520D01*
X33409480Y69868717D01*
X33330424Y69731786D01*
X33330421Y69731780D01*
X33289500Y69579060D01*
X28710499Y69579060D01*
X28669578Y69731780D01*
X28669577Y69731784D01*
X28590520Y69868716D01*
X28478716Y69980520D01*
X28341784Y70059577D01*
X28341781Y70059578D01*
X28341779Y70059579D01*
X28189059Y70100500D01*
X28189057Y70100500D01*
X28030943Y70100500D01*
X28030941Y70100500D01*
X27878220Y70059579D01*
X27878214Y70059576D01*
X27741283Y69980520D01*
X27629480Y69868717D01*
X27550424Y69731786D01*
X27550421Y69731780D01*
X27509500Y69579060D01*
X500500Y69579060D01*
X500500Y71708093D01*
X5299500Y71708093D01*
X5299500Y71471908D01*
X5336446Y71238635D01*
X5336449Y71238622D01*
X5409429Y71014014D01*
X5479562Y70876369D01*
X5516657Y70803567D01*
X5655483Y70612490D01*
X5822490Y70445483D01*
X6013567Y70306657D01*
X6224008Y70199432D01*
X6224010Y70199432D01*
X6224013Y70199430D01*
X6448621Y70126450D01*
X6448627Y70126449D01*
X6448632Y70126447D01*
X6604149Y70101816D01*
X6681907Y70089500D01*
X6681908Y70089500D01*
X6918093Y70089500D01*
X6987544Y70100500D01*
X7151368Y70126447D01*
X7151375Y70126450D01*
X7151378Y70126450D01*
X7375986Y70199430D01*
X7375986Y70199431D01*
X7375992Y70199432D01*
X7586433Y70306657D01*
X7777510Y70445483D01*
X7944517Y70612490D01*
X8083343Y70803567D01*
X8190568Y71014008D01*
X8263553Y71238632D01*
X8300500Y71471908D01*
X8300500Y71708092D01*
X8263553Y71941368D01*
X8263551Y71941373D01*
X8263550Y71941379D01*
X8190570Y72165987D01*
X8190568Y72165990D01*
X8190568Y72165992D01*
X8083343Y72376433D01*
X7944517Y72567510D01*
X7777510Y72734517D01*
X7777507Y72734520D01*
X7777505Y72734521D01*
X7586432Y72873344D01*
X7375986Y72980571D01*
X7151378Y73053551D01*
X7151365Y73053554D01*
X6918093Y73090500D01*
X6918092Y73090500D01*
X6681908Y73090500D01*
X6681907Y73090500D01*
X6448634Y73053554D01*
X6448621Y73053551D01*
X6224013Y72980571D01*
X6013567Y72873344D01*
X5822494Y72734521D01*
X5655479Y72567506D01*
X5516656Y72376433D01*
X5409429Y72165987D01*
X5336449Y71941379D01*
X5336446Y71941366D01*
X5299500Y71708093D01*
X500500Y71708093D01*
X500500Y73995841D01*
X500965Y74004126D01*
X501982Y74013158D01*
X512091Y74102876D01*
X515775Y74119012D01*
X547212Y74208857D01*
X554400Y74223782D01*
X605042Y74304379D01*
X615366Y74317325D01*
X682675Y74384634D01*
X695621Y74394958D01*
X776219Y74445601D01*
X791143Y74452788D01*
X880988Y74484225D01*
X897124Y74487909D01*
X986842Y74498018D01*
X995874Y74499035D01*
X1004159Y74499500D01*
X1065892Y74499500D01*
X36934108Y74499500D01*
X36995841Y74499500D01*
X37004126Y74499035D01*
G37*
%TD.AperFunction*%
%TD*%
M02*
